<svg width="850" height="850" viewBox="0 0 850 850" fill="none" xmlns="http://www.w3.org/2000/svg">
<path d="M849.001 452.974C847.688 464.323 846.9 475.295 844.942 486.053C841.709 503.815 838.728 521.727 833.779 539.044C828.306 558.194 821.279 576.96 813.949 595.506C804.311 619.892 790.877 642.378 775.854 663.768C765.889 677.956 754.963 691.548 743.592 704.647C733.263 716.545 722.118 727.804 710.678 738.654C691.267 757.064 669.832 772.987 646.765 786.505C631.866 795.236 616.546 803.324 601.017 810.883C576.82 822.662 551.373 831.224 525.083 836.862C507.729 840.584 490.119 843.135 472.588 845.989C450.436 849.596 428.026 849.938 405.757 848.727C387.34 847.726 368.985 844.792 350.722 841.948C317.622 836.793 285.836 827.084 255.094 813.678C229.911 802.697 206.189 789.165 183.56 773.775C167.26 762.69 151.73 750.49 137.831 736.363C127.392 725.751 116.475 715.592 106.343 704.699C90.9328 688.129 77.6195 669.869 65.9856 650.483C57.5177 636.374 49.154 622.126 41.9456 607.353C27.9436 578.657 17.0102 548.755 11.0505 517.281C7.8942 500.613 5.60525 483.779 3.00118 467.008C-0.483468 444.566 0.494652 421.915 1.33039 399.43C1.97843 381.996 5.42268 364.647 7.92869 347.304C12.2845 317.159 21.3053 288.242 33.2809 260.401C41.0526 242.333 50.4406 224.89 60.0992 207.728C67.2765 194.974 75.649 182.828 84.2427 170.956C90.9837 161.644 98.7491 153.055 106.304 144.357C111.521 138.352 117.122 132.677 122.61 126.911C144.621 103.786 169.192 83.7666 196.087 66.5963C233.121 42.9534 272.557 24.5661 315.336 14.1848C334.64 9.50039 354.306 6.07907 373.972 3.20333C386.336 1.39524 398.997 1.3757 411.538 1.07605C425.529 0.741726 439.574 0.331143 453.522 1.17614C469.217 2.127 484.96 3.69049 500.442 6.37371C516.151 9.09643 531.871 12.5652 547.036 17.4234C565.949 23.4825 584.606 30.594 602.824 38.5164C631.137 50.8296 657.191 67.2865 681.84 85.7834C692.902 94.0847 703.289 103.408 713.252 113.023C726.472 125.781 739.827 138.572 751.559 152.652C763.905 167.47 775.082 183.388 785.56 199.607C803.554 227.459 817.531 257.378 827.927 288.906C835.088 310.624 840.707 332.752 843.924 355.398C846.046 370.333 847.8 385.353 848.867 400.396C849.84 414.127 849.752 427.938 849.942 441.717C849.992 445.306 849.334 448.906 849.001 452.974ZM488.979 32.5653C484.763 32.0247 480.56 31.3436 476.329 30.9687C460.777 29.591 445.232 28.0599 429.652 27.1215C423.104 26.7271 416.469 27.5697 409.885 28.0198C396.083 28.9635 382.095 28.9124 368.539 31.2927C348.868 34.7466 329.257 39.1088 310.076 44.6572C272.771 55.4479 238.083 72.2849 205.825 93.8704C194.294 101.586 183.591 110.542 172.538 118.968C156.707 131.036 142.191 144.588 129.688 160.024C116.616 176.163 103.853 192.625 92.0403 209.696C74.6314 234.855 61.5735 262.405 51.4555 291.238C42.2247 317.543 34.6694 344.34 32.0203 372.247C30.5132 388.123 28.404 404.022 28.256 419.926C28.1028 436.384 29.5083 452.91 31.1426 469.316C32.4849 482.791 34.3533 496.319 37.3975 509.499C46.7707 550.079 61.4589 588.616 82.8644 624.542C101.579 655.953 123.791 684.461 150.097 709.878C168.587 727.743 188.581 743.648 210.176 757.507C236.097 774.141 263.31 788.201 292.554 798.222C312.142 804.935 331.811 811.262 352.391 814.047C371.227 816.597 390.07 819.756 409.008 820.73C432.757 821.952 456.654 821.783 480.163 816.985C499.787 812.98 519.602 809.587 538.876 804.269C568.219 796.173 595.754 783.548 622.268 768.443C647.7 753.954 670.997 736.638 692.853 717.416C710.908 701.537 726.709 683.358 741.205 664.176C759.274 640.267 774.473 614.592 786.963 587.316C796.275 566.979 803.813 545.983 809.234 524.338C812.951 509.494 815.451 494.318 817.913 479.196C819.756 467.877 821.56 456.427 821.812 445C822.314 422.173 822.96 399.267 819.002 376.597C815.975 359.258 813.857 341.686 809.575 324.66C804.074 302.792 796.64 281.402 786.929 260.971C774.018 233.808 759.355 207.693 740.645 183.94C727.182 166.85 713.653 149.901 697.111 135.619C687.157 127.025 677.648 117.846 667.195 109.91C643.645 92.0302 618.685 76.4049 591.651 64.1234C567.869 53.3196 543.364 44.754 518.053 38.5013C508.74 36.2006 499.207 34.7884 488.979 32.5653Z" fill="#DF7761"/>
<path d="M489.377 32.7682C499.207 34.7884 508.74 36.2006 518.053 38.5013C543.364 44.754 567.869 53.3196 591.651 64.1234C618.685 76.4049 643.645 92.0302 667.195 109.91C677.648 117.846 687.156 127.025 697.111 135.619C713.653 149.901 727.182 166.85 740.645 183.94C759.355 207.693 774.018 233.808 786.929 260.971C796.64 281.402 804.074 302.792 809.575 324.66C813.857 341.686 815.975 359.259 819.002 376.597C822.96 399.267 822.314 422.173 821.812 445C821.56 456.427 819.756 467.877 817.913 479.196C815.451 494.318 812.951 509.494 809.234 524.338C803.813 545.983 796.275 566.979 786.963 587.316C774.473 614.592 759.274 640.267 741.205 664.176C726.709 683.358 710.908 701.537 692.853 717.416C670.997 736.638 647.7 753.954 622.268 768.443C595.754 783.548 568.219 796.173 538.876 804.269C519.602 809.587 499.787 812.98 480.163 816.985C456.654 821.783 432.757 821.952 409.008 820.73C390.07 819.755 371.227 816.597 352.391 814.047C331.811 811.262 312.142 804.935 292.554 798.222C263.31 788.201 236.097 774.141 210.176 757.507C188.581 743.648 168.587 727.743 150.097 709.878C123.791 684.461 101.579 655.952 82.8644 624.542C61.4589 588.616 46.7706 550.079 37.3974 509.499C34.3533 496.319 32.4848 482.791 31.1425 469.316C29.5082 452.91 28.1028 436.384 28.256 419.926C28.404 404.022 30.5131 388.123 32.0202 372.247C34.6694 344.34 42.2246 317.543 51.4554 291.238C61.5734 262.405 74.6314 234.855 92.0402 209.696C103.853 192.625 116.616 176.163 129.688 160.024C142.191 144.588 156.707 131.036 172.538 118.968C183.591 110.542 194.294 101.586 205.825 93.8704C238.083 72.2849 272.771 55.4479 310.076 44.6572C329.257 39.1088 348.868 34.7466 368.539 31.2927C382.095 28.9124 396.083 28.9635 409.885 28.0198C416.469 27.5697 423.104 26.7271 429.652 27.1215C445.232 28.0599 460.777 29.591 476.329 30.9687C480.56 31.3436 484.763 32.0247 489.377 32.7682ZM106.554 192.101C96.9174 207.388 86.4433 222.22 77.8319 238.064C63.3834 264.649 52.3757 292.726 44.4895 322.043C36.882 350.324 32.6655 379.113 31.1735 408.239C30.0995 429.205 30.661 450.266 34.032 471.088C36.6088 487.004 38.9744 502.991 42.4916 518.71C47.9334 543.03 56.655 566.323 67.0203 588.97C83.0438 623.979 103.437 656.349 129.531 684.588C146.135 702.558 164.13 719.495 183.044 735.016C206.389 754.173 232.493 769.408 260.044 782.083C289.158 795.477 319.133 806.049 350.87 810.979C368.478 813.715 386.149 816.855 403.894 817.71C427.166 818.83 450.515 818.355 473.77 815.165C492.707 812.567 511.365 809.167 529.855 804.208C566.675 794.333 600.957 778.927 633.285 758.939C656.099 744.835 677.286 728.595 696.517 709.894C704.255 702.37 711.822 694.618 718.889 686.469C727.906 676.071 736.762 665.481 744.936 654.419C764.603 627.801 780.218 598.852 792.399 568.103C808.169 528.298 816.893 486.837 818.746 444.161C819.585 424.862 818.361 405.388 816.796 386.097C815.529 370.481 812.804 354.936 809.921 339.509C804.886 312.564 795.982 286.732 784.192 262.074C776.026 244.994 766.493 228.533 756.97 212.144C745.593 192.562 731.425 174.95 715.891 158.55C705.385 147.459 694.134 137.057 682.959 126.622C665.467 110.289 645.75 96.9387 625.271 84.6966C599.758 69.4451 572.715 57.3987 544.429 48.4788C522.994 41.7194 501.129 36.2724 478.644 33.9831C465.089 32.603 451.553 30.7552 437.961 30.1101C427.41 29.6093 416.772 30.4094 406.199 31.0604C394.55 31.7778 382.915 32.8265 371.303 34.0145C351.136 36.0778 331.315 40.3204 312.181 46.7584C293.101 53.1784 274.452 60.9645 255.867 68.7552C232.572 78.5206 211.368 92.0067 191.351 107.306C181.444 114.878 171.709 122.732 162.429 131.052C152.415 140.032 142.552 149.276 133.49 159.196C124.105 169.468 115.759 180.689 106.554 192.101Z" fill="black"/>
<path d="M106.757 191.798C115.759 180.689 124.105 169.468 133.49 159.196C142.552 149.276 152.415 140.032 162.429 131.052C171.709 122.732 181.444 114.878 191.351 107.306C211.368 92.0067 232.572 78.5206 255.867 68.7552C274.452 60.9645 293.101 53.1785 312.181 46.7584C331.315 40.3204 351.136 36.0778 371.303 34.0145C382.915 32.8266 394.55 31.7778 406.199 31.0605C416.772 30.4094 427.41 29.6093 437.961 30.1101C451.553 30.7552 465.089 32.603 478.644 33.9831C501.129 36.2724 522.994 41.7194 544.429 48.4788C572.715 57.3987 599.758 69.4451 625.271 84.6966C645.75 96.9387 665.467 110.289 682.959 126.622C694.134 137.057 705.385 147.459 715.891 158.55C731.425 174.95 745.593 192.562 756.97 212.144C766.493 228.533 776.026 244.994 784.193 262.074C795.982 286.732 804.886 312.564 809.921 339.509C812.804 354.936 815.529 370.481 816.796 386.097C818.361 405.388 819.585 424.862 818.746 444.161C816.893 486.837 808.169 528.298 792.399 568.103C780.218 598.852 764.603 627.801 744.936 654.419C736.762 665.481 727.906 676.071 718.889 686.469C711.822 694.618 704.255 702.37 696.517 709.894C677.286 728.595 656.099 744.835 633.285 758.939C600.957 778.927 566.676 794.333 529.855 804.208C511.365 809.167 492.707 812.568 473.77 815.165C450.515 818.355 427.166 818.83 403.894 817.71C386.149 816.856 368.478 813.715 350.87 810.979C319.134 806.049 289.158 795.477 260.044 782.083C232.494 769.408 206.389 754.173 183.044 735.016C164.13 719.495 146.135 702.558 129.531 684.588C103.438 656.349 83.0439 623.979 67.0204 588.97C56.655 566.323 47.9335 543.03 42.4917 518.71C38.9745 502.991 36.6089 487.004 34.0321 471.088C30.661 450.265 30.0996 429.205 31.1735 408.239C32.6655 379.113 36.8821 350.324 44.4896 322.043C52.3758 292.726 63.3834 264.649 77.832 238.064C86.4433 222.22 96.9175 207.388 106.757 191.798ZM749.687 630.568C750.129 629.36 750.571 628.151 750.988 626.985C750.988 626.985 750.952 627.018 751.521 627.652C753.351 624.082 755.18 620.512 756.984 616.984C756.984 616.984 756.949 617.019 757.53 617.627C766.684 598.883 776.626 580.474 784.778 561.304C793.609 540.536 799.819 518.764 803.33 496.389C805.865 480.231 809.1 464.027 809.702 447.757C810.684 421.208 811.335 394.486 805.957 368.191C802.283 350.229 798.797 332.182 793.996 314.507C786.598 287.264 775.363 261.472 761.386 236.93C757.877 230.769 753.804 224.929 750.022 218.985C750.022 218.985 750.055 219.028 749.997 218.354C749.326 217.55 748.656 216.745 748.02 215.984C748.02 215.984 748.055 216.028 747.999 215.354C747.328 214.55 746.657 213.745 746.02 212.983C746.02 212.983 746.054 213.026 745.997 212.353C745.327 211.549 744.656 210.744 744.02 209.983C744.02 209.983 744.055 210.026 743.988 209.354C743.32 208.549 742.652 207.744 742.019 206.981C742.019 206.981 742.053 207.021 741.953 206.091C741.122 205.728 740.292 205.364 739.306 204.85C739.306 204.85 738.991 204.554 739.835 204.119C738.887 202.726 737.939 201.333 737.023 199.983C737.023 199.983 737.054 200.026 736.998 199.353C736.327 198.548 735.656 197.744 735.019 196.981C735.019 196.981 735.053 197.022 734.996 196.34C733.993 195.207 732.991 194.074 732.021 192.985C732.021 192.985 732.055 193.028 731.996 192.315C730.999 191.024 730.003 189.734 728.848 188.306C728.848 188.306 728.558 188.002 728.082 187.439C727.056 186.107 726.03 184.774 724.846 183.305C724.846 183.305 724.558 183.002 724.082 182.44C723.057 181.108 722.031 179.775 720.695 178.177C720.316 177.784 719.937 177.392 719.028 176.483C718.02 175.136 717.013 173.789 715.695 172.176C715.315 171.784 714.936 171.391 714.094 170.431C711.894 168.287 709.694 166.143 707.095 163.975C706.728 163.829 706.361 163.682 706.817 163.071C700.213 156.196 693.608 149.321 686.844 142.305C686.844 142.305 686.555 141.992 686.019 141.521C683.347 139.162 680.674 136.803 677.843 134.303C677.843 134.303 677.555 133.992 677.015 133.516C675.011 131.825 673.006 130.134 670.843 128.302C670.843 128.302 670.555 127.992 670.019 127.519C668.34 126.329 666.66 125.139 665.019 123.98C665.019 123.98 665.059 124.011 664.839 123.366C663.552 122.565 662.265 121.763 661.013 120.985C661.013 120.985 661.045 121.013 660.883 120.343C656.915 117.544 652.948 114.745 649.02 111.978C649.02 111.978 649.06 112.009 648.805 111.366C645.53 109.227 642.255 107.088 639.019 104.979C639.019 104.979 639.059 105.011 638.82 104.352C634.864 102.232 630.907 100.112 626.99 98.0065C626.99 98.0065 627.015 98.0406 627.625 97.4686C624.41 95.6286 621.195 93.7887 618.019 91.9793C618.019 91.9793 618.058 92.0106 617.816 91.3471C598.796 79.8973 578.754 70.581 557.927 62.9683C531.735 53.3949 504.978 45.9982 477.165 42.9682C463.969 41.5306 450.772 39.7438 437.53 39.1745C425.976 38.6777 414.342 39.4011 402.772 40.075C391.316 40.7422 379.702 41.0432 368.501 43.249C348.899 47.1089 329.428 51.8156 310.146 57.0645C287.003 63.3643 265.415 73.7317 244.074 84.5169C240.512 86.3168 237.31 88.8277 233.982 90.9794C233.982 90.9794 234.022 90.9477 233.314 91.0034C231.858 92.0062 230.401 93.009 228.983 93.9824C228.983 93.9824 229.021 93.9523 228.311 93.9657C226.855 94.9808 225.398 95.996 223.981 96.981C223.981 96.981 224.02 96.9499 223.294 96.9969C220.843 98.668 218.393 100.339 215.981 101.98C215.981 101.98 216.02 101.948 215.21 102.018C214.802 102.693 214.394 103.367 214.01 104.008C214.01 104.008 214.049 103.994 213.559 103.337C212.353 104.227 211.146 105.117 209.983 105.976C209.983 105.976 210.025 105.942 209.359 106.045C208.552 106.702 207.746 107.358 206.979 107.982C206.979 107.982 207.019 107.948 206.288 108.017C204.521 109.691 202.753 111.366 201.009 113.006C201.009 113.006 201.048 112.992 200.52 112.325C198.007 114.568 195.495 116.811 193.019 119.017C193.019 119.017 193.063 118.99 192.53 118.373C191.001 119.585 189.471 120.797 187.982 121.979C187.982 121.979 188.02 121.948 187.33 122.004C185.867 123.339 184.404 124.675 182.982 125.979C182.982 125.979 183.022 125.947 182.313 126.008C180.691 127.336 179.068 128.664 177.258 130.344C177.175 130.73 177.092 131.117 176.237 131.344C174.491 133.064 172.744 134.785 170.754 136.757C170.506 137.006 170.257 137.254 169.252 137.334C165.65 140.553 162.048 143.772 158.035 147.448C154.688 150.781 151.34 154.113 147.523 157.979C144.497 161.318 141.472 164.657 138.176 168.306C137.782 168.686 137.387 169.065 136.501 169.995C135.168 172 133.835 174.004 132.255 176.258C132.005 176.504 131.756 176.751 130.758 176.966C129.488 178.651 128.218 180.336 126.98 181.981C126.98 181.981 127.011 181.941 126.368 182.162C125.228 183.781 124.088 185.401 122.979 186.981C122.979 186.981 123.009 186.942 122.323 187.196C121.545 188.819 120.767 190.441 120.017 192.019C120.017 192.019 120.055 191.983 119.501 191.366C117.665 194.26 115.828 197.154 114.006 200.009C114.006 200.009 114.041 199.986 113.49 199.373C111.976 201.588 110.462 203.804 108.982 205.979C108.982 205.979 109.014 205.939 108.379 206.16C107.9 207.115 107.421 208.07 106.976 208.983C106.976 208.983 107.008 208.939 106.306 209.243C105.868 210.512 105.431 211.78 105.008 213.01C105.008 213.01 105.042 212.986 104.466 212.376C103.96 213.257 103.454 214.138 102.98 214.981C102.98 214.981 103.011 214.942 102.349 215.174C100.883 217.789 99.4165 220.404 97.9813 222.981C97.9813 222.981 98.0115 222.942 97.3496 223.167C96.5505 224.785 95.7515 226.403 94.9826 227.983C94.9826 227.983 95.0122 227.944 94.3426 228.148C93.5444 229.773 92.7461 231.397 91.9797 232.982C91.9797 232.982 92.0104 232.941 91.3426 233.18C89.2207 236.832 86.8066 240.348 85.0291 244.16C78.3635 258.457 71.1942 272.578 65.5739 287.284C60.1357 301.514 55.7737 316.234 52.0477 331.018C48.5904 344.735 46.1865 358.761 44.0818 372.765C42.1844 385.39 40.6482 398.145 40.1499 410.889C39.272 433.347 40.1107 455.806 44.0328 478.013C46.616 492.639 48.7642 507.412 52.528 521.746C60.3201 551.421 71.7263 579.79 86.3244 606.815C88.6081 611.043 91.4371 614.977 93.9861 619.014C93.9861 619.014 93.9617 618.979 93.9364 619.719C94.8836 621.572 95.6146 623.585 96.8327 625.24C98.3641 627.32 100.294 629.106 102.016 630.984C102.016 630.984 101.991 630.941 101.299 631.458C102.312 633.302 103.113 635.311 104.389 636.95C106.083 639.124 108.147 641.009 110.016 642.984C110.016 642.984 109.991 642.942 109.298 643.445C111.927 647.496 114.441 651.631 117.257 655.548C118.078 656.689 119.762 657.21 121.015 657.983C121.015 657.983 120.99 657.942 120.284 658.469C121.873 659.985 123.462 661.501 125.015 662.984C125.015 662.984 124.991 662.942 124.285 663.467C125.874 664.984 127.462 666.5 129.015 667.984C129.015 667.984 128.99 667.941 128.283 668.473C130.374 670.315 132.465 672.156 134.701 674.153C134.701 674.153 135.009 674.446 134.166 674.893C136.444 677.775 138.723 680.657 141.35 683.73C141.734 683.817 142.119 683.904 142.279 684.741C149.449 692.163 156.593 699.609 163.849 706.945C164.303 707.404 165.632 706.996 166.699 707.149C166.699 707.149 167.004 707.448 166.171 707.93C168.503 710.59 169.755 714.745 174.827 714.299C175.218 714.681 175.609 715.064 175.247 716.151C177.017 717.099 178.787 718.046 180.828 719.3C181.218 719.68 181.608 720.06 181.245 721.146C183.016 722.096 184.787 723.046 186.701 724.15C186.701 724.15 187.002 724.443 186.213 725.038C187.829 726.03 189.446 727.023 191.017 727.986C191.017 727.986 190.979 727.947 190.378 728.599C191.938 729.402 193.499 730.206 195.016 730.984C195.016 730.984 194.982 730.948 194.314 731.558C195.896 732.376 197.478 733.194 199.016 733.984C199.016 733.984 198.979 733.947 198.374 734.599C199.936 735.403 201.498 736.207 203.013 736.983C203.013 736.983 202.976 736.945 202.432 737.684C203.641 738.128 204.851 738.571 206.013 738.984C206.013 738.984 205.973 738.944 205.487 739.709C206.678 740.144 207.87 740.579 209.017 740.985C209.017 740.985 208.981 740.948 208.388 741.529C211.612 743.356 214.835 745.183 218.012 746.982C218.012 746.982 217.973 746.944 217.484 747.707C218.677 748.142 219.869 748.578 221.017 748.985C221.017 748.985 220.981 748.947 220.39 749.542C221.267 750.041 222.143 750.54 222.986 751.015C222.986 751.015 222.953 750.988 223.15 751.66C246.036 766.314 270.477 777.799 295.999 786.978C322.155 796.384 348.951 803.312 376.686 806.008C393.035 807.598 409.415 809.174 425.818 809.81C435.3 810.177 444.901 809.046 454.368 807.913C471.408 805.875 488.551 804.161 505.357 800.828C543.187 793.324 578.623 779.001 612.504 760.754C614.598 759.626 616.192 757.572 617.984 755.984C617.984 755.984 617.942 756.009 618.461 756.713C621.989 754.471 625.517 752.228 629.014 750.014C629.014 750.014 628.98 750.039 629.799 750.045C630.205 749.346 630.612 748.647 630.983 747.985C630.983 747.985 630.939 748.013 631.578 748.679C632.393 747.768 633.209 746.857 633.986 745.984C633.986 745.984 633.939 746.013 634.578 746.68C635.394 745.768 636.209 744.857 636.986 743.984C636.986 743.984 636.94 744.013 637.56 744.686C638.383 743.772 639.205 742.858 639.987 741.984C639.987 741.984 639.939 742.014 640.586 742.665C641.399 741.759 642.212 740.852 642.986 739.985C642.986 739.985 642.939 740.014 643.597 740.67C644.405 739.762 645.214 738.854 645.985 737.985C645.985 737.985 645.939 738.014 646.568 738.644C647.718 737.412 648.869 736.18 649.984 734.983C649.984 734.983 649.941 735.007 650.405 735.696C651.624 734.795 652.843 733.893 654.021 733.022C654.021 733.022 653.981 733.054 654.832 732.945C655.554 731.778 656.277 730.611 657.151 729.301C657.151 729.301 657.439 728.999 658.246 729.757C659.165 728.657 660.084 727.557 661.302 726.177C661.681 725.784 662.06 725.392 663.25 725.755C664.168 724.652 665.085 723.548 666.306 722.169C666.686 721.777 667.065 721.385 667.933 721.831C669.623 720.385 671.313 718.94 673.029 717.098C673.167 716.73 673.305 716.362 674.004 716.822C675.669 715.029 677.334 713.236 679.153 711.297C679.153 711.297 679.445 710.991 679.892 711.834C684.114 708.225 688.336 704.617 692.774 700.573C693.18 699.881 693.585 699.189 694.773 698.699C696.347 696.797 697.922 694.894 699.981 692.905C700.656 692.456 701.332 692.007 702.437 690.99C705.109 688.345 707.936 685.833 710.376 682.989C711.353 681.85 711.478 679.981 712.147 678.302C712.147 678.302 712.443 677.999 713.024 678.816C715.341 677.311 718.021 676.032 717.3 672.172C717.681 671.781 718.062 671.391 719.125 671.791C720.082 670.008 721.039 668.225 722.301 666.17C722.683 665.781 723.064 665.392 724.278 665.74C724.852 664.306 725.425 662.873 726.305 661.167C726.689 660.779 727.073 660.391 728.291 660.735C728.86 659.303 729.43 657.871 730.153 656.298C730.153 656.298 730.444 655.999 730.953 656.791C731.987 655.521 733.02 654.251 734.022 653.021C734.022 653.021 733.991 653.062 734.695 652.752C735.133 651.481 735.57 650.211 735.983 648.984C735.983 648.984 735.947 649.019 736.576 649.641C737.389 648.074 738.202 646.507 738.985 644.985C738.985 644.985 738.946 645.023 739.672 645.594C740.119 644.375 740.567 643.157 740.984 641.986C740.984 641.986 740.945 642.024 741.684 642.569C742.127 641.359 742.57 640.149 742.984 638.987C742.984 638.987 742.944 639.027 743.706 639.518C744.141 638.325 744.577 637.133 744.984 635.986C744.984 635.986 744.945 636.024 745.686 636.568C746.128 635.358 746.571 634.149 746.984 632.986C746.984 632.986 746.945 633.024 747.686 633.568C748.128 632.358 748.571 631.149 748.984 629.986C748.984 629.986 748.945 630.024 749.687 630.568Z" fill="#E0765F"/>
<path d="M147.992 157.445C151.34 154.113 154.687 150.781 158.464 147.644C162.598 144.394 166.304 140.948 170.009 137.503C170.257 137.254 170.506 137.006 171.259 136.734C173.513 134.975 175.261 133.239 177.009 131.503C177.092 131.117 177.175 130.73 177.598 130.589C179.632 129.205 181.327 127.576 183.022 125.947C183.022 125.947 182.982 125.979 183.227 126.341C184.988 125.119 186.504 123.533 188.02 121.948C188.02 121.948 187.982 121.979 188.195 122.339C189.96 121.463 191.511 120.226 193.063 118.99C193.063 118.99 193.019 119.017 193.356 118.987C196.145 116.968 198.596 114.98 201.048 112.992C201.048 112.992 201.009 113.006 201.369 113.036C203.492 111.36 205.256 109.654 207.019 107.948C207.019 107.948 206.979 107.982 207.279 108.331C208.394 107.768 209.21 106.855 210.025 105.942C210.025 105.942 209.983 105.976 210.195 106.338C211.621 105.798 212.835 104.896 214.049 103.994C214.049 103.994 214.01 104.008 214.407 104.027C215.209 103.347 215.614 102.648 216.02 101.948C216.02 101.948 215.981 101.98 216.222 102.348C218.981 100.794 221.5 98.8718 224.019 96.9499C224.019 96.9499 223.981 96.981 224.238 97.3538C226.003 96.4685 227.512 95.2104 229.021 93.9523C229.021 93.9523 228.983 93.9824 229.239 94.354C231.004 93.4664 232.513 92.2071 234.022 90.9477C234.022 90.9477 233.982 90.9794 234.222 91.3476C235.661 91.1635 236.859 90.6079 238.06 90.0593C257.473 81.1919 276.57 71.5227 296.393 63.6883C315.531 56.1241 335.522 50.8248 356.017 47.9629C370.906 45.8839 385.777 43.5026 400.738 42.1789C410.821 41.2869 421.054 41.7467 431.205 42.0665C443.22 42.445 455.274 42.824 467.213 44.1168C480.856 45.5941 494.568 47.2794 507.936 50.2761C544.862 58.5537 580.024 71.7197 613.031 90.413C614.528 91.261 616.374 91.4922 618.058 92.0106C618.058 92.0106 618.019 91.9793 617.695 92.2552C620.586 94.3675 623.8 96.204 627.015 98.0406C627.015 98.0406 626.99 98.0065 627.069 98.3342C631.119 100.778 635.089 102.895 639.059 105.011C639.059 105.011 639.019 104.979 638.702 105.252C641.943 107.686 645.502 109.848 649.06 112.009C649.06 112.009 649.02 111.978 648.703 112.244C652.606 115.345 656.825 118.179 661.045 121.013C661.045 121.013 661.013 120.985 660.701 121.302C661.946 122.417 663.502 123.214 665.059 124.011C665.059 124.011 665.019 123.98 664.666 124.275C666.393 125.71 668.474 126.851 670.555 127.992C670.555 127.992 670.843 128.302 670.534 128.651C672.33 131.16 673.15 135.209 677.555 133.992C677.555 133.992 677.843 134.303 677.538 134.628C678.798 136.8 680.168 138.883 682.002 140.407C683.16 141.368 685.013 141.492 686.555 141.992C686.555 141.992 686.844 142.305 686.511 142.603C692.783 149.779 699.389 156.658 705.994 163.536C706.361 163.682 706.728 163.829 707.192 164.371C709.711 166.844 712.134 168.921 714.557 170.999C714.936 171.391 715.315 171.784 715.416 172.615C716.611 174.369 718.085 175.684 719.558 177C719.937 177.392 720.316 177.784 720.416 178.615C721.611 180.369 723.085 181.685 724.558 183.002C724.558 183.002 724.846 183.305 724.522 183.7C725.652 185.397 727.105 186.699 728.558 188.002C728.558 188.002 728.848 188.306 728.51 188.64C729.467 190.326 730.761 191.677 732.055 193.028C732.055 193.028 732.021 192.985 731.663 193.246C732.554 194.679 733.803 195.851 735.053 197.022C735.053 197.022 735.019 196.981 734.676 197.283C735.24 198.399 736.147 199.212 737.054 200.026C737.054 200.026 737.023 199.983 736.655 200.216C737.189 201.818 738.09 203.186 738.991 204.554C738.991 204.554 739.306 204.85 739.583 205.292C740.592 206.163 741.323 206.592 742.053 207.021C742.053 207.021 742.019 206.981 741.676 207.283C742.24 208.399 743.148 209.212 744.055 210.026C744.055 210.026 744.02 209.983 743.669 210.279C744.23 211.393 745.142 212.209 746.054 213.026C746.054 213.026 746.02 212.983 745.666 213.271C746.226 214.382 747.14 215.205 748.055 216.028C748.055 216.028 748.02 215.984 747.673 216.276C748.236 217.388 749.145 218.208 750.055 219.028C750.055 219.028 750.022 218.985 749.66 219.223C750.326 221.325 751.405 223.162 752.374 225.056C761.078 242.071 770.641 258.714 778.248 276.207C789.737 302.626 797.657 330.198 802.24 358.798C805.552 379.467 807.815 400.14 807.932 421.031C807.991 431.626 807.392 442.227 806.974 452.82C806.779 457.756 806.765 462.765 805.876 467.595C802.426 486.324 799.077 505.089 794.899 523.663C790.028 545.316 781.893 565.916 772.46 585.969C767.537 596.435 762.135 606.676 756.949 617.019C756.949 617.019 756.984 616.984 756.663 617.078C754.546 620.454 752.749 623.736 750.952 627.018C750.952 627.018 750.988 626.985 750.675 627.056C749.89 628.094 749.418 629.059 748.945 630.024C748.945 630.024 748.984 629.986 748.679 630.07C747.898 631.111 747.421 632.068 746.945 633.024C746.945 633.024 746.984 632.986 746.679 633.07C745.898 634.111 745.421 635.068 744.945 636.024C744.945 636.024 744.984 635.986 744.678 636.07C743.897 637.112 743.421 638.069 742.944 639.027C742.944 639.027 742.984 638.987 742.679 639.07C741.898 640.11 741.421 641.067 740.945 642.024C740.945 642.024 740.984 641.986 740.679 642.069C739.898 643.11 739.422 644.066 738.946 645.023C738.946 645.023 738.985 644.985 738.677 645.069C737.562 646.442 736.754 647.731 735.947 649.019C735.947 649.019 735.983 648.984 735.638 649.104C734.859 650.503 734.425 651.782 733.991 653.062C733.991 653.062 734.022 653.021 733.751 652.691C732.468 653.574 731.456 654.787 730.444 655.999C730.444 655.999 730.153 656.298 729.829 656.644C728.822 657.995 728.14 658.999 727.457 660.004C727.073 660.391 726.689 660.779 725.902 661.581C724.815 662.997 724.13 664 723.445 665.003C723.064 665.392 722.683 665.781 721.904 666.58C720.485 668.327 719.464 669.664 718.443 671.001C718.062 671.391 717.681 671.781 716.905 672.579C715.155 674.658 713.799 676.328 712.443 677.999C712.443 677.999 712.147 678.302 711.833 678.638C708.875 681.626 706.076 684.146 703.661 686.992C702.68 688.149 702.534 690.015 702.007 691.558C701.332 692.007 700.656 692.456 699.362 692.941C697.159 694.817 695.575 696.657 693.991 698.497C693.585 699.189 693.18 699.881 692.422 700.387C687.861 703.798 683.653 707.395 679.445 710.991C679.445 710.991 679.153 711.297 678.794 711.602C676.771 713.269 675.107 714.632 673.444 715.994C673.305 716.362 673.167 716.73 672.631 717.239C670.637 718.585 669.041 719.788 667.445 720.993C667.065 721.385 666.686 721.777 665.87 722.549C664.436 723.619 663.438 724.309 662.439 724.999C662.06 725.392 661.681 725.784 660.833 726.504C659.389 727.554 658.414 728.276 657.439 728.999C657.439 728.999 657.151 729.301 656.756 729.609C655.568 730.963 654.774 732.008 653.981 733.054C653.981 733.054 654.021 733.022 653.796 732.676C652.361 733.222 651.151 734.115 649.941 735.007C649.941 735.007 649.984 734.983 649.661 734.992C648.204 736.006 647.072 737.01 645.939 738.014C645.939 738.014 645.985 737.985 645.667 737.991C644.546 738.67 643.742 739.342 642.939 740.014C642.939 740.014 642.986 739.985 642.669 739.993C641.547 740.672 640.743 741.343 639.939 742.014C639.939 742.014 639.987 741.984 639.67 741.993C638.549 742.672 637.744 743.342 636.94 744.013C636.94 744.013 636.986 743.984 636.669 743.993C635.548 744.672 634.743 745.343 633.939 746.013C633.939 746.013 633.986 745.984 633.669 745.993C632.547 746.673 631.743 747.343 630.939 748.013C630.939 748.013 630.983 747.985 630.596 748.002C629.799 748.692 629.39 749.365 628.98 750.039C628.98 750.039 629.014 750.014 628.763 749.662C624.989 751.543 621.465 753.776 617.942 756.009C617.942 756.009 617.984 755.984 617.633 755.991C616.968 756.081 616.63 756.115 616.345 756.255C600.234 764.15 584.502 772.97 567.933 779.744C543.205 789.852 517.665 797.736 490.976 801.044C474.075 803.139 457.19 805.674 440.217 806.781C428.023 807.575 415.67 806.716 403.434 805.9C390.358 805.029 377.19 804.152 364.327 801.816C346.605 798.597 328.905 794.796 311.603 789.824C284.301 781.977 258.385 770.576 233.897 756.041C230.46 754.001 226.611 752.655 222.953 750.988C222.953 750.988 222.985 751.015 223.306 750.737C222.744 749.956 221.863 749.451 220.981 748.947C220.981 748.947 221.017 748.985 220.931 748.679C219.888 747.897 218.931 747.421 217.973 746.944C217.973 746.944 218.012 746.982 217.919 746.666C214.878 744.55 211.93 742.749 208.981 740.948C208.981 740.948 209.017 740.985 208.931 740.679C207.888 739.897 206.931 739.421 205.973 738.944C205.973 738.944 206.013 738.984 205.93 738.679C204.89 737.898 203.933 737.421 202.976 736.945C202.976 736.945 203.013 736.983 202.926 736.675C201.553 735.561 200.266 734.754 198.979 733.947C198.979 733.947 199.015 733.984 198.929 733.676C197.555 732.561 196.269 731.755 194.982 730.948C194.982 730.948 195.016 730.984 194.929 730.676C193.554 729.56 192.267 728.753 190.979 727.947C190.979 727.947 191.017 727.986 190.924 727.67C189.555 726.384 188.278 725.414 187.002 724.443C187.002 724.443 186.701 724.15 186.355 723.828C184.672 722.484 183.335 721.462 181.998 720.44C181.608 720.06 181.218 719.68 180.418 718.902C178.672 717.485 177.336 716.466 175.999 715.446C175.609 715.064 175.218 714.681 174.422 713.909C171.68 711.495 169.342 709.472 167.004 707.448C167.004 707.448 166.699 707.149 166.36 706.836C162.857 703.358 159.751 700.131 156.513 697.043C151.894 692.639 147.178 688.337 142.503 683.991C142.119 683.904 141.734 683.817 141.582 683.394C139.545 680.187 137.277 677.316 135.009 674.446C135.009 674.446 134.701 674.153 134.394 673.803C132.388 671.615 130.689 669.778 128.99 667.941C128.99 667.941 129.015 667.984 129.006 667.655C127.661 665.865 126.326 664.403 124.99 662.942C124.99 662.942 125.015 662.984 125.006 662.655C123.661 660.865 122.326 659.403 120.99 657.942C120.99 657.942 121.015 657.983 121.005 657.642C117.328 652.514 113.659 647.728 109.991 642.942C109.991 642.942 110.016 642.984 110.005 642.64C107.326 638.511 104.659 634.726 101.991 630.941C101.991 630.941 102.016 630.984 102.007 630.636C100.821 628.19 99.8022 625.98 98.4221 624.026C97.1348 622.203 95.4638 620.651 93.9617 618.979C93.9617 618.979 93.9861 619.014 94.3393 618.76C94.2516 617.618 93.793 616.739 93.3722 615.842C84.2446 596.383 74.2177 577.284 66.228 557.367C56.449 532.991 49.7061 507.571 47.0181 481.309C45.0612 462.191 43.4518 443.031 42.1175 423.86C41.6964 417.81 42.5449 411.653 43.0249 405.562C43.9556 393.755 44.2487 381.824 46.2426 370.19C49.1633 353.149 52.7633 336.173 57.1259 319.444C64.0788 292.781 74.3855 267.365 87.8958 243.28C89.6946 240.074 90.6594 236.399 92.0104 232.941C92.0104 232.941 91.9797 232.982 92.2854 233.308C93.3981 231.737 94.2051 229.841 95.0121 227.944C95.0121 227.944 94.9826 227.983 95.281 228.322C96.3902 226.754 97.2008 224.848 98.0115 222.942C98.0115 222.942 97.9812 222.981 98.2533 223.318C100.02 220.751 101.515 217.846 103.01 214.942C103.01 214.942 102.98 214.981 103.255 215.305C104.034 214.747 104.538 213.866 105.042 212.986C105.042 212.986 105.008 213.01 105.367 212.908C106.153 211.517 106.58 210.228 107.008 208.939C107.008 208.939 106.976 208.983 107.329 209.279C108.126 208.363 108.57 207.151 109.014 205.939C109.014 205.939 108.982 205.979 109.244 206.305C111.018 204.416 112.529 202.201 114.041 199.986C114.041 199.986 114.006 200.009 114.335 199.942C116.461 197.244 118.258 194.614 120.055 191.983C120.055 191.983 120.017 192.019 120.342 191.898C121.448 190.165 122.229 188.554 123.009 186.942C123.009 186.942 122.979 186.981 123.261 187.31C124.699 185.74 125.855 183.841 127.011 181.941C127.011 181.941 126.98 181.981 127.261 182.3C128.863 180.745 130.184 178.871 131.506 176.997C131.756 176.751 132.005 176.504 132.781 176.122C134.535 173.805 135.763 171.625 136.992 169.445C137.387 169.065 137.782 168.686 138.554 168.543C141.78 166.172 144.732 163.664 147.4 160.883C148.067 160.188 147.819 158.615 147.992 157.445ZM456.958 320.726C456.787 321.429 456.615 322.133 455.986 323.018C455.971 323.676 455.956 324.334 455.903 325.781C455.101 329.469 454.298 333.157 453.027 337.016C453.005 337.676 452.984 338.336 452.936 339.723C452.758 340.425 452.58 341.127 451.953 342.017C451.941 342.675 451.928 343.332 451.881 344.763C451.436 346.793 450.992 348.824 450.069 351.015C450.037 351.676 450.006 352.336 449.946 353.723C449.782 354.428 449.618 355.132 448.993 356.014C448.972 356.673 448.951 357.332 448.896 358.779C448.102 362.469 447.308 366.158 446.041 370.011C446.01 370.672 445.979 371.333 445.925 372.72C445.758 373.424 445.59 374.128 444.97 375.013C444.947 375.671 444.925 376.33 444.877 377.762C444.438 379.793 443.999 381.825 443.08 384.014C443.043 384.675 443.006 385.336 442.944 386.722C442.792 387.428 442.639 388.135 442.019 389.01C441.987 389.67 441.955 390.33 441.895 391.785C441.111 395.474 440.326 399.163 439.065 403.011C439.024 403.671 438.983 404.332 438.909 405.798C437.779 411.148 436.649 416.498 435.046 422.009C435.002 422.669 434.959 423.329 434.888 424.794C432.775 434.814 430.661 444.834 428.071 455.008C428.018 455.669 427.965 456.329 427.883 457.796C418.456 502.486 409.028 547.175 399.117 592.008C399.043 592.667 398.97 593.327 398.861 594.794C397.234 602.723 395.607 610.652 393.81 619.409C399.025 619.409 403.71 619.409 408.757 619.409C408.09 623.273 407.561 626.341 406.915 630.085C408.831 630.085 410.447 630.085 412.063 630.085C431.891 630.085 451.723 629.918 471.547 630.215C475.943 630.281 477.15 628.672 477.923 624.802C482.167 603.568 486.643 582.381 491.067 561.183C491.594 558.656 492.285 556.164 492.9 553.655C493.184 553.707 493.469 553.758 493.754 553.809C493.148 575.489 492.543 597.169 491.922 619.375C496.717 619.375 500.641 619.375 505.072 619.375C505.072 623.121 505.072 626.36 505.072 629.834C528.35 629.834 551.104 629.834 574.265 629.834C574.36 627.815 574.492 626.018 574.525 624.219C575.552 567.078 576.602 509.937 577.506 452.793C577.56 449.389 578.839 447.491 581.37 445.424C585.601 441.968 589.72 438.217 593.188 434.015C606.658 417.693 615.456 398.869 621.115 378.632C627.561 355.583 631.975 332.208 629.067 308.074C627.405 294.278 623.724 281.123 613.942 270.748C608.606 265.089 602.524 260.059 596.374 255.263C591.173 251.207 585.723 247.188 579.797 244.396C565.826 237.811 550.717 236.255 535.444 236.204C516.782 236.142 498.118 236.277 479.458 236.096C475.915 236.062 474.516 237.115 473.893 240.625C472.566 248.105 472.328 248.092 464.626 246.361C465.613 243.119 466.595 239.89 467.725 236.179C465.413 236.179 463.767 236.179 462.12 236.179C443.125 236.179 424.127 236.33 405.135 236.072C400.463 236.008 398.246 237.209 396.654 241.92C384.442 278.032 371.884 314.027 359.421 350.053C358.881 351.613 358.216 353.13 357.609 354.666C357.205 354.545 356.801 354.424 356.397 354.303C359.196 318.726 361.995 283.15 364.837 247.019C359.87 247.019 355.608 247.019 351.119 247.019C351.366 243.255 351.579 240.01 351.812 236.46C328.941 236.46 306.541 236.46 283.575 236.46C275.923 364.065 268.284 491.451 260.618 619.304C265.628 619.304 269.573 619.304 274.069 619.304C274.069 623.061 274.069 626.431 274.069 630.085C294.777 630.085 314.922 629.928 335.062 630.203C339.753 630.267 341.96 628.946 343.587 624.413C357.585 585.423 371.838 546.523 386.043 507.607C408.997 444.719 431.973 381.839 455.486 319.143C455.986 319.428 456.486 319.714 456.958 320.726Z" fill="#DF7861"/>
<path d="M223.052 751.324C226.611 752.655 230.46 754.001 233.897 756.041C258.385 770.576 284.301 781.977 311.603 789.824C328.905 794.796 346.605 798.597 364.327 801.816C377.19 804.152 390.358 805.029 403.434 805.9C415.67 806.716 428.023 807.575 440.217 806.781C457.19 805.674 474.075 803.139 490.976 801.044C517.665 797.736 543.205 789.852 567.933 779.744C584.502 772.97 600.234 764.15 616.345 756.255C616.63 756.115 616.968 756.081 617.65 755.973C616.192 757.572 614.598 759.626 612.504 760.754C578.623 779.001 543.187 793.324 505.357 800.828C488.551 804.161 471.408 805.875 454.368 807.913C444.901 809.046 435.3 810.177 425.818 809.81C409.415 809.174 393.035 807.598 376.685 806.008C348.951 803.312 322.155 796.384 295.999 786.978C270.477 777.799 246.036 766.314 223.052 751.324Z" fill="black"/>
<path d="M757.24 617.323C762.135 606.676 767.537 596.435 772.46 585.969C781.893 565.916 790.028 545.316 794.899 523.663C799.077 505.089 802.426 486.324 805.876 467.595C806.765 462.765 806.779 457.756 806.974 452.82C807.392 442.227 807.991 431.626 807.932 421.031C807.815 400.14 805.552 379.467 802.24 358.798C797.657 330.198 789.737 302.626 778.248 276.207C770.641 258.714 761.078 242.071 752.374 225.056C751.405 223.162 750.326 221.325 749.644 219.201C753.804 224.929 757.877 230.769 761.386 236.93C775.363 261.472 786.598 287.264 793.996 314.507C798.797 332.182 802.283 350.229 805.957 368.191C811.335 394.486 810.684 421.208 809.702 447.757C809.1 464.027 805.865 480.231 803.33 496.389C799.819 518.764 793.609 540.536 784.778 561.304C776.626 580.474 766.684 598.883 757.24 617.323Z" fill="black"/>
<path d="M617.937 91.6789C616.374 91.4921 614.528 91.261 613.031 90.413C580.024 71.7197 544.862 58.5536 507.936 50.2761C494.568 47.2794 480.856 45.5941 467.213 44.1168C455.274 42.824 443.22 42.445 431.205 42.0665C421.054 41.7467 410.821 41.2869 400.738 42.1789C385.777 43.5026 370.906 45.8839 356.017 47.9629C335.522 50.8248 315.531 56.124 296.393 63.6883C276.57 71.5227 257.473 81.1918 238.06 90.0593C236.859 90.6079 235.661 91.1635 234.201 91.3629C237.31 88.8277 240.512 86.3168 244.073 84.5169C265.415 73.7317 287.003 63.3643 310.146 57.0644C329.428 51.8156 348.899 47.1089 368.501 43.249C379.702 41.0432 391.316 40.7422 402.772 40.075C414.342 39.4011 425.976 38.6777 437.53 39.1745C450.772 39.7438 463.969 41.5306 477.165 42.9682C504.978 45.9982 531.735 53.3949 557.927 62.9683C578.754 70.581 598.796 79.8973 617.937 91.6789Z" fill="black"/>
<path d="M91.6764 233.061C90.6594 236.399 89.6946 240.074 87.8958 243.28C74.3855 267.365 64.0788 292.781 57.1259 319.444C52.7633 336.173 49.1633 353.149 46.2426 370.19C44.2487 381.824 43.9556 393.755 43.0249 405.562C42.5449 411.653 41.6964 417.81 42.1175 423.86C43.4518 443.031 45.0612 462.191 47.0181 481.309C49.7061 507.571 56.449 532.991 66.228 557.367C74.2176 577.284 84.2446 596.383 93.3722 615.842C93.793 616.739 94.2516 617.618 94.3533 618.776C91.4371 614.977 88.6081 611.043 86.3244 606.815C71.7263 579.79 60.3201 551.421 52.5279 521.746C48.7642 507.412 46.6159 492.639 44.0328 478.013C40.1107 455.806 39.2719 433.347 40.1499 410.889C40.6481 398.145 42.1844 385.391 44.0818 372.765C46.1864 358.761 48.5904 344.735 52.0477 331.018C55.7737 316.234 60.1356 301.514 65.5738 287.284C71.1942 272.578 78.3635 258.457 85.029 244.16C86.8066 240.348 89.2207 236.832 91.6764 233.061Z" fill="black"/>
<path d="M142.391 684.366C147.178 688.337 151.894 692.639 156.513 697.043C159.751 700.131 162.857 703.358 166.288 706.757C165.632 706.996 164.303 707.404 163.849 706.945C156.593 699.609 149.449 692.163 142.391 684.366Z" fill="black"/>
<path d="M706.406 163.304C699.389 156.658 692.783 149.779 686.591 142.674C693.608 149.321 700.213 156.196 706.406 163.304Z" fill="black"/>
<path d="M109.644 643.193C113.659 647.728 117.328 652.514 121.023 657.658C119.762 657.21 118.078 656.689 117.257 655.548C114.441 651.631 111.927 647.496 109.644 643.193Z" fill="black"/>
<path d="M679.668 711.413C683.653 707.395 687.861 703.798 692.314 700.604C688.336 704.617 684.114 708.225 679.668 711.413Z" fill="black"/>
<path d="M702.222 691.274C702.534 690.015 702.68 688.149 703.661 686.992C706.076 684.146 708.875 681.626 711.755 678.71C711.478 679.981 711.353 681.85 710.376 682.989C707.936 685.833 705.109 688.345 702.222 691.274Z" fill="black"/>
<path d="M660.964 120.678C656.825 118.179 652.606 115.345 648.683 112.228C652.948 114.745 656.915 117.544 660.964 120.678Z" fill="black"/>
<path d="M169.63 137.419C166.304 140.948 162.598 144.394 158.669 147.415C162.048 143.772 165.65 140.553 169.63 137.419Z" fill="black"/>
<path d="M101.645 631.2C104.659 634.726 107.326 638.511 110.023 642.657C108.147 641.009 106.083 639.124 104.389 636.95C103.113 635.311 102.312 633.302 101.645 631.2Z" fill="black"/>
<path d="M93.949 619.349C95.4638 620.651 97.1348 622.203 98.4221 624.026C99.8022 625.98 100.821 628.19 102.025 630.653C100.294 629.106 98.364 627.32 96.8326 625.24C95.6145 623.585 94.8836 621.572 93.949 619.349Z" fill="black"/>
<path d="M147.757 157.712C147.819 158.615 148.067 160.188 147.4 160.883C144.732 163.664 141.78 166.172 138.689 168.388C141.472 164.657 144.497 161.318 147.757 157.712Z" fill="black"/>
<path d="M638.939 104.682C635.089 102.895 631.119 100.778 627.05 98.327C630.907 100.112 634.864 102.232 638.939 104.682Z" fill="black"/>
<path d="M648.933 111.688C645.502 109.848 641.943 107.686 638.682 105.237C642.255 107.088 645.53 109.227 648.933 111.688Z" fill="black"/>
<path d="M618.201 756.361C621.465 753.776 624.989 751.542 628.779 749.647C625.517 752.228 621.989 754.471 618.201 756.361Z" fill="black"/>
<path d="M686.287 141.756C685.013 141.492 683.16 141.368 682.002 140.407C680.168 138.883 678.798 136.8 677.617 134.698C680.674 136.803 683.347 139.162 686.287 141.756Z" fill="black"/>
<path d="M751.237 627.335C752.749 623.736 754.546 620.454 756.676 617.057C755.18 620.512 753.351 624.082 751.237 627.335Z" fill="black"/>
<path d="M627.32 97.7545C623.8 96.204 620.586 94.3675 617.676 92.2398C621.195 93.7887 624.41 95.6286 627.32 97.7545Z" fill="black"/>
<path d="M208.684 741.239C211.93 742.749 214.878 744.549 217.943 746.68C214.835 745.183 211.611 743.356 208.684 741.239Z" fill="black"/>
<path d="M200.784 112.658C198.596 114.98 196.145 116.968 193.338 119.005C195.495 116.811 198.007 114.568 200.784 112.658Z" fill="black"/>
<path d="M134.587 674.669C137.277 677.316 139.545 680.187 141.408 683.298C138.723 680.657 136.444 677.775 134.587 674.669Z" fill="black"/>
<path d="M119.778 191.675C118.258 194.614 116.461 197.244 114.328 199.961C115.828 197.154 117.665 194.26 119.778 191.675Z" fill="black"/>
<path d="M166.587 707.689C169.342 709.472 171.68 711.495 174.286 713.755C169.755 714.745 168.503 710.59 166.587 707.689Z" fill="black"/>
<path d="M714.325 170.715C712.134 168.921 709.711 166.844 707.392 164.383C709.694 166.143 711.894 168.287 714.325 170.715Z" fill="black"/>
<path d="M102.68 215.058C101.515 217.846 100.02 220.751 98.2377 223.337C99.4165 220.404 100.883 217.789 102.68 215.058Z" fill="black"/>
<path d="M223.657 96.9734C221.5 98.8718 218.981 100.794 216.202 102.363C218.393 100.339 220.843 98.668 223.657 96.9734Z" fill="black"/>
<path d="M206.654 107.982C205.256 109.654 203.492 111.36 201.357 113.053C202.753 111.366 204.521 109.691 206.654 107.982Z" fill="black"/>
<path d="M113.765 199.679C112.529 202.201 111.018 204.416 109.227 206.325C110.462 203.804 111.976 201.588 113.765 199.679Z" fill="black"/>
<path d="M677.285 133.754C673.15 135.209 672.33 131.16 670.613 128.721C673.006 130.134 675.011 131.825 677.285 133.754Z" fill="black"/>
<path d="M128.637 668.207C130.689 669.778 132.388 671.615 134.321 673.725C132.465 672.156 130.374 670.315 128.637 668.207Z" fill="black"/>
<path d="M694.382 698.598C695.575 696.657 697.159 694.817 699.12 692.984C697.922 694.894 696.347 696.797 694.382 698.598Z" fill="black"/>
<path d="M176.623 131.423C175.261 133.239 173.513 134.975 171.381 136.608C172.744 134.785 174.491 133.064 176.623 131.423Z" fill="black"/>
<path d="M136.746 169.72C135.763 171.625 134.535 173.805 132.904 175.997C133.835 174.004 135.168 172 136.746 169.72Z" fill="black"/>
<path d="M124.638 663.204C126.326 664.403 127.661 665.865 129.024 667.672C127.462 666.5 125.874 664.984 124.638 663.204Z" fill="black"/>
<path d="M712.733 678.407C713.799 676.328 715.155 674.658 716.752 672.715C718.021 676.032 715.341 677.311 712.733 678.407Z" fill="black"/>
<path d="M120.637 658.205C122.326 659.403 123.662 660.865 125.024 662.672C123.462 661.501 121.873 659.985 120.637 658.205Z" fill="black"/>
<path d="M187.675 121.976C186.504 123.533 184.988 125.118 183.206 126.357C184.404 124.675 185.867 123.339 187.675 121.976Z" fill="black"/>
<path d="M673.724 716.408C675.107 714.631 676.771 713.269 678.717 711.675C677.334 713.236 675.669 715.029 673.724 716.408Z" fill="black"/>
<path d="M670.287 127.756C668.474 126.851 666.393 125.71 664.646 124.259C666.66 125.139 668.34 126.329 670.287 127.756Z" fill="black"/>
<path d="M126.689 182.052C125.855 183.841 124.699 185.74 123.246 187.33C124.088 185.401 125.228 183.781 126.689 182.052Z" fill="black"/>
<path d="M182.668 125.978C181.327 127.576 179.632 129.205 177.691 130.413C179.068 128.664 180.69 127.336 182.668 125.978Z" fill="black"/>
<path d="M131.132 176.982C130.184 178.871 128.863 180.745 127.245 182.319C128.218 180.336 129.488 178.651 131.132 176.982Z" fill="black"/>
<path d="M192.797 118.681C191.511 120.226 189.96 121.463 188.175 122.354C189.471 120.797 191.001 119.585 192.797 118.681Z" fill="black"/>
<path d="M228.666 93.959C227.512 95.2104 226.003 96.4685 224.218 97.3689C225.398 95.996 226.855 94.9808 228.666 93.959Z" fill="black"/>
<path d="M94.6774 228.046C94.2051 229.841 93.3981 231.737 92.2695 233.328C92.7461 231.397 93.5443 229.773 94.6774 228.046Z" fill="black"/>
<path d="M97.6806 223.055C97.2009 224.848 96.3902 226.754 95.266 228.341C95.7515 226.403 96.5506 224.785 97.6806 223.055Z" fill="black"/>
<path d="M667.689 721.412C669.041 719.788 670.637 718.584 672.619 717.437C671.313 718.94 669.623 720.385 667.689 721.412Z" fill="black"/>
<path d="M122.666 187.069C122.229 188.554 121.448 190.165 120.329 191.92C120.767 190.441 121.545 188.819 122.666 187.069Z" fill="black"/>
<path d="M233.668 90.9756C232.513 92.207 231.004 93.4664 229.22 94.3687C230.401 93.009 231.858 92.0062 233.668 90.9756Z" fill="black"/>
<path d="M718.784 671.396C719.464 669.664 720.485 668.327 721.751 666.716C721.039 668.225 720.082 670.008 718.784 671.396Z" fill="black"/>
<path d="M664.949 123.689C663.502 123.214 661.946 122.417 660.684 121.29C662.265 121.763 663.552 122.565 664.949 123.689Z" fill="black"/>
<path d="M736.262 649.33C736.754 647.731 737.562 646.442 738.692 645.046C738.202 646.507 737.389 648.074 736.262 649.33Z" fill="black"/>
<path d="M181.621 720.793C183.335 721.462 184.672 722.484 186.284 723.751C184.787 723.046 183.016 722.096 181.621 720.793Z" fill="black"/>
<path d="M719.293 176.741C718.085 175.684 716.611 174.369 715.571 172.748C717.013 173.789 718.02 175.136 719.293 176.741Z" fill="black"/>
<path d="M724.32 182.721C723.085 181.685 721.611 180.369 720.572 178.748C722.031 179.775 723.057 181.108 724.32 182.721Z" fill="black"/>
<path d="M728.32 187.721C727.105 186.699 725.652 185.397 724.601 183.768C726.03 184.774 727.056 186.107 728.32 187.721Z" fill="black"/>
<path d="M732.025 192.671C730.761 191.677 729.467 190.326 728.59 188.709C730.003 189.734 730.999 191.024 732.025 192.671Z" fill="black"/>
<path d="M735.024 196.681C733.803 195.851 732.554 194.679 731.646 193.224C732.991 194.074 733.993 195.207 735.024 196.681Z" fill="black"/>
<path d="M646.253 738.329C647.072 737.01 648.204 736.006 649.678 734.975C648.869 736.18 647.718 737.412 646.253 738.329Z" fill="black"/>
<path d="M198.677 734.273C200.266 734.754 201.553 735.561 202.949 736.689C201.498 736.207 199.936 735.403 198.677 734.273Z" fill="black"/>
<path d="M194.648 731.253C196.269 731.755 197.555 732.561 198.951 733.689C197.478 733.194 195.896 732.376 194.648 731.253Z" fill="black"/>
<path d="M190.679 728.273C192.267 728.753 193.554 729.56 194.95 730.688C193.498 730.206 191.938 729.402 190.679 728.273Z" fill="black"/>
<path d="M186.607 724.74C188.278 725.414 189.555 726.384 190.947 727.685C189.446 727.023 187.829 726.03 186.607 724.74Z" fill="black"/>
<path d="M175.623 715.799C177.336 716.466 178.672 717.485 180.283 718.749C178.787 718.046 177.017 717.099 175.623 715.799Z" fill="black"/>
<path d="M730.699 656.395C731.456 654.786 732.468 653.574 733.767 652.671C733.02 654.251 731.987 655.521 730.699 656.395Z" fill="black"/>
<path d="M654.406 733C654.774 732.008 655.568 730.963 656.68 729.681C656.277 730.611 655.554 731.778 654.406 733Z" fill="black"/>
<path d="M650.173 735.351C651.151 734.115 652.361 733.222 653.816 732.661C652.843 733.893 651.624 734.795 650.173 735.351Z" fill="black"/>
<path d="M734.343 652.907C734.425 651.782 734.859 650.503 735.65 649.082C735.57 650.211 735.133 651.481 734.343 652.907Z" fill="black"/>
<path d="M213.804 103.665C212.835 104.896 211.621 105.798 210.173 106.354C211.146 105.117 212.353 104.227 213.804 103.665Z" fill="black"/>
<path d="M106.657 209.091C106.58 210.228 106.153 211.517 105.36 212.927C105.431 211.78 105.868 210.512 106.657 209.091Z" fill="black"/>
<path d="M739.413 204.337C738.09 203.186 737.189 201.818 736.64 200.194C737.939 201.333 738.887 202.726 739.413 204.337Z" fill="black"/>
<path d="M202.704 737.315C203.933 737.421 204.89 737.898 205.954 738.694C204.851 738.571 203.641 738.128 202.704 737.315Z" fill="black"/>
<path d="M750.026 218.691C749.145 218.208 748.236 217.388 747.656 216.254C748.656 216.745 749.326 217.55 750.026 218.691Z" fill="black"/>
<path d="M748.027 215.691C747.14 215.205 746.226 214.382 745.649 213.25C746.657 213.745 747.328 214.55 748.027 215.691Z" fill="black"/>
<path d="M662.845 725.377C663.438 724.309 664.436 723.619 665.719 722.687C665.085 723.548 664.168 724.652 662.845 725.377Z" fill="black"/>
<path d="M657.842 729.378C658.414 728.276 659.389 727.554 660.684 726.644C660.084 727.557 659.165 728.657 657.842 729.378Z" fill="black"/>
<path d="M746.026 212.69C745.142 212.209 744.23 211.393 743.652 210.258C744.656 210.744 745.327 211.549 746.026 212.69Z" fill="black"/>
<path d="M744.021 209.69C743.148 209.212 742.24 208.399 741.659 207.263C742.652 207.744 743.32 208.549 744.021 209.69Z" fill="black"/>
<path d="M108.696 206.049C108.57 207.151 108.126 208.363 107.312 209.299C107.421 208.07 107.9 207.115 108.696 206.049Z" fill="black"/>
<path d="M741.314 642.297C741.421 641.067 741.898 640.11 742.694 639.046C742.57 640.149 742.127 641.359 741.314 642.297Z" fill="black"/>
<path d="M643.268 740.342C643.742 739.342 644.546 738.67 645.686 737.972C645.214 738.854 644.405 739.762 643.268 740.342Z" fill="black"/>
<path d="M205.73 739.327C206.931 739.421 207.888 739.897 208.953 740.693C207.87 740.579 206.678 740.144 205.73 739.327Z" fill="black"/>
<path d="M640.262 742.34C640.743 741.343 641.547 740.672 642.688 739.973C642.212 740.852 641.399 741.759 640.262 742.34Z" fill="black"/>
<path d="M737.026 199.689C736.147 199.212 735.24 198.399 734.659 197.262C735.656 197.744 736.327 198.548 737.026 199.689Z" fill="black"/>
<path d="M637.25 744.349C637.744 743.342 638.549 742.672 639.69 741.973C639.205 742.858 638.383 743.772 637.25 744.349Z" fill="black"/>
<path d="M634.259 746.346C634.743 745.343 635.548 744.672 636.688 743.973C636.209 744.857 635.394 745.768 634.259 746.346Z" fill="black"/>
<path d="M631.258 748.346C631.743 747.343 632.547 746.673 633.688 745.974C633.209 746.857 632.393 747.768 631.258 748.346Z" fill="black"/>
<path d="M217.729 747.326C218.931 747.421 219.888 747.897 220.953 748.693C219.869 748.578 218.676 748.142 217.729 747.326Z" fill="black"/>
<path d="M209.692 105.994C209.21 106.855 208.394 107.768 207.259 108.348C207.746 107.358 208.552 106.702 209.692 105.994Z" fill="black"/>
<path d="M743.325 639.273C743.421 638.069 743.897 637.112 744.693 636.047C744.577 637.133 744.141 638.325 743.325 639.273Z" fill="black"/>
<path d="M739.309 645.308C739.422 644.066 739.898 643.11 740.694 642.046C740.567 643.157 740.119 644.375 739.309 645.308Z" fill="black"/>
<path d="M745.315 636.296C745.421 635.068 745.898 634.111 746.693 633.047C746.571 634.149 746.128 635.358 745.315 636.296Z" fill="black"/>
<path d="M747.315 633.296C747.421 632.068 747.898 631.111 748.693 630.047C748.571 631.149 748.128 632.358 747.315 633.296Z" fill="black"/>
<path d="M749.316 630.296C749.418 629.059 749.89 628.094 750.688 627.036C750.571 628.151 750.129 629.36 749.316 630.296Z" fill="black"/>
<path d="M727.874 660.369C728.14 658.999 728.822 657.995 729.752 656.715C729.43 657.871 728.86 659.303 727.874 660.369Z" fill="black"/>
<path d="M723.861 665.372C724.13 664 724.815 662.997 725.75 661.717C725.425 662.873 724.852 664.306 723.861 665.372Z" fill="black"/>
<path d="M215.615 101.983C215.614 102.648 215.209 103.347 214.395 104.044C214.394 103.367 214.802 102.693 215.615 101.983Z" fill="black"/>
<path d="M220.685 749.245C221.863 749.451 222.744 749.956 223.323 750.749C222.143 750.54 221.267 750.041 220.685 749.245Z" fill="black"/>
<path d="M629.389 750.042C629.39 749.365 629.799 748.692 630.614 747.983C630.612 748.647 630.205 749.346 629.389 750.042Z" fill="black"/>
<path d="M742.003 206.556C741.323 206.592 740.592 206.163 739.661 205.367C740.292 205.364 741.122 205.728 742.003 206.556Z" fill="black"/>
<path d="M104.754 212.681C104.538 213.866 104.034 214.747 103.239 215.324C103.454 214.138 103.96 213.257 104.754 212.681Z" fill="black"/>
<path d="M435.519 421.848C436.649 416.498 437.779 411.148 439.135 405.184C439.421 403.997 439.482 403.425 439.542 402.853C440.326 399.163 441.111 395.474 442.116 391.173C442.387 389.989 442.437 389.415 442.487 388.842C442.639 388.135 442.792 387.428 443.168 386.149C443.448 385.003 443.504 384.43 443.56 383.856C443.999 381.825 444.438 379.793 445.095 377.157C445.35 375.979 445.386 375.405 445.423 374.831C445.59 374.128 445.758 373.424 446.146 372.145C446.416 370.995 446.465 370.421 446.515 369.847C447.308 366.158 448.102 362.469 449.121 358.17C449.383 356.986 449.418 356.411 449.453 355.837C449.618 355.132 449.782 354.428 450.172 353.15C450.448 352.002 450.497 351.428 450.547 350.854C450.992 348.824 451.436 346.793 452.105 344.159C452.354 342.979 452.378 342.404 452.402 341.829C452.58 341.127 452.758 340.425 453.158 339.146C453.419 337.994 453.457 337.419 453.496 336.845C454.298 333.157 455.101 329.469 456.131 325.171C456.387 323.987 456.415 323.411 456.443 322.836C456.615 322.133 456.787 321.429 457.214 320.068C458.008 316.152 458.548 312.892 459.087 309.633C458.546 309.567 458.005 309.501 457.463 309.436C456.622 312.609 455.781 315.782 454.94 318.955C431.973 381.839 408.997 444.719 386.043 507.607C371.838 546.523 357.585 585.423 343.587 624.413C341.96 628.946 339.753 630.267 335.062 630.203C314.922 629.928 294.777 630.085 274.069 630.085C274.069 626.431 274.069 623.061 274.069 619.304C269.573 619.304 265.628 619.304 260.618 619.304C268.284 491.451 275.923 364.065 283.575 236.46C306.541 236.46 328.941 236.46 351.812 236.46C351.579 240.01 351.366 243.255 351.119 247.019C355.608 247.019 359.87 247.019 364.837 247.019C361.995 283.15 359.196 318.726 356.397 354.303C356.801 354.424 357.205 354.545 357.609 354.666C358.216 353.13 358.881 351.613 359.421 350.053C371.884 314.027 384.442 278.032 396.654 241.92C398.246 237.209 400.463 236.008 405.135 236.072C424.127 236.33 443.125 236.179 462.12 236.179C463.767 236.179 465.413 236.179 467.725 236.179C466.595 239.89 465.613 243.119 464.626 246.361C472.328 248.092 472.566 248.105 473.893 240.625C474.516 237.115 475.915 236.062 479.458 236.096C498.118 236.277 516.782 236.142 535.444 236.204C550.717 236.255 565.826 237.811 579.797 244.396C585.723 247.188 591.173 251.207 596.374 255.263C602.524 260.059 608.606 265.089 613.942 270.748C623.724 281.123 627.405 294.278 629.067 308.074C631.975 332.208 627.561 355.583 621.115 378.632C615.456 398.869 606.658 417.693 593.188 434.015C589.72 438.217 585.601 441.968 581.37 445.424C578.839 447.491 577.56 449.389 577.506 452.793C576.602 509.937 575.552 567.078 574.525 624.219C574.492 626.018 574.36 627.815 574.265 629.834C551.104 629.834 528.35 629.834 505.072 629.834C505.072 626.36 505.072 623.121 505.072 619.375C500.641 619.375 496.717 619.375 491.922 619.375C492.543 597.169 493.148 575.489 493.754 553.809C493.469 553.758 493.184 553.707 492.9 553.655C492.285 556.164 491.594 558.656 491.067 561.183C486.643 582.381 482.167 603.568 477.923 624.802C477.15 628.672 475.943 630.281 471.547 630.215C451.723 629.918 431.891 630.085 412.063 630.085C410.447 630.085 408.831 630.085 406.915 630.085C407.561 626.341 408.09 623.273 408.757 619.409C403.71 619.409 399.025 619.409 393.81 619.409C395.607 610.651 397.234 602.723 399.091 594.181C399.414 593.001 399.507 592.433 399.6 591.864C409.028 547.175 418.456 502.486 428.105 457.179C428.401 455.993 428.475 455.423 428.548 454.853C430.661 444.834 432.775 434.814 435.11 424.179C435.395 422.991 435.457 422.42 435.519 421.848ZM564.208 247.143C556.137 246.136 548.083 244.467 539.991 244.258C522.174 243.797 504.336 244.205 486.511 243.946C482.587 243.889 481.112 245.017 480.321 248.871C475.364 273.016 470.14 297.106 465.007 321.215C446.381 408.697 427.75 496.178 409.137 583.663C407.215 592.697 405.403 601.755 403.467 611.156C421.669 611.156 439.262 611.156 457.254 611.156C468.146 559.645 479.022 508.212 489.88 456.859C494.934 456.859 499.517 456.859 504.417 456.859C502.932 508.505 501.455 559.845 499.983 611.03C518.346 611.03 535.918 611.03 553.931 611.03C553.931 609.02 553.906 607.383 553.934 605.747C554.881 549.771 555.863 493.795 556.703 437.818C556.752 434.606 557.928 432.867 560.331 430.886C565.444 426.67 570.57 422.293 574.828 417.253C587.297 402.498 594.812 385.097 600.233 366.747C607.033 343.726 611.078 320.36 608.206 296.236C607.027 286.33 603.947 277.085 598.267 268.808C590.177 257.02 578.3 251.066 564.208 247.143ZM422.79 337.259C434.014 306.383 445.239 275.508 456.675 244.049C439.96 244.049 424.304 244.181 408.654 243.947C405.141 243.895 403.859 245.111 402.788 248.253C393.242 276.261 383.549 304.221 373.839 332.173C359.306 374.004 344.738 415.822 330.112 457.619C329.562 459.19 328.251 460.494 327.295 461.923C326.906 461.644 326.518 461.365 326.13 461.086C331.849 388.937 337.568 316.787 343.304 244.416C325.477 244.416 308.279 244.416 290.873 244.416C283.544 366.917 276.237 489.064 268.917 611.407C285.499 611.407 301.331 611.229 317.154 611.522C321.562 611.604 323.443 610.203 324.94 606.077C357.374 516.681 389.967 427.343 422.79 337.259Z" fill="#070C36"/>
<path d="M455.213 319.049C455.781 315.782 456.622 312.609 457.463 309.436C458.005 309.501 458.546 309.567 459.087 309.633C458.548 312.892 458.008 316.152 457.228 319.705C456.486 319.714 455.986 319.428 455.213 319.049Z" fill="#9C5653"/>
<path d="M435.282 421.928C435.457 422.42 435.395 422.991 435.124 423.776C434.959 423.329 435.002 422.669 435.282 421.928Z" fill="#9C5653"/>
<path d="M399.359 591.936C399.507 592.433 399.415 593.001 399.109 593.778C398.97 593.327 399.043 592.667 399.359 591.936Z" fill="#9C5653"/>
<path d="M428.31 454.931C428.475 455.423 428.401 455.993 428.119 456.776C427.965 456.329 428.018 455.669 428.31 454.931Z" fill="#9C5653"/>
<path d="M453.261 336.93C453.457 337.419 453.419 337.994 453.171 338.782C452.984 338.336 453.005 337.676 453.261 336.93Z" fill="#9C5653"/>
<path d="M439.303 402.932C439.482 403.425 439.421 403.997 439.152 404.781C438.983 404.332 439.024 403.671 439.303 402.932Z" fill="#9C5653"/>
<path d="M442.253 388.926C442.437 389.415 442.387 389.989 442.13 390.776C441.955 390.33 441.987 389.67 442.253 388.926Z" fill="#9C5653"/>
<path d="M443.32 383.935C443.504 384.43 443.448 385.003 443.181 385.786C443.006 385.336 443.043 384.675 443.32 383.935Z" fill="#9C5653"/>
<path d="M445.196 374.922C445.386 375.405 445.35 375.979 445.108 376.77C444.925 376.33 444.947 375.671 445.196 374.922Z" fill="#9C5653"/>
<path d="M446.278 369.929C446.465 370.421 446.416 370.995 446.157 371.781C445.979 371.333 446.01 370.672 446.278 369.929Z" fill="#9C5653"/>
<path d="M449.223 355.925C449.418 356.411 449.383 356.986 449.139 357.776C448.951 357.332 448.972 356.673 449.223 355.925Z" fill="#9C5653"/>
<path d="M450.308 350.934C450.497 351.428 450.448 352.002 450.186 352.787C450.006 352.336 450.037 351.676 450.308 350.934Z" fill="#9C5653"/>
<path d="M452.177 341.923C452.378 342.404 452.354 342.979 452.123 343.772C451.928 343.332 451.941 342.675 452.177 341.923Z" fill="#9C5653"/>
<path d="M456.215 322.927C456.415 323.411 456.387 323.987 456.15 324.777C455.956 324.334 455.971 323.676 456.215 322.927Z" fill="#9C5653"/>
<path d="M564.61 247.225C578.3 251.066 590.177 257.02 598.267 268.807C603.947 277.085 607.027 286.33 608.206 296.236C611.078 320.36 607.033 343.726 600.233 366.746C594.812 385.097 587.297 402.498 574.828 417.253C570.57 422.293 565.444 426.67 560.331 430.886C557.928 432.867 556.752 434.606 556.703 437.818C555.863 493.795 554.881 549.771 553.934 605.747C553.906 607.383 553.931 609.02 553.931 611.03C535.918 611.03 518.346 611.03 499.983 611.03C501.455 559.845 502.932 508.505 504.417 456.859C499.517 456.859 494.934 456.859 489.88 456.859C479.022 508.212 468.146 559.645 457.254 611.156C439.262 611.156 421.669 611.156 403.467 611.156C405.403 601.755 407.215 592.697 409.137 583.663C427.75 496.178 446.381 408.697 465.007 321.215C470.14 297.106 475.364 273.016 480.321 248.871C481.112 245.017 482.587 243.889 486.511 243.946C504.336 244.204 522.174 243.797 539.991 244.258C548.083 244.467 556.137 246.136 564.61 247.225ZM540.486 299.771C535.162 298.742 529.839 297.714 524.109 296.607C516.311 333.604 508.71 369.669 501.102 405.762C512.182 407.339 523.763 403.659 531.388 395.201C551.497 372.896 556.779 346.075 553.665 317.148C552.847 309.544 548.259 303.64 540.486 299.771Z" fill="#FDFDFD"/>
<path d="M422.66 337.626C389.967 427.343 357.374 516.681 324.94 606.077C323.443 610.203 321.562 611.604 317.154 611.522C301.331 611.229 285.499 611.407 268.917 611.407C276.237 489.064 283.544 366.917 290.873 244.416C308.279 244.416 325.477 244.416 343.304 244.416C337.568 316.787 331.849 388.937 326.13 461.086C326.518 461.365 326.906 461.644 327.295 461.923C328.251 460.494 329.562 459.19 330.112 457.619C344.738 415.822 359.306 374.004 373.839 332.173C383.549 304.221 393.242 276.261 402.788 248.253C403.859 245.111 405.141 243.895 408.654 243.947C424.304 244.181 439.96 244.049 456.675 244.049C445.239 275.508 434.014 306.383 422.66 337.626Z" fill="#FDFDFD"/>
<path d="M540.835 299.924C548.259 303.64 552.847 309.544 553.665 317.148C556.779 346.075 551.497 372.896 531.388 395.201C523.763 403.659 512.182 407.339 501.102 405.762C508.71 369.669 516.311 333.604 524.109 296.607C529.839 297.714 535.162 298.742 540.835 299.924ZM529.628 385.748C543.195 366.81 547.837 345.412 546.867 322.533C546.776 320.385 545.536 318.285 544.829 316.163C544.351 316.268 543.873 316.373 543.396 316.478C543.009 317.521 542.486 318.535 542.257 319.611C537.84 340.442 533.443 361.277 529.1 382.124C528.839 383.379 529.06 384.734 528.796 386.042L528.721 386.37C528.721 386.37 528.991 385.968 529.628 385.748Z" fill="#070D36"/>
<path d="M529.057 386.042C529.06 384.734 528.839 383.379 529.1 382.124C533.443 361.277 537.84 340.442 542.257 319.611C542.486 318.535 543.009 317.521 543.396 316.478C543.873 316.373 544.351 316.268 544.829 316.163C545.536 318.285 546.776 320.385 546.867 322.533C547.837 345.412 543.195 366.81 529.324 385.878C529.02 386.009 529.057 386.042 529.057 386.042Z" fill="#CF705E"/>
<path d="M529.005 385.988C528.991 385.968 528.721 386.37 528.721 386.37C528.721 386.37 528.796 386.042 528.926 386.042C529.057 386.042 529.02 386.009 529.005 385.988Z" fill="#CF705E"/>
</svg>
