<svg width="849" height="850" viewBox="0 0 849 850" fill="none" xmlns="http://www.w3.org/2000/svg">
<path opacity="0.96" fill-rule="evenodd" clip-rule="evenodd" d="M384.145 1.15617C532.156 -8.48583 654.656 42.1802 751.645 153.156C834.713 258.081 864.38 376.747 840.645 509.156C811.76 637.505 740.26 734.005 626.145 798.656C506.859 859.352 384.859 865.352 260.145 816.656C154.252 769.763 78.0862 693.263 31.6451 587.156C-5.20485 493.435 -9.87185 398.102 17.6451 301.156C52.5592 191.47 120.059 108.303 220.145 51.6562C271.506 23.8112 326.173 6.97817 384.145 1.15617ZM414.145 27.1562C540.17 27.4382 644.67 74.4382 727.645 168.156C812.974 274.765 839.64 394.765 807.645 528.156C769.335 657.465 687.502 746.965 562.145 796.656C440.933 838.71 325.267 827.043 215.145 761.656C122.42 701.812 62.9201 617.979 36.6451 510.156C11.1791 376.955 42.5131 259.288 130.645 157.156C207.488 75.8252 301.988 32.4922 414.145 27.1562ZM405.145 39.1562C527.61 36.3352 630.11 79.6692 712.645 169.156C797.022 268.693 826.022 382.693 799.645 511.156C771.904 620.84 709.404 704.006 612.145 760.656C509.559 815.547 403.225 824.214 293.145 786.656C164.53 735.705 83.0301 643.205 48.6451 509.156C22.9942 379.843 52.9941 265.51 138.645 166.156C210.713 89.0562 299.546 46.7232 405.145 39.1562Z" fill="#DF7760"/>
<path fill-rule="evenodd" clip-rule="evenodd" d="M350.145 240.156C350.145 238.823 350.145 237.489 350.145 236.156C327.812 236.156 305.478 236.156 283.145 236.156C283.447 238.715 283.113 241.049 282.145 243.156C282.145 240.489 282.145 237.823 282.145 235.156C305.145 235.156 328.145 235.156 351.145 235.156C351.429 237.071 351.096 238.737 350.145 240.156Z" fill="#462A40"/>
<path fill-rule="evenodd" clip-rule="evenodd" d="M398.145 236.156C420.982 234.827 443.982 234.827 467.145 236.156C467.021 236.763 466.688 237.096 466.145 237.156C443.651 236.159 420.984 235.825 398.145 236.156Z" fill="#442940"/>
<path fill-rule="evenodd" clip-rule="evenodd" d="M622.145 284.156C622.774 287.053 623.774 289.72 625.145 292.156C624.904 294.554 625.571 296.554 627.145 298.156C628.679 302.946 629.346 307.946 629.145 313.156C629.352 323.892 628.685 334.558 627.145 345.156C625.122 356.209 622.788 367.209 620.145 378.156C618.107 382.596 616.441 387.263 615.145 392.156C607.67 414.117 595.003 432.45 577.145 447.156C575.396 486.644 574.396 526.31 574.145 566.156C574.145 576.489 574.145 586.823 574.145 597.156C573.151 607.643 572.817 618.31 573.145 629.156C550.145 629.156 527.145 629.156 504.145 629.156C504.145 625.489 504.145 621.823 504.145 618.156C499.812 618.156 495.478 618.156 491.145 618.156C491.672 600.494 492.005 582.827 492.145 565.156C493.297 559.671 493.463 554.005 492.645 548.156C492.078 550.824 491.578 553.49 491.145 556.156C489.94 562.849 488.606 569.516 487.145 576.156C485.721 578.171 485.055 580.504 485.145 583.156C481.893 598.414 478.893 613.748 476.145 629.156C452.812 629.156 429.478 629.156 406.145 629.156C406.812 625.489 407.478 621.823 408.145 618.156C403.145 618.156 398.145 618.156 393.145 618.156C413.735 520.873 434.068 423.539 454.145 326.156C456.734 319.459 458.234 312.459 458.645 305.156C456.522 310.357 454.689 315.69 453.145 321.156C451.774 323.592 450.774 326.259 450.145 329.156C448.4 330.689 447.4 332.689 447.145 335.156C412.025 433.178 376.692 531.178 341.145 629.156C318.478 629.156 295.812 629.156 273.145 629.156C273.145 625.489 273.145 621.823 273.145 618.156C268.812 618.156 264.478 618.156 260.145 618.156C260.145 617.156 260.145 616.156 260.145 615.156C266.302 510.826 272.302 406.492 278.145 302.156C279.717 284.324 281.051 266.324 282.145 248.156C282.145 246.489 282.145 244.823 282.145 243.156C283.113 241.049 283.447 238.715 283.145 236.156C305.478 236.156 327.812 236.156 350.145 236.156C350.145 237.489 350.145 238.823 350.145 240.156C350.145 242.156 350.145 244.156 350.145 246.156C354.812 246.156 359.478 246.156 364.145 246.156C360.867 280.433 358.201 314.766 356.145 349.156C355.007 351.96 354.84 354.96 355.645 358.156C356.436 356.911 356.936 355.578 357.145 354.156C370.839 314.737 384.506 275.404 398.145 236.156C420.984 235.825 443.651 236.159 466.145 237.156C465.158 239.802 464.158 242.468 463.145 245.156C466.073 246.14 469.073 246.473 472.145 246.156C472.239 242.52 472.906 239.02 474.145 235.656C499.145 234.989 524.145 234.989 549.145 235.656C565.707 237.396 580.707 243.063 594.145 252.656C600.978 258.823 607.812 264.989 614.645 271.156C618.179 274.891 620.679 279.224 622.145 284.156Z" fill="#040D34"/>
<path fill-rule="evenodd" clip-rule="evenodd" d="M290.145 243.156C307.637 242.159 325.304 241.826 343.145 242.156C343.429 244.071 343.096 245.737 342.145 247.156C342.145 245.823 342.145 244.489 342.145 243.156C324.812 243.156 307.478 243.156 290.145 243.156Z" fill="#2D3356"/>
<path fill-rule="evenodd" clip-rule="evenodd" d="M403.145 243.156C420.637 242.159 438.304 241.826 456.145 242.156C456.382 243.447 456.049 244.447 455.145 245.156C438.177 243.17 420.844 242.503 403.145 243.156Z" fill="#2E3457"/>
<path fill-rule="evenodd" clip-rule="evenodd" d="M290.145 243.156C307.478 243.156 324.812 243.156 342.145 243.156C342.145 244.489 342.145 245.823 342.145 247.156C342.049 253.029 341.382 258.696 340.145 264.156C340.478 257.489 340.812 250.823 341.145 244.156C324.145 244.156 307.145 244.156 290.145 244.156C290.447 246.715 290.113 249.049 289.145 251.156C288.839 248.271 289.172 245.604 290.145 243.156Z" fill="#BDBFCA"/>
<path fill-rule="evenodd" clip-rule="evenodd" d="M403.145 244.156C403.145 243.823 403.145 243.489 403.145 243.156C420.844 242.503 438.177 243.17 455.145 245.156C455.05 247.442 454.383 249.442 453.145 251.156C453.319 248.795 453.652 246.462 454.145 244.156C437.145 244.156 420.145 244.156 403.145 244.156Z" fill="#BFC0CC"/>
<path fill-rule="evenodd" clip-rule="evenodd" d="M551.145 244.156C527.404 243.833 503.737 244.167 480.145 245.156C491.626 243.824 503.459 243.157 515.645 243.156C527.65 243.156 539.483 243.489 551.145 244.156Z" fill="#C0C1CC"/>
<path fill-rule="evenodd" clip-rule="evenodd" d="M340.145 264.156C335.366 329.505 330.366 394.839 325.145 460.156C326.467 460.326 327.634 459.993 328.645 459.156C353.299 387.703 378.133 316.036 403.145 244.156C420.145 244.156 437.145 244.156 454.145 244.156C453.652 246.462 453.319 248.795 453.145 251.156C452.282 253.077 451.616 255.077 451.145 257.156C449.432 258.291 448.765 259.958 449.145 262.156C448.282 264.077 447.616 266.077 447.145 268.156C445.432 269.291 444.765 270.958 445.145 273.156C444.282 275.077 443.616 277.077 443.145 279.156C441.432 280.291 440.765 281.958 441.145 284.156C439.78 288.964 438.113 293.63 436.145 298.156C434.4 299.689 433.4 301.689 433.145 304.156C427.665 320.597 421.999 336.93 416.145 353.156C414.432 354.291 413.765 355.958 414.145 358.156C383.755 441.821 353.255 525.488 322.645 609.156C304.555 610.148 286.388 610.482 268.145 610.156C275.04 490.482 282.04 370.816 289.145 251.156C290.113 249.049 290.447 246.715 290.145 244.156C307.145 244.156 324.145 244.156 341.145 244.156C340.812 250.823 340.478 257.489 340.145 264.156Z" fill="#FDFDFD"/>
<path fill-rule="evenodd" clip-rule="evenodd" d="M551.145 244.156C569.216 245.441 584.383 252.775 596.645 266.156C599.264 269.062 601.098 272.395 602.145 276.156C604.793 284.094 606.793 292.094 608.145 300.156C608.525 320.824 606.192 341.157 601.145 361.156C598.52 365.697 596.854 370.697 596.145 376.156C595.478 378.156 594.812 380.156 594.145 382.156C592.739 382.629 592.072 383.629 592.145 385.156C585.185 404.769 573.185 420.436 556.145 432.156C554.063 481.306 553.063 530.64 553.145 580.156C553.145 590.156 553.145 600.156 553.145 610.156C535.478 610.156 517.812 610.156 500.145 610.156C500.145 598.823 500.145 587.489 500.145 576.156C499.834 564.409 500.167 552.742 501.145 541.156C502.653 517.673 503.32 494.006 503.145 470.156C503.145 467.156 503.145 464.156 503.145 461.156C504.106 459.391 504.44 457.391 504.145 455.156C498.95 454.835 493.95 455.169 489.145 456.156C478.117 506.625 467.45 557.291 457.145 608.156C448.208 609.462 439.041 610.129 429.645 610.156C420.639 610.156 411.805 609.822 403.145 609.156C408.274 584.179 413.274 559.179 418.145 534.156C419.763 531.485 420.43 528.485 420.145 525.156C438.764 439.332 457.097 353.332 475.145 267.156C476.569 265.141 477.235 262.808 477.145 260.156C477.676 255.036 478.676 250.036 480.145 245.156C503.737 244.167 527.404 243.833 551.145 244.156Z" fill="#FDFDFD"/>
<path fill-rule="evenodd" clip-rule="evenodd" d="M451.145 257.156C450.849 259.059 450.182 260.726 449.145 262.156C448.765 259.958 449.432 258.291 451.145 257.156Z" fill="#7F8298"/>
<path fill-rule="evenodd" clip-rule="evenodd" d="M477.145 260.156C477.235 262.808 476.569 265.141 475.145 267.156C475.055 264.504 475.721 262.171 477.145 260.156Z" fill="#787B92"/>
<path fill-rule="evenodd" clip-rule="evenodd" d="M447.145 268.156C446.849 270.059 446.182 271.726 445.145 273.156C444.765 270.958 445.432 269.291 447.145 268.156Z" fill="#7F8298"/>
<path fill-rule="evenodd" clip-rule="evenodd" d="M282.145 248.156C281.051 266.324 279.717 284.324 278.145 302.156C278.479 290.485 278.979 278.818 279.645 267.156C279.796 260.588 280.63 254.255 282.145 248.156Z" fill="#BB6559"/>
<path fill-rule="evenodd" clip-rule="evenodd" d="M602.145 276.156C606.288 283.513 608.288 291.513 608.145 300.156C606.793 292.094 604.793 284.094 602.145 276.156Z" fill="#9093A6"/>
<path fill-rule="evenodd" clip-rule="evenodd" d="M443.145 279.156C442.849 281.059 442.182 282.726 441.145 284.156C440.765 281.958 441.432 280.291 443.145 279.156Z" fill="#7E8198"/>
<path fill-rule="evenodd" clip-rule="evenodd" d="M622.145 284.156C624.3 286.273 625.3 288.94 625.145 292.156C623.774 289.72 622.774 287.053 622.145 284.156Z" fill="#7E464C"/>
<path fill-rule="evenodd" clip-rule="evenodd" d="M530.145 297.156C527.812 297.156 525.478 297.156 523.145 297.156C523.382 298.447 523.049 299.447 522.145 300.156C522.145 298.823 522.145 297.489 522.145 296.156C525.03 295.85 527.697 296.183 530.145 297.156Z" fill="#787B92"/>
<path fill-rule="evenodd" clip-rule="evenodd" d="M625.145 292.156C626.719 293.758 627.386 295.758 627.145 298.156C625.571 296.554 624.904 294.554 625.145 292.156Z" fill="#7B454C"/>
<path fill-rule="evenodd" clip-rule="evenodd" d="M530.145 297.156C539.345 297.084 546.012 301.084 550.145 309.156C552.742 317.941 553.742 326.941 553.145 336.156C553.145 338.489 553.145 340.823 553.145 343.156C551.422 345.436 550.756 348.103 551.145 351.156C549.97 356.857 548.636 362.524 547.145 368.156C545.739 368.629 545.072 369.629 545.145 371.156C540.097 387.037 529.764 397.87 514.145 403.656C509.535 404.946 504.868 405.28 500.145 404.656C504.128 387.575 507.795 370.409 511.145 353.156C512.558 350.437 513.225 347.437 513.145 344.156C513.828 338.759 514.828 333.425 516.145 328.156C517.569 326.141 518.235 323.808 518.145 321.156C519.223 314.102 520.556 307.102 522.145 300.156C523.049 299.447 523.382 298.447 523.145 297.156C525.478 297.156 527.812 297.156 530.145 297.156Z" fill="#040D34"/>
<path fill-rule="evenodd" clip-rule="evenodd" d="M436.145 298.156C435.89 300.623 434.89 302.623 433.145 304.156C433.4 301.689 434.4 299.689 436.145 298.156Z" fill="#9294A8"/>
<path fill-rule="evenodd" clip-rule="evenodd" d="M530.145 370.156C531.569 368.141 532.235 365.808 532.145 363.156C533.197 359.23 533.863 355.23 534.145 351.156C535.569 349.141 536.235 346.808 536.145 344.156C536.812 340.156 537.478 336.156 538.145 332.156C539.569 330.141 540.235 327.808 540.145 325.156C540.968 322.195 541.635 319.195 542.145 316.156C543.467 315.986 544.634 316.319 545.645 317.156C547.96 341.867 542.293 364.534 528.645 385.156C528.808 380.156 529.308 375.156 530.145 370.156Z" fill="#D2715E"/>
<path fill-rule="evenodd" clip-rule="evenodd" d="M454.145 326.156C454.429 324.241 454.096 322.575 453.145 321.156C454.689 315.69 456.522 310.357 458.645 305.156C458.234 312.459 456.734 319.459 454.145 326.156Z" fill="#B46258"/>
<path fill-rule="evenodd" clip-rule="evenodd" d="M550.145 309.156C552.358 311.614 553.524 314.614 553.645 318.156C554.464 324.337 554.298 330.337 553.145 336.156C553.742 326.941 552.742 317.941 550.145 309.156Z" fill="#5E627E"/>
<path fill-rule="evenodd" clip-rule="evenodd" d="M518.145 321.156C518.235 323.808 517.569 326.141 516.145 328.156C516.055 325.504 516.721 323.171 518.145 321.156Z" fill="#7F8298"/>
<path fill-rule="evenodd" clip-rule="evenodd" d="M629.145 313.156C630.739 323.945 630.072 334.611 627.145 345.156C628.685 334.558 629.352 323.892 629.145 313.156Z" fill="#AA5C56"/>
<path fill-rule="evenodd" clip-rule="evenodd" d="M450.145 329.156C449.89 331.623 448.89 333.623 447.145 335.156C447.4 332.689 448.4 330.689 450.145 329.156Z" fill="#593345"/>
<path fill-rule="evenodd" clip-rule="evenodd" d="M540.145 325.156C540.235 327.808 539.569 330.141 538.145 332.156C538.055 329.504 538.721 327.171 540.145 325.156Z" fill="#5A3445"/>
<path fill-rule="evenodd" clip-rule="evenodd" d="M553.145 343.156C553.08 346.084 552.413 348.751 551.145 351.156C550.756 348.103 551.422 345.436 553.145 343.156Z" fill="#696C86"/>
<path fill-rule="evenodd" clip-rule="evenodd" d="M536.145 344.156C536.235 346.808 535.569 349.141 534.145 351.156C534.055 348.504 534.721 346.171 536.145 344.156Z" fill="#5B3445"/>
<path fill-rule="evenodd" clip-rule="evenodd" d="M513.145 344.156C513.225 347.437 512.558 350.437 511.145 353.156C511.065 349.875 511.732 346.875 513.145 344.156Z" fill="#7A7D93"/>
<path fill-rule="evenodd" clip-rule="evenodd" d="M356.145 349.156C355.861 351.071 356.194 352.737 357.145 354.156C356.936 355.578 356.436 356.911 355.645 358.156C354.84 354.96 355.007 351.96 356.145 349.156Z" fill="#7E464C"/>
<path fill-rule="evenodd" clip-rule="evenodd" d="M416.145 353.156C415.849 355.059 415.182 356.726 414.145 358.156C413.765 355.958 414.432 354.291 416.145 353.156Z" fill="#878A9F"/>
<path fill-rule="evenodd" clip-rule="evenodd" d="M601.145 361.156C600.05 366.441 598.383 371.441 596.145 376.156C596.854 370.697 598.52 365.697 601.145 361.156Z" fill="#8F91A5"/>
<path fill-rule="evenodd" clip-rule="evenodd" d="M532.145 363.156C532.235 365.808 531.569 368.141 530.145 370.156C530.055 367.504 530.721 365.171 532.145 363.156Z" fill="#5B3545"/>
<path fill-rule="evenodd" clip-rule="evenodd" d="M547.145 368.156C547.218 369.683 546.551 370.683 545.145 371.156C545.072 369.629 545.739 368.629 547.145 368.156Z" fill="#757990"/>
<path fill-rule="evenodd" clip-rule="evenodd" d="M620.145 378.156C619.636 383.359 617.969 388.026 615.145 392.156C616.441 387.263 618.107 382.596 620.145 378.156Z" fill="#7F474D"/>
<path fill-rule="evenodd" clip-rule="evenodd" d="M594.145 382.156C594.218 383.683 593.551 384.683 592.145 385.156C592.072 383.629 592.739 382.629 594.145 382.156Z" fill="#83869B"/>
<path fill-rule="evenodd" clip-rule="evenodd" d="M489.145 456.156C493.95 455.169 498.95 454.835 504.145 455.156C504.44 457.391 504.106 459.391 503.145 461.156C503.145 459.489 503.145 457.823 503.145 456.156C498.478 456.156 493.812 456.156 489.145 456.156Z" fill="#8B8FA2"/>
<path fill-rule="evenodd" clip-rule="evenodd" d="M556.145 432.156C555.71 481.493 555.043 530.826 554.145 580.156C553.812 580.156 553.478 580.156 553.145 580.156C553.063 530.64 554.063 481.306 556.145 432.156Z" fill="#86899E"/>
<path fill-rule="evenodd" clip-rule="evenodd" d="M503.145 470.156C503.32 494.006 502.653 517.673 501.145 541.156C501.204 517.312 501.87 493.646 503.145 470.156Z" fill="#8B8DA1"/>
<path fill-rule="evenodd" clip-rule="evenodd" d="M577.145 447.156C576.894 487.002 575.894 526.668 574.145 566.156C574.396 526.31 575.396 486.644 577.145 447.156Z" fill="#7D464C"/>
<path fill-rule="evenodd" clip-rule="evenodd" d="M420.145 525.156C420.43 528.485 419.763 531.485 418.145 534.156C418.321 530.929 418.988 527.929 420.145 525.156Z" fill="#494D6C"/>
<path fill-rule="evenodd" clip-rule="evenodd" d="M492.145 565.156C492.455 561.943 492.122 558.943 491.145 556.156C491.578 553.49 492.078 550.824 492.645 548.156C493.463 554.005 493.297 559.671 492.145 565.156Z" fill="#8C4D4F"/>
<path fill-rule="evenodd" clip-rule="evenodd" d="M487.145 576.156C487.235 578.808 486.569 581.141 485.145 583.156C485.055 580.504 485.721 578.171 487.145 576.156Z" fill="#73414A"/>
<path fill-rule="evenodd" clip-rule="evenodd" d="M457.145 608.156C457.145 609.156 457.145 610.156 457.145 611.156C438.8 611.489 420.466 611.156 402.145 610.156C402.269 609.549 402.602 609.216 403.145 609.156C411.805 609.822 420.639 610.156 429.645 610.156C439.041 610.129 448.208 609.462 457.145 608.156Z" fill="#75798F"/>
<path fill-rule="evenodd" clip-rule="evenodd" d="M500.145 576.156C500.145 587.489 500.145 598.823 500.145 610.156C517.812 610.156 535.478 610.156 553.145 610.156C553.145 600.156 553.145 590.156 553.145 580.156C553.478 580.156 553.812 580.156 554.145 580.156C554.145 590.489 554.145 600.823 554.145 611.156C535.812 611.156 517.478 611.156 499.145 611.156C498.817 599.311 499.15 587.644 500.145 576.156Z" fill="#74788F"/>
<path fill-rule="evenodd" clip-rule="evenodd" d="M260.145 615.156C260.145 616.156 260.145 617.156 260.145 618.156C264.478 618.156 268.812 618.156 273.145 618.156C273.145 621.823 273.145 625.489 273.145 629.156C295.812 629.156 318.478 629.156 341.145 629.156C318.318 630.154 295.318 630.487 272.145 630.156C272.145 626.489 272.145 622.823 272.145 619.156C267.812 619.156 263.478 619.156 259.145 619.156C258.877 617.557 259.211 616.224 260.145 615.156Z" fill="#AF6056"/>
<path fill-rule="evenodd" clip-rule="evenodd" d="M574.145 597.156C574.145 608.156 574.145 619.156 574.145 630.156C550.639 630.487 527.306 630.154 504.145 629.156C527.145 629.156 550.145 629.156 573.145 629.156C572.817 618.31 573.151 607.643 574.145 597.156Z" fill="#9E5752"/>
<path opacity="0.866" fill-rule="evenodd" clip-rule="evenodd" d="M406.252 47.6732C554.132 46.4919 668.121 107.074 748.221 229.417C801.61 320.928 815.719 418.177 790.546 521.165C762.817 619.17 705.582 694.897 618.84 748.345C528.335 800.193 432.142 814.222 330.259 790.433C214.589 758.63 130.739 688.961 78.7119 581.427C37.1437 486.878 33.6163 390.905 68.1306 293.506C104.658 199.986 167.987 130.637 258.113 85.4569C305.124 63.2487 354.503 50.6538 406.252 47.6732ZM405.29 56.2821C303.71 63.5203 218.258 104.014 148.933 177.764C66.5425 272.801 37.6843 382.166 62.359 505.86C95.4352 634.084 173.833 722.565 297.553 771.302C403.443 807.228 505.73 798.938 604.411 746.432C697.968 692.243 758.09 612.691 784.775 507.773C810.148 384.892 782.251 275.845 701.086 180.633C621.692 95.0348 523.094 53.5837 405.29 56.2821Z" fill="#1F1919"/>
</svg>
