<svg width="363" height="546" viewBox="0 0 363 546" fill="none" xmlns="http://www.w3.org/2000/svg">
<path d="M71.5 69.1L72.8 70.1M72.8 70.1V70.2L72.7 70.4L71.5 69.2C71.2 69.5 71 70 70.7 70.2C68.4 73 69.7 66.4 67.7 67C66.1 67.4 65.4 69.8 64.8 71.1C64.7 71.7 64.4 72.5 63.8 72.8C62.8 73.1 62.8 70.7 62.8 70.1C62.2 67.4 62.8 64.2 63.8 61.7C65 59.1 67.2 57.1 68.7 54.7C72.1 48.8 75 42.8 79.2 37.5C80 36.7 81.4 36.7 82.1 35.8C82.5 35.2 82.5 34.2 83 33.7C84 32 85.1 30.2 86.4 28.7C90.7 23.4 96.2 18.7 101.7 14.7C105.2 12.1 109.2 10 113.2 8.1C121.1 4.5 129.2 1.7 137.8 1.1C150.5 0.200003 162.8 4.1 174.5 8.4C178.5 9.8 183 11 186.7 13.1C191.4 15.8 195.7 19.4 199.8 23C202.5 25.2 205.2 27.7 208 30.1C209.2 31.1 210.8 31.7 211.8 33C214.1 35.8 215.5 39.5 217.2 42.7C219.5 46.8 222.2 50.4 223.2 55.1C224.8 61.7 224.2 68.7 224.5 75.4C224.7 77.2 225.7 78.4 225.7 80.1C224.4 80.1 224.4 81.1 225.1 82M72.8 70.1L73 70M225.1 82C225.7 81.4 225.8 81 225.8 80.2M225.1 82V82.2M149.5 5.8C151.1 4.4 154.7 4.7 156.7 4.8C157.2 4.8 159.1 5 159 5.8C158.8 6.5 157.2 6.5 156.7 6.5C154.7 6.5 151.1 7.1 149.5 5.8ZM149.5 5.8C148 6.2 146.2 6.2 144.5 6.7C140.1 8 135.7 9.8 131.5 11.8M120.1 11.4L118.2 12L118.1 12.1M118.1 12.1L118.8 12.8L119.2 12.1M118.1 12.1C111.4 15.7 105 20.2 99 25C97.5 26 96.1 27.1 95 28.4C94.2 29.1 93.8 30.1 92.7 29.8L92.8 29.1L93 29L93.7 29.7M125.4 11.7H125.5M118.8 13C117.1 14.7 115.2 16.1 113.4 17.7C112.2 18.5 111 19.5 110.4 20.8M110.4 20.8L110.7 21.1L111.4 21L111.5 20.8L110.8 20M110.4 20.8L109.1 21.7M147.4 25.2L146.7 24.5M146.7 24.5L146.8 24.4C148.7 24.2 146.7 25.8 146.1 26.1C143.4 27.7 140.8 29.4 138.4 31.2C138 31.5 135.4 33.2 136.5 34C138.1 34.8 141.5 34 143.2 33.8C146 33.7 149.5 33.7 152.1 32.4C153.2 31.8 153.7 30.4 155 29.8C157 28.7 159.1 28.1 161 26.8C161.7 26.4 162.1 25.7 162.7 25.2C163.7 24.4 165.1 24 166.4 23.7C167 23.5 168 23.5 168.2 23.1C168.7 22.4 167.2 21.7 166.8 21.4C166.2 21 165.2 20.4 164.5 20.7C163.1 21 162.1 22.4 160.5 22.2C160 22.2 157.8 21 158.4 20.2C158.7 19.8 159.4 19.7 159.8 19.5C161.1 19.1 162.5 18.7 164 18.2C168.2 17.2 172.8 16.8 177.2 17.4C179 17.5 181.1 17.8 182.7 18.8C183.2 19.2 183 19.7 182.4 19.8C181.7 20 178.2 20.4 179.5 21.8C181.5 23.8 185.7 22.8 188.1 23.7C191.5 24.7 195.2 26.5 197.7 29.4C199.8 32 201 36.2 201.4 39.5L201.5 39.7M146.7 24.5C141.2 25.8 136.2 28.5 130.8 30.1C128.8 30.7 126.1 31.7 124.2 31.1L124 32M201.5 39.7C201.8 39.4 202.5 38.4 203 38.2C204.5 38.1 204 41.7 202.8 40.1C202.7 39.8 202.5 39.7 202.4 39.4C202.1 39.7 201.8 40 201.5 39.7ZM111.7 20.8C112.4 20.5 113.1 20.1 113.8 19.8C114.2 19.5 114.7 19.4 115.1 19.2C117.2 18.2 117.8 19 116.4 20.8C115.1 22.5 112.2 24.5 112 26.7L112.1 26.8L118.4 24.2L122.5 23.5L126.8 21.7C126.1 24.5 122.5 25.8 121.7 28.7L122.5 28.8L122.7 28.7L122 27.8M124.4 18.7H124.5M129.2 19.7L127 21.5M125.7 22L125.8 22.4M160 22.1C158.5 23.2 156 23.5 154.2 24.1M96.2 23.5L95.2 25.5L93 28.8M148 24.4L150 23.7M82.4 35.5C83.8 35.2 85.1 34 86.1 33C88.2 30.8 90.2 28.4 92.5 26.4C93.5 25.5 94.2 24.4 95.5 24.2M125.1 31.7L124.1 32.1L124 32M124 32L122.2 33.8M185.4 25.4L185.2 25.2C184.5 25.2 184.4 25.5 184.7 26.1L185.4 25.4ZM185.4 25.4C186.2 25.5 187.1 26.1 188 26.5C190.1 27.7 193.5 29.2 194.5 31.7C193.4 32 192.2 31.2 191.2 30.7C189 29.4 186.7 28 184.7 26.2M122.8 28.7C124.7 27.5 127 25.7 129.2 25.5C129.2 27.7 125.7 29.2 124.5 30.8M172.4 30.5C173.1 30.1 174.1 30.2 174.8 30.7C175.1 30.8 175.7 31.4 175.2 31.8C174.2 32.7 172.1 30.5 171.1 30.4M124.8 31.1L125 31.2M140.2 39.5C143.7 38.7 147.2 38.2 150.7 37.4C154.5 36.4 158.1 35.1 162.1 34.7C165 34.4 167.8 35.8 170.7 35.5C174 35.2 177.1 34.1 180.4 33.8C184.1 33.5 187.5 34.7 190.7 36.5C193.4 38 195.7 39.8 198.4 41.2C200.1 42.1 201.7 42.5 201.7 40.1M119.4 35.5L118.5 36.7M178.2 41.8C177.1 41.1 176.5 41.2 175.5 42.2L175.4 42.1L176.2 40.4C175.8 40.1 175.5 40 175.1 39.5C172.4 37.5 177.8 37.1 179.1 37.1C183.7 37.1 188.7 37.2 192.8 39.4C194.2 40.2 196 41.1 197.2 42.2C197.8 42.7 198.1 43.4 198.8 44C203.8 47.7 208.4 52.4 211.5 57.8C212.8 60.1 214.1 62.5 215.1 65C215.4 65.5 215.4 66.2 215.5 66.8C217.4 71 219.2 75.1 219.8 79.7C220 80.8 219.7 81.8 219.7 83C220 86.1 221.2 89.1 221.5 92.1C221.8 94 222.5 94.7 221 96.4C222.7 98 222.8 95.7 223.8 94.8C224.2 94.5 225 94.7 225.2 94.4C225.7 93.8 225.7 92.7 225.8 92C226 89.8 226 87.7 226 85.5C226 84.7 226.2 82.7 225.1 82.5C224.2 82.4 224.4 84.5 223.1 84C221.8 83.4 221.5 80.5 221.2 79.4C220.4 76 220.5 71.8 219 68.7C218.2 67.2 217 65.7 215.4 65.2M116.4 37.5L115.5 38.7M202.5 39.1V39.2M141 39.7C141.7 40.4 143 40.4 143.8 40.7C145.8 41.1 148 41.5 150 42.1C150.7 42.2 152.7 42.5 152.8 43.4C153.1 44.5 149.5 44.7 148.8 44.7C144.4 45.4 140 45.8 135.4 45.8C132.7 45.8 130.7 44.8 128.1 44.1C125.4 43.5 122.4 43.2 119.5 43.1C116.1 43 112.5 43 109.2 43.4C105.7 44 102.2 45.2 98.5 45.7C94.1 46.2 90 46.8 86.2 49.5C85.1 50.4 83.8 51.1 83.1 52.4L83.2 52.5L83.4 52.7M83.4 52.7L83.5 52.5L83.7 52.4L83.5 52.2L82.2 53.5L83.4 52.7ZM209.4 40V40.2M176.4 40.4L176.8 41M175.8 41.4H176.1M82.8 53.5C82.5 54.4 81.8 54.2 81.2 54.7C80.5 55.4 80 56.2 79.5 57.1M79.5 57.1C79.2 57.4 78.5 58.5 79.2 58.7C80 59 80.8 58 81.4 57.5C83.1 56.2 84.8 55.1 86.8 54.4C93.4 52.1 100.7 52.2 107.5 51.5C111.5 51.2 115.5 50.7 119.5 50.7C123.7 50.7 127.7 51.1 131.8 50.8C138.4 50.4 145 49 151.5 49.4C161.1 50.1 170.2 52.7 179.8 52.7C181.8 52.7 185.2 53 186.5 51.1C187.1 50.2 187.1 49.2 187.5 48.4C187.8 47.7 189 46.8 188.8 46C188.5 44.7 185.7 43.8 186 42.5C186.1 41.8 188 41.7 188.5 41.5C191.2 41.1 194.2 41.7 196.5 43.1L197 42.7V42.5H196.7L196.4 42.8M79.5 57.1L80.2 57.8L80.4 57.7L80.5 57.5L80.1 58M197.1 42.1L196.8 42.4M175.5 42.4C177.2 43.5 179.1 44.5 181.1 45.1C182 45.4 182.7 45.8 183.4 45.1M196.8 43.2L197.7 43.4M183.5 45.5C183.5 48.1 180.8 46.2 179.8 47.5C179 48.5 182 49.8 180.5 50.8C179.2 51.8 176.1 50.5 174.7 50.1C171.5 49.1 168.5 47.7 165.4 47C163.4 46.4 161.2 46.4 159.2 46.2C151.2 45.2 143.1 47.4 135.1 47.5C131.4 47.5 128.1 46.4 124.4 45.8C122 45.5 119.4 45.7 117 45.7C112.5 45.7 107.8 46.5 103.4 47.2C98.8 47.8 94.1 48.2 89.7 49.7C87.4 50.5 85.5 52.2 83.4 53M183.8 46.2L186.1 45.7M81.5 54.4L82.4 53.1M78.8 58.7L74 66.1L72.4 67.5L73.1 69.7L71.7 68.8M73.8 67L73.4 68.8M72.1 68L73.2 69.2M72 68.2L73.1 69.5M60.7 91C60.7 93.1 60.7 95.7 62 97.5M62 97.5C63 96.5 63.2 95.4 64.4 96.7M62 97.5C62 98.8 62.8 99.1 64 99.1M64.4 96.7C65.5 95.7 65.7 93.1 66.1 91.7C67.5 87.2 69 83 70.4 78.5C71 76.8 72.5 74.4 71.1 73M64.4 96.7C64.1 99.1 64 101.4 64 103.8C64 104.4 63.7 104.8 63.7 105.4C64.5 115.2 68.4 125.1 67.8 135.1C67.7 138 63.7 137 61.7 137.2C60.8 137.4 59.1 137.5 59.2 138.8C59.5 139.8 61.5 140.7 62.4 141.1C65 142.5 68.4 144.1 70 146.7C71.1 148.5 70.8 151 71 153.1C71.1 155.8 71.5 158.7 72.5 161.2C74.1 164.8 77.5 166.4 79.7 169.4C82 172.2 82.8 176.2 84 179.7C85 182.7 86.7 185.4 87.5 188.4C88.4 191 88.1 193.5 89.1 196C89.8 197.5 91 199 91.8 200.4C93.1 202.5 94.1 205 95.4 207.1C97 209.8 98.4 212.5 101.7 213.5C102.4 213.7 103.2 214.2 104 214C105.4 213.7 105.1 211.1 105.1 210C105.1 206.2 104.2 201.7 106 198.1C107.5 194.7 111.5 195.4 114.7 195C116 194.7 116.7 193.8 117.8 193.4C119.2 193 120.8 193.1 122.4 192.7C123.7 192.2 127.5 191.1 127.8 189.5C128 189 127.2 188.2 127 187.8C126 186.4 124.8 185.2 124.1 183.7C122.8 180.8 123.1 178 122.8 175C122.5 172.7 121.5 170.4 121.5 168C121.5 166.5 122 164.4 123.1 163.4C124.2 162.5 127 163.1 126.8 164.8C126.5 167.4 124.8 170 124.4 172.5C124.2 173.2 123.8 174.7 124.2 175.4C124.5 175.8 125.4 175.5 125.8 175.7C126.7 175.8 127.4 176.4 128.1 176.8C129.8 178.1 131.5 179.5 133.5 180.4C135.4 181.1 137.5 181.4 139.5 181.8C141.8 182.4 144.2 183.1 146.5 182.2C150 181 152 177.7 155.1 176C156.7 175.1 158.4 174.8 160.2 175.2C161.1 175.5 163 176.4 163.7 175.8C164.7 175.1 163.7 172.8 163.5 171.7C163.5 171.2 163.7 170.7 163.7 170.2M71.1 73C70.2 74.2 69.7 75.8 69 77.1C67.2 80.4 65.5 83.7 63.5 86.8C62.8 87.8 62.1 88.8 61.5 89.8C61.2 90.1 61 90.8 60.5 90.7C60.1 90.7 60 90 59.8 89.5C59.5 88.2 59.4 87 59.4 85.5C59.4 81.2 60.1 77 60.7 72.7C60.8 71.2 61 69 62.4 68.4M71.1 73V72.8M71.8 68.5V68.7M71.4 69.5L72.7 70.5M72.5 70.7L71.7 71.8L72 73.7M72.4 71.2V72.7M71.4 72.1L72.2 73.2M71.2 72.5L72.1 73.5M224.8 78.1L224.5 80.1M221.7 93.1C220.8 94.1 220.5 95.1 220.8 96.4C219.8 98.2 221.5 99.7 222.2 101.1C222.5 101.7 222.2 102.4 222.7 102.8C223.1 103.2 223.8 103.1 224.2 103.5C224.7 104.1 224 105.1 224.5 105.5C226.2 106.7 227 102.4 227 101.5C227 100.5 227.1 99.5 227 98.7C226.7 97.1 226 96.1 225.4 94.8M221.5 96L222.4 96.8M62 98.4C61.5 99.5 62.4 101.7 63.5 101.8M225.4 99.7H226.8M62.4 101.5C61.4 102.8 62.5 104.4 63.5 105.2M226 105.5C227.2 107 227.4 109 227.7 110.8C227.8 111.8 227.8 113 228.7 113.5C229.5 114.2 230.8 114.1 231.8 114.1C233.8 114.1 237.4 114 239 115.4C240.7 117.2 241.8 119.4 243.2 121.4C243.5 121.8 244.1 122 244.4 122.4C245.4 123.8 246.1 125.7 246.8 127.2C247.7 129.1 248.8 130.8 249.2 132.8C249.8 135.4 249.4 138.4 249.2 141C248.8 147.4 247.8 154 245.7 160.1C245 162.4 243.7 164.4 243 166.7M243 166.7C245 167.5 247.4 167.7 249.5 168.2C254.7 169.8 259.8 171.4 264.7 173.5C270.8 176.4 276.5 182 281 187C283.1 189.4 285.7 192.5 286.5 195.8C287.4 199.1 286.4 203.2 286 206.5C285.5 210.7 285 214.8 284.2 219C284 221.2 283.8 223.7 283.1 225.8C282.8 227 282 227.8 281.5 228.8C281.2 229.5 282.1 230.4 281.8 231.2C281 234.7 279 238.4 276.8 241.1C275.7 242.4 274.2 242.7 272.8 243.4C271 244.5 269.2 246.1 267.2 247.2C266 248 264.5 248.4 263.2 249.4M243 166.7L237.8 171.7M263.2 249.4L264.1 250.2L264.4 250L263.8 249M263.2 249.4C259.1 251.8 255.5 255.2 251.4 257.8C249.1 259.2 246.7 260.2 244.2 261.4C242 262.7 239.7 264.1 237.5 265.5C235.7 266.8 233.8 268.1 232.1 269.4C231.1 270.2 230 270.8 229.8 272.2M172.5 117.7C171.7 119.4 167.5 118.8 165.8 119.1C163.8 119.7 163 121.5 161 122C158 122.7 156 118 156 115.7C156 112.8 159 111.7 161.2 110.7C166.4 108.4 174.2 104.2 179.2 108.5C180 109.2 181.7 110.2 181.8 111.2C182.1 112.4 179.7 112.7 179 112.8C176.2 113.5 173.4 114 170.8 115C170.2 115.1 168.5 115.5 168.4 116.2C168.4 117 169.7 117.1 170.1 117.1C172 117.2 173.5 117.8 175.4 117.4M232.8 121.7L233.5 122.4V122.5L232.5 122.8M232.5 122.8C232.7 121.8 233.2 121 234 120.2C235.2 118.7 236.8 116.2 239.1 116.2M232.5 122.8L230.5 125.5M108.5 128.7C107.7 129.4 105.8 129.2 104.8 128.7C104.4 128.4 104.2 127.7 103.7 127.4C102 126.7 99.2 126 97.4 126.5C94.1 127.4 90 127.2 86.8 128.7C85.5 129.4 84.5 130.5 83.7 131.5C83 132.2 81.1 134.4 80 133.5C79.1 133 79.5 131.4 80 130.7C81.2 128.7 83.2 127.1 85.4 126.4C86.4 126.1 87.5 126.1 88.7 125.8C91 125.1 93.1 124.2 95.2 123.2C99.5 121.4 104.5 118.2 109.4 118.4C113.2 118.5 117.2 120.8 120.4 122.7C123.4 124.5 126.7 127.2 127.5 130.8C127.7 131.2 127.8 131.7 127.8 132.1C128.2 136.4 124.4 132.1 122.8 131.4C121.4 130.7 119.7 130.7 118.5 129.7M118.5 129.7C119.2 129.1 121.7 129.1 121.8 128.4C122.1 127.2 119.1 125.8 118.4 125.2C116.4 123.8 114.2 121 111.8 120.4C110.4 120 108.8 120.4 107.4 121C105.7 121.5 104.1 122.2 102.5 123.1C102.1 123.4 101.1 124 101.4 124.7C101.5 125.1 102.4 125.1 102.8 125.1C104.1 125.1 105.2 125.7 106.2 126.2C108.1 127.7 108.7 129.1 111.2 129.2C113.7 129.4 116.1 129.5 118.5 129.7ZM190 118.8L193.4 121.7L195.7 122.8M190.4 119.1H191.5L191 120M191.8 119.2C193 120 194.4 120.7 194.7 122M179 121.8C179.5 122.4 180.5 124.7 178.7 124C177 123.4 179.2 121.1 180.2 120.8C183 120.4 186.4 121.7 189.1 122L189.2 122.1M189.2 122.1C188.2 123.2 186.4 123.8 187.8 125.2C189.2 124.1 191.2 125.4 192.8 124.2C194 123.4 191.5 122.1 190.7 122.4C189.8 122.7 189.4 123.4 188.4 123.4M189.2 122.1L190 122.7M194.2 121L193.5 121.7M163.2 127.7C165.5 126.1 168.2 125.2 170.7 123.8C171.1 123.5 171.1 123 171.5 122.7C172.4 122.1 174 121.8 175 121.7C176.1 121.5 177.8 121 178.8 121.5M243.2 122L243.7 123.2M243.7 123.2L244.5 122.7M243.7 123.2C244.2 125.2 246.8 128.8 245.1 130.5M233.7 122.5C235 122.1 236.4 122.7 237.5 123.2C239.7 124.1 241.5 125.1 243 127C243.8 128.1 244.2 129.4 245.1 130.5M245.1 130.5V131L245.2 131.1L246.1 130M170.8 124C171.7 124.8 172.2 126.1 172.8 127.1C173.1 127.5 173.1 128.2 173.5 128.5C174.7 129.4 177 129.1 178.2 128.8C180.2 128.7 182.4 128.4 184.2 127.7C185.5 127.1 186.5 126.1 187.8 125.4M187 124.7L186.8 125.7M246.2 130.5L245.8 131.8L245.7 131.7L245.5 131.5L245.4 131.4L245.2 131.2M246.1 132L246.4 133.7M106 134.7L105.1 132.5M105.1 132.5C107.5 131.7 110.2 132.4 112.7 132.8C114.2 133.1 116 133 117.5 133.4C118.5 133.5 119.5 134 120.5 134.5C120.8 134.7 121.2 135.1 121 135.4C120.7 136 119.5 135.5 119.1 135.4C117.5 135.1 115.7 134.2 114.1 134.5C112 134.8 112.5 137 111.1 138.1C109.8 139.1 106.2 139.4 104.7 139.7C103.5 139.8 100.5 140 99.5 139.4C97.8 138.7 97.2 137 95 137.4C94.2 137.5 93.8 138.2 93.2 138.5C92.7 138.8 92.2 138.2 91.7 138.5C91.2 138.7 89.8 140 90.7 140.4C91.2 140.7 92.2 140.4 92.8 140.2C94.1 140.1 95.4 140 96.7 139.8C97.7 139.8 98.4 140 99.2 139.4M105.1 132.5C102.5 132.5 99.8 134 97.7 135.1C96.7 135.7 95.5 136.1 95.2 137.2M112.4 132.8L112.2 135.1M96.4 136.1L96.8 137.2M90.4 136.5L89.5 137.7M92.1 138.2C92.7 138 93 137.8 93.5 138.1M177.4 243.4V242.4L177.5 242.2C177.8 242.4 179.5 243 178.8 243.5C178.4 243.8 178 243.7 177.5 243.5C177 243.5 176.5 243.8 176.1 243.5C175 243.1 174.4 241.5 173 242.5C171.5 243.5 172.5 245.2 171.5 246.4C170.8 247.1 169.7 245.8 169.2 247.2C168.8 248.4 169.5 251.4 168.1 252C167.2 252.2 167.1 251 167 250.5C166.7 249.4 165 247.4 163.5 248C162.1 248.5 161.5 251.1 161 252.2C160.5 252.8 160.1 253.7 159.4 253.7C157.8 253.4 158.5 251.8 158.4 251C158.4 250.5 158.1 250.1 158 249.7C157.8 248 158.1 244.4 155.8 243.8C155.2 243.7 155.4 244.4 155.4 244.7C155.7 245.8 156.2 247.2 155.1 248.1C153.5 249.2 150.4 248.4 148.7 248.2C147.1 248 145 247.8 143.7 246.8C143 246.2 143.2 244.7 142.2 244.4C141 244 140.1 245.8 138.8 245.8C137.8 245.8 137.2 245 137.1 244C137 243.5 137 243 136.7 242.7C135.7 242.2 134.5 244.1 133.4 243.7C132.1 243.4 132.4 240.8 131.4 240.8C130 240.7 128.4 242.7 128.1 243.8C128 244.4 128 245.8 127.1 245.5C126 245.2 126.1 243.2 125.8 242.4C125.4 241.2 124.2 241 123.5 240C123 239.2 123.1 238.2 122.2 237.7C121.2 237 119.8 237.2 118.7 236.8C117 236.2 115.8 234.8 114.2 233.8C113.4 233.4 112.2 233.4 111.4 232.8C110.7 232.2 110.4 231 109.8 230.2C108 228 105.4 224.5 102.7 223.2C101.1 222.5 101.7 224.7 100.8 225.2C100 226.1 98.7 225.1 98 224.5C96.5 223.4 95.1 222.1 94.4 220.4C93.8 219.2 93.7 218.1 93.1 217C91 212.8 89.1 209 87.5 204.7C85.2 198.7 82.5 193 80.2 187C78.7 182.7 77.5 178.1 75.8 173.8C75.4 172.8 75 171.5 74.2 170.7C73.5 170 72.4 169.8 72 168.7C71.1 166 70.7 163.1 69.7 160.4C69.2 159.1 67.8 158 67.5 156.8C67.4 155.4 69.2 154.7 69.7 153.5C70.5 151.1 66.8 149 65.1 148C63 146.8 62 149.1 60.1 149.7C58.5 150.2 57.2 149.7 55.7 149.7M55.7 149.7C55.5 149 55.2 148.4 55.2 147.7C55 145.1 56 139.2 59.1 139.2M55.7 149.7C54.1 151.8 55.1 156.5 55.4 159.1C55.7 162.4 56.1 165.5 57.2 168.7C59.1 174.7 63 179.2 67.1 183.8C68.7 185.5 70.4 187.1 72.1 188.5C72.8 189.1 74.2 189.8 74.7 190.7C75 191.2 74.5 193 74.5 193.7C75.5 194.1 76.1 195 77.2 194.8C78.4 194.7 80.2 192.2 81.1 193.4C81.7 194.2 82 195.5 82.2 196.5C83 198.7 83.7 200.7 84.4 202.8C86.4 209.2 88.2 215.5 92.1 221.1C93.5 223.2 95.2 225.4 97.1 227.4C97.7 228 98.7 229.1 99.5 228.8C100.5 228.4 100.5 226.4 101.1 225.5M225.1 154C224.7 153.5 224 153 223.5 153.7C222.8 154.7 223.1 156.1 222.8 157.2C222.5 159 221.8 160.4 220.8 161.8M220.8 161.8C219.7 160.7 220.7 159.2 221.1 158C222.1 154.8 222.2 151.5 222.8 148.2C223 147.7 223.4 144.2 224.5 145C225 145.2 225.1 146 225.1 146.5C225.4 148 225.7 149.5 225.7 151C225.7 151.7 225.8 152.5 225.7 153.2C225.5 153.8 225.1 154.2 225.1 154.8C225.1 155.4 225.5 156 225.5 156.5C225.7 160.4 225.2 164.7 224.4 168.5C224 170.4 223.2 172.1 223.2 174C223.2 174.8 223.2 176 224.2 176.2C225.4 176.8 226.4 176.2 227.5 175.8C229.2 175.2 231.1 174.8 232.8 174.2C233.5 174 233.8 173.5 234.5 173.4C234.5 174.2 235.4 175.8 236.5 175.2C237.2 174.8 238 172.5 237.8 171.7M220.8 161.8C220.4 162.2 220.1 161.7 220 161.2M237.8 171.7L234.7 173.2M225.1 155.5C224.5 156.2 224.1 157.2 225.2 157.4M224.5 157.4C223.8 158.5 223.8 160 223.7 161.2C223.4 163.7 223.1 166.2 222.7 168.7C222.5 170 222.1 171.5 223.1 172.4M219.8 161.7C219.8 162.4 220 162.8 220.7 162.4M220 162.8C219.7 165.4 219.7 168 219.2 170.5C218.7 173.4 217.8 176.1 217 178.8C216.4 180.8 215.4 183.2 217.4 184.5M244 167.2C243.8 168.8 243.2 170.2 243.4 171.8C243.8 177.2 246.2 182.4 247.4 187.7C247.8 189.5 248 191.2 248 193.1C248 193.5 248.1 194.7 247.7 195C247.4 195.4 247 194.8 246.7 194.5C246 193.5 245.2 192.2 244.5 191.2C242.7 188.5 240.2 186.2 238.4 183.7C237.8 182.8 237.7 181.7 237 180.8C236.8 180.5 236.4 180.4 236.2 180C236 179.5 235.8 176.7 234.5 177.7C233.4 178.5 233.5 182 233.5 183.4C233.4 186.4 233.2 189.5 233.2 192.5C233.2 194.5 233.4 196.7 233 198.7C232.7 200.4 230.1 200.5 228.8 201.8C228.4 202.2 227.8 202.8 227.7 203.4C227.5 204.1 227.8 204.5 227.4 205.2C225.5 208.2 221.5 211.1 223.2 215.4C223.8 216.8 225.7 217 226.7 218C227.4 218.7 227.5 219.8 228.2 220.5C228.7 221.1 229.4 221.2 230.1 221.7C231 222.2 231.5 223.2 232.5 223.5C234 223.8 235.5 222.8 236.7 222.1C239.1 220.5 241.8 218.4 244.8 218.2C247.1 218.1 248.7 220.1 250.7 220.7C252.5 221.2 254.5 221.1 256.4 221.4C258.5 221.8 260.4 222.7 262.5 223C264.2 223.1 265.8 222.7 267.4 222C268.4 221.4 269.8 220.5 271 220.7C271.7 220.8 272.1 221.5 272.7 221.8C274.5 222.7 275.7 222.4 277 224.4C277.8 226 278.8 229.4 281.1 229M73 170.1C73 172 73.1 174.7 74 176.4C74.7 177.8 76 178.4 76 180.2C76 180.7 75.4 182.1 74.8 181.4C74.1 180.4 73.8 178 73.8 176.8M163.8 170.7C164.7 171.4 164.5 171.8 163.8 172.5M164.8 172C165 173 165.4 174.4 164.2 175M233.2 174.1L234.4 174.5M164.7 175C166 177.4 163.4 181.8 162 183.8C161.5 184.5 159.8 186.4 160.2 187.4C160.5 187.8 161.2 187.5 161.7 187.5C163 187.1 164.2 187.4 165.5 187.8C168.1 188.8 171.7 190.7 174.2 189.2C176.4 188 177.7 185.1 178.5 183C179 182.1 178.8 180.5 179.7 180C181.1 179 183.4 180.5 184.5 181.2C185.4 181.8 186.2 182.4 187 183.1C188.8 184.8 188.8 186.7 189.4 189C190.1 192.5 191.4 196 191.7 199.7C191.8 201.4 191.7 203.1 191.7 204.8C191.7 205.2 191.7 206.2 192.1 206.5C192.7 207.1 195 206 195.8 205.8C197.1 205.5 198.2 205.4 199.2 204.5C200.1 204 200.7 203.1 201.5 202.7C202.7 202.1 203.5 203 204.7 202.1C205.5 201.4 207.2 198.5 208.4 198.7C210 199 210.2 201.2 210.5 202.4C213.7 201.4 213.8 197.5 215.5 195.2C216.8 196.5 215.7 197 215.8 198.4C215.8 198.8 216.2 199.2 216.5 199.7C215 200.2 215.7 201.1 215.4 202.4C215.1 204 214.5 205.5 214 207C212.1 211.1 209.1 214.4 206.5 218.1C205.5 219.5 204.8 222 203.4 223C202.2 224 200.8 222.8 199.8 222.2C197.5 220.8 195.1 218.5 192.5 220.2C191.7 220.8 190.8 221.7 190.4 222.7C190.1 223.2 190.1 224 189.7 224.4C189.2 224.8 188.5 224.4 188.2 225C187.7 226 188.7 227.7 187.7 228.4C187.1 229 186.2 228.4 185.7 228.5C184.7 228.7 184.1 229.7 183 229.7C182.5 229.7 181 229.2 180.7 229.7C179.8 230.7 182.5 233 181 234C180.2 234.4 179.4 234.1 178.7 234.4C178.1 234.7 178 235.5 177.2 235.7C176.7 235.8 176 235.2 175.4 235.7C174.8 236.1 174.8 237.4 174.2 238C173.1 239.2 171.7 239.7 170.2 240.4C169.7 240.8 169.1 241.5 168.4 241.7C167.1 242.1 165.8 240.5 165 239.8C164.5 239.5 163.8 239.1 163.4 239.5C162.5 240.2 163.2 242.8 163.1 243.8C162.8 245 161.8 244.5 161.2 245.4C160.1 247.1 160.8 249.8 158.8 251.1M223.2 176L223.7 178.7M223.7 178.7C224.4 178.2 224.8 177.7 225.1 176.8M223.7 178.7C223.7 182.5 223.7 187.7 221.7 191.1C221.4 191.5 220.8 191.5 220.4 192C220.1 192.2 219.8 193.1 219.5 193.5C219.1 194.5 219.7 195.5 219 196.5C218 195.5 218 195 219.1 194.1M75.1 191C77.7 191.4 76.8 188.4 76 187.1C74.5 185.2 72.8 183.5 70.8 182.4C69.8 181.8 68.5 181.5 67.5 180.8C67.1 180.7 65 179.2 65.8 178.5C66.2 178.2 67.5 178.7 68 178.8C69.2 179.2 70.7 179.7 72 180.4C72.8 180.8 73.7 181.5 74.7 181.5M156.7 180.2C156.2 180.7 154.1 182.1 153.5 181.2C153.1 180.5 154.8 179 155.4 179C156.5 178.8 156.4 180.5 157.7 180.2C157.4 179.4 156.8 178.7 155.8 178.7M157 178.7C157.8 178.7 159 179.2 158 180.1M156.8 179.4L156.7 179.7M149.4 185.5C150.8 187 148.8 189.8 147.7 191.1C146.8 192 145.5 192.4 144.4 192.7C141.4 193.5 137.5 194.2 134.5 193.8C133 193.5 133.2 192 132.8 190.8C132.4 189.5 131.5 188.4 130.8 187.2C129.7 185.7 128.1 184.2 127.4 182.4C127.1 181.8 126.7 180.5 127.5 180.2C128.1 180.1 128.8 180.7 129.2 181C130.5 181.8 131.8 183 133.1 183.8C137.5 187 145 190 149.4 185.5ZM149.4 185.5V185.4M151.8 183L152.2 182.2L152.4 182.4L151.8 183ZM151.8 183C151.7 182 152.4 181.4 153.2 181.1M76.1 181.4C76.2 184 77.7 186.1 78.4 188.5C78.7 189.5 79.1 190.8 78.4 191.8C77.5 193.1 76.1 192.8 75 193.7M153.8 181.5L151.7 183.8L151 183.1H150.8M150.8 183.1L150.7 183.2L151.7 184M150.8 183.1L151.7 182.7M152.2 181.7L153 182.5M150.7 183.4L150.8 184M150.4 183.8C150.1 184.4 150.4 184.7 150.8 185.1L151 185L150.2 184.1M215.5 195.1C216.8 194.1 217.8 191.7 217.1 190.1C216.2 188.2 213.1 185.2 216 183.8M151.5 184.1L151.1 184.7M149.8 184.5L150.1 185.1M149.5 185.1L150.2 186.2M150.7 185.2L150.2 186M150.2 185.4L150.5 185.7M149.2 185.8L150.1 186.7M220.7 189.1C220.5 190 221.1 190.2 221.7 190.8M220.4 190L220.2 191.8M70.4 195.4L70.1 196.2H70M70 196.2L69.2 195.5M70 196.2C69.7 197.1 69.8 199.1 69.2 199.8C68.4 200.8 66.5 200.5 66 202.1C65 205.4 68.7 207.2 69.5 209.8C70.1 211.2 69 213 69.5 214.2C69.8 214.8 71.7 215 72.2 215.5C74.1 217.2 75.5 219.7 77.2 221.7C78.7 223.5 80.5 225.1 81.8 227.1C82.8 228.8 83.5 230.5 84.2 232.4C86.2 237.1 87.8 242.4 88.5 247.5C88.8 249.4 89.2 251.8 88.4 253.5C87.5 255 85.5 255.7 84.2 256.4C83.2 257 82.7 257.7 81.4 257.8M69.2 195.5L74.4 193.8M69.2 195.5C57.4 202.1 52.7 214 49.5 226.4C44.8 244.7 40 264.4 44 283.2C45.4 289.8 48.5 296 52 301.7C54.2 305.5 57 309.1 61.1 310.7C62.7 311.2 64.7 312 66.1 312.8C67.1 313.4 67.5 314.4 68.8 313.7M216.2 194.7C216.5 195.2 216.5 195.4 216.2 196M66.4 312.8C67.4 312.2 68.1 312.8 68.8 313.7M68.8 313.7L71.2 314L71.4 314.1M219 196.7C218 198.5 218.1 201.2 218 203.2C217.7 207.1 217.5 211 217.4 214.8C217 224 215.4 232.8 213 241.7C212.2 244.1 211.5 246.7 210.5 249C210 250 209.2 250.7 208.8 251.7C208.2 253 207 254.1 207.7 255.4C208.4 254.8 208.5 254.2 208.1 253.5M215.5 198.8L215.7 200M216.7 200L217.8 201.1M215.4 202.5C214.8 202 214.4 201.4 215.2 201M214.4 201.8C213.4 204.2 212.1 206.8 210.1 208.7C209.2 209.4 208.1 209.1 207.4 210.1C206.1 212 206.1 214.8 205.2 217C204.5 218.7 202.2 221.1 203.2 223M177.5 202.5C177.1 203.8 175 204.2 173.8 203.7C174.8 202 177.1 202.5 178.7 202.4M72.2 266.8L73 267.5V267.7L72.8 267.8L72.1 268L71.8 267.7M71.8 267.7C72.5 266.2 74.4 265.5 74.7 263.8C75.1 261 72.8 257.1 72 254.4C71.4 252.2 70.7 250.1 70.2 247.8C70 246.4 70 245 69.5 243.7C68.8 242 67.5 240.5 66.7 238.8C65.5 236.8 64.8 234.5 64.2 232.2C63.8 230.4 63.4 228.5 64.1 226.7C64.5 225.2 66.1 223.7 65.8 222.1C65.5 221 64.5 220.1 64.1 219C63.8 217.7 64 216.4 63.8 215.1C63.5 214.1 62.8 213.4 62.5 212.4C62.2 210.4 62.8 208.5 63.1 206.7C63.1 206 63.1 204.8 63.4 204.2C63.8 203.4 64.8 202.7 65.7 202.2M71.8 267.7L70.5 268.5M73.1 267.7C74.5 267.1 76.1 266.2 77.4 267.4C76.5 268.2 75.2 268.5 74.2 268.8C72.5 269.4 70.8 270 69.2 270.8C68.7 271.1 67.4 272.4 66.7 272C65.8 271.4 67 270.1 67.2 269.5C68.4 268 69.8 266.8 71 265.2C71.4 264.8 72.1 264 71.7 263.2C71 262.1 68.4 261.5 67.1 261.2C62.7 259.8 58.2 259.1 53.7 258.4C52.2 258.1 48.1 257.1 48.2 255.1C48.4 253.5 51.1 253.7 51.5 252.4C52.1 251 48.4 250.2 50.2 248.8C52.1 247.4 55.7 245.8 58 246.1C59.1 246.4 60.7 247.7 61.7 247.5C63.4 247.2 64.7 244.1 64.8 242.5C65.1 238.2 62.5 234.5 62.4 230.2C62.4 228.7 62.5 227.1 63 225.5C63.1 224.8 63.8 223.7 63.5 223C63.2 222 62 221.4 61.1 221.1C59.7 220.4 57.7 219.8 56.8 218.4C55.8 217.1 56.7 215.7 57.2 214.4C58.8 211.4 60.1 206.4 63 204.5M62.1 205.1L63.1 206.1M118.4 207.5C119.2 207.1 122.4 207 122.8 208.1C123.2 209.4 120.4 208.8 119.8 208.7C119.1 208.4 118.5 207.8 117.8 207.5M189.4 207.7H189.5M127.4 217.7H127.5M203.2 223.4C202.8 225 201.5 225.1 200.1 225.1C198.1 225.1 196.2 224.8 194.2 225C193.7 225 192.8 225 192.2 225.2C191.7 225.7 191.5 226.8 191.2 227.5C190.5 229.2 189.7 231.2 188.5 232.8C187.5 234.1 187.5 232.4 186.7 232.5C186.1 232.7 185.7 233.8 185.5 234.2C184.7 236.4 184.1 238.5 183.2 240.5C182.8 241.4 182.4 242.5 181.5 243.1C180.8 243.5 180 243.4 179.1 243.4M101.2 225.5C102.4 226.2 103.1 227.4 104 228.4C104.4 229 105.1 229.4 105.5 230C106.4 231.2 106.7 232.4 107.8 233.5C109.2 235 111.1 235.8 112.7 237.1C113.5 238 114 239.1 114.8 239.8C116.2 240.7 118 240.7 119.4 241.7C120.7 242.7 121.1 244.1 122.2 245.2C123.1 246 124.1 246 125 246.5C126.4 247.4 126.1 249.2 127.2 250.4C128.4 251.5 131.2 251.1 132.8 251.4C133.5 251.5 134.2 252 135 252C136.5 251.8 135.4 249.5 136.8 249.4C140.8 249 139.1 253.7 141.1 255.2C142.2 256.1 144.8 256.5 144.4 254.5C145.4 254.2 146.2 254.8 147 254C147.5 253.2 147.5 251 148.5 250.8C149.1 250.8 149.8 251.4 150.2 251.7C151.4 252.5 153.5 254.5 155.1 253.8C156.5 253.4 157.1 251.2 158 250.1M80.8 234.8C82 236.1 83.1 237.4 83.7 239.1C84.1 241 83.8 243 84.2 244.8C84.7 246.2 86.1 248 85.5 249.5C85.1 250.8 83.4 251.2 82.2 251.4C79.4 252.1 76 252.4 73.8 250C70.2 246 71.2 240.4 73 235.7C73.2 235 74 234.4 74.1 233.7C74.5 232.5 74.2 231 74.1 229.8C74 229.4 74 228.5 74.5 228.4C75.1 228.2 75.8 228.7 76.4 228.8C77.1 229 77.8 229.1 78.4 229.5C79.8 230.8 80.2 232.7 81.5 233.8L80.8 234.7V233.5M79.2 230.4L80.2 229.7L80.4 229.8L79.7 230.7M79.7 230.4L80 230.7M141.7 233.7H142.2M187.7 263L188.1 262.2L188.2 262.4L187.7 263ZM187.7 263C187.5 262 188.1 261.4 188.8 260.7C189.8 259.4 191 258.1 192 256.8C194.1 254.1 194.8 251 197 248.4C199.1 245.8 202.1 243.8 204.4 241.2C205.8 239.7 207.1 238 208.5 236.5C209 236.1 209.7 235.2 210.4 235.5C211.1 235.8 210.5 238.7 210.5 239.2C210.1 242 209.2 244.4 209 247.1C208.8 248.2 208.2 249.4 209.1 250.4M187.8 262.8C189.7 262.7 191.2 260 192.4 258.7C196.1 254.7 199.7 250.5 203.1 246.4C204.4 245 205.5 243.7 206.8 242.2C207.1 241.8 207.7 241.1 208.4 241.2C209 241.4 209 243.1 209.4 243.7M177.4 242V242.1M275.8 242.1C276.4 242.7 277.1 243.5 277.8 244C281.8 246.2 287.7 245.5 292.1 246C299.1 246.7 306 248 312.8 249.5C319 251 325.5 252.8 331.8 251.5C334.4 251.1 336.7 250 339.2 249.5C343.8 248.8 348.5 249.4 353.1 249.7C355 249.8 356.7 250 358.5 250.2C359.2 250.4 360.1 250.4 360.5 251C361.5 252.4 361.4 255.4 361.4 257C361.4 257.5 361.8 258.1 361.8 258.7C362.1 262.1 361.8 265.5 361.8 269V316.4V410.5V445.1C361.8 450.8 362.1 456.7 361.8 462.4C361.8 463.4 361.4 464.4 361.2 465.4C361.1 468.5 361.1 471.7 360.8 474.8C360 486.8 359.2 498.8 355.8 510.5C353.1 520.4 348.1 529.5 339.2 535.2C333.2 539.1 326.1 541 319.1 542.4C307.2 544.5 295.1 545 283 545H185.8H162C157.7 545 153 545.5 148.8 544.5C147.5 544.2 145.7 544.1 144.4 544.2C144 544.4 143.5 544.7 143.1 544.8C142.5 545.1 141.7 545 141 545C140 545 138.4 545.4 138.2 544M138.2 544C136.1 544 136.4 541.7 137.2 540.1M138.2 544L139.5 543M137.2 540.1L137.7 540.5L137.8 540.4M137.2 540.1L137.5 539.4M266.8 247.5L266.2 248.5L265.7 247.8M129.4 247.7H129.5M265.2 248L266 248.7M265.1 248.2L266 248.8M264.7 248.4L265.5 249M65.4 248.7H65.5M264.2 248.7L264.8 248.8M264.4 249.1L264.5 249.2M264.7 249.2H265.4M230.7 270.7L231.5 271.7L229.8 272.2M229.8 272.2L226.2 275.4H226.1L225.2 274.4L225 274.5L225.8 275.5L225.2 275.8M265 249.5L264.7 249.8M264 250.2C261.7 252.2 259.1 254 256.8 255.8C255.4 257.1 254 258.7 252.4 259.7C250.5 260.8 248.5 261.4 246.7 262.5C245.1 263.4 243.8 264.7 242.2 265.5C238.7 267.5 235 269.2 231.7 271.7M178.8 263L177.5 263.1M177.5 263.1L178.2 264C179.2 262.4 180.8 261.7 182.4 260.5C185.1 258.7 187.7 256.8 190.1 254.7C191.5 253.5 192.8 251.8 194.7 251.4M177.5 263.1V263.8H177.4L177.1 263.2M157.4 251.5L158.1 252.1M104.7 252.1L104.4 253M104.4 253H104.2L103.5 252.2M104.4 253C102.4 255.4 100 257.4 99 260.5C98.8 261.2 99.8 261.7 99.8 262.4C99.7 264.1 98.7 265.8 98.4 267.4V267.5M103.5 252.2L105 252M103.5 252.2C101.7 252.7 99.8 254 98.1 255C95.7 256.4 93.2 257.8 91 259.4C89.4 260.5 87.8 261.8 86.1 262.8C84.5 263.7 83 264.8 81.4 265.5C80 266.2 78.5 266.1 77.5 267.5M184.4 266.2C184.8 266.1 186.5 265.4 185.4 265C184.7 264.7 184.4 266 184.2 266.4C183.1 267.8 181.7 269 180.4 270.2C176.5 274.1 172.5 277.7 168.7 281.4C167 283.1 164.7 284.4 163.7 286.7C164.8 287.2 166 286.2 167 285.7C169.5 284 172.2 282.5 174.7 280.7C177.8 278.4 180.4 275.2 183.1 272.4C187 268.2 191 264.2 195 260.2C196.8 258.4 198.8 256.4 200.8 254.7C201.7 253.8 202.8 252.7 204 252.4C206.1 251.5 206 254.8 205.8 256C205.5 257.4 204.8 258.7 204.7 260C204.5 260.7 205.4 261 205.1 261.7C205 262.4 204.4 262.4 204 263C203.2 263.8 203 265 202.4 266M98.4 267.5H98.5C100.2 266.8 102 265.8 103.5 264.7C104.1 264.2 105.4 263.2 106.1 263.4C107 263.5 107 264.8 107 265.5C107.1 267.5 107.8 269.5 109 271.1C109.4 271.7 110 272 110.4 272.5C112.4 275.5 113.8 278.8 115.7 282C116.7 283.4 118.4 285.1 118.8 286.8C119.2 288.8 118 291 117.4 292.8C116.4 295.8 115.8 299.1 116.2 302.2C116.5 303.8 117.4 304.4 118.5 305.1C118.8 305.4 119 305.8 119.4 306C120.2 306.2 119.8 305 119.7 304.7L118.8 305.1M98.4 267.5C97.2 269 96.4 270.5 94.5 271.1C94.5 267.5 97.4 264.2 98.7 261.1M114.4 253.8C114.8 258.7 117.5 263.7 119.4 268.1C120.7 271.4 121.7 274.8 123.2 278C123.5 278.5 124.1 278.8 124.4 279.4C125.5 282.1 126.1 285.2 127.2 288C128 290 128.7 292 129.4 294C129.5 294.5 130.4 295.1 130.4 295.5C130.5 296.2 129.8 296.8 130 297.8C130.4 299.8 131.2 301.8 131.4 304C129 303.4 126.7 300.4 124.8 298.7C124.2 298.2 122.8 296.8 122 297.1C121.4 297.2 121.2 298.4 121.1 299C120.7 300.8 120.2 302.7 119.8 304.5M114.5 254C115.7 254.1 116.8 255.2 117.7 256.1C119.5 257.8 121.4 259.7 123.7 260.8C125.2 261.5 127 261.8 128.5 262.5C131.7 264 134.5 265.8 137.8 267.1C144.2 269.5 151.2 270.2 158.1 269.4C162.5 268.8 167 267.7 171.1 266C172.7 265.4 174.5 263.8 176 265.2L176.1 265.1L175.1 264.2M207.5 255.5C207.4 257.2 206.4 259.7 205.4 261.1M83.2 257.4C84.1 257.8 85.1 257.5 86.1 257.5C88 257.5 89.5 258 90.8 259.2M99.5 260C100 260.5 100 261 99.8 261.7M204.4 260.5L205.2 261.5M204.2 260.8L205.1 262M204.1 261.2L205 262.2M204 261.5L203.8 262.5M186.4 264.4L185.4 265.4L185.2 265.2L186.7 263.8L186.8 264L186.7 264.1L186.4 264.4ZM186.4 264.4L186.2 264.2C186.2 263.4 186.7 262.8 187.5 262.7M188 262.8C187.8 263.7 187.4 264.1 186.7 264.4M177.7 264C177.2 264.1 177 263.8 177 263.4M177.5 264.2C177.1 264.2 176.7 264.1 176.7 263.5M177.1 264.5L176 264V263.8L176.1 263.7H176.2H176.4M105.2 264C105.2 266.2 105.8 268.4 106 270.7C106.2 275.1 106.4 279.5 106.7 284C106.8 287.2 106.2 290.5 108.4 293.2C109.7 291.8 108.7 289.7 108.8 287.8C109.2 284.4 110.2 281.2 110.1 277.8C110.1 275.7 109.2 273.7 109.1 271.7M175.4 264.1L176.8 264.7M177.7 264.1L178.1 264M103.7 264.5L105 265M175.8 265.2C174.1 266.5 172 267.2 170 268.1C164.4 270.2 158.2 271.5 152.2 271.8C147.5 272 142.2 271.4 137.7 272.8C136.4 273.2 135.2 273.8 134.5 274.8C134 275.5 133.7 277 132.8 277.4C130.7 278.5 127.5 275 125.2 276.7C124.5 277.1 124.7 278.1 124.2 278.8M226.4 266L225.5 267.8M225.5 267.8L224.8 267.1M225.5 267.8C224.7 270 222.8 271.8 221.8 274C221.4 274.7 220.8 276 221.8 276.2M224.8 267.1C222 270.2 219.7 273.5 216.2 276.1C213.5 278 210.5 278.8 207.5 280.2C204.4 281.8 201.5 284.1 198.8 286.1C197.1 287.5 195 289 193.5 290.7C193 291.4 193 292.4 192.4 293.2C191.5 294.5 190.1 295.2 188.7 296C184.1 298 179 298.7 174.1 299.7C169.7 300.4 165.1 301.5 160.8 303L160.7 303.1M224.8 267.1L225.8 266.7M160.7 303.1C162.1 304.5 164.7 303.1 166.5 302.8C171.8 301.5 177.2 301 182.5 300C184.5 299.7 187.7 298.1 189.1 299.7C190.7 297.5 194.2 296.8 196.4 295.2C200 292.5 203.8 290.1 207.4 287.5C209.8 285.8 212.1 283.8 214.5 282C216.5 280.5 218.5 279.8 220.5 278.5C221 278.2 222.1 278.1 222.4 277.5C222.7 277.1 222.1 276.5 221.8 276.2M160.7 303.1H160.4M221.8 276.2L222 276.1L223.8 275.2L224.7 276.4L225.2 275.7L224.5 274.8L224.4 275H224.2L224.1 275.1M224.1 275.1L224 275.2M224.1 275.1L225 276M76.7 266.7C77.2 266.4 77.5 266.4 78.1 266.7M231.8 269.7L232 270.1M231.2 270.1L231.7 270.2M232.2 270.2L232.8 270.8M230.8 270.4L231.4 270.5M231.8 270.5L232.4 271.1M231.4 270.8L232 271.4M110.1 272.2L109.4 273M225.4 274.2C226.2 273.7 227.1 272.8 228.1 273.4M226.5 273.5L227 273.7M226.1 273.8L226.7 274M227.1 274L227.5 274.4M225.7 274.1L226.2 274.2M226.7 274.2L227.1 274.7M225.8 274.5L226 274.7M224.7 274.7H224.8M226.1 274.7L226.4 275M223.4 275.5L224.5 276.5L222.8 277.4M100.2 284.4L101.4 285.5M164.2 285.4L165.4 286.5M162 287C163.1 286.1 163.8 286.8 163.1 288H163L162 287ZM162 287C158.5 290.1 154.7 292.7 151.4 296C149 298.4 147 301.7 144.1 303.5C142.4 304.5 140.5 305.7 138.8 306.7C138.4 307 137.8 308 137.2 307.8C136.7 307.7 136.7 306.8 136.5 306.4M136.5 306.4L138.2 307M136.5 306.4L130.7 295.8M162.1 287.4L162.7 288M161.2 288H162.4M109.4 292.7C109.8 295.4 112 297.4 113.7 299.5C114.2 300.4 115 301.4 116 301.8M108.4 293.4L109.4 293.8M129.8 295L129.7 296.4M188.5 298.5L189.7 298.7M189 299.7C187.8 300.5 186.8 301.8 185.5 302.7C184.7 303.2 183.5 303.4 182.8 304C182.4 304.4 182.1 305.1 181.7 305.5C180.8 306.2 179.2 306.7 178.1 306.7M178.1 306.7L178.2 305.4L179.5 306.4M178.1 306.7C176.8 307.8 175.2 308.1 173.7 308.7C170.7 309.7 167.7 310.5 164.5 310.8C161.4 311.2 158.2 311.8 155.2 312.2C154.5 312.4 154 312.1 153.2 312.2C152.2 312.5 151.4 313.2 150.4 313.5C147 314.8 143.7 316 140.8 318.4C139.7 319.4 138.2 320.8 137.5 322.1C136.1 325.1 136.7 329.1 137.4 332.2C137.8 333.8 138.5 336 139.2 337.4C139.7 338 140.7 338.2 140.8 339C141 339.5 140.1 340 139.8 340.2M149 309C148 309 147.1 308.7 147.8 307.5C148.2 307.8 148.8 308.5 149.2 308.7C150.8 309.1 153.1 307.7 154.7 307.5C157.8 307.5 161 307.2 164.1 306.8C165.1 306.7 166.2 306.8 167.2 306.5C169 306.1 170.1 305.2 171.7 304.7C172.5 304.4 173.7 304.4 174.5 304C175.4 303.7 175.8 302.8 176.8 302.8C177.5 303 177.5 303.5 178.1 303.7C179.7 304.1 181.2 302.5 182.8 303.8M161 304.1L159.8 303.4M159.8 303.4L160 303.2L161.4 304M159.8 303.4C159.4 303.8 160.1 304.2 160.5 304.2M148.1 307.5L155.8 304.7L159.4 303.5M178 303.8C177 304.7 176 304.8 175 304M178.4 304.1V305.2M155 307.2C156.1 305.8 158.4 305.1 160.1 304.4M119.8 306.1C122.2 310 125.8 313 129.2 316C130.2 316.8 130.4 318.4 132 318.8C133.4 319.2 135.1 316.5 135.4 315.4C134.5 315.4 134.1 315.1 134.2 314.2L135.5 315.2M139.8 340.2C139.2 339.5 139 338.7 139.4 337.8M139.8 340.2L140.2 341.7M143.7 308.5C144.7 310.1 145.8 310.1 147.1 308.5C146.1 307.8 144.8 308 143.7 308.5ZM143.7 308.5L137.1 310L137.2 308.1M142 308.8C142.2 309.4 142.4 310.2 142 310.7C141.7 311.2 140.8 311.4 140.4 311.7C138.8 313 137.2 314 135.7 315.2M140.7 309.1L142.1 310.5M58.5 309.8C57.2 311.1 55.1 311.2 53.7 312.4C47.5 317.5 41.5 324.1 37.7 331.1C32.8 340.2 32.1 351 31 361C30.4 365.1 30 369.4 28.8 373.5C28 376.7 26.5 379.4 26.1 382.7C25.2 390 26.1 397.2 24.7 404.5C23.7 409 22.1 412.8 20.7 417.1C20 419.5 19.7 422.2 18.8 424.7C18.2 426.2 17 427.2 16.4 428.7C15.8 430.1 15.8 431.8 15.5 433.2C14.7 436.1 13.4 438.8 12.8 441.7C11.5 446.8 11.7 452.1 11.5 457.4C11.4 463.8 11.4 470.2 11.1 476.7C11 481 10.8 485.1 10.5 489.4C10.4 491.5 9.8 493.7 9.8 495.8C9.8 497.8 10.2 499.8 10.2 501.8C10.2 502.8 9.7 503.5 9.8 504.5C10 505.2 10.4 505.8 10.5 506.5C10.7 507.8 10.8 510 10.5 511.2C10.2 512.1 10 512.7 9.8 513.5C9.7 515 10 516.4 9.8 517.7C9.4 522 8.1 526.5 6.2 530.5C4.8 533.5 2.1 536.1 1.4 539.4C1.1 540.4 0.7 541.8 1.2 542.8C2 544.5 5 544.2 6.5 544.5C7.2 544.7 7.8 545 8.7 545H31.4H109.2H128.7C131.1 545 134.5 545.5 136.5 543.7M144.5 309.8C143.8 310.4 143.2 310.7 142.2 310.7M137 310.1L134.4 314.1M128 314.2C128 313.8 128.1 313.4 128.1 313C128.4 309.5 131.4 314.8 129.5 316M155.1 312.7C154.7 314.1 153.5 313.7 152.5 312.8M71.4 314.1L70.1 315.4L69.4 314.1M71.4 314.1C74.1 314.4 77.5 315 80.2 315.8C80.8 316 81.2 316.5 82 316.7C82.7 316.7 83.2 316.1 84 316.1C85.4 316.4 86.8 317.2 88.4 317.5C97.4 318.8 106.4 320.1 115.4 322C119 322.7 123 323.2 126.4 324.5C126.8 324.7 127.7 324.7 128.1 325C128.5 325.2 129.1 326.7 130.1 326.1C131 325.5 128.8 324.7 128.4 324.7M70.4 315.5C73.2 316.4 75.5 317.7 78.7 317.2C79.7 317.1 80.4 317.2 81.2 316.5M82.7 316.7C83.5 317.5 84.4 317.7 85.4 316.8M150.8 321C150.4 321 150.1 321 149.7 321C149.4 320.8 149.2 320.8 149 320.5C146.8 318.7 153 318.5 151.8 320.5C151.1 321.7 150.5 319.8 150.5 319.2M148.8 326H149.4M130.4 326.2C131.1 328.8 131.7 331.5 132.5 334.1C133.4 336.8 134.7 339.4 135.7 342.1C136.5 344.1 137.1 346.8 138.5 348.5C140 347.1 140.1 345.7 140.5 343.8C140.7 343.2 140.1 342.4 140.7 341.8C141.2 341.1 142.4 341.7 143.1 341.7C143.7 341.5 144.4 341.1 144.8 340.8C144 339 143 339.1 141.1 339.1M147 329.1C145.1 328.7 146.1 326.1 148 327.7C147.7 328.1 147.4 328.5 147.2 329.1C147.2 329.7 147.7 330.1 147.4 330.7C147 331.2 145.2 331.4 145.5 332.5C145.8 333.2 146.7 333.2 147.2 332.8C148 332.1 148.8 331 149 330H147.7M148.5 327.2V328.5L147.5 329.8M149.1 327.2C150.4 328 149.5 329 149.1 329.8M148.7 328.8L149.2 329.4M125.4 330.7H125.5M147.4 330.8L148 331.7M146.1 333.2L144.8 335.1M144.8 335.1C145 335.4 145.2 335.5 145.4 335.8C147.2 339.1 139.7 335.4 143.7 335.1C144.1 335.1 144.4 335.1 144.8 335.1ZM131.5 341.5V341.4C131.5 340.5 131.2 340.1 130.4 340.5M131.5 341.5H131.4L130.4 340.5M131.5 341.5C133.2 344 126.5 344.8 128.4 342.2C128.7 342 128.8 341.8 129.1 341.5C129.5 341.1 130 340.8 130.4 340.5M142.5 344.8C141 344 142.7 343 143.8 343.2L144 343.4M142.5 344.8L144 343.4M142.5 344.8V345C144.4 346.1 143.5 346.8 143.2 348.7L143.1 348.8L142.2 348H142.1M144 343.4C145.1 343.8 145.1 345 144 345.4M142.1 348L143.1 349M142.1 348L140.4 346.4M142.1 348L143.4 347.5M140.8 343.8L141.7 344M131.1 348.1C128.5 348.1 128.7 345.7 131.1 345.5C133.2 345.4 133.4 347.7 131.4 348.1L131.2 348.2L134.5 349.7C133.4 350.7 132.4 352 132.7 353.7C133 355.1 134.7 356.7 136.1 356C137.8 355.2 136.5 353.5 135.5 353C134.8 352.4 133.7 352.8 133 353.1M142 348.2C141.1 349.4 142.5 350.4 143 349.1M138.5 349.7C139.4 350.5 139.8 351.1 140 352.2C140.1 352.8 140 353.5 139.2 353.5C136.8 353.4 138.2 349.7 138.7 348.5C139.5 349.2 140.4 349.1 141.4 349.1M135 356.4C135 357 135.1 357.7 134.7 358.1C134.2 358.7 133.4 358.4 133.1 359.1C132.5 360.8 133.2 363 133 364.7C132.8 365.2 132.2 365.7 131.7 365.4C130.1 364.8 128.4 359.7 131 359.7L131.1 359.5C130.5 359 130.1 358.4 129.5 358C129.1 357.7 128.5 357.7 128.4 357.2C128.1 356.7 128.2 355.5 129 355.4C130.1 355.1 130.4 356.4 131.7 355.5L129.7 353.5L129.8 353.4L130.4 353.1M130.4 353.1C128.7 351.4 130.1 349.8 132 349.1M130.4 353.1C131.4 353 131.8 353.1 132.5 353.8C131.5 355 132.5 355.5 133.4 356.4L133.5 356.2L133.7 356.1L133.8 356L134 355.8M133.5 349.4V350.1M134.7 349.7L135.5 351L134 352.7M142.5 350L142 353L140.8 354.8L139.4 353.7M135.2 350.8L133.2 352.8M135.7 351C136.2 351.5 136.7 351.7 137.5 351.7M136.5 351.7L135.5 352.7M137.7 352L136.2 353.5M129.4 352.1C129.1 352.5 128.8 353.4 129.5 353.5M140.2 353.1L141 353.8M129.2 353.7L129.1 355.1M137.1 354.8C138 355.7 139.4 355.2 140.1 356C141 357.1 139.5 359.2 138.4 359.2M138.4 359.2C138.5 360.2 139.5 360.5 139.5 361.4C139.8 363.2 138.1 364.5 137.8 366.2C137.7 366.8 138.1 367.2 138.1 367.8C138.1 369.2 137.8 371.2 137.4 372.5C136.8 374.4 133.1 375.4 135.1 377.7C133.8 379.4 136 379.1 135.7 380.5C135.4 381.5 134.7 382.7 134 383.4C133.5 383.7 132.5 384.2 132.5 384.8C132.5 385.4 134 386.4 134.4 386.8C134 387.2 133.5 387.7 133.4 388.2C133.2 388.8 133.5 389.7 133.2 390.2C132.7 391.1 131.8 391.2 131.7 392.5C131.5 393.7 133.2 395 132.2 395.8C130.8 397.1 130.7 394.8 130.1 394.4C129.5 394 128.1 394.2 128.1 393.1C128.2 392.2 129.2 392.4 129.5 391.7C130 390.8 129.4 389.5 129.8 388.5C130.2 387.1 131.5 386.2 132.2 385.1M138.4 359.2C137.5 358.1 137.4 358 136 358M131.7 355V355.2M140.7 355L140.4 356.1M131.5 355.7L132.8 357M132.8 357L133 356.8L133.1 356.7H133.2L133.4 356.5M132.8 357C132.8 358.1 132.4 359.1 131.2 359.5M130.4 356.2L129.8 358M128.4 357.5C127.7 359 128.2 359.7 129.4 360.4M135.1 357.8H135.8C135.4 359 134.7 360.1 133.4 360.2M134.7 358.4L135.1 358.8M129.8 358.5L129.7 359.5M133 358.5V358.7M138 358.8L136.5 360.2M136.5 360.2C137.8 360.7 138.5 360.7 139.5 361.7M136.5 360.2C135.7 360.8 135.5 361.8 135.2 362.7C134.5 365 134.2 367.8 134.5 370.1C134.7 370.7 135.1 371 135.2 371.5C135.5 372.7 135.2 373.4 135.8 374.4C136.8 375.4 137.8 378.5 135.2 377.7M139.5 359.2C139.8 359.8 139.8 360.4 139.7 361M131.7 359.7H133M128.2 360.1C127.5 361.4 127.5 363.2 127.2 364.7C127.1 365.2 127 366 127.2 366.5C127.5 367.1 128.5 367.5 129.2 367.8C130.4 368.2 132.1 366.1 132.8 367.7C133.8 370.1 130.5 375.8 134.4 376.8M138.2 360.1V360.4M137.7 360.7C137.5 362 137.4 363.7 138.1 364.7M133.1 362.1C134 362 134.7 361.7 135.4 362.1M133 365.2L134.2 366.4M132 365.7V366.8M135.2 371.1C136.5 369.8 135.8 367.2 137.5 366.7M127.7 367.2C126.7 369 127.8 370 129 371.1M129 371.1C129.2 370.1 128.8 369.7 127.8 369.7M129 371.1L127.1 372.1M129.5 368.2L129.2 370M127.1 369.5V372.1M127.1 372.1V374.2C128.1 373.5 129.8 373 129 371.5M125 377C125.1 375.4 125.8 375.1 127 374.2C127.8 375.4 127.1 377.2 126.4 378.4M125 377L126.4 378.4M125 377C124.5 378.1 125 378.4 126.1 378.4M126.4 378.4C126.4 379.1 126.4 380.2 126.1 380.8C126 381.2 125.1 381.2 124.8 380.8C124.4 380.2 124.7 379 124.5 378.2M136.2 378.1L135.8 380M134.5 379.2C133.4 380.5 132.2 381.8 131.4 383.2C130.8 384.1 130.8 385 132 385M126.1 381.1C127.5 382.4 125.7 383.8 125.2 382.1C125.2 381.8 125.2 381.5 125.2 381.2M133 384.2C133.7 385.1 134.7 385.5 134.4 386.7M133.1 385.2L133.5 385.1M133.5 390.5C133.8 391.7 133.1 392.4 132 391.8M130.7 403.7V404.2M129.4 412.1L129 412.5M128.4 416.8H128.5M128.2 421.7L128.4 422.1M128.2 430.7L128.4 431.2M125.4 433.7H125.5M127 435.5L128.4 435.4M125.7 442.7H126.2M131.1 463.7H132.5M129.5 466.7C129.2 466.8 129 467.1 128.7 467.1C126.7 467.4 127 464.8 128.8 466C129.1 466.1 129.2 466.4 129.4 466.5C129.8 467 130.1 467.2 130.5 467.7M130.5 467.7C130 468.1 129.4 468.5 129 469C128.4 469.5 127.2 471.8 128.8 472C130 472.1 131.5 470.5 132.1 469.7C132.7 468.8 133.2 467.1 131.7 467.2L132.5 468.4M130.5 467.7L131.5 467.4M129.4 467L130.2 467.8M130.2 477C126.2 477.5 129.1 473.1 131.4 472.7C133.4 472.2 133.5 474.5 132.4 475.5C131.5 476.4 131.5 477 131 477.8L130.2 477ZM130.2 477L131.1 476.7M132.8 473.2C132.4 474 132.5 474.2 133 474.8M131.5 476.2C132 476.7 132.2 477.1 132.8 477.2C133.4 477.5 134.2 477.2 134.7 478C135.1 479.1 134 480.1 133.7 481.1C133.5 481.5 134 482 134 482.4C134.2 483 134.4 483.7 135.1 483.8C136 483.8 136.2 483 135.8 482.2C135.4 481.7 134.5 481.7 134 481.7M131.4 477.4L132.4 477.2M132.8 477.4C132 479 133.2 479.1 134.5 479.1M130.8 477.8C129.8 478.8 128.5 480.8 129.8 482.2C130.4 483 131.7 482.8 131.8 481.8H132.1L132.2 482L132.1 482.1M131.7 480.7L133.5 481.1M133 481.1L132.2 481.8M131 483.1C130.7 484 130 484.8 130.2 485.7C130.7 486.5 132 486.8 132.2 487.8C132.4 488.4 132.1 489 132.2 489.5C132.5 491.5 133.5 493 135.1 493.8C134.8 494.1 134.2 494.5 134.4 495C134.4 495.5 135.2 496.1 135.1 496.8C134.8 497.5 133.8 497.8 134.2 498.8C134.5 499.8 135.8 500.4 136.1 501.5C136.1 502.2 134.4 503 135.4 504C135.8 504.4 136.8 503.2 137.4 503.2C138.1 503.1 139.4 504 138.5 504.7C138.1 505.2 137.1 505.1 136.5 505.4M136.5 505.4C137 506.1 137.5 506.8 137.5 507.7C137.7 508.5 137.1 509.1 136.8 509.8C136.5 510.7 137.2 514.2 138.1 514.5C138.8 514.8 140.1 514.1 139.7 513.2C139.2 512.5 138.1 512.1 137.2 512M136.5 505.4L135.8 504.4M136.1 483.2C136.7 484 136.8 484.5 136 485L135.4 483.8M135.1 484L135.8 485.1M135.8 484.2L136.4 484.8M135.7 485.2C136 486.7 137.2 487.5 137.8 488.8C138.1 490 136.8 490.2 137 491.1C137 491.5 137.7 491.5 137.8 491.2C138.1 490.8 138.1 490.4 138.1 490M133.4 485.7H133.5M136.5 490.7L136.8 491M137.7 491.8C138.4 493.2 140.2 495.5 139 497.1M133.7 493.2L134.1 495M135.1 494C135.4 494.7 135.2 495 134.5 495.2M135.1 497C135.5 497.5 138 499.1 137.2 499.8C136.8 500.2 136 500.1 135.5 500.4M139.4 497C141.8 498 140.1 498.5 139.7 500.2C142.1 500.8 141 503.4 141 505.2C141.1 505.8 141.5 506.1 141.7 506.7C141.8 507.4 141.5 508.1 141.8 508.8C142.1 509.8 143.4 510.5 143.4 511.7C143.2 512.2 142.8 512.2 142.5 512.7C142.2 513 142.5 513.4 142.2 513.8C141.5 514.8 141 514.7 142.1 515.8M142.1 515.8C142.5 515.1 142.7 514.7 142.2 514M142.1 515.8L141.7 517M134.7 499.4L135.8 498.1M139.5 500.4C139.2 501.5 139.7 502.4 141 502.5M142.1 509.8C141.5 510.5 141.2 511 141.7 511.8M141.7 511.8L143 510.5M141.7 511.8L142.4 512.7M141.7 512.1L140.1 513.7M140.4 513.8L141.7 514.1M138.5 514.8L137.5 517.7L137.7 517.8C138.5 517.4 139.1 517.7 140 517.5C140.8 517.2 140.8 516.4 141.8 517.1C141.2 517.5 141 517.8 140.2 517.5M142.7 514.8C145 515.5 143.5 518.5 141.8 517.2M141.1 515C140.5 515.5 140.5 516 141 516.7M138.2 516L139.2 517.2M142.4 517.8C142.2 518.5 141.5 518.8 141.4 519.5C141.4 520 141.5 520.2 141.8 520.7C141.8 521 142 521.5 142.2 521.8C143.5 522.8 145.4 520.4 144 519.5C143.7 519.4 143.1 519.4 142.8 519.4L142.4 518.4M137.5 518C137.5 518.5 137.5 519.2 138.1 519.7C138.5 519.8 139.1 519.7 139.4 520.1C139.7 520.7 139.4 521.2 139.8 521.7C140.7 522.4 141.7 522 141.7 523.4L141.8 523.5C143.8 523 145.1 525.7 144 527.2M144 527.2L140.4 527.1M144 527.2L143.5 529M140.4 527.1C140.1 528.8 139.8 529 138.1 529C138.2 529.5 138.4 530.5 138.8 530.8C139.1 531.1 139.8 531 140.2 531.1C141.4 531.5 143.5 533.1 144.2 531.4C145.2 528.4 141.2 529.2 140.4 531M140.4 527.1C139.5 526.2 139.2 525.4 138.5 524.4C138.2 524 137.5 523.5 137.8 522.8C138 522.1 139 522 139.5 521.5M141.4 519.2C140.5 519.2 140.4 519 140.4 518.1L141.5 519M139.5 520L140.2 519.2M142.7 519.5L141.8 520.5M144.5 521.7L143.5 523.8M139.5 522L140.2 523.7M140.2 523.7L138.7 524.2M140.2 523.7H141.7M141.8 522L141.5 522.4M141.8 523.8L141.4 527M143.5 524.1L142.4 524.5M139.1 526C137.8 526.7 137.4 527.4 138 528.8M142.2 527.4L143.5 528.7M142.2 527.8L142 529.2M140.1 528.8L140.7 529.8M138.7 531C136.7 532.2 137.1 533.1 138.8 534.4M138.8 534.4C140 533.2 140.5 533.1 140.2 531.2M138.8 534.4C138.8 535.1 139 535.5 139.7 535.7M141.5 531.7L140.5 532.2M142.8 532.4C142.8 533.7 144.4 535 143.8 536.2C143.4 537.4 141.4 536.4 141.1 537.7C141 538.7 142.7 539 143.1 539.7C143.2 540 143.4 540.2 143.4 540.5C143.5 543 140.5 541.5 139.4 541.2C139.2 543 140.2 543.8 141.4 545M140.1 533.7C140.8 534.8 139.7 535 140 536C140 536.5 140.8 536.8 141.2 537.2M142.8 533.7L140.8 534.5M138.8 535.4C138.4 535.7 137.7 535.8 137.4 536.2C137 536.8 136.7 538.8 137.4 539.2C138.2 539.7 140.5 538.8 141.1 538.2M139.5 539.2L139.2 541.4M137.5 540.7L137.7 540.8M137.8 540.8L138.8 541.1M137.1 541.7L138.1 541.2M141.4 542.2L142.5 545M174.8 27C175.4 26.5 176.8 27.1 177.4 27.2C179.7 27.8 182.2 28.5 184.2 29.7C184.7 30 187.1 31.4 186.2 32C185.8 32.4 184.1 32.1 183.5 31.8C182.7 31.5 182.1 30.8 181.2 30.4C179.7 29.5 178 29.1 176.4 28.5C176 28.4 174 27.7 174.8 27ZM160.1 37.4C161.2 37.2 164.2 37.5 163.7 39.4C163.4 40.4 162.1 41.1 161.4 41.8C161 42.4 161 43.8 160.1 44C157.8 44.2 154.8 42.4 153 41.5C152.4 41.2 150.8 40.7 151.1 39.8C151.4 39.2 152.8 39.1 153.4 39C155.7 38.4 157.8 37.8 160.1 37.4ZM186.1 102.7C192.2 102 198 104.7 202.2 109C204 110.7 205.7 112.8 206.2 115.1C206.8 117.2 205.7 118.5 205.7 120.5C205.7 122.2 207.7 123.5 207.5 125.2C207.4 126.1 206.7 127 206.1 127.5C203.7 130.1 200.4 130.8 197.4 132.5C194.7 134.2 192.7 136.5 190 138.2C187 140 183.2 140.5 179.8 140.8C175.8 141.2 171.7 141.2 167.7 141.2C165.5 141.2 162.5 141 160.5 141.7C159.2 142.2 161.4 144 160.2 144.2C159.5 144.2 158.8 143.8 158.2 143.5C156.5 142.5 154.8 141.4 153.2 140.1C151.5 138.8 149.7 137.2 148.5 135.2C146.4 131.1 147.1 124.8 147.1 120.2C147.1 117.7 146.5 114.1 148 111.8C150.2 108.4 154.8 107.4 158.5 106.4C167.7 104.1 176.8 104 186.1 102.7ZM171 109C172 108.8 173.5 109 174.4 109.7C175.2 110.4 175 111.8 174.1 112.4C173.2 113 172.1 113 171.1 113.1C169.1 113.4 167.1 113.8 165.1 114C164.5 114 163.2 114.2 162.8 113.8C161.7 113 163.5 111.4 164.1 111.1C166.1 109.7 168.7 109.4 171 109ZM122 114.4C123.8 114.2 127.2 114.1 128.5 115.8C130 117.7 129.8 120.5 130 122.7C130.5 128.8 130.5 134.8 130.8 141C131 143.2 131.7 147.1 130.4 149.1C129.4 150.7 125.1 150.1 123.4 150.2C116.1 151.2 108.7 152.4 101.2 152.7C98.1 152.8 94.8 153 91.8 152.2C89.5 151.7 87.5 150.5 85.2 149.8C83.4 149.4 80.5 149.5 79.1 148.1C77.7 146.5 77.8 142.5 77.7 140.5C77.4 137.2 77.2 134 78.1 130.7C79.4 126.5 83 122.7 86.2 120C89.8 117.1 93.5 117.5 97.7 116.8C99.5 116.5 101.4 115.8 103.2 115.5C109.5 114.8 115.7 114.7 122 114.4ZM228.5 132C229.4 131.7 230.2 133 230.8 133.5C232.8 135.5 234.1 137.1 232.8 140C232.5 140.5 232.4 141.5 231.7 141.7C230.8 142 230 140.7 229.5 140.1C228 138.2 226.7 136.4 227.4 133.8C227.7 133.2 227.8 132.1 228.5 132ZM154.8 132.5C156.5 132.2 156 135 154.5 135.1C153.8 135.2 151.8 134.4 152.5 133.4C152.8 132.8 154.2 132.5 154.8 132.5ZM98 183.2C99 183.2 98.2 184.8 97.5 184.8C96.7 184.8 97.1 183.2 98 183.2ZM163.1 195.7C168 195.1 173.5 195.7 178.4 196C179.2 196 183.1 196.2 182.5 198C182.1 198.8 180.1 199.1 179.2 199.2C176 200 172.7 200.2 169.4 200.7C158 202.2 146.2 201.4 134.8 202.7C132.1 203.1 129.4 203.8 126.5 203.8C125.5 203.8 124 203.8 123.4 202.8C122.2 201 125.4 201.4 126.2 201.2C127.4 201 128.5 200.4 129.7 200.1C131.8 199.5 134.1 199.2 136.4 199C139.8 198.7 143.4 198.4 146.8 197.8C149.2 197.5 151.7 196.7 154.1 196.4C157.1 196.1 160.1 196.1 163.1 195.7ZM181.7 205.1C183.5 205 185.2 206.4 186.1 208C187.8 210.8 187.8 215.1 186.8 218.2C186.5 219.4 185.8 219.8 184.7 219.7C184 219.5 182.8 219 182.2 219.8C181.5 221.1 182.2 222.8 181.7 224.1C181.1 225.5 179.4 225 178.4 226C177.4 227.2 177.7 229.1 176.5 230.4C175.2 231.7 173.4 230.7 172.2 232.2C171 233.8 170.7 238.4 167.8 238.5C166.8 238.5 167.1 237.1 166.5 236.7C166 236.1 165 236.4 164.2 236.1C163 235.7 162.2 234.7 161.1 234C159.2 232.7 160.7 238.1 158.2 237C156.1 235.8 158.2 233.5 158.8 232.2C159.1 231.4 159 230.5 159.5 229.8C160.8 228 162.8 226.8 164.5 225.4C166.8 223.5 169 221.5 171 219.4C172 218.2 174 216.7 174.2 215.1C174.5 213.8 172.7 214.8 172.2 215C170.5 215.8 168.8 216.5 167 217.1C166.5 217.2 165.4 217.8 165.1 217.2C165 217 165.4 216.4 165.5 216.1C166.4 215.1 167.4 214.2 168.4 213.2C172.1 209.5 176.2 205.8 181.7 205.1ZM115.4 210.2C117.4 210 119.5 211.5 121 212.7C121.4 213.1 122.2 213.8 122.4 214.4C122.5 215.4 121 215.8 120.7 216.8C120.4 219 123.5 221.8 124.8 223.1C127 225.2 130.1 226.8 132 229.2C132.5 230 133 230.7 133 231.5C133 232.1 132.8 233.2 133.4 233.5C133.7 233.8 134.2 233.2 134.5 233.1C135.1 232.5 136.4 231.1 137.4 231.4C138.7 232 137.5 233.8 137 234.4C135.4 235.8 134.1 235 132.4 235.5C131.5 235.8 131.1 236.7 130.2 236.8C128.5 237.2 126.7 236.5 125.2 235.7C122 233.8 119.7 230.7 116.8 228.2C115.2 227.1 113.2 227.2 112 225.7C111 224.4 111.2 222.8 110.8 221.2C110.5 220 109.2 219.2 109 217.8C108.4 214.2 112.2 210.8 115.4 210.2ZM152.7 212.4C153.5 212.4 154.8 212.2 155.5 212.8C156.5 213.5 155.5 215 154.8 215.5C153.4 216.4 151.4 216.1 149.8 216.1C146.8 216.2 143.8 216.5 141 217C140.1 217 137.2 217.1 137.4 215.5C137.7 214.5 140.2 214.4 141 214.2C144.8 213.4 148.8 213 152.7 212.4ZM149.2 223.2C151.7 223 152 224.4 152 226.5C152 227.5 152 229.1 150.7 229.4C148.1 229.8 144.7 230.1 142.2 228.7C141.4 228.1 139.8 226.8 140.5 225.5C141 224.8 142.1 224.5 142.8 224.4C145 223.8 147.1 223.5 149.2 223.2ZM67.2 224.2C68.1 223.8 68 225.2 67.8 225.7C67.7 227 67.4 229.4 66 230C65.1 230.4 65 229.1 65.1 228.5C65.2 227.4 66.1 224.8 67.2 224.2ZM149.5 233.2C151 232.8 152.2 236.7 151 237C149.8 237.2 148.4 233.5 149.5 233.2ZM154.4 237.7C155 237.2 156.2 238.5 155.5 239C154.7 239.5 153.5 238.2 154.4 237.7ZM151.5 315.1C153.4 314.8 155 317.7 152.7 318.1C150.7 318.4 149 315.5 151.5 315.1ZM148.7 327.2C148.5 326.7 148 324.2 148.2 324C148.8 323.1 150.7 323.7 150.7 324.7C150.7 325.5 149.4 326.7 148.7 327.2ZM123 326.5C127.2 325.4 130.1 332.4 130.4 335.7C130.5 337.7 130.1 339.7 127.8 340C127.5 340.1 127.4 340.1 127.1 340.1C124.5 339.8 128 337.1 127.2 336.4C126.8 335.8 125.7 336.4 125.4 335.5C125.1 334.7 126.2 333.1 125.5 332.5C125 332 123.8 333.2 123.2 332.4C122.8 331.4 124.1 330 123.5 329C123 328.2 121.8 329.5 121.2 328.7C120.8 327.7 122.2 326.7 123 326.5ZM129.7 407.5C130.7 407 131.4 408.4 130.4 409C129.5 409.4 129 408 129.7 407.5ZM127.7 425.5C128.7 425.2 129.1 426.7 128.1 427C127.1 427.2 126.7 425.7 127.7 425.5ZM125.2 437.2C126.4 437 126.8 438.5 125.7 438.8C124.7 439.1 124.1 437.4 125.2 437.2ZM128.2 439.2C129.7 439 130.5 440.8 128.8 441.1C127.2 441.4 126.5 439.5 128.2 439.2ZM129 444.2C130.1 444.2 130.1 446.1 129 446.1C127.8 446.1 127.8 444.2 129 444.2ZM125.4 446.7C126 446.2 127.2 447.5 126.5 448C125.7 448.5 124.5 447.2 125.4 446.7ZM130 448.2C131.5 448.2 130.7 450.1 129.4 450.1C127.8 450 128.8 448.2 130 448.2ZM126.4 451.7C127 451.2 128.2 452.5 127.5 453C126.7 453.5 125.5 452.2 126.4 451.7ZM129.8 453.4C131.1 453.2 131.4 455.2 130.1 455.4C128.4 455.7 128 453.5 129.8 453.4ZM127.4 456.2C129 456.1 128.4 458 127.1 458.1C125.5 458.2 126.1 456.2 127.4 456.2ZM130.7 458.5C131.7 458.2 132 458.8 131.4 459.7C131 460.4 129.7 461.4 128.8 461.5C127.8 461.7 127.8 460 128.2 459.4C128.7 458.8 130.1 458.7 130.7 458.5Z" stroke="#DF7861"/>
</svg>
