<svg width="362" height="546" viewBox="0 0 362 546" fill="none" xmlns="http://www.w3.org/2000/svg">
<g clip-path="url(#clip0_2_643)">
<path d="M215 209.5C215 214 211.5 216 209.5 219.5C205 227 205 235 197.5 240M214.5 214.5C216.5 218 215.5 228.5 212 231C210 232.5 207 232.5 204.5 233M177.5 308.5C180.5 303 190 299.5 195 296C202.5 291 209.5 285.5 217 281C225.5 276 234 272 242.5 267.5C248 264 253 260 258.5 257C260.5 256 263 256.5 264 258.5C264.5 261.5 262 264.5 260 266C254.5 271 248.5 276.5 242 280.5C238.5 283 235 286 231 287.5C226 290 221 290.5 216 293.5C208 298 201 304.5 191.5 307.5C180 311 168 308.5 157 315M272.5 262.5L257.5 278M120.5 286.5C123 282 124.5 287.5 122.5 290.5L119.5 287.5L120 287L123.5 289.5M120 288L119 292L122.5 291M119 293L117 300.5M140 333.5C133.5 327.5 139 318 146 316C148 323.5 139.5 328.5 140.5 335.5M127.5 326L129.5 330M173 330C170.5 332.5 168.5 339 165 336.5L168.5 334M132 338.5L135.5 348.5M360.5 339.5C357 341.5 354 347 353 351C352.5 352 351.5 354.5 353 355.5C354 357 357.5 354.5 357 353C357 351.5 354.5 350 353.5 349M356 350.5L356.5 351M358.5 352.5H360.5M353 356.5C352.5 359.5 351.5 363 350 365.5C348.5 367 346 367.5 344.5 369.5C341.5 374 341 380 341 385C343 385 345.5 384.5 347 383.5C350.5 381 352 369.5 349.5 366M11 468C9.5 463.5 9.5 455.5 11 451C11.5 449.5 13 448 13.5 446.5C14 444.5 12.5 442 12.5 440C13 436.5 14.5 432.5 15 429.5C17.5 420.5 22 412.5 23.5 403C24.5 396.5 23.5 389 25 383C25.5 381 27.5 381.5 29 382.5C32 386 32.5 392 33 396C35 407 35 418.5 36.5 429.5C40 455 45.5 480 50 505C52.5 517.5 53.5 531 57 543.5C53 544.5 48 544 44 544H19C16.5 544 8.5 545.5 6.5 543C2.5 538.5 6.5 534.5 8 530.5C9 527 9 523 9.5 519.5C11 506.5 9.5 493.5 10.5 480.5C10.5 478 8.5 476 9.5 473.5C11 467 17.5 464.5 20.5 458.5M347.5 384.5C345.5 391.5 345.5 397 339.5 401.5C337 396.5 339 390.5 340.5 385.5M343 385L346.5 388.5M339.5 402C339 403.5 338 407 340 408C341.5 409 345 408 345 410C345 412 341.5 414.5 339.5 413C338.5 412 338.5 410 338.5 408.5M123.5 404.5L121 416.5M345.5 411C347.5 414 346 417 345.5 420.5C344.5 426 343 434 345 439.5C346 442.5 349.5 443.5 352 445.5M352 445.5C354.5 443 356.5 442 360 441C362 448 360.5 457.5 360.5 464.5V514.5V533.5C360.5 536 361 539.5 360 542C359 545 355 544 352.5 544H332.5C330.5 544 326.5 544.5 325 543C324 542.5 323.5 541.5 323 540.5C318 532 328.5 530.5 333 526C335.5 523 337 518.5 337.5 514.5C339 504.5 338.5 494.5 339 484.5C339.5 480.5 341.5 477 341.5 473C341 470.5 339.5 468.5 339 466C338.5 460 338.5 454.5 338 448.5C337.5 440.5 337.5 432.5 337.5 424.5C337.5 421 336.5 416.5 338.5 413M352 445.5L350.5 449M355 421.5L351.5 434.5M150 449C145 449 142 447 145 441.5C152 444.5 154.5 456 154.5 463L155 463.5L158.5 460L155.5 457.5M158.5 460.5L172 484L184 501L187 511.5M154.5 464C154 467 151 470 151.5 473C152 474.5 153.5 474.5 154.5 475.5C156 477 156 479.5 158 481C160 482.5 162.5 482 164.5 483.5C167 485.5 168 490.5 169.5 493.5C170.5 495 172 496 172.5 498C174 502 174 507 173 511C172.5 513 171.5 515.5 173.5 516.5C175 517.5 179 519 179.5 516.5C179.5 515 178 513.5 179 512.5C180 510.5 184 510 185.5 508.5M17.5 464.5C19.5 469 16.5 479.5 11 480.5M14.5 467L17.5 470M180.5 512V515M179.5 518.5C181 521.5 184.5 521.5 186 524C189.5 531 193 546.5 203.5 543.5C202 540.5 200 542 198 544M182 522C179 527 183.5 533 185.5 538C186 539.5 186.5 542.5 188 543.5C189.5 545 194 544 196.5 544M1 544C1 541 1 539.5 4 538.5M66 544H66.5M70.5 319.5C74 317.5 78 319 81.5 319C89.5 319 97 319 105 320.5C108 321 111.5 321 114 322.5C118.5 325 123.5 336 121 341C119.5 344.5 115 339.5 113 342C109.5 346 118 348.5 118.5 350.5C119.5 353 116 355.5 114 354.5C103.5 352 101 339 92.5 334C85.5 329.5 74.5 327.5 70.5 319.5Z" stroke="#080609"/>
<path d="M265.5 272.5C266 274 266 275.5 266.5 277C269 281 275.5 280 279.5 279.5C281.5 279.5 287 278 286 281.5C285 285 281.5 289 279.5 291.5C271.5 300.5 258 311 245.5 310C244 310 241 310 240 308.5C238.5 307.5 238.5 305.5 236.5 305C233.5 303.5 225 307 223.5 303.5C221.5 300 224.5 292 227 289.5C229 288 231.5 288 233.5 286.5C242.5 279.5 253.5 273.5 261.5 265C266.5 259.5 259 255.5 263.5 251C267 248 273 244.5 278 246.5C280 247.5 282 249 282 251.5C281.5 258.5 274.5 261.5 271 266.5C267.5 271 262.5 273.5 258.5 277.5M255 260L260.5 255.5M314.5 272L310.5 278M262 284.5L255.5 288M303 290C300.5 294.5 296 297.5 292 300.5M292 300.5C291 300 290.5 299.5 289.5 298.5C285 294.5 294 293 290 299M292 300.5L297 306.5M301 295C299.5 308 288.5 318 285.5 330.5C284.5 334 287.5 335.5 287 338.5C286.5 343 283.5 345.5 286 350.5C286.5 352.5 292 353 294 353C302 352.5 309.5 350.5 317.5 349.5C320 349.5 324.5 350 326.5 348C329.5 345.5 324.5 339 329 336.5C331 336 332 337.5 332.5 339C333.5 343.5 333 346.5 328 346.5M234 296L233 296.5M297 297L300 300M242 298H244.5M282.5 300.5L282 300L281.5 299.5L278 303L278.5 303.5L282.5 300.5ZM282.5 300.5L288.5 299.5M278.5 304C277 307 271.5 308 271 311C271 313 275.5 319 277.5 318.5C280.5 317.5 281 314 282 311.5L277 308M211.5 312L223 305M271 313C268.5 316 268 320 264 321M264 321C264 324.5 260 326 258 322.5C257 321 258.5 319.5 259 318C260 316.5 259 314.5 260 313C261.5 310.5 267.5 311 270.5 310.5M264 321L260 319M360.5 310.5C360.5 320.5 361.5 332.5 349 335.5M349 335.5C349 333 347.5 330.5 347.5 328C348.5 322.5 356 315.5 360.5 312.5M349 335.5L340.5 343M282.5 312C285 313.5 284.5 316.5 281.5 315.5M275 318.5C272 321.5 270 323.5 266 320.5M277.5 319.5C277.5 324.5 276 330 272.5 334C271.5 335 269.5 335 268.5 336.5C267.5 337.5 267.5 339 266 340C264 341 261.5 341 259.5 342C258.5 342.5 255 346.5 254.5 348C253 350 254 352 253 354C251.5 356.5 249 358 247.5 360C246.5 361.5 247 363.5 245.5 364.5C243.5 365 242 362 240 361.5C237.5 361.5 235 363.5 232.5 363.5C228.5 363.5 225 361.5 221 361C216 360.5 210.5 360.5 205.5 360C203.5 360 201 360 199.5 358.5C196.5 354.5 204 354 206 353.5M257 323.5C254 326 249.5 324 247 327C240.5 334.5 246 344 256 339.5C257.5 339 258 336.5 258.5 335C260 331.5 262 328.5 264 325M264 326C266.5 328.5 267.5 331.5 268 335M235 328.5H236M349.5 331L353 333.5M360.5 336C360.5 341 362.5 351 360 356C359.5 357.5 356 356.5 355 358C353 360 353 362.5 351.5 364.5C350 366.5 347 367 345 368.5C341 373 341 379.5 341 385L347.5 384M347.5 384C346 391 345.5 397 339.5 401.5C337 396.5 339 390.5 340.5 385.5M347.5 384L349.5 382.5M257.5 339.5L258.5 341M252.5 340.5L254 348M341 376.5C336.5 376.5 331.5 372.5 334.5 367.5C335.5 366.5 337 366.5 338 365.5C340 362.5 339.5 358 341.5 355C344.5 350.5 349 349.5 353 346.5C356 344.5 356.5 342 360.5 341.5M253 344.5H256.5M251 345H252.5M332 346.5L334.5 366M353.5 346.5L360.5 353M352.5 348L360.5 356M327.5 349C327 358.5 326 368.5 327.5 378C328.5 383.5 334 386 330 392.5C327 397 320 394.5 316 398.5C313 401.5 312.5 411.5 309 411.5C305.5 411.5 306.5 408 304 407C300 405 295.5 408.5 292 407C286.5 404.5 285 397.5 278.5 397C271.5 396.5 265.5 401 259.5 403.5C249.5 407.5 240 408.5 230 403.5C227.5 402 225 401.5 223.5 399.5C219.5 394.5 226 390 223 385M223 385H222.5L220 388M223 385C221.5 383 219.5 383.5 217.5 385C215 380.5 215 374.5 209.5 372.5C205.5 371 202.5 375.5 199 375.5C194 376 190 373.5 185 373.5C179 373.5 172.5 378.5 168.5 382.5H168M220 388L223 390M220 388L217.5 385.5M347.5 349L354.5 358M352.5 349L352 353M217 351.5C219 352 227 351 226.5 355C226 357.5 223.5 357.5 223.5 360.5M219.5 352.5C219.5 355 220.5 356 223 357M292.5 353.5L278 361.5L270.5 370.5L264 376M168 382.5C167.5 379.5 165.5 371 167.5 368C169 366 174 365.5 176 365C183.5 361.5 189.5 356.5 198 356.5M168 382.5C164 390 150 390.5 142.5 392C140 392 135.5 391 134 393C131 397 131.5 407 131 411.5C130 417 128.5 422.5 128.5 428C128.5 437 130.5 447 132 456C132.5 461.5 132 469.5 135 474.5C137.5 479 142.5 476.5 146.5 477.5C148.5 478 150 479.5 152 479C157.5 477.5 151 474 151.5 471.5C153 466.5 156 463.5 155 458C154 455 152 452.5 151 449.5C149.5 445 149.5 443.5 145 441.5C142 447 145 449 150 449M351.5 365C353.5 368.5 350 372.5 352 376C355 381.5 360.5 380 360.5 374M215.5 377C219 375 224 373 228 374.5C230 375.5 231.5 378 233.5 377.5C237 377.5 238 375 241 374C245 372 249.5 372 253.5 371.5C256.5 371 264 368.5 266 371.5M105.5 372.5L107.5 373.5M351.5 376C348 382 353.5 385.5 357.5 389.5L358 389L358.5 388.5L354 384M354 384L356 380M354 384H353.5M360.5 378.5C360.5 382 360.5 385 358.5 388M168 384C173.5 389 182 386.5 188.5 386C195.5 385.5 201 387.5 207.5 385.5C211 384.5 213.5 386 216.5 384M343 385L346.5 388.5M353 386C354 388 356 389.5 356.5 391.5C357 393.5 355 395.5 356 397.5C357 399 359.5 398.5 360.5 400.5C362.5 407.5 360.5 417.5 360.5 424.5C360.5 428.5 362 435.5 360 439C358.5 442 354 443 352 445.5M352 445.5C350 444 346.5 443 345.5 440.5C342.5 435.5 344.5 425.5 345.5 420C346 418 347 415 346.5 413C345.5 410 342 414 340 413.5C337 412 339 404.5 339.5 402M352 445.5L350.5 449M357.5 390L357 390.5M339 407.5C341.5 409 344.5 408 345.5 411M338.5 413C336 417.5 337.5 424.5 337.5 429.5C337.5 441.5 337.5 454 339 466C339.5 468.5 341 470 341.5 472.5C342 476.5 339.5 480.5 339 484.5C338.5 493.5 339 503.5 338 512.5C337 517.5 336 523 332 526.5C328.5 529.5 323 531 321.5 535.5C320.5 537.5 323 541.5 323.5 543.5C320.5 544.5 312 545 309 543.5C304 540.5 303.5 534 298 531.5C296.5 530.5 295 529.5 293.5 530.5C292 531.5 291 534.5 289.5 536M289.5 536C293 540.5 289.5 546.5 283.5 543.5C282 543 282.5 541 282 539.5C281 537.5 278.5 535.5 279.5 532.5C280 529.5 289.5 529 284 524.5C280 521 274 519.5 270 517.5C268.5 516.5 267.5 514.5 265.5 514C261.5 513 256 514 252.5 512.5C248.5 510.5 245.5 507 241.5 505.5C238 504 233 504.5 229.5 503C225.5 500.5 220.5 497.5 216 494.5C214 493 213.5 491 211 490C203 486.5 195 483 186 483C182.5 483 176 487 173 485C171 483.5 171 480 170 478C166 471.5 162 463.5 156 458.5M289.5 536H287M351.5 436C352 429.5 353 421 360.5 421M360.5 457.5V458M13 479V479.5M275.5 521L273 522.5M286 528L293.5 529M8 528.5C6.5 531 -1.5 540.5 2.5 543.5C3.5 544.5 6 544 5.5 542C5.5 540 4 539 3 537.5M291.5 529L286.5 534M286.5 534L284 530.5M286.5 534C286.5 537 284.5 537.5 282.5 539.5M277 532.5H278.5M285 533L283.5 533.5M283 534.5L280.5 537M94 233.5C96.5 232 100.5 240.5 101 242.5C102.5 246.5 96 254 92.5 255.5C90.5 256 90 253.5 90 252C90.5 247.5 92 242.5 92.5 238C93 236.5 93 234.5 94 233.5ZM110.5 258.5C112.5 254.5 115 259.5 110.5 258.5ZM48 326.5C49.5 322.5 53 315 57 313.5C60.5 312 69 315 70 318.5C70.5 323 66 325 63 326C61.5 327 60.5 328.5 59 329.5C56.5 330 50 327.5 48 326.5ZM113.5 393C116.5 392.5 123.5 392 125 395.5C126.5 399.5 122.5 402.5 121.5 405.5C120.5 408 121.5 409.5 121.5 412C121.5 413.5 120.5 415 120.5 416.5C120.5 420 122 423.5 122.5 427C123.5 438 124 448.5 125 459.5C125.5 466.5 127.5 474 118.5 476C112 477 102.5 469.5 101 463.5C99 453.5 99.5 443 100.5 433C100.5 430.5 100 428 100 425.5C100.5 421.5 102.5 418 103 414C103.5 411 100 408 101 405C102 399.5 108 394 113.5 393Z" stroke="#111217"/>
<path d="M216 204C214.5 207 215 210 213.5 213C213 215 211 216 210 218C206.5 223 205 229.5 199.5 232.5V233M199.5 233L203 236.5M199.5 233C197.5 236.5 200.5 241 203 236.5M203 236.5C207 232.5 212.5 235 214.5 228.5M88.5 220.5L98 234.5L102 242.5M102 242.5L105 240M102 242.5C102.5 244.5 104 245 106 245M105 240V239.5L104.5 239M105 240C108.5 246 114 250.5 120 254.5M104.5 239L101.5 241.5M104.5 239L103.5 237M204 231.5L204.5 234M99 236L102.5 236.5L100 240M175 253.5C179.5 249.5 184.5 243.5 190.5 241C192 240 197 238 197.5 241C197.5 243 195.5 244.5 194 246C190.5 249 184.5 255 179.5 256C177.5 256 176.5 253.5 174.5 254C173 254.5 172.5 257 171 257.5C168.5 259 165 259.5 162 260.5M199 239L198 240M89 251.5L91 257.5M176 255L177.5 257M173 257H177M113 265.5L115.5 263L117 264.5C108 269.5 113 279 119.5 285C125 279.5 120 271 117 265M125 288L122 292.5M59.5 519.5C60 523.5 63 521.5 63 518.5C51.5 518.5 53.5 526 55.5 534.5C55.5 536.5 55.5 542 57.5 543.5C61 545.5 70 544 74 544H117H129.5C131 544 133.5 544.5 134.5 543.5C136 542.5 135.5 539.5 135.5 538C135 534.5 136 530.5 135.5 527C134.5 513 133.5 500.5 129.5 487C129 484 128.5 477 126 475C124 473 119.5 476 117 476C111.5 475.5 105.5 471 102.5 466.5C98 460 100 448.5 100 441C100 436 99.5 430.5 100 425.5C100.5 421.5 102.5 417.5 103 413.5C103 410.5 100 408 101 405C103.5 394.5 116.5 390 125.5 395M125.5 395C127 392.5 127.5 389.5 126.5 386.5C126 385 124.5 382.5 125.5 380.5C127.5 377 134.5 378.5 136 375C138 371.5 138 366.5 139 362.5C141.5 355.5 145.5 348 146.5 340.5C148 334 149.5 322.5 154 317C155.5 315.5 158 316 160 315C163.5 313.5 167 311.5 170.5 310.5C174.5 310 179 310.5 183.5 309.5C189.5 308.5 196.5 306.5 202 303.5C210 299 215 293 224 291C226.5 300.5 219 306.5 212.5 311.5M125.5 395V397M234 296L233 296.5M199 303.5C200 301 201 300 203.5 301.5M222.5 305C225.5 304.5 234 303.5 237 305C239 306 239 308.5 241 309.5C246 311.5 252.5 311.5 258 311.5M258 311.5C258.5 313.5 259.5 315 259.5 317C259 318.5 257 320.5 258 322.5C259.5 326 264 324.5 264 321M258 311.5C260.5 310 268.5 307.5 270.5 310.5C272.5 313 266.5 320.5 264 321M264 321L260 319M271 310C274.5 307.5 277.5 308.5 281 311C282.5 312 285 313 284 315C283.5 317 279.5 316.5 278 318.5C275.5 323 276.5 329 273 333.5C272 335 270 335 268.5 336C267.5 337 267.5 339 266 340C264 341 261.5 341 259.5 342C258.5 342.5 255.5 346.5 254.5 347.5C253 349.5 254 352 253 354C251.5 356.5 249 358 247.5 360C246.5 361.5 247 363.5 245.5 364.5C243 365 241.5 361.5 239 361.5C237 362 235 363.5 233 363.5C226 363.5 219 361 212 360.5C208.5 360.5 203 361 200 359C195 355.5 204 354 206 353.5M138.5 310.5L135.5 313M281.5 312V315.5M271 312.5L276.5 319M84.5 318H90.5M275 318.5C272 321.5 270 323.5 266 320.5M59 413.5C65.5 412.5 63.5 404.5 59 401.5C57 400 54 403 52 403.5C48 404.5 42.5 402.5 38.5 402C37 401.5 35 402 34 400.5C32 397.5 32.5 392 31.5 388.5C30.5 385 27.5 381.5 27 377.5C26.5 373.5 29 368.5 29.5 364.5C31 353 30 337.5 41 330C44 328 49.5 327.5 53 328C55 328.5 56.5 330 58.5 329.5C63.5 328.5 67 321 73.5 323.5C77 324.5 79 328 82 329.5C86 331.5 91 332 94.5 335.5C100.5 341.5 103.5 348 110.5 353C112.5 354 120.5 356 118.5 350.5C118 349 116.5 349 115 348C113 346.5 113 343.5 113.5 341C115.5 341.5 118 343 120 342C125.5 340 119.5 327 117.5 324M257 323.5C254 326 249.5 324 247 327C240.5 334.5 246 344 256 339.5C257.5 339 257.5 336.5 258.5 335C260 331.5 262 328.5 264 325M136.5 326V327M264 326C266.5 328.5 267.5 331.5 268 335M235 328.5H236M143.5 329L140 337M166 329.5V333.5L173 330M40.5 330.5L44.5 333M142 332L146.5 334M130 333L131 336M161 336.5L165.5 334M122.5 339C132 343 125 356.5 126 363.5C126.5 365.5 128.5 367 130 368.5V369L129.5 369.5L125.5 365M257.5 339.5L258.5 341M252.5 340.5L254 348M253 344.5H256.5M251 345H252.5M217 351.5C219 352 227 351 226.5 355C226 357.5 223.5 357.5 223.5 360.5M219.5 352.5C219.5 355 220.5 356 223 357M173 388C164.5 388.5 167.5 381.5 167.5 376.5C167.5 374 166 370.5 167.5 368C169 366 174 365.5 176 365C183.5 361.5 189.5 356.5 198 356.5M125 367.5C124.5 372 122.5 376 125.5 380M105.5 372.5L107.5 373.5M136 377.5C135.5 381.5 132.5 387.5 135.5 391C137 393.5 142.5 392 145 391C152.5 389.5 159.5 389.5 166 384.5M35 402L35.5 418.5M62 414C65 415.5 62.5 418.5 63 421.5C63.5 425 65.5 429 67.5 432C68.5 433.5 73.5 437.5 75.5 437.5C77.5 437.5 79 435.5 81 436.5C82.5 437 82 440 82.5 441.5C83.5 443.5 85.5 444 86 446C87 448.5 84 451 83 453C82 456 80 465 80.5 468C81.5 472.5 89 475 92 478.5M92 478.5L95.5 477M92 478.5L92.5 484M36.5 424.5L37.5 436M12 445L11.5 446M83.5 457.5L85.5 457M20.5 458.5C19 461 15.5 464.5 15 467C14.5 470 18 471.5 15.5 474.5C12.5 478.5 10.5 472.5 13.5 469.5L15 471L15.5 471.5L16 472L16.5 472.5M14.5 468L13.5 469M85 473.5C81.5 476.5 76 478.5 71.5 477.5H71L74.5 485M64.5 475.5C65 481.5 67 488.5 66.5 494C65.5 502 61 510 63.5 518M134 475.5C136 479.5 136 484 137.5 488C140.5 498 144 509.5 144 520C144 525.5 143.5 531.5 143.5 537C143.5 538.5 143 542 144 543C145.5 545 150.5 544 152.5 544H177C179 544 185.5 545 186.5 543C187.5 542 186 539 185.5 537.5C183.5 533.5 180.5 529 181 524.5C181.5 522 184 522 185.5 523.5C186.5 525 186 527 187 528.5C189 532 192.5 538 195.5 540.5C201 545.5 209.5 544 216.5 544H268C271 544 278 545.5 280 543.5C281.5 542.5 281 540.5 282 539.5C283.5 538 286.5 537 286.5 535C286 533.5 285 532.5 285 531C284.5 528.5 286 527.5 284.5 525C282 521.5 274 519.5 270 517.5C268.5 516.5 267.5 514.5 265.5 514C261.5 513 257 514 253 512.5C249 511 246 507.5 242 505.5C238.5 504 233.5 504.5 230 503C223.5 500.5 218 494 212 490.5C209.5 489 207 489 204.5 488C198.5 484.5 180.5 478.5 176.5 487C175.5 489.5 178 492 179.5 494C183 500 184.5 505 187 511.5M65 476L70.5 477M135 476.5C143 477 151 478.5 158.5 481.5C160.5 482 162.5 482 164.5 483.5C167 485.5 168 490 169.5 493C170 494.5 172 496 172.5 497.5C174 501.5 174 506.5 173 510.5C172.5 512.5 171.5 515 173 516.5C179.5 520.5 178.5 515 181.5 511.5C182.5 510.5 184 509.5 185.5 508.5M78.5 492.5L80 493M179.5 518.5L181.5 522M275.5 521L273 522.5M286 528L293.5 529L294 529.5M294 529.5L289.5 536M294 529.5C301 531.5 305.5 537 306.5 544M289.5 536L291.5 543L296 544H308M289.5 536H287M291.5 529L286.5 534M285 533L280.5 537H280M280 537C278.5 533 279.5 530.5 284 530.5M280 537L281 539.5M277 532.5H278.5M81.5 349.5C83.5 347.5 93.5 348.5 96 350C98 351 101 353 98.5 355C94.5 358.5 89 359.5 84.5 357.5C82.5 357 79 351.5 81.5 349.5ZM82.5 389.5C87.5 389 95.5 394 94 400C93.5 402 91 401.5 90 403C89 404.5 89.5 406.5 87.5 407.5C80.5 409 64 403.5 71.5 394C72.5 392.5 75 393.5 76.5 392.5C78.5 392 80 390 82.5 389.5Z" stroke="#191517"/>
<path d="M131 11C139 8.49999 147.5 3.49999 156.5 5.49999M118.5 11.5C117.5 12 116.5 12.5 115.5 13.5C110 20 122 22 124 26.5C125 28.5 122.5 31.5 121.5 33M162.5 21.5L160 26M160 26H159.5L156.5 22.5C162.5 18.5 168.5 16.5 175.5 17C177.5 17 184 20.5 183.5 23C183 25 180.5 26.5 179 28M160 26C158 27.5 152 29 152 32C151.5 33.5 153 35 154.5 35C156 35.5 158 34.5 159.5 34.5C163 34.5 168 36 171.5 34.5C175 33.5 172.5 29.5 175 28C176 27.5 178 28 179 28M179 28C180 28.5 181.5 30.5 183 30.5C186.5 30.5 185.5 25 184 23.5M113.5 17.5C112.5 18 109.5 18.5 109 20C107 24.5 116.5 23.5 118.5 23.5M139 39C141 39 150.5 39.5 146.5 43.5C144.5 45.5 138.5 45.5 136 45.5C132 45.5 128.5 43.5 124.5 43C115.5 42 108 43.5 99.5 45C96 45.5 92 45.5 88.5 47C83 49.5 79 55 75.5 60C74 62.5 72.5 66.5 70 68C68 68.5 65 67.5 63 67C65 59.5 69.5 54 73.5 48C75.5 45.5 75.5 42.5 77.5 40C82.5 32.5 90 27.5 98 24C102 22 104 19 108.5 18.5M113 18.5L114 23M128 19.5L123.5 25.5M183.5 21C185.5 19.5 187 19.5 189.5 20M163 20.5L173 23.5M146 39.5C147 37 149 37 151.5 36.5C149 29 143 36.5 138.5 32.5C136 30.5 138.5 28 140.5 27C143 25.5 145.5 24 148.5 23.5C151 23 153.5 23.5 156 22.5M112.5 24.5L111.5 25.5M186 27C191.5 27 198 28.5 199.5 34.5C199.5 36 201 39.5 199.5 40.5C198 41 195.5 39.5 194.5 39C190.5 36.5 187 34.5 183.5 31M125 27.5L137 29M171.5 30H173.5M182 31C179.5 33.5 177 34.5 174 32.5M150 32H151M147 33L150 36.5M152 36L153.5 35.5M147.5 43H150.5M63.5 67.5L62.5 71.5M166 111.5C168.5 107 174 110 171.5 112C169 113.5 166.5 111.5 164 112.5M102.5 123C106 119 117.5 119.5 117.5 126.5C118 129 110.5 129 109 128.5C106 127.5 104.5 124.5 101.5 124M186.5 122.5C185 126.5 177 130.5 173 127.5C168.5 124 173 121 177 121C178.5 121 180.5 121 182 121C184.5 121 186 122 188.5 122.5M109.5 129.5L100.5 133L92.5 138M109.5 130.5C115 139 101 140.5 96.5 136.5M155.5 178.5L153 180M219.5 189.5C216.5 194.5 217 199 215 204C213 210 208.5 217 204.5 222C201 226.5 195.5 222.5 191.5 225C190.5 226 190 228 189.5 229.5C188 231.5 186 232.5 184.5 234.5C183 237 183 240 181 241.5C178.5 243.5 175.5 241 172.5 242.5C170.5 243.5 169.5 247 167.5 248C166 249 164 247.5 162.5 248.5C161 249 160.5 251 159 252C155 254 151 252 147.5 250.5C146 252.5 143 256.5 140 254C139 252.5 139 250.5 137.5 250C134.5 249 131.5 251.5 128 250C125.5 249.5 122 244.5 120 242.5C116.5 239 111.5 236.5 107.5 233.5C105.5 231.5 104.5 228.5 102 227C99.5 225.5 97 229 94.5 227C86 219 83.5 204 80 193.5M204 224C203.5 228.5 199 236 195.5 238.5C192.5 240.5 189 241.5 186 243.5C181 248 176.5 254 171.5 257.5C168.5 259.5 164.5 260 161.5 260.5M66.5 224.5L65 228M96 229C98.5 235 104.5 239 109 244C113 249 116.5 256 122 259.5C139 271.5 162.5 272.5 179.5 260.5L173 257M210 233C203.5 239.5 197 245 190 251C185 255.5 181 258.5 175.5 253.5M176 255L177.5 257M82 257C84.5 256.5 87.5 255 89.5 257.5M176.5 257.5L178.5 259.5M182 257.5L180 260.5M111.5 274C112.5 278 116 280.5 117.5 284.5C118.5 287.5 117 290.5 118 293.5C119 297 125.5 299.5 128.5 301L129.5 300L129 297L128.5 296.5M128.5 296.5L125.5 299M128.5 296.5L126 290M125.5 287C126 293.5 116.5 293.5 118 301.5M169.5 304.5L173 303M136.5 310.5L133.5 314.5M155 312L150.5 316L149 322.5L144 338L144.5 344.5L138.5 364.5M77 318H79M119.5 324.5C121 327 121.5 329.5 123 332C125.5 336.5 129.5 341.5 130 347M124 324.5L121.5 326M166 328.5L161 336.5M131 368V379M131 379L138.5 373.5M131 379L128 387.5M59.5 519.5C60 523.5 63 521.5 63 518.5C60.5 518.5 55 520.5 53.5 518.5C52 517 52 514 52 512C51 507 50 502 49 497C44 475 40 453 38 430.5C37 423.5 36 416.5 36 409.5C36 407.5 35.5 404 36.5 402.5C37.5 401.5 40 402 41 402C44.5 402.5 50 404.5 53 403.5C55 402.5 57 400 59 401.5C63.5 404.5 65.5 412.5 59 413.5M62 414C65 415.5 62.5 418.5 63 421.5C63.5 424.5 65.5 429.5 67.5 432C68.5 433.5 73.5 437.5 75.5 437.5C77.5 437.5 79 435.5 81 436.5C82.5 437 82 440 82.5 441.5C83.5 443.5 85.5 444 86 446C87 448.5 84 451 83 453C82 456 80 465 80.5 468C82 472.5 89 475 92 478.5M92 478.5L95.5 477M92 478.5L92.5 484M83.5 457.5L85.5 457M17 466.5L13.5 473M85 473.5C81.5 476.5 76 478.5 71.5 477.5H71L74.5 485M64.5 475.5C65 481.5 67 488.5 66.5 494C65.5 502 61 510 63.5 518M65 476L70.5 477M128 479.5L132.5 492M78.5 492.5L80 493M138.5 493.5L139 494.5M135.5 510.5L137 515.5M81.5 349.5C83.5 347.5 93.5 348.5 96 350C98 351 101 353 98.5 355C95 358 89 359.5 84.5 357.5C82.5 357 79 351.5 81.5 349.5ZM82.5 389.5C87.5 389 95 394 94 400C93.5 402 91 401.5 90 403C89 404.5 89.5 406.5 87.5 407.5C80.5 409 64 403.5 71.5 394C72.5 392.5 75 393.5 76.5 392.5C78.5 392 80 390 82.5 389.5Z" stroke="#241B1B"/>
<path d="M91 228.5L90.5 247.5M272 245.5C278 244 284 247 281.5 254C279.5 259 275 265 271.5 269.5C269.5 272.5 267.5 273.5 266 277C270.5 279.5 273.5 280 278.5 279.5C280.5 279.5 284 278 285.5 279.5C287.5 281 284 285.5 283 287C278.5 293 269 298 267 305L267.5 305.5C270 305 272.5 306 275 305C280 303 282.5 299.5 288.5 299.5C288.5 298.5 288 297.5 288 296.5C288.5 292.5 294 296.5 289 299M281 245C291 245 301 246 310.5 248.5C314.5 249.5 318 250 322 251C323.5 251.5 325 252.5 326.5 252.5C328 252.5 329 250.5 331 250.5C333.5 250.5 334.5 253 337 253C343.5 252.5 347.5 250.5 354.5 252C356.5 252 359.5 252 360 254C362 257.5 360.5 264.5 360.5 268.5V298C360.5 301.5 361.5 307.5 360 311C358 316.5 346.5 322.5 347.5 329C348 330.5 349 330.5 350 331.5C351 332 352.5 333 353.5 332.5C356.5 332 360.5 326 360.5 333L357 330.5M102.5 246L95.5 253M343 252C347.5 256.5 354 258 360.5 258M327.5 253C330 255 332 254.5 334.5 253M112 256L102.5 262.5M314.5 272L310.5 278M262 284.5L255.5 288M303 290C301 293.5 294.5 301 290.5 299M301 295C299.5 308.5 287.5 318 285 331C284.5 334 287 335.5 287 338C287 342 282.5 347.5 286.5 351C288.5 353 294.5 353 297 352.5C306 350.5 315 350.5 324 349C329 348 326.5 343.5 327.5 340C327.5 338.5 328.5 335.5 331 336.5C335.5 339 332.5 346.5 328 346.5M297 297L300 300M292 300.5L297 306.5M251 312L258 310.5L266.5 305.5M255.5 309C256.5 307 258 308 259.5 309M55.5 312.5C55.5 317 51 321.5 47.5 324C46 325.5 44.5 327.5 42.5 325.5C41 323 44 320.5 45.5 319C50 314 52.5 312 59.5 312M41.5 324.5L40 329M40 329L44.5 327M40 329L35 335M349 331.5V335.5M349 335.5L353.5 333.5M349 335.5L340.5 343M360 334C355 340 350 346 345 352C344 353.5 342.5 354 341.5 355.5C339.5 358.5 339.5 362 338.5 365C337.5 367 336 366.5 335 368C332.5 370.5 334.5 374.5 337 376M332 346.5L334.5 366.5M327.5 349C327 358.5 326 368.5 327.5 378C328.5 383.5 334 386 330 392.5C327 397 320 394.5 316 398.5C313 401.5 312.5 411.5 309 411.5C305.5 411.5 306.5 408 304 407C300 405 295.5 408.5 292 407C286.5 404.5 285 397.5 278 397C271 397 266 400.5 260 403C250.5 407.5 240 408.5 230.5 403.5C228 402 224.5 401.5 223 399C220 394 225.5 390 223 385M223 385H222.5L220 388M223 385C221.5 383 219.5 383.5 217.5 385C213 378 219 372.5 226.5 374.5C229 375 231 378 233.5 377.5C236.5 377.5 238 375 240.5 374C243.5 372.5 247.5 372.5 251 372C254.5 371.5 264 368.5 266 371.5M220 388L223 390M220 388L217.5 385.5M292.5 353.5L278 361.5L270.5 370.5L264 376M360.5 354L360 375L354 384M354 384L359.5 389.5M354 384C351.5 382.5 351.5 380.5 353.5 378.5M359.5 389.5L359 390L357 391.5L353 386L358 390M359.5 389.5H360.5M360.5 366C356.5 369 352 375 356 380M216.5 384C213.5 386 211 385 208 385.5C199.5 387 190 387 181 387C178 387 170.5 387.5 170 384C169.5 380 174.5 377 177.5 376C180 375.5 182 373.5 184.5 373.5C187 373.5 189 375 191.5 375.5C193.5 376 197 376 199 375.5C202.5 375.5 205 371.5 208.5 372C210.5 372.5 213.5 376 215.5 377.5M353.5 385V385.5M360.5 387C360.5 389.5 361.5 395.5 360 397.5C357 402 356 394 357 392M132 402.5L131 404.5M120 406L118.5 409.5M130 415.5L129.5 419.5M129 434L129.5 437M78 201C82 200 84.5 204.5 83 208C82 211 78.5 213 75.5 213.5C72 214 66 207.5 68 204.5C69.5 202 75.5 201 78 201ZM133 468.5C135 467.5 135.5 470.5 134 471C132.5 472 132 469.5 133 468.5Z" stroke="#191E26"/>
<path d="M75 44L71.5 49M67 57L62 66.5M68 199L71.5 202.5M88 239.5C84 237.5 84 232 82.5 228.5C80.5 225 77 222 74.5 218.5C74 217.5 72.5 215.5 73.5 214.5C74.5 213 77.5 212.5 79 212C80.5 211 82 210 83.5 210C87 210.5 87 216.5 88 219C88.5 222 90 225 90.5 228C91 234.5 88.5 241 88.5 247.5M212.5 237.5L206 254M274 243L229.5 273M99.5 258V253M99.5 253C102.5 251.5 105 250.5 102.5 247.5M99.5 253L95 255M102.5 247.5C106 244.5 110.5 247.5 111.5 251.5C112 255.5 107 261.5 103.5 262.5C98 264 99.5 254.5 94 256M102.5 247.5L100.5 252M344 252C341 250.5 339.5 251.5 337.5 253.5M337.5 253.5C342.5 257.5 342.5 252 346 251C349.5 249.5 356 250.5 359.5 252.5C361 253 361 257.5 359.5 258C356.5 259 348 256.5 345.5 255L350 250.5M337.5 253.5C332.5 253 328.5 253 324 255M344 254L345 255M109.5 258.5L114 260.5L111 275M105 262.5L110.5 271.5M99.5 263.5L98 266M56 309L66 314M77.5 317H84.5M133.5 391C131 394.5 129 398.5 126 401.5C125 403 124.5 404.5 125.5 406C128.5 410.5 130 403.5 128 400.5M124 406C124 410 122.5 415 128 415M128 415C128 417 128.5 419.5 127.5 421C125.5 425 120.5 428.5 123 434C124 435.5 127 437 128 434.5C129 431 129 424.5 127.5 421.5M128 415C129.5 412.5 130.5 410.5 129 407.5M124.5 414.5C122 418 121.5 421.5 126.5 421.5M123 421.5V425M123.5 429H127.5M124.5 436C124.5 439 125.5 440 127.5 442L124 445L127.5 448.5M127.5 448.5L127 449L124.5 449.5M127.5 448.5H128.5M124.5 449.5V445.5M124.5 449.5L125.5 454M127.5 436C130.5 439.5 129 444 129 448.5C129 453 132 454 128.5 458M128.5 458C126 455 127 453 129.5 450.5M128.5 458C129 464.5 128 468 131 474M124.5 439.5L124 444M128 442L128.5 442.5M143 533L141.5 537M72 194.5C75 193.5 82.5 195 79 199.5C77.5 201.5 73.5 202 71 203C64.5 204 68 195 72 194.5Z" stroke="#273038"/>
<path d="M121.5 33C122 32 123 31 123.5 30C126.5 23.5 115.5 23 114 17.5C113.5 15.5 115.5 12.5 116.5 11C119.5 6.00001 123 8.00001 127.5 6.00001C132.5 3.00001 138.5 7.92293e-06 144.5 1.50001C147 2.50001 148.5 4.00001 151.5 4.50001C155 5.00001 159 4.00001 162.5 4.50001C171 6.00001 183 12 189.5 17L188.5 19.5C184 19.5 182 25 179 28M179 28C185.5 33 180.5 35 174.5 35.5C175.5 39 181 46.5 178.5 49.5C177 51.5 173 49 171 48.5C164.5 46 157.5 44.5 150.5 43.5C148.5 43 147.5 45 145.5 45.5C141.5 46.5 137.5 46 133.5 46C129 46 125 44.5 120.5 44C110.5 43 93.5 44.5 85 50C75 56.5 72.5 67.5 68 77C66.5 79.5 64 86.5 60.5 87C58 87.5 58.5 83.5 58.5 82C59 76.5 61.5 64 70 69.5M179 28C173.5 28 174 30 174 35L161.5 35.5M147.5 4.00001C143.5 7.50001 136 9.50001 131 11M115 14.5L111 10.5V10C113 9.50001 114.5 9.50001 116.5 10.5M113 18C110.5 19 107.5 18 105 19.5C100.5 21.5 98.5 25 93 24.5M93 24.5C94.5 18.5 98.5 16.5 103.5 13.5C105 12.5 107.5 11 109.5 11.5C111.5 12 113 14 114.5 15.5M93 24.5L81.5 34.5M162.5 21.5L160 26M160 26H159.5L156.5 22.5C158.5 21 160.5 21.5 162.5 20.5C163.5 19.5 164.5 18 165.5 17.5C168 16 175 16.5 177.5 17.5C179.5 18 181.5 20 183.5 21.5M160 26C157.5 27.5 153.5 28.5 152 31C149 36.5 159 36 161.5 35.5M190 17C201 23.5 206.5 31 213.5 41C215.5 44 219.5 48.5 220.5 52C224 61.5 222.5 71 222.5 80.5M191 17.5L189 20M188 18L187 19M113 18.5C115 22 114 24 118.5 23.5M109.5 19C108.5 22 111 24.5 114 23M128 19.5L123.5 25.5M163 20.5L173 23.5M150 42.5L153 37M153 37C152 35.5 150.5 33 148.5 32.5C145.5 32 141.5 35 138.5 32.5C136 30.5 138.5 28 140.5 27C143 25.5 145.5 24 148.5 23.5C151 23 153.5 23.5 156 22.5M153 37L154.5 36.5M184 23.5L198 31L200 43.5L208.5 53.5L221.5 72.5M112.5 24.5L111.5 25.5M161.5 35.5C162.5 39 160.5 42 158.5 44.5M186 27L183 31M125 27.5L137 29M171.5 30H173.5M150 32H151M147 33L151.5 38M183 33.5C186.5 37 194.5 40.5 199 41.5M139 39C143 39 146.5 38.5 149.5 41M180 46H182M173 107.5C175 106.5 181.5 108 179 111.5C178 113 175.5 112.5 174 113C170.5 114.5 167.5 116.5 164 118.5C162.5 119.5 161.5 121 159.5 121C155.5 120.5 154 114.5 156.5 112C159 110 161.5 111.5 164.5 111.5C166 111 166.5 109.5 167.5 108.5C169 107.5 171.5 107.5 173 107.5ZM173 107.5V112.5M165.5 111.5L169 115M80 131.5C83.5 127.5 88.5 125.5 94 125C96 125 97.5 126.5 99.5 125.5C103.5 123.5 102 119 108 119C112 119 123.5 123.5 120 129.5C118.5 132 114 132 111.5 134M94.5 124C96.5 121.5 98.5 120.5 101.5 122M191 121.5L185.5 125.5M101.5 124.5L105.5 127.5M166 125L162.5 127M90.5 139.5L98.5 139M223 155C219.5 172.5 221.5 191.5 212 207C210.5 209 208.5 210.5 207 212.5C205 215.5 204.5 220 201.5 222C198 224.5 193 214.5 190 222C190 223 189.5 223.5 189.5 224.5C192.5 225 196 225 198.5 223M72.5 169C76 181.5 81 192.5 85.5 204.5C88 211 90 219 95 224C97.5 226 101.5 225 104 227C109.5 231 111 234.5 118 236C117 240.5 114 239.5 113 235.5M127 181C130.5 184 142 189.5 147 187.5C149 186.5 150.5 182.5 152.5 181M129.5 183.5C130 186 131.5 191 133.5 192.5C137.5 195.5 146 192 147 188M79 191.5L76.5 193.5M172.5 203.5L176.5 202M64 204C71.5 213 65 223 65 232.5M117.5 207L121 207.5M77 222.5L81.5 227M189.5 225C186.5 229.5 185 238.5 181 242C179 243.5 172.5 243.5 172 240.5C171 237.5 177 233.5 179.5 233.5C181 234 182.5 235.5 183.5 236.5M185 233L181.5 229.5M181.5 229.5H187M181.5 229.5C180 232 182.5 234 184 235.5M180 232.5V233M84.5 235.5C85.5 240 87 245 87 249.5C87 251.5 85.5 253 85.5 254.5C85 256.5 88 258 86.5 260C85.5 261.5 83 260.5 81.5 260C79.5 259.5 77 260.5 75 259.5C70 256.5 75.5 253.5 79 254C81 254 82.5 255 84.5 255M117.5 236L114.5 239.5M118.5 236.5C124 237 116.5 243 123 245C125.5 246 127 241.5 129.5 241.5C132 241.5 135.5 243.5 137.5 244.5C141.5 246.5 145 246.5 148.5 249.5C147 251.5 144 256.5 140.5 254C139 253 139 250.5 137 250C132.5 249.5 126 253 125.5 246M192 254C196 249.5 200.5 245 204.5 240.5C205.5 238.5 207.5 235.5 209.5 238M122.5 239L124.5 241L121.5 244M122.5 240L120 242.5M148.5 250C154 255 158.5 251 161.5 245.5C162 244 161.5 242 163 241C164 239.5 169 240.5 171 240.5M117 240.5L119 241M124.5 241.5L126 243M171 242C171 248 165.5 249.5 161 246.5M137.5 245L136.5 249M155.5 245.5L158 248M155.5 246.5L148.5 249M114 254C117 258.5 124.5 260.5 129 262.5C133.5 265 139.5 268.5 144 270C158.5 274 175.5 264.5 186.5 256.5M82.5 255.5L81.5 259.5M115 256L120.5 272.5L123.5 279.5M227.5 273.5L225.5 272L225 272.5L226 274.5L237.5 267M143 270L135 273L131 276.5L123 276M108 270.5L114 283L118 287L115 291.5M115 291.5L113.5 284M115 291.5V297.5M215 280L211 283.5M129 295L125.5 299V299.5M125.5 299.5L130 301M125.5 299.5C121.5 296 118.5 299 119 304C119.5 306.5 121.5 309 123.5 310.5C125 311.5 130 315.5 132 315.5C139 314 132 303 130 301M130 301L129.5 296.5M186.5 299L175 302L158 306M67 313C71.5 316 77 316 82 316M150.5 316L152 315M123.5 328C124.5 330 126 331.5 126.5 333.5C128.5 338.5 128 343 131.5 347C129 348.5 128 347.5 128 345M143 344C140 350 140.5 356 140.5 362.5M138 364C136.5 368 136.5 371.5 135 375C133 381 129 387.5 130.5 394M129.5 366L135 369M129.5 457C125.5 452 132 452 129.5 457ZM129.5 457L128 460M128 455L130 454M129.5 471.5C130 486.5 139.5 499.5 139.5 514.5C139.5 518.5 144 525.5 139 527.5M9.5 505.5V511.5M235 172C236.5 171 237.5 173.5 236 174.5C234.5 175 233.5 173 235 172ZM144.5 223C146 223 149 222.5 150 223.5C152.5 225 150 228.5 148 229C142.5 230 136.5 224.5 144.5 223ZM126.5 438.5C128 437.5 129.5 439.5 128 440.5C127 441.5 125 439.5 126.5 438.5Z" stroke="#273038"/>
<path d="M100 15C106 11 113 7.5 120.5 6C122.5 5.5 124 7 126 6.5C128 6 128 4 129.5 3C132 1.5 136.5 1 139 1M145 1L153 2M122 5.5C124 3 125.5 2.5 128.5 2.5M169.5 6.5L191.5 17.5M209 32L214.5 41.5L215 47.5L222.5 57.5M210 55.5L215.5 64.5M219.5 72.5L220 74M219 173L216.5 185.5M66.5 211.5L64.5 216.5C63.5 215 59.5 206 63.5 206C66.5 206 69 214 71 216C78 223 82 231 84 240.5C84.5 243.5 86.5 247 84.5 250C82 253.5 75 250.5 73 253.5C70 258.5 77.5 263.5 70.5 267.5M73 252C69.5 249 71 245.5 69.5 242C68 240 64.5 238 65 235C65 232 67 229 67.5 226C67.5 222 64.5 218 69.5 216M65 216.5L66.5 218M69.5 241.5C72.5 237 72 226 79 229.5M208.5 238L199.5 248L171.5 277.5M74.5 260L82.5 262C80.5 265 77.5 265.5 74 266M110 276.5L113 284.5L115 304.5M110.5 280C106.5 284.5 107 293 112.5 296.5M152.5 307L162.5 303.5M148.5 319L150 320.5M142 339.5L141 340M129.5 351L133.5 350.5M127.5 362.5L128.5 364.5" stroke="#273038"/>
<path d="M152 39.5L157 45.5C152.5 47.5 146.5 46.5 141.5 47C134 48 127 46.5 119.5 46.5C113 46.5 107 47.5 100.5 48.5C95 49 88.5 50 84 53C79 56 75.5 61.5 73 67C70.5 72.5 69 79 65.5 84.5C64.5 86 62.5 87 61 88.5C60 90.5 58.5 94 61.5 95C66.5 97 63.5 89.5 62 88M152 39.5C153.5 38.5 160 35 161.5 38C162.5 40.5 159 44 157.5 45.5C162 49 172 51 178 51C181 51 184.5 52 184.5 47.5C184.5 43.5 174.5 45 175.5 39C176 35.5 182.5 36.5 184.5 37.5C187.5 39 191 39.5 194 41C199 43.5 202.5 47.5 207 51M152 39.5L143.5 39M185.5 38.5L183.5 44.5M179.5 45V50.5M66 86L65.5 90M177.5 105.5C179 109 180.5 112 184.5 113.5C182 119 174 119 170 123M156 112L153.5 109.5M153.5 109.5C155.5 108.5 156 108.5 158 109.5M153.5 109.5C147.5 110.5 148.5 120 148 124.5C147.5 126 147 130 148 131C149.5 133 153 129.5 154.5 129.5C156 129 160.5 131.5 162 132.5M180 111L166.5 119M185.5 114H187.5L188 114.5M188 114.5L183.5 119V119.5M188 114.5C189.5 115.5 193 119.5 190 121C188.5 121.5 185 120 183.5 119.5M183.5 119.5L186 114.5M112 116.5C118.5 113 128.5 118.5 125.5 126.5C125 129 120.5 130.5 120 133C119 138.5 124.5 137.5 127 135M127 135C129.5 138 128.5 145.5 123 145C122 145 121 143.5 119.5 143.5C115 144 110.5 149 105.5 150C102.5 150.5 101 148.5 98.5 148C93 146 85.5 147 81 143.5C78 142 75 136.5 77 133C78 131 80 130 81 128C83 124 83 120.5 88 118.5C92 117 96 118.5 100 118C103.5 118 108 115.5 111.5 117C116 119 120.5 123 125 125M127 135L126.5 127.5M172 116L173 119M94 118L97 121.5L98.5 120L99.5 118.5M167.5 118L170.5 122M236 118.5L237 118M182 118.5H182.5M96.5 121.5C92.5 126.5 99 125.5 102 126.5C104 127.5 105 129.5 107 130C110.5 131.5 115.5 132 119.5 132.5M189.5 121.5C187 124.5 185 127.5 181.5 129C179.5 130 177.5 129.5 175.5 130.5C172 132 170.5 135.5 166.5 132.5M82.5 127.5L94 125M165.5 126L168.5 125.5M169 126L175 130M106 130L97 134.5L90.5 139.5M113.5 132C111.5 134.5 112 137.5 110 139.5C107.5 142.5 96.5 140 93.5 138M122.5 132L126.5 133M227.5 133.5L229 135M121.5 138L120 143M111.5 140.5C113 140.5 116.5 140.5 116 142.5M58.5 141L69 148.5M117 143L118 144M223.5 146L221.5 159.5L222 170.5M69.5 156C71 161.5 72.5 168 75 173C76 174.5 77.5 175.5 78 177C79 180 78 184 79.5 187C80.5 189 82.5 190.5 83.5 193C85.5 197.5 86.5 205.5 92 207L92.5 207.5L89.5 210.5M89.5 210.5L88.5 206.5M89.5 210.5C90.5 214 93.5 221.5 97 223.5C99 224.5 100 223 102 223.5C104 223.5 105.5 225.5 107.5 226M75 169C78 170 79.5 172.5 78 175.5M133.5 194.5C130 197 125.5 198.5 121 197.5L129 187.5M129 187.5C131 189 132 193 134 194C136.5 195 145.5 194 147 191.5C148.5 189.5 146.5 187 147.5 185C149 181.5 156.5 176 160.5 176.5C166.5 177.5 156 186 157 188.5C158.5 192 165 191 168 191.5M129 187.5L128.5 183.5M156 178L159 180M126 180C130 185 140.5 185 146.5 185.5M158 181L158.5 181.5M159.5 181L160.5 182M147.5 184.5C150 187 151.5 189 155.5 187.5M79 187.5L75 191.5M152.5 189L148 191M184.5 193L188 198M215.5 194.5C213.5 199 211.5 208 206 209M206 209C205.5 215.5 202 226.5 195.5 218M206 209C202 204.5 206 199 211.5 202M195.5 218L187 222C189.5 228.5 183.5 226 180.5 228C179 229 178.5 231.5 177 232.5C172.5 236 169 237 164 239.5C161.5 240.5 162 245 158.5 246.5C151.5 249 147.5 246.5 141 245C138 244.5 134.5 244 132 242C130.5 241.5 130 239.5 128.5 238.5C126.5 237.5 124.5 238.5 123 237.5C120 235.5 118.5 232.5 116.5 230H116M195.5 218C195.5 215.5 195 214 193 212M116 230V233M116 230L107.5 226M116 233V232M116 233C115.5 236 118 236 120 235M109 205.5C107 202 111.5 199.5 112.5 202.5C113.5 205.5 109 205.5 108 207C107 209 107.5 211 106.5 213C102 222.5 96.5 212 92.5 208M174.5 202.5C172 211.5 165.5 209 158.5 209.5C154 210 150 212 145.5 212C142 212.5 138 211 134.5 211C129.5 211 123 216 120 209C118.5 204 130.5 203.5 133.5 203C139.5 202.5 145 205.5 151 205C154 205 157 202.5 160 201.5C166.5 200.5 173 202 179.5 201.5M113.5 205L119.5 207M186.5 222C187.5 212.5 194 207 203 205.5M157 210L161 214.5L158.5 217.5M158.5 217.5C163.5 222.5 158.5 228.5 152.5 230C141.5 232.5 134.5 229.5 129 220M158.5 217.5C154.5 214.5 149 217.5 145 219M129 220L123.5 219L128 214M129 220L130 219M107.5 226C108.5 223 108 217.5 106.5 214.5M163 211L161.5 214.5M128.5 214.5C129.5 221 133 217 136.5 219C140.5 220.5 142.5 223 147 223C146 219.5 144 219 141.5 221.5M101 218V222.5M133.5 220L138 221M186 221.5L181.5 227M142 222C140.5 224.5 139.5 226.5 140.5 229M148 223C151.5 223.5 151.5 227 150 229.5M109 227.5C109.5 231 111 233.5 114.5 231M113.5 233.5H114.5M130 238.5C132 234.5 141 236 143 239.5C150 235.5 153.5 238.5 155.5 245.5M134.5 237.5L130.5 240.5M124 238.5C125 242 126.5 243 129.5 240.5M155 241L163 238.5M142.5 240L141.5 244.5M158 247V248M195 249.5C186 261.5 176 272.5 165 282.5C162 285.5 157.5 287 154.5 290C150 294.5 147.5 299.5 141.5 302.5C140.5 303 139 304.5 137.5 304.5C135.5 304.5 133.5 301.5 132.5 300C129.5 295 127.5 289.5 125.5 284C125 282.5 123 278 125 276.5C127 275 129.5 277 132 276.5C134 275.5 134.5 273 137 272.5C141 271 143.5 272.5 147 272.5C153 272.5 161.5 272 167 270C173.5 267.5 179 259.5 186.5 259M181.5 261L183 261.5M182 262.5L182.5 263M169 269.5L173.5 273M139.5 272L143 275.5M143 275.5H143.5L144.5 274L145 273.5L145.5 273M143 275.5C143.5 281.5 146.5 288.5 153.5 289M136 303C137.5 301 138.5 299.5 141 301.5M127.5 312L129 314M189 103.5C195 102.5 207 108.5 205.5 116C205 118.5 201.5 119 200.5 121.5C200 123.5 201.5 125.5 200.5 127.5C199.5 129 195.5 129 194 130C187 134 181.5 138 173 139C171.5 139 170 139 168.5 139C167.5 139 166.5 138.5 165.5 138.5C163.5 138 160 135.5 162.5 133.5C163.5 132 165 133 166 132C168.5 130.5 170 123.5 168.5 121.5C164.5 117 160 123.5 157 119.5C153.5 115 156.5 110 161 108C170 104.5 179.5 105.5 189 103.5Z" stroke="#273038"/>
<path d="M215.5 66L218.5 74.5L223.5 70M223.5 71.5C223.5 74 222 78 222 80C223 83.5 226 85 225 89.5C224.5 91.5 222 93 221.5 95M219 75L221.5 79.5M222 80.5C218.5 84 219.5 88.5 222.5 92M61.5 205C61 209.5 55 212 56 216.5C56.5 220.5 60.5 219 62 216.5C63.5 214.5 62 211 61 209M63 217C63.5 224 61.5 231 64.5 238C65 240.5 67.5 240 69 242C70.5 243.5 70 245.5 70.5 247.5C72 251.5 81.5 253 84 249.5C85 247.5 84 245.5 83.5 243.5C82.5 240 80.5 227.5 75 228.5C72.5 229 71 239 69.5 241.5M60 220.5L63 222M64 240C63.5 242 63.5 245.5 61 246C58 247.5 52 244 50.5 248.5C49.5 250 48 254.5 49 256C50 257.5 53 258 54.5 258C58.5 258.5 63 259.5 67 261C71 262.5 72.5 267 77 266M200.5 248L207 242C208 244 209 251.5 205.5 252C203.5 252.5 201.5 249.5 200.5 248.5L198.5 252.5H203M273 242L251.5 257.5L227.5 272.5L223.5 268.5C222 271 222 274 220 276.5C218.5 279 215.5 277 214 278.5C212 280 211.5 282.5 210 284C201.5 291 191 296 180 299.5C177.5 300.5 174 300 171.5 300.5C163 302 154 304 146.5 308.5M71 250C71 255 75 260 71.5 264M198.5 253L174.5 277.5L162 287.5M205.5 253C205.5 257.5 203.5 261 201.5 265M99 259L93.5 271M105.5 265C105.5 269.5 107.5 273.5 107.5 278C107.5 285.5 106 291 111.5 297M72.5 265.5L66 270.5M225 266L223.5 268M215.5 277.5C216.5 274.5 218.5 273.5 221.5 273M222 274L227 272.5M191.5 294C194 287 205 277.5 213 278.5M140 342L138.5 352.5M131.5 350.5L129 354M133.5 363L134 366.5M135.5 502.5C137 501.5 138.5 503.5 137 504.5C136 505.5 134 503.5 135.5 502.5Z" stroke="#273038"/>
<path d="M185.5 50.5C185.5 46.5 184.5 42 188.5 40M82.5 55C94.5 48.5 113 49 126.5 50C133.5 50.5 141 47.5 148 48C159 48.5 169 52 180 52M187.5 102.5L174 103M183 128.5C180.5 129.5 177 131 174.5 130C173 129.5 171 127 169 127.5C167 128 167.5 131.5 165.5 132C162 133.5 158.5 130 155 131C153 131.5 151 134 148.5 132.5C146 131 147 125 147 122.5C147 119 147 114 149 111C152.5 106 163 105 168.5 104M90.5 117C97.5 118 107 115.5 114 115C117.5 114.5 123.5 114 126 117C128.5 120 129 127 129 130.5C129 133.5 130 137 129.5 140C129 144.5 123 144 123 149.5C128.5 149.5 133 148 129 142M181 114.5L192.5 115.5M184 115L178 119M185.5 115L181 118.5M235.5 120C238 114 242 121.5 242 124.5C237 123 234.5 119.5 230 124M201.5 127.5C201 126 200.5 124.5 200.5 123C200.5 117 208 121 206 125.5C204.5 128.5 199 129 196 130.5C193.5 132 191 134 188.5 135.5C183 139 176.5 140 170 140C168 140 165 140.5 163 139C161.5 137.5 161.5 134.5 161.5 132.5M242.5 125L245.5 132.5M174.5 130.5C172 133 169.5 134.5 166.5 132.5M149 134C151.5 140 156.5 144.5 162.5 139.5M228.5 135.5L230 137M123 146C117.5 139.5 122.5 137.5 129 137.5M76.5 139.5C77.5 142 77 145 78 147C79 148 82.5 149.5 83 147C83.5 144.5 79.5 143.5 78 143M107 141L112 140.5M61.5 147C57 152.5 52 146 56.5 141.5L68 149.5L68.5 156.5L70.5 164.5M84 145.5C89 145.5 94 146 98.5 148C101.5 149 101.5 151 105 151C111 150.5 114 146 119.5 143.5M83.5 148C88 151.5 96.5 154 101.5 151M111.5 149.5C114.5 151.5 119 150 122.5 150M122.5 170C121.5 168.5 120 161 124.5 163C127.5 164 122.5 170.5 122.5 172.5C122.5 175.5 122.5 180 124 183C124.5 185 127.5 188 126 190.5C122 196.5 109 190.5 105 197.5C105 198 104.5 199 104.5 199.5C104 207 110.5 198.5 112.5 202C113 203.5 107 209.5 105.5 211C104 208.5 104 206 105 203.5M77 167.5C82.5 174.5 84 186 86.5 194.5C89 202.5 95.5 211.5 101 218L104 214.5L99 213M163 171C163.5 174 163.5 176.5 162.5 179.5C161.5 183.5 157.5 187.5 161.5 191C166 194.5 174 189 176.5 185C178 183 178 179 181.5 180C189.5 182 188 189.5 188.5 195.5C188.5 199 191.5 201 191 204.5C190.5 207 189 209 188 211C187 213 187.5 216.5 186.5 218.5C184.5 221.5 180.5 223.5 178.5 226C177.5 227.5 177 229 176 230C174.5 231.5 172.5 232 171 233.5M123.5 176C130 177.5 135 183.5 142.5 183C147.5 182.5 150.5 178 154.5 176C157 175 160.5 175.5 163 175.5M65.5 178.5C70 180 72.5 182.5 75.5 186M161.5 191.5C158.5 194.5 156.5 195.5 152 196C151 196 148.5 196.5 148.5 195C147 190.5 156 186.5 159 188M167.5 192.5L178 197C181.5 193.5 182.5 194 187 194.5M121 193.5C121 203 127.5 200 134 199C136 199 139.5 199.5 141.5 198.5C143.5 197.5 144 195.5 147 195.5M184.5 194.5L178.5 198.5C182 205 171.5 207.5 167.5 211C162.5 216 164 224 157.5 228.5C155.5 229.5 151 231.5 148.5 231.5C144.5 232 138.5 230 134.5 232M134.5 232L128.5 222L121 218.5L120.5 212.5L115 207L120.5 204.5L125 201M134.5 232V234.5M178 197.5L173.5 200.5M142 199C149.5 207 156.5 201 166 201M207 199C203 203.5 199 204 194.5 206.5C191.5 208.5 194 213 188.5 211.5M107 203.5L109 205.5M179.5 203.5L187.5 211M113.5 205L114.5 206.5M191.5 205.5L193.5 206M189 207.5L189.5 208M114.5 208.5C113 210 108.5 211.5 107.5 213.5C107 216.5 108.5 223.5 111 225.5C112.5 227.5 115 228 116.5 229C122 233.5 127.5 240.5 134.5 234.5M134.5 234.5L143 239.5L149 235.5M149 235.5C150 236.5 151 238 152 239C159.5 246 158 232 158 229M149 235.5V232.5M164.5 217L157 210M157 210C161 209 163 211 165.5 213.5M157 210C154.5 210.5 153.5 213 151 214C148.5 215 145.5 214.5 143.5 216C141.5 217.5 141 220 138.5 220.5C137 220.5 130 219 129 218C125 213 131.5 210 135.5 211C138 212 141 214.5 143 215.5M105.5 211.5L107 214M193 212L196 215M106 213L104.5 214.5M121.5 213L127.5 213.5M153 213.5C155.5 215.5 159.5 218 163 217M139 214L134.5 218.5M128.5 219V221.5M159.5 235.5L165.5 236M167.5 271C173.5 270.5 173 274 169.5 277.5C165 282 159.5 288 153 289C148 289.5 146 284.5 144.5 280.5C143.5 279 142.5 277 144 275.5C146 274 149 274 151 273.5C156.5 272.5 162 272 167.5 271ZM138 300.5C139.5 299.5 142 303 140 304C138 305.5 136 301.5 138 300.5Z" stroke="#273038"/>
<path d="M223.5 178V183M55 217C57 218.5 61 220 62 222C63 224.5 61.5 228 61.5 230.5C62 234.5 67 244 61 246C59 247 57 246 55 246C53.5 246 51.5 247 50 246.5C43.5 243.5 54.5 234 55.5 230.5C56 228 52.5 226.5 52.5 223.5C52.5 214.5 60 203 67.5 199M216.5 216V219M274.5 240L247.5 257L232 266L227 272L223.5 268.5C221.5 272 223 274 226.5 272M47.5 244.5C45 249 45 252.5 44.5 257C44 259.5 42 266 44 268.5C45 270 48 269 48.5 271C49.5 274 45.5 277 49.5 279C55 281.5 57.5 277.5 61 275C62.5 274.5 64 274.5 65 274C67.5 272.5 71.5 265.5 69.5 262.5C67.5 259 58 258.5 54 258C50.5 257 48.5 255 45 255M50.5 247.5L48 255M47 248.5H49.5M103 252C94.5 258.5 94 268.5 88.5 277M163.5 294C166 296.5 167.5 299.5 171.5 299.5L172 299M172 299L165 292.5C161.5 295.5 158 304 153 299C152.5 298.5 151.5 297.5 151.5 296.5C151 293 160 288 162.5 287C173.5 281.5 181.5 273 189.5 264C192.5 261 198 253 202.5 252.5C205.5 252.5 204.5 256 204 257.5C203.5 260.5 198.5 269 202 270.5C204 271.5 206.5 269.5 208 269C214.5 266.5 220 262.5 225 258.5C226 257.5 231 252.5 232.5 255C234 257.5 229.5 262.5 231 266M172 299C177.5 298.5 184.5 297.5 189 294.5C191.5 293 192.5 290 195 288C200.5 283 206 280.5 212 277.5C215.5 275.5 218 273.5 221.5 273M229 255.5L232 258.5M223.5 268C225.5 266 227 265.5 229.5 265.5M69 270.5L78 267M104.5 289.5C99 286 97 281.5 99.5 275.5C100 274 101 268 103.5 268.5C106 269.5 105.5 277 105.5 279C105.5 282.5 105 287.5 106 290.5C107 295 112.5 300.5 115.5 304M199.5 268.5C197.5 271.5 199 273 202 271.5M198 272L191 282.5L169.5 295.5M165.5 292.5C173 286.5 185 275.5 195 274.5M164.5 293.5L167.5 297.5M164 295.5L166.5 298.5L160 299.5M150.5 296.5C147.5 301.5 150 303 155 301.5M80 305.5C79 304 78 302 79.5 301C80 300 82.5 300 82.5 301.5C82.5 303 80.5 304.5 80 306C82.5 307 83.5 305.5 83.5 303M156 301.5C158 303.5 159.5 306.5 162 307.5C165.5 309.5 172 306 175.5 305M150 303L138 308M149.5 304L151 306M57 307.5L76 314M136.5 332.5C130 324.5 137.5 317 145.5 313.5M125 323L133 325.5M138 353.5C138 355.5 137.5 356.5 135.5 357M141.5 535C139 537 137.5 540.5 137 544M221 95C225 93 228 100.5 225 102.5C222 104.5 218.5 96.5 221 95ZM138 516.5C140 516 140 519 138.5 519.5C137 520 136.5 517 138 516.5Z" stroke="#273038"/>
<path d="M237.5 175.5C237 178.5 239 182.5 240.5 185M224.5 177.5L218.5 203M68.5 195C63.5 200 58 205 54.5 211.5C52.5 215 52.5 219.5 51 223C49 228.5 44.5 233.5 48 239.5M48 239.5C50 238 56 232.5 55.5 229.5C55 227.5 52.5 226 51 224.5M48 239.5C45 243.5 44.5 248.5 44 253C43 261.5 41 270.5 42 279C42.5 282 43.5 289.5 46.5 291C48.5 292 50 290 52 290.5C55 291 57 296 60 296C63 295.5 66 289 69 290C71.5 291.5 72.5 304.5 77.5 303C78.5 302.5 78.5 301.5 79.5 301C80 300 82 300 82.5 301C83 303 80 305 79 306L81 307.5M216 231.5L214.5 235.5M262 246C256 250.5 249 253.5 243 257.5C239 260 235.5 264.5 230.5 265L230 264.5C231 261.5 231.5 258 233.5 255.5C235.5 252.5 238.5 253 241.5 251.5C247.5 248 256 240 262.5 246C266 241 269 238.5 275.5 237.5M81 307.5C79.5 309 78 311 76 312C73.5 312.5 70 310.5 67.5 310C59.5 307.5 49 302 48 292.5M81 307.5H82M233.5 255L228 249C230.5 247 236.5 238 239 243C240.5 246 238.5 248 241.5 251M263 245L260.5 242.5M260.5 242.5L265 242M260.5 242.5H259.5M239 248.5L238 252M230.5 254C223.5 259 217.5 265.5 209 268.5C207 269.5 203 272 201 270C199 267.5 203 263.5 205 261.5C206.5 259.5 209 260 211 258.5C216.5 255 221.5 251.5 227.5 249M209 252.5L207.5 259.5M235.5 253L236 253.5M229 255.5L232 258.5M42.5 268.5C44 269.5 47.5 269 48.5 270.5C50 273.5 45.5 276.5 50 278.5C56 281.5 57 277 61.5 275C64.5 273.5 68.5 274 71.5 272.5C79 268 85.5 261 94 258.5C95 263 91.5 272 89 276M92 272.5L100.5 268.5C101 273.5 95.5 279 96.5 283C97 285.5 102.5 288.5 104 290.5C105.5 292.5 106.5 295 108 297C112.5 302.5 118 307 122.5 312.5C124.5 315 123.5 323.5 128 322.5C133 321 127 317 125 316.5M199.5 268.5C197.5 271.5 199 273 202 271.5M97 270L100 273M198 272C195 274.5 195.5 277 193.5 280C189 285.5 182 289 176 292C174 293 171 295.5 169 295C167.5 295 166 293.5 165 292.5L163.5 294M163.5 294L166.5 297L167 296.5L164.5 293.5M163.5 294L159 298.5L144 305M165.5 292.5C173.5 286.5 185 276 195 274.5M105 292C103 294 103 296 106 296M164 295.5L166 297M77 312.5C80 312 81 309 83.5 307.5C88 305.5 94.5 308 98.5 304.5C102.5 301.5 95.5 297 102.5 296M160.5 297.5H165M83.5 303L84 306.5M78 304L78.5 306M155 309.5L160 308.5M79 313L98.5 317.5M139.5 315.5C137 318 134 321 130.5 321M113.5 320L124 321M132 321.5C131.5 330.5 135.5 335.5 138 343.5M136 353.5L134.5 356.5" stroke="#273038"/>
<path d="M180.5 41C192.5 43 201 43.5 207.5 55.5C210 60 213.5 62 209.5 66M209.5 66L209 61M209.5 66L214 85.5L213 100.5L218 104.5M188.5 43L186.5 50M85.5 54C78.5 59 70.5 69.5 71.5 78.5C72.5 85 76.5 90 78.5 96.5C80 103 79 108.5 79 115C79 117 80.5 119.5 82.5 119.5C84.5 120 86.5 118 88 117M213 63C218 70.5 220 81.5 220 90.5C220.5 92.5 219.5 94.5 219.5 96.5C220.5 100.5 224.5 103 225 106.5C225.5 110.5 227 119 223 121C220.5 122.5 219 117.5 219 116C217.5 110.5 217 105.5 221 101.5M83 120.5C73 129 78.5 141.5 77.5 152.5C77 154.5 78 164 76 164.5C74 164.5 72.5 162 71.5 160.5C69.5 156 71 150.5 69 146C66 140 67 135 66.5 128.5C65 115.5 61.5 103.5 65.5 90.5C66.5 86.5 67.5 81.5 71 79M189 101.5C200.5 100.5 209 114.5 207 124.5M78.5 117.5L80.5 122.5M226.5 130C222.5 138 222.5 147.5 220.5 156C220 159 217.5 160.5 217 163C215 169.5 214.5 177.5 213.5 184C212.5 188.5 205 195.5 209.5 199.5C211.5 201.5 213.5 197.5 214 196C216 192 216.5 189.5 213 186M130.5 139C130.5 143.5 132 148 131 152.5C130 157 126.5 162 125 166.5C124 169.5 122.5 173.5 126.5 175.5C129.5 176.5 129 172 129.5 170C131 165 134 159.5 130 155M221.5 149.5C219.5 147.5 218 145.5 221.5 144M218.5 146.5C216 150.5 215 157 217 161M76 188L75 189.5M136 363L135.5 363.5" stroke="#273038"/>
<path d="M88 54L107 52.5L148.5 50L178.5 53M81.5 100V103M156 104L151.5 103L151 103.5M151 103.5L153 107C154.5 106 156 104.5 157.5 104C166 101 177.5 102 186.5 101M151 103.5H150.5H150L149.5 104M152.5 107.5L149.5 104.5V104M149.5 104C147 105 146 106.5 146.5 109L147.5 108L148 107.5L147.5 107L145 109.5L147 109M148 105L148.5 106.5M149.5 107C149.5 109 148 109 147.5 110.5C146.5 112.5 146 115.5 145.5 117.5C144 124.5 146 135 146.5 142C146.5 144 147 148.5 149 149.5C150 150 157.5 146.5 159 145.5M159 145.5C164 148.5 167.5 144 171.5 142.5C175.5 140.5 180.5 141 185 139.5C192 137.5 200 132.5 205.5 128M159 145.5C158.5 142 151.5 139 149 136M89.5 116.5C91.5 116 95 116 96 114.5C98 112.5 96.5 109.5 99 108.5C103 106.5 108 110 112 110.5C112 114.5 113.5 114 117 114C116 112 114.5 110.5 112.5 110M145 118C142 115.5 139.5 112.5 139 108.5L146 108M150.5 108L152 107.5M114.5 110L132 109.5L130.5 120.5L131.5 139.5M118 114C124 114 126.5 114 130.5 119M96.5 114.5C101 117 107 114.5 111.5 114.5M228 127C229 125.5 230 123 232 122.5C237 121.5 246 133.5 246.5 137.5M231.5 134L232 131.5L232.5 132C233 135 237 142.5 234.5 145.5C232.5 147.5 230 144.5 230 142.5C230 140.5 232.5 139 233.5 138M153.5 133L149 136M149 136H147M66.5 139.5L62.5 140.5M159 143C161.5 140 167.5 140.5 170.5 142.5M64 177C61.5 173 59 166.5 59.5 161.5C59.5 159 60.5 157 60.5 154.5C60.5 151 63 145.5 66.5 150C68.5 152.5 66.5 154.5 66.5 157C66.5 160 69 164 70 166.5M80 164L79.5 169L80 169.5M80 169.5C80.5 169 82.5 167.5 82.5 166.5C82.5 165 80.5 164.5 80 163.5C77.5 160 75 153.5 79 150C83 145.5 91 153 95 154C103 156 110 151.5 117.5 150.5C120 150 127 147.5 128 150.5C129.5 153 128.5 160 126 161.5C125 162.5 123.5 162.5 122 163.5C121 164.5 121.5 166 120.5 167.5C120 168.5 118.5 168.5 117.5 169.5C115 172.5 118 177.5 120 180C116 186 110 184 103.5 185C100.5 185.5 98 187 95.5 188M80 169.5C81.5 171 82.5 168.5 83.5 167.5M59 160.5C57 159.5 52.5 152 55.5 150C56.5 149 59 149.5 60.5 149.5M111 153L115.5 157L117.5 168.5M93.5 154L83 156.5L79 160.5M61 156.5L66 157M242 158C237.5 161.5 223 171.5 226 158.5M162 173C161.5 170 155.5 162 158.5 160C162.5 156.5 167.5 168 171 169C174 170.5 177.5 170 180.5 171.5C184 172.5 187 175 191 175.5C194 176 200.5 174.5 203 177C205 179 204.5 184 204.5 186.5C205 189.5 207 192 207 194.5C207 201.5 197 204.5 191.5 206C189.5 199.5 190.5 191.5 187.5 185C186.5 182.5 183 179 180 179.5C177.5 180 177 184.5 175.5 186.5C172 190 166 188.5 162 186.5C158 184.5 168.5 174.5 161 173.5C155 172.5 152 177.5 147.5 179.5C142.5 182 134 180.5 129.5 177.5M84 169C83 170 82 172.5 80.5 171M121 169C121.5 173 123 176.5 120.5 180M84.5 170.5C83.5 171.5 82.5 174 81 172.5M85 172C84 173 83 175.5 81.5 174M82 176L85.5 174C90 180 97 179 100.5 185.5M71.5 175C72.5 179 71.5 182.5 74.5 186M82.5 176.5C84.5 186.5 89.5 196.5 94 205.5C95.5 208 98.5 214 102.5 213C104 212.5 104 210.5 104.5 209C104.5 205 103 200.5 105.5 197C109.5 191.5 131 195.5 124 184C123 182.5 122 181.5 121 180M143.5 199.5C149.5 194 160 195.5 167.5 195.5C171 195.5 174 195 177 197M177 197C173.5 201 167.5 200 163 200.5C158 201 153 202 148 201.5C146 201.5 144.5 200 142.5 200C136.5 199.5 131 201.5 125 202M177 197H180M159.5 233C160.5 227.5 165 224.5 168 220.5C170 218.5 170 216.5 168 215C169.5 210 181 199 185.5 207.5C186.5 210 187.5 216 185 218C184 219 182.5 219 181.5 220C179.5 223 178 227 175.5 229.5C174 230.5 172.5 230.5 171 231.5C169.5 232.5 169 234.5 167.5 235.5C164.5 236.5 161.5 233 158 234.5M134 232.5C127 239 123 233.5 117 228.5C112.5 225 109 223 108.5 216.5C108.5 211 115.5 208 119.5 212C121.5 213.5 120 216 121 218.5C123 222.5 127.5 224.5 130.5 228C132 230 132.5 232 135 232.5M142.5 210L153.5 213M140 215C142 216.5 143 217 145 215C143 214 142 214 140 215ZM140 215H139.5M164.5 216.5L167.5 215.5M163.5 227C166.5 228.5 168 228 169.5 232M149 234L149.5 235" stroke="#273038"/>
<path d="M185 52.5C188 51 190 44.5 192 44.5C198 44 203.5 50.5 206 55C208 58.5 207.5 62 208.5 66C209 68 210.5 69 211 71C213.5 80 213.5 88 212.5 97C212 103.5 221.5 104.5 215 111M215 111L214.5 108.5M215 111L217 114M85.5 55.5L80 60M208.5 67C206.5 69.5 200.5 72 199.5 75C197.5 81 205 98.5 195.5 100.5C194 101 191.5 100 189.5 100M73.5 76.5C73 79.5 78 81 79 84.5C79.5 88 79 90.5 79 94C79.5 99 81 104 80.5 109C80.5 111 79 116.5 81 118C83 119 89.5 115 91.5 114M72.5 79C72.5 84 74.5 89.5 78.5 93M200.5 97.5L199.5 102.5M199.5 102.5C204 108 209 113 209 120.5C209 123 206.5 126.5 207 129C207.5 131 210 132.5 211 134.5C213 138.5 212 143 213 147C214 149.5 216 150.5 216.5 153C214 152 213 151 212.5 148.5M199.5 102.5L196.5 102M218 109L217 114M217 114C214 120.5 210.5 132.5 221.5 134M221.5 134L223 125L217 115.5M221.5 134C223.5 139.5 218.5 145.5 216.5 150.5M226.5 115.5L223.5 124M213 151C211.5 154.5 220 161 211.5 161.5V154.5M216 153.5V156M211 162C211 169.5 215.5 168 215 161.5M131.5 166.5L129.5 172M212.5 168.5C212.5 175.5 212.5 185 209 191M74 72H74.5C75 74 74.5 74.5 73.5 76L74 72Z" stroke="#273038"/>
<path d="M241 169C236.5 176.5 241 185 245 191.5M227 178L219.5 202L217.5 228.5L207.5 259C211 259.5 213 257 215.5 255C220 252.5 226 251 230 247.5C232 246 234 242 236 241.5C241 240 237.5 249.5 241.5 250.5C243 251 245 248.5 246 248C248.5 246 251.5 245.5 254.5 244.5C261.5 242 267.5 238 274.5 236C276 235.5 278 234.5 276.5 233C272.5 228.5 257 232 253 234.5C250.5 236 248.5 238 246 239C243 240 242.5 234.5 239 234C234 233.5 228 241 222.5 238.5C220.5 237.5 219.5 232 217.5 230M63 199.5L57.5 204M239 248.5C237.5 251.5 239 252.5 242 251M94 280.5L96.5 285.5M77 311.5C68.5 310.5 58 307 52.5 300C51.5 298.5 47 292.5 49.5 290.5C54 288 56.5 297 60.5 295.5C63 295 65.5 289.5 68.5 290C70.5 290.5 71 294.5 71.5 296C73.5 300.5 76 307 81.5 308L82 308.5M82 308.5L77.5 312L80.5 308M82 308.5C86.5 308 95 307.5 98.5 304.5C102 302 95.5 296.5 102 296C104.5 296 106.5 297.5 108 299C112.5 303 116.5 307.5 120 312C121 313.5 124.5 317 123 319C121 322 114.5 319.5 112 319C101.5 317.5 89.5 316 79.5 312M133 319C139 314 145.5 309.5 153.5 309" stroke="#273038"/>
<path d="M115 53H117M167 97C162 103 150.5 102 143.5 105.5C139.5 107.5 140.5 110.5 138 113C137 114.5 135 114.5 133.5 115M133.5 115L132 109.5C129 110 127 109 124.5 107M133.5 115L131.5 126M124.5 107C127 105.5 132.5 100.5 135.5 100.5C138.5 101 140 104 142 106M124.5 107C114.5 102.5 106.5 105 96.5 107.5M102 106C107.5 111.5 116.5 111.5 122.5 106.5M139 113.5L143.5 121.5M245 138.5C243 137 242 132 245 134.5C246.5 136 245 138 245 139.5C244 143.5 244 147.5 244 151.5M236 143C236 145 235.5 146 233.5 147M164.5 147L171.5 144.5M159.5 153C159.5 157 162.5 158.5 164.5 162L167.5 159C170 162 166.5 162.5 167 165.5C168 171.5 174.5 169 176.5 166M176.5 166L169.5 162M176.5 166L178.5 166.5M54.5 153.5C54.5 164.5 65.5 162.5 70.5 170C73.5 175.5 67.5 175.5 67 179C66.5 182 71 186 73 187.5M65.5 154.5L61 163.5M91 157C97 156.5 108 154.5 113.5 157.5C118.5 160 109.5 170 106.5 171.5C102.5 173.5 97.5 173.5 93 174.5C92 174.5 89 174 88.5 175.5C87.5 180 95 179.5 97 180.5C99 181.5 99.5 183.5 100.5 185.5M100.5 185.5L95 188.5M100.5 185.5C104.5 185 114 186 117.5 183.5C119 182.5 118.5 180 118 178.5C117 173.5 118 166.5 115 162.5M242.5 156.5L237.5 162M160 157.5L154.5 162M163 158L167 159M164.5 162.5L166.5 165M61.5 165C59.5 169.5 62.5 176 66.5 179M178.5 166.5L174.5 170M178.5 166.5C184 166.5 190.5 165.5 195 168C196.5 169 200 172 198 174.5C197 176 194 175.5 192.5 175.5C187 175 181.5 172 176.5 170M86 173.5L88 175.5M132 178L144.5 179.5M145.5 214.5L151 214" stroke="#273038"/>
<path d="M124 53H128M166.5 53.5H183M89 55.5L108 54.5M185.5 98.5C181.5 102 176 101 171 101C168 101 165.5 99.5 167.5 96.5C170.5 92.5 175.5 90.5 179 87C184 82 187 73 195 71.5C197.5 71 198 74.5 198.5 76C199.5 80 201 89 199 93C198 95 194.5 92.5 193 92.5C189 91.5 186 94.5 185.5 98.5ZM185.5 98.5H189.5M233 118.5L226 123L228.5 127L235.5 135.5M231 122L233 124M231.5 123L230.5 128M144 125C144 131 145.5 137.5 146 143.5C146 145.5 146 149 148 150C150.5 151 152.5 147.5 154.5 147C157.5 146.5 161 148 164 148M131.5 129.5L133 142M205.5 190.5C204 186.5 205.5 182.5 204 178.5C203 176 199.5 174.5 200 171.5C200.5 169.5 202.5 167.5 203 165.5C204 161 203.5 156 204.5 151.5C205.5 148 207 143.5 205 140C204 138 198.5 137.5 196.5 135.5C199 133 206 128.5 209.5 131.5C212 134 213 139.5 213 143C213.5 150 211.5 156.5 211 163.5C210.5 170.5 211.5 177 210.5 184C210 187.5 206 189.5 206 192.5M198 139L194.5 136.5V136L199 138.5M197 139.5C195 140 194 139 192.5 137.5V137L193 136.5H193.5L194 136M192 137C187 143.5 179 142 172 145.5M65.5 138.5L64.5 139.5M190 140C192 141 193 141 195 140.5M225.5 142L227.5 158L225 173M245 148L244.5 152M161.5 148.5L153.5 162C155 163 156.5 163.5 157.5 165C158.5 166 160 170 157.5 170C154.5 170 154 165 153.5 163M147 150.5C147 154.5 149 160 153 161.5M84.5 167C82.5 165 80 161.5 81 158.5C82 156 87 155 88.5 157.5C90 159.5 87 162 86.5 164C85.5 168 86 170.5 87.5 174M133 165.5L132 167.5M88 80C92.5 80 91.5 91 92 94C93 98 96 100.5 96.5 104C98 112.5 91 117.5 83 117C79.5 116.5 82 108.5 82 106C82 98.5 73.5 80 88 80ZM164.5 228.5C168.5 227.5 171 233.5 167.5 234.5C163.5 236 158.5 229.5 164.5 228.5Z" stroke="#273038"/>
<path d="M79.5 61.5C77 66 74.5 72 75.5 77.5M198.5 98.5L199.5 99.5M214.5 108.5C215 115.5 219.5 119.5 220.5 126.5C220.5 128 222 132.5 220 133.5C218.5 134.5 216 131.5 215.5 130C213 126 212.5 120.5 215.5 116.5M225.5 110.5V111.5M132 354.5C137 358 137.5 349.5 132 354.5ZM132 354.5C128.5 361 134.5 367 134.5 373.5M192 45C194 43.5 198.5 47 200 48C204.5 52 212.5 64.5 205.5 70C195 78.5 196.5 63.5 194 57C193 54 187.5 48 192 45Z" stroke="#273038"/>
<path d="M142 52.5L161.5 53M100 56.5L132.5 53.5M168 54.5L175 55.5M121.5 102.5C116 107 97 105.5 93.5 99C91.5 94.5 91.5 89 91 84C91 82.5 89.5 80 90.5 78.5C91.5 77 94 76 95.5 75.5C100.5 73.5 108.5 78.5 107.5 84.5C107 86.5 104 88 104.5 90.5C105 93.5 109 96 111.5 97.5C115.5 99.5 123 104 127.5 103.5C132 102.5 135 99 139.5 98.5C143 98 146.5 100 150 100C161.5 99 173.5 91.5 181.5 83.5M137 99.5C140.5 105 144 105 148.5 100M134.5 121.5C134.5 119.5 134 116.5 135.5 115C138.5 111.5 141 119 141 121M141 121C134.5 121.5 132.5 125.5 133.5 132M141 121L144 131M247.5 133C249.5 137 246.5 142 245.5 146M178.5 145.5L177 149L174 146V145.5M174 145.5L187 143.5M174 145.5C170.5 146 163.5 147 161.5 150C158 154.5 167 159.5 170.5 159.5L169.5 155.5M166.5 158L169 155.5H169.5M169.5 155.5C170 152 174 151 176.5 149M238.5 145.5C236.5 147.5 233.5 148.5 231 147M231.5 148C230 149.5 227.5 151.5 228.5 154C229.5 156.5 233 155.5 235 156.5C241.5 159.5 236 165 232.5 167M62.5 151.5C64.5 148.5 66.5 152 66 154.5H65.5L62.5 151.5ZM62.5 151.5L61.5 155.5L64.5 155M229 150L229.5 150.5M204 151.5C202 156 204 161 202.5 166C202 168 200.5 170.5 198 170C195.5 169.5 193.5 167 190.5 166.5C188 166 186 167 183.5 165.5M183.5 165.5C186 161.5 188 161 192.5 162L190 166M183.5 165.5C177 165.5 174.5 164.5 170 160M193 162.5C197.5 161.5 199 158 202.5 155.5M62 156L63.5 163M237 158L242 156M200 158.5L203 161.5M66 172L69 175M132 176.5C138 176.5 143.5 179 149 176.5M67.5 183.5L70.5 184M91.5 158.5C94.5 157.5 99.5 160.5 99.5 164C99 167 94.5 166.5 94.5 163.5C94.5 155.5 116 155 113 163.5C112.5 165 111.5 166.5 110.5 167.5C109.5 169 108.5 170.5 107 171.5C103.5 173.5 92 176 88.5 174C83 170.5 86.5 160 91.5 158.5ZM67.5 170C71 168.5 71 174.5 68 176C64.5 177.5 65.5 171 67.5 170Z" stroke="#273038"/>
<path d="M242.5 168C240 178 245.5 191 248 201M232 179.5C229.5 179 227.5 175.5 231 175C233.5 175 233 178.5 233 180C233 185 233 190.5 232.5 195.5C232 199 229.5 199 228 201.5C225 205 222 209 219.5 213C216 218.5 217.5 233 222 238C225 241.5 234.5 235 237.5 234C242 233 242 239.5 245.5 239C249 238.5 252 234.5 255.5 233.5C262 231 269 231.5 275.5 232C277 232.5 280 232 279.5 229.5C278 225 274 220.5 269 220.5C266.5 221 265 222 262.5 222C260 222 256.5 221 254 221C250 220 246.5 217.5 242.5 218C239 218.5 235.5 223 232 222.5C228 222 223 215.5 220.5 212.5M228.5 179C228.5 182 228 186 226.5 189C223.5 195.5 217 202 223.5 208.5M219.5 206L220.5 211" stroke="#273038"/>
<path d="M182 78C180.5 71.5 173 64 175.5 57C177 54 181 54.5 183.5 54C185.5 53.5 188.5 52 190.5 53C195 54.5 196.5 65.5 195 69.5C193 75 184.5 76.5 181 81M62 137.5H63M226.5 141L227 143.5M247.5 143C247.5 146 246 148 245.5 150.5C244.5 153 245 156 244 158.5C242 163.5 237 167.5 233 170.5M93.5 56C102 55 99 63 98 68.5C96.5 74.5 87 82.5 80.5 83C75.5 83 76 72.5 77 69.5C80 60 84 57.5 93.5 56ZM191 92.5C194.5 91.5 200.5 97 196 98.5C190 100 181 95 191 92.5ZM235 115C233.5 117.5 231.5 118.5 228.5 119C228 114.5 231 113 235 115ZM142 134.5C143.5 135 144 137 144 138.5C145 143 145 147.5 146.5 151.5C148 155.5 150 160 152 163.5C153.5 165 155.5 167.5 155.5 169.5C155.5 171.5 153.5 173 152 174C146.5 178 143.5 176 137 175.5C135.5 175.5 133.5 176 132 175.5C128.5 174.5 133.5 167 133.5 164.5C133.5 157.5 133 151 133 144C133 142 132.5 137.5 134 136C135 135 140.5 134.5 142 134.5Z" stroke="#273038"/>
<path d="M242.5 146.5H238.5M238.5 146.5C238 143.5 237 138.5 235.5 135.5C234 133 229.5 130 232 126C233.5 124.5 235.5 126 236.5 127C239 130 241 134 242 138C242.5 142.5 245 152.5 240.5 155.5C236.5 158 232 155 229 160C227.5 163 230 163.5 232 162.5L229.5 159.5M238.5 146.5L231.5 148.5M228.5 152C225.5 148.5 227.5 145 231.5 148.5M231.5 148.5C228 152 228.5 153.5 232 156.5M230.5 148L227.5 151M235 157L232.5 162.5M230 163.5L233 167.5L227.5 171.5M64.5 164.5L65.5 172.5M134.5 53C143 52 153 53 161.5 54C165 54.5 169.5 54 172.5 56.5C175.5 59 175.5 63 177 66.5C179.5 71.5 184 78 180 83.5C178.5 86 175 87 172.5 88.5C165 93.5 157.5 98.5 148 99C143.5 99 139.5 97.5 135 98C132.5 98.5 131 101.5 128.5 102C123 103 113.5 99 109 95.5C107.5 94.5 104.5 93 104.5 90.5C104 87 109 85 107 80.5C105 76.5 100 76.5 98 73.5C96 71 98.5 62 100 60C102 57.5 106.5 57 109.5 56.5C118 55.5 126 54.5 134.5 53ZM137.5 122C140 121 141 123.5 141.5 125C142.5 128 143.5 132.5 140 134.5C132.5 138.5 133 124.5 137.5 122ZM199 139C204 137.5 206.5 140.5 206 145.5C205.5 148.5 203.5 150 202 152.5C200 156 199.5 160.5 195 162C192.5 162.5 190.5 161 188 161C185.5 161.5 184 164 181.5 164.5C177 165.5 167.5 159 170 153.5C171 151.5 174.5 150.5 176.5 149C183 144.5 191.5 141 199 139ZM95.5 161.5C98.5 160 101 164.5 98 166C95.5 167 93 163 95.5 161.5Z" stroke="#273038"/>
<path d="M246.5 190C246.5 184.5 240 173 243 168C244.5 166 247.5 167.5 249.5 168C255.5 169.5 261.5 171.5 267 175C273.5 179 284.5 187.5 286 195.5C287 201 285 207.5 284 213C283.5 216.5 284 224 281 227C278.5 229.5 275 222 272 221C268.5 220 265.5 222.5 262 222C256 222 251 219.5 245.5 218C240 217 235.5 224 231 222C229 221.5 228 220 226.5 218.5C225.5 217 223 216 222.5 214C221 210.5 226 203.5 228 201C229.5 199.5 231.5 199.5 232 197.5C233.5 192 230.5 185 234 180M234 180L242 188.5L246 192L248.5 201M234 180V179" stroke="#273038"/>
</g>
<defs>
<clipPath id="clip0_2_643">
<rect width="362" height="546" fill="white"/>
</clipPath>
</defs>
</svg>
