<svg width="361" height="544" viewBox="0 0 361 544" fill="none" xmlns="http://www.w3.org/2000/svg">
<g clip-path="url(#clip0_1_275)">
<path d="M0 540.6C0 538.4 1 536 2.9 533.6C6.7 528.8 7.9 523.3 8.5 507.5C8.8 500.4 9.2 491.4 9.5 487.5C9.8 483.7 10.2 472 10.4 461.5C10.7 445.1 11 441.8 12.9 437C14 434 15 430.6 15 429.4C15 428.2 15.6 426.7 16.4 426.1C17.2 425.4 18.2 423 18.5 420.7C18.9 418.4 19.8 415.4 20.5 414C23 408.9 24.9 398.2 24.9 389.8C24.8 381.1 25.2 378.8 27.5 373.5C28.2 371.9 29.3 365.3 30 359C32.4 335.7 35.2 328.8 47.6 316.3C51.7 312.1 55 307.9 55 306.9C55 304.1 57.7 304.5 67.3 309C73.4 311.9 77.1 313 80.4 313C89.1 313 103.6 315.1 118.3 318.4C132 321.5 132.9 321.6 133.3 319.8C133.7 318.5 133.3 318 131.9 318C130.3 318 130 317.3 130 313.7C130 311.3 130.5 308.9 131.2 308.2C132.1 307.3 131.9 307 130 307C128.7 307 126.6 306 125.3 304.8C122.9 302.6 122.9 302.6 122.3 304.8C121.9 306.6 121 307 117.9 307C115.1 307 113.8 306.5 113 305.1C111.7 302.6 111.7 292.9 113 289.4C113.8 287.4 113.7 286.3 112.6 285.1C111.9 284.2 110.3 281.6 109.1 279.3C105.8 272.8 102.2 267.8 101.5 269C101.2 269.5 99.3 270 97.4 270C94.3 270 94 269.8 94 266.9C94 265.2 94.5 262.9 95.1 261.8C96.1 260 96 259.8 94.4 260.4C93.4 260.8 89.1 260.8 84.8 260.4C77 259.7 77 259.7 77 256.4C77 253.6 77.4 253 80.5 252C84.9 250.6 85 248.3 81.5 237.3C79.6 231.4 77.9 228.3 74.5 224.7C70 219.8 70 219.8 70 223.7C70 230.8 69.2 232 64.9 232C61 232 61 232 61 228C61 222.1 62.8 219 66.2 219C67.7 219 69 218.6 69 218C69 217.5 68.1 217 67 217C65.4 217 65 216.3 65 213.6C65 211.8 64.3 209.7 63.5 209C62.6 208.2 62 206 62 203C62 198.3 62.1 198.1 67.3 194.9C70.1 193 72.7 191.2 72.8 190.8C73 190.3 73.8 190 74.6 190C75.4 190 76 189.6 76 189C76 188.5 77.5 188 79.4 188C82.5 188 82.9 188.4 84.4 192.8C85.4 195.4 86.5 199.1 87 201C90.1 212.7 95.5 221 100.1 221C103 221 108 225 108 227.3C108 228 109.8 229.6 112 231C114.2 232.3 116 234 116 234.6C116 235.3 117.4 236.1 119.1 236.5C120.9 236.9 122.6 238.1 123.2 239.6C123.8 240.9 125.1 242 126 242C127 242 128 242.9 128.3 244C128.8 245.8 129.4 246 132.9 245.4C138.4 244.5 141.8 245.5 142.3 248.3C142.7 250.5 142.7 250.5 143.5 248.3C144.1 246.5 145 246 147.6 246C149.4 246 151.1 246.4 151.4 246.8C152.3 248.4 157.9 246.9 158.5 244.9C158.9 243.8 160.1 243 161.3 243C165.4 243 168 241.8 168 240C168 238.6 169.2 238 173.7 237.4C179.4 236.5 179.4 236.5 180.9 231.8C181.9 228.5 182.9 227 184.1 227C185.2 227 186.3 225.7 187 223.4C188.2 219.8 188.2 219.8 193.6 220.4C198.8 221 199.1 220.9 200.1 218.3C200.6 216.8 202.6 213.7 204.4 211.5C208.4 206.7 210.5 202.6 211.5 198.3C211.8 196.5 212.6 195 213.1 195C213.6 195 214 194 214 192.8C214 191.6 214.5 189.1 215.2 187.3C216.2 184.5 216.9 184 219.7 184C222.9 184 223 184.1 223 188C223 191.8 221.3 197 220.1 197C219.8 197 219.4 203.9 219.2 212.3C218.9 228.1 217.1 237.7 212 251.3C209.9 256.8 209.7 257 206.3 257C202.7 257 202.7 257 203.2 252C203.5 249.2 203.4 247 203.1 247C202.7 247 199.3 249.8 195.5 253.2C185.9 261.6 178.5 266.3 169.8 269.1C163.7 271.1 160.6 271.5 150.3 271.4C138.2 271.4 138.2 271.4 130 267.1C125.5 264.8 121.7 263 121.5 263.2C121.4 263.4 123.5 269.3 126.2 276.4C130.9 288.8 132.6 294.5 133.7 302.1C134.2 305.6 134.2 305.6 140.1 305.2C145.9 304.8 146 304.8 146 307.3C146 309.7 146.2 309.8 148.9 309C150.6 308.6 154.8 307.9 158.4 307.5C165 306.8 165 306.8 165 303.5C165 300.5 165.3 300.2 169.4 299.1C175.3 297.6 180 297.7 180 299.3C180.1 300 180.8 299.6 181.8 298.5C182.7 297.4 185.5 295.4 187.8 294.2C190.2 292.9 196.7 288.5 202.3 284.4C207.8 280.3 214.2 275.9 216.4 274.8C218.7 273.7 224.2 270.3 228.7 267.4C233.3 264.4 237.3 262 237.7 262C238.2 262 240.3 260.6 242.4 259C244.6 257.3 246.9 256 247.6 256C248.3 256 249.5 255.2 250.2 254.2C250.9 253.2 255.9 249.2 261.2 245.2C268.3 239.9 271.7 238 274 238C276.7 238 277 238.3 276.4 240.4C275.6 243.5 277.3 244.1 289 244.7C294.4 245 303.7 246.4 310.7 248.1C324.8 251.4 327.9 251.6 334.4 249.4C338.1 248.1 341.4 247.9 348.4 248.3C353.4 248.5 358.3 249.1 359.3 249.5C360.9 250.2 361 258.1 361 397.1C361 544 361 544 180.5 544C0 544 0 544 0 540.6ZM134.3 362.3C133.6 362.1 132.2 362.1 131.3 362.3C130.3 362.6 130.9 362.8 132.5 362.8C134.2 362.8 134.9 362.6 134.3 362.3ZM135.8 353.3C134.8 353.1 133.2 353.1 132.3 353.3C131.3 353.6 132.1 353.8 134 353.8C135.9 353.8 136.7 353.6 135.8 353.3Z" fill="#191A1F"/>
<path d="M149 179.6C149 175.6 151 174 156 174C159 174 159.1 174.1 158.8 178.3C158.5 182.5 158.5 182.5 153.8 182.8C149 183.1 149 183.1 149 179.6Z" fill="#191A1F"/>
<path d="M233 179.5C233 176.2 233.2 176 236.5 176C239.8 176 240 176.2 240 179.5C240 182.8 239.8 183 236.5 183C233.2 183 233 182.8 233 179.5Z" fill="#191A1F"/>
<path d="M93.7 141.3C88.9 140.9 88.9 140.9 89.2 137.2C89.5 133.7 89.9 133.3 96 130.3C101.3 127.6 102 127 99.8 127C97.2 127 97 126.7 97 123.2C97 119.8 97.3 119.3 101 117.7C106.2 115.5 114.3 115.4 116.1 117.6C116.9 118.5 119.2 120.3 121.2 121.6C124.4 123.7 125 124.6 125 127.5C125 131 125 131 120.1 131C115.1 131 115.1 131 114.5 135.4C113.9 138.8 113.3 140 111.6 140.4C108 141.3 98.8 141.8 93.7 141.3Z" fill="#191A1F"/>
<path d="M169 129C168.4 127.9 167 127 166 127C164.5 127 164 126.3 164 124.5C164 122.5 163.5 122 161.6 122C159.5 122 159.2 121.4 158.5 116.5C157.3 106.8 159.2 105 170.6 105C177.1 105 177.1 105 176.8 109.8C176.5 114.3 176.4 114.5 173.1 115C171.2 115.3 169.5 116 169.3 116.5C169.1 117.1 172.4 117.4 178.2 117.2C190.2 116.7 193 117.8 193 122.5C193 125.1 192.6 126 191.4 126C190.5 126 189.2 126.7 188.6 127.6C187.2 129.4 181.2 130.9 174.8 131C171.1 131 169.8 130.6 169 129Z" fill="#191A1F"/>
<path d="M60.1 70.8C60.8 65.1 63.1 59 65.2 57.2C65.9 56.6 68.1 53.1 70 49.3C71.9 45.6 73.7 42.3 74 42C74.8 41.2 81.7 32.6 85.6 27.4C90.3 21.2 92.9 19.1 95.7 19C96.9 19 98.1 18.6 98.5 18.1C98.8 17.5 102.8 14.8 107.4 12.1C113.4 8.5 116.8 7 119.4 7C122.8 7 123 7.2 123 10.4C123 12.5 122.4 14 121.5 14.4C120.7 14.7 120 15.9 120 17C120 19.1 120 19.1 122.9 17.1C124.5 15.9 127.2 15 128.9 15C131.9 15 132 15.1 132 19.6C132 23.6 132.2 24.1 133.8 23.5C140.4 20.8 146.8 19 149.7 19C151.8 19 153 18.5 153 17.7C153 15.3 162.5 13 172 13C182.3 13 186 14.1 186 17C186 18.3 186.7 19 188 19C193.6 19 202 26 202 30.7C202 33.2 205.1 35 209.6 35C211.7 35 212 35.4 212 38.9C212 42.8 212 42.8 204 43.5C195.9 44.2 195.9 44.2 190.2 40.4C186 37.6 183.6 36.7 181 36.8C179.1 36.9 173.5 37.1 168.5 37.3C163.6 37.5 158.7 37.8 157.8 37.8C156.4 38 156 38.9 156 41.9C156 46.5 155.7 46.6 139.8 47.6C131.2 48.2 128.9 48 126.3 46.6C122.3 44.6 113.1 44.5 106.6 46.5C103.9 47.3 99.8 48 97.6 48C93.4 48.1 91.6 48.8 86.2 52.9C83.1 55.3 76.4 64.7 73.9 70.3C73 72.3 72 73 69.8 73C68.2 73 66.7 73.6 66.4 74.5C66 75.4 64.5 76 62.6 76C59.4 76 59.4 76 60.1 70.8ZM149 28C149 27.5 148.8 27 148.6 27C148.3 27 147.8 27.5 147.5 28C147.2 28.6 147.4 29 147.9 29C148.5 29 149 28.6 149 28Z" fill="#191A1F"/>
<path d="M127 10.6C127 7.4 127.3 7.2 134.5 4.1C142.6 0.700003 149.6 0.100003 157.6 2.1C161.2 3 162 3.6 162 5.6C162 7.5 161.3 8 158.4 8.6C156.5 8.9 153.3 9 151.4 8.7C148.9 8.3 146 8.9 140.9 11.1C136.9 12.7 132.2 14 130.4 14C127.2 14 127 13.8 127 10.6Z" fill="#191A1F"/>
<path d="M136.1 543.1C135.2 542.5 135 541.6 135.5 540.4C135.9 539.3 136.2 537.7 136.1 536.6C135.9 535.6 136.4 534.3 137.2 533.9C138.2 533.2 138.2 533 137.3 533C136.6 533 136 532.3 136 531.5C136 530.7 136.5 530 137.2 530C138.1 530 138.1 529.7 137.2 528.8C135.5 527.1 135.7 525 137.7 525C139.2 525 139.1 524.8 137.4 523.5C135.5 522 135.5 522 137.4 520.5C139.1 519.2 139.2 519 137.7 519C136.7 519 136 518.2 136 517C136 515.9 136.6 515 137.3 515C138.1 515 138.2 514.7 137.4 514.2C135.6 513.1 134.6 506 136.2 506C137 506 136.8 505.5 135.8 504.9C133.7 503.7 133.4 501 135.3 501C135.9 501 135.7 500.5 134.8 499.9C132.8 498.8 132.4 496 134.2 496C134.8 496 134.6 495.4 133.6 494.7C132.7 494 132 493 132.1 492.5C132.2 491.9 132 490.7 131.5 489.7C131.1 488.7 131 487.6 131.4 487.3C131.7 487 131.2 486.1 130.3 485.5C128.8 484.4 128.7 484 130 482.4C130.9 481.3 131 480.9 130.2 481.4C128.5 482.4 127.5 479.3 129 477.5C130.5 475.7 134 475.5 134 477.3C134 478 133.4 479.2 132.8 479.9C131.7 480.9 131.8 481 133.1 480.5C134.2 480.1 135 480.5 135.4 481.7C135.8 482.7 135.6 483.6 135 483.8C134.3 484.1 134.5 484.6 135.4 485.4C136.3 486 137.1 488.1 137.2 490C137.4 491.9 138.1 494.1 138.8 494.8C140.3 496.5 140.4 498 138.8 498C138.2 498 138.5 498.6 139.5 499.4C141.2 500.6 141.3 501 140 502.6C139.1 503.7 139 504.1 139.8 503.6C140.5 503.2 141.3 503.5 141.7 504.5C142 505.5 141.7 506.5 141.1 507C140.1 507.5 140.2 507.9 141.4 508.3C143.3 509.1 143.5 511.6 141.8 512.3C140.8 512.7 140.8 512.9 141.8 512.9C142.4 513 143 513.9 143 514.9C143 516 142.4 517.1 141.8 517.3C141 517.6 141.2 517.9 142.3 517.9C144.3 518 144.7 521.6 142.8 522.3C141.8 522.7 141.8 522.9 142.8 522.9C143.4 523 144 523.9 144 525C144 526.1 143.4 527 142.8 527C141.9 527 141.9 527.3 142.9 527.9C144.6 529 143.5 532.4 141.8 531.4C140.8 530.8 140.7 531 141.8 532.1C143.5 534 143.3 536 141.3 536C139.6 536.1 139.6 536.1 141.3 537.1C142.2 537.6 143 538.8 143 539.5C143 540.3 142.2 541 141.3 541C139.7 541.1 139.7 541.2 141.4 542.5C143.3 543.9 143.2 544 140.4 544C138.8 544 136.9 543.6 136.1 543.1ZM136 489.5C136 489.2 135.8 489 135.5 489C135.2 489 135 489.2 135 489.5C135 489.8 135.2 490 135.5 490C135.8 490 136 489.8 136 489.5Z" fill="#624F40"/>
<path d="M7 523.5C7 523.2 7.2 523 7.5 523C7.8 523 8 523.2 8 523.5C8 523.8 7.8 524 7.5 524C7.2 524 7 523.8 7 523.5Z" fill="#624F40"/>
<path d="M8.3 510.8C8.4 505.5 8.8 501.6 9.2 502.3C10.2 503.8 10.1 510.1 9 516C8.4 519.6 8.3 518.5 8.3 510.8Z" fill="#624F40"/>
<path d="M127 474.9C127 473.5 130 471.1 131.8 471C133.6 471 133.3 473.1 131.3 474.6C129.1 476.3 127 476.4 127 474.9Z" fill="#624F40"/>
<path d="M127 469.5C127 468.3 129.8 466 131.4 466C132.7 466 131.9 468.4 130.3 469.6C128 471.4 127 471.3 127 469.5Z" fill="#624F40"/>
<path d="M126 465C126 464.5 126.7 464.3 127.5 464.6C128.3 465 129 465.4 129 465.6C129 465.8 128.3 466 127.5 466C126.7 466 126 465.6 126 465Z" fill="#624F40"/>
<path d="M129.8 462.3C130.5 462 131.4 462.1 131.7 462.4C132.1 462.7 131.5 463 130.4 462.9C129.3 462.9 129 462.6 129.8 462.3Z" fill="#624F40"/>
<path d="M127 459.5C127 458.7 127.2 458 127.4 458C127.6 458 128.5 457.7 129.4 457.4C131.7 456.5 131.4 458.3 129 459.8C127.3 460.8 127 460.8 127 459.5Z" fill="#624F40"/>
<path d="M125 456C125 455.5 125.7 455 126.6 455C127.4 455 127.8 455.5 127.5 456C127.2 456.6 126.5 457 125.9 457C125.4 457 125 456.6 125 456Z" fill="#624F40"/>
<path d="M128.1 454.1C127.1 453.5 127.1 453.1 128 452.5C129.3 451.7 130.4 452.4 129.9 453.9C129.6 454.5 128.9 454.6 128.1 454.1Z" fill="#624F40"/>
<path d="M125 450.9C125 450.4 125.5 450.2 126 450.5C126.6 450.8 127 451.3 127 451.6C127 451.8 126.6 452 126 452C125.5 452 125 451.5 125 450.9Z" fill="#624F40"/>
<path d="M127.5 448C127.8 447.5 128.5 447 129.1 447C129.6 447 130 447.5 130 448C130 448.6 129.3 449 128.4 449C127.6 449 127.2 448.6 127.5 448Z" fill="#624F40"/>
<path d="M124 445.9C124 445.4 124.5 445.2 125 445.5C125.6 445.8 126 446.3 126 446.6C126 446.8 125.6 447 125 447C124.5 447 124 446.5 124 445.9Z" fill="#624F40"/>
<path d="M127 444C127 443.5 127.5 443 128 443C128.6 443 129 443.5 129 444C129 444.6 128.6 445 128 445C127.5 445 127 444.6 127 444Z" fill="#624F40"/>
<path d="M124.3 441.3C124.7 441 125.3 441 125.7 441.3C126 441.7 125.7 442 125 442C124.3 442 124 441.7 124.3 441.3Z" fill="#624F40"/>
<path d="M126 439C126 438.5 126.7 438 127.5 438C128.3 438 129 438.5 129 439C129 439.6 128.3 440 127.5 440C126.7 440 126 439.6 126 439Z" fill="#624F40"/>
<path d="M123.5 437C123.2 436.5 123.6 436 124.5 436C125.4 436 125.8 436.5 125.5 437C125.2 437.6 124.7 438 124.5 438C124.3 438 123.8 437.6 123.5 437Z" fill="#624F40"/>
<path d="M125 434.6C125 433.7 128 433.2 128.5 434C128.9 434.6 128.2 435 127.1 435C125.9 435 125 434.8 125 434.6Z" fill="#624F40"/>
<path d="M124 432.5C124 432.2 124.2 432 124.5 432C124.8 432 125 432.2 125 432.5C125 432.8 124.8 433 124.5 433C124.2 433 124 432.8 124 432.5Z" fill="#624F40"/>
<path d="M126.5 430.1C126.2 429.6 126.4 428.9 127 428.5C127.5 428.2 128 428.6 128 429.4C128 431.2 127.4 431.5 126.5 430.1Z" fill="#624F40"/>
<path d="M126 425C126 424.5 126.5 424 127 424C127.6 424 128 424.5 128 425C128 425.6 127.6 426 127 426C126.5 426 126 425.6 126 425Z" fill="#624F40"/>
<path d="M126.5 421.1C126.2 420.6 126.4 419.9 127 419.5C127.5 419.2 128 419.6 128 420.4C128 422.2 127.4 422.5 126.5 421.1Z" fill="#624F40"/>
<path d="M126.5 416C126.2 415.5 126.6 415 127.5 415C128.4 415 128.8 415.5 128.5 416C128.2 416.6 127.7 417 127.5 417C127.3 417 126.8 416.6 126.5 416Z" fill="#624F40"/>
<path d="M127.5 411C127.8 410.5 128.3 410 128.6 410C128.8 410 129 410.5 129 411C129 411.6 128.5 412 127.9 412C127.4 412 127.2 411.6 127.5 411Z" fill="#624F40"/>
<path d="M128 407C128 406.5 128.5 406 129 406C129.6 406 130 406.5 130 407C130 407.6 129.6 408 129 408C128.5 408 128 407.6 128 407Z" fill="#624F40"/>
<path d="M129 402.4C129 401.6 129.5 401.2 130 401.5C130.6 401.9 130.8 402.6 130.5 403.1C129.6 404.5 129 404.2 129 402.4Z" fill="#624F40"/>
<path d="M130 398C130 397.3 130.3 397 130.7 397.3C131 397.7 131 398.3 130.7 398.7C130.3 399 130 398.7 130 398Z" fill="#624F40"/>
<path d="M129.5 394C129.8 393.5 129.4 393 128.6 393C127.7 393 127 392.6 127 392C127 391.5 127.5 391 128.1 391C128.7 391 128.9 390.3 128.6 389.4C127.9 387.5 130.6 384 132.7 384C133.4 384 134 384.7 134 385.5C134 386.3 133.6 387 133.1 387C132.6 387 132.4 387.9 132.7 389C133.1 390.5 132.7 391 131.4 391C130 391 129.9 391.3 130.8 392.2C132.5 393.9 132.3 395 130.4 395C129.6 395 129.2 394.6 129.5 394Z" fill="#624F40"/>
<path d="M131.7 380.4C134.1 377.1 134.3 376.7 132.8 375.6C131.5 374.7 131.3 373.4 131.7 370.2C132.2 366.8 132 366 130.7 366C129.7 366 128.9 367.4 128.5 370.2C128.1 372.6 127.1 375.4 126.4 376.6C125.6 377.8 125.2 379.5 125.6 380.4C125.9 381.3 125.7 382 125.1 382C123.4 382 122.8 377.7 124 374.6C125.1 371.7 127.2 360 127.2 356.5C127.2 355.4 127.7 353 128.2 351.3C128.9 348.7 129.7 348 131.6 348C132.9 348 134 348.5 134 349C134 349.6 134.7 350 135.5 350C137.5 350 137.4 349.1 134.4 341.3C132.9 337.5 131.2 332.3 130.5 329.5C129.3 324.5 129.3 324.5 114.9 321.3C107 319.6 98.8 317.9 96.8 317.5C92.6 316.8 91.4 314 95.3 314C98.2 314 118.3 317.6 122.8 318.9C125.7 319.8 126.1 319.7 125.6 318.4C125.3 317.5 125 316.6 125 316.4C125 316.2 124.5 316 123.9 316C122.5 316 115.1 307.9 115 306.3C115 305.6 114.4 305 113.8 305C111.7 305 105 295.2 104.4 291.1C104.1 289 104.3 284.9 104.9 281.9C105.9 277.4 105.8 276 104.3 272.3C102.3 267.5 101.6 267.1 100 270C99.2 271.4 97.9 272 95.5 272C92.3 272 92 271.8 92 268.9C92 267.2 92.5 265 93.1 263.8C94.7 260.8 93.9 260.8 88.9 264.1C84.2 267.1 76.5 269.8 69.8 270.7C66 271.2 66 271.2 66 267.7C66 265.3 66.6 263.7 67.9 262.8C69.7 261.5 69.7 261.3 68.1 256.5C66.7 252.3 65.9 251.4 63.7 251.2C61.4 250.9 61 250.4 61 247.4C61 244.6 61.4 244 63.2 244C65.2 244 65.2 243.9 63.6 242.1C60 238.2 58.7 228.9 58.7 208.7C58.7 200.8 60.5 198 65.4 198C68 198.1 68.2 198.2 66.7 199.1C64.4 200.5 64.5 204.3 67.1 206.6C68.6 207.9 69 209.2 68.6 211.2C68.2 213.2 68.4 213.8 69.4 213.4C70.1 213.1 71.8 214.6 73.4 216.8C74.8 218.9 77.4 222 79 223.5C83.6 227.9 89.6 249.2 87.3 252.6C86.8 253.3 84.9 254.5 83 255.4C79.5 257 79.5 257 83.4 256.5C85.6 256.3 88 256.6 88.7 257.2C89.6 257.9 90.7 257.8 92.5 256.6C94.9 255 95 255 95 257C95 258.3 95.7 259 97 259C99.3 259 99.7 261.8 97.9 265.2C96.9 267.1 96.9 267.1 99.7 265C103.1 262.5 105.1 263 106.8 266.8C108.3 270.2 112.4 277.3 115.8 282.3C118.3 286.1 118.3 286.1 116.7 290.8C114.7 296.2 114.6 299.3 116 302.1C117.6 305 118.8 304.4 119.6 300.3C120 298.2 120.5 296.1 120.7 295.7C121 295.2 123.5 297 126.3 299.7C129.2 302.5 131 303.7 130.5 302.5C130.1 301.4 129.4 298.7 128.9 296.4C128.1 292.4 123.5 279.8 116.6 262.6C114.6 257.7 113.1 253.2 113.3 252.7C113.4 252.2 115.5 253.7 117.8 255.9C120.1 258.2 122.8 260 123.7 260C124.6 260 128.2 261.6 131.8 263.5C138.2 267.1 139.8 267.5 150 268.6C156.1 269.3 164.8 267.4 173.3 263.6C181.4 260 199 245.9 204.9 238.3C209.3 232.7 210.4 232.8 209.5 238.8C208.3 247.2 206.8 252 205.4 252C204.6 252 204 251.5 204 251C204 250.4 200.6 253.8 196.5 258.4C186.4 269.8 169.9 285 167.8 285C166.7 285 166 285.8 166 287C166 288.6 165.3 289 162.5 289C159.2 289 159 288.8 159 285.5C159 282.7 159.4 282 161 282C162.2 282 163 281.3 163 280.3C163 279.4 164.6 276.9 166.6 274.9C170.2 271.2 170.2 271.2 163.9 272.6C160.4 273.3 153.9 274 149.5 274C139.4 274 137.1 274.7 135.9 277.6C135.2 279.5 134.3 280 131.5 280C128 280 128 280 130.1 285.3C132.6 291.6 135.3 297.4 137.7 301.5C139.4 304.4 139.7 304.5 144.7 303.9C147.5 303.5 151.3 302.5 153.1 301.6C156.8 299.7 172.9 296 177 296C181.9 296 189.6 293.1 193.5 289.7C195.7 287.9 199.5 285.3 202 283.9C204.4 282.6 207.7 280 209.3 278.3C210.9 276.5 212.8 275 213.6 275C215.5 275 222.4 271.7 223.3 270.3C224.3 268.7 233.8 263 235.5 263C236.3 263 238.1 261.9 239.6 260.5C242.1 258.1 249 256.9 249 258.8C249 259.5 241.6 265 240.6 265C240.3 265 236.3 267.4 231.7 270.4C227.2 273.3 221.7 276.6 219.5 277.8C217.3 278.9 210.6 283.4 204.6 287.9C198.6 292.4 192 296.8 189.8 297.7C187.7 298.6 186 299.8 186 300.2C186 301.7 176.8 306.9 171.6 308.4C168.8 309.2 163.7 310.2 160.3 310.6C156.8 310.9 154 311.6 154 312.1C154 312.6 153.4 312.7 152.6 312.4C148.8 310.9 136 319.5 136 323.5C136 324.2 135.2 325 134.3 325.2C132.8 325.5 132.8 325.7 134.1 327C135 327.8 136.5 330.6 137.5 333.3C139 337.4 139.6 338 142.1 338C144.1 338 145 338.5 145 339.6C145 340.8 144.4 341.1 142.5 340.6C141.1 340.2 140 340.4 140 341C140 341.5 140.9 342 142 342C144.2 342 144.5 343.1 143 345.8C140.7 350 136 370.4 136 376.2C136 379 135.4 380.4 133.4 381.9C129.3 385.1 128.6 384.4 131.7 380.4ZM134 358C134 357.5 133.8 357 133.6 357C133.3 357 132.8 357.5 132.5 358C132.2 358.6 132.4 359 132.9 359C133.5 359 134 358.6 134 358ZM141.3 308.2C139.3 307.7 133.6 311.3 133.2 313.3C132.9 314.5 134 314.2 137.7 311.7C140.4 309.9 142 308.4 141.3 308.2ZM176 301.9C177.8 300.8 172.6 301.8 169.5 303.2C168.2 303.7 168.6 303.8 171 303.4C172.9 303 175.2 302.4 176 301.9ZM79.2 242.8C78.8 239.2 77.2 236 75.7 236C75.4 236 74.9 237.6 74.6 239.5C73.8 243.5 75.3 247 77.8 247C79.3 247 79.5 246.3 79.2 242.8ZM66.4 226.8C67.4 222.8 67 221.4 65.5 224C64.7 225.4 64.1 227.1 64 227.8C64 229.9 65.7 229.1 66.4 226.8Z" fill="#624F40"/>
<path d="M128 346C128 344.5 131.8 342.8 132.5 344C132.8 344.5 132.8 345.5 132.5 346C131.7 347.3 128 347.3 128 346Z" fill="#624F40"/>
<path d="M127 342.1C127 341.6 127.7 340.7 128.6 339.9C129.9 338.9 130.3 338.9 131 340.1C131.7 341.1 131.4 341.7 130.2 342.2C127.8 343.1 127 343.1 127 342.1Z" fill="#624F40"/>
<path d="M125 338.2C125 337.8 125.5 336.9 126.2 336.2C127.1 335.3 127 335 125.6 335C124.3 335 124 334.5 124.5 332.8C125.1 331.1 124.9 330.8 123.5 331.4C122.1 331.9 121.9 331.6 122.4 329.5C122.9 327.5 122.7 327.2 121.4 327.7C120.2 328.1 119.9 327.9 120.2 326.9C121 324.5 124.7 324.7 126.4 327.2C129.1 330.9 130.4 337.1 128.8 338.1C127.1 339.2 125 339.2 125 338.2Z" fill="#624F40"/>
<path d="M142 335.5C140.9 334.2 141.2 334 143.4 334C145 334 146 334.5 146 335.5C146 336.3 145.4 337 144.6 337C143.9 337 142.7 336.3 142 335.5Z" fill="#624F40"/>
<path d="M143 331.5C141.9 330.2 142.2 330 144.5 330C147.2 330 147.3 330 145.5 328C143.7 326 143.8 326 146.3 326C149.3 326 149.5 326.5 147.8 330.3C146.3 333.3 144.8 333.7 143 331.5Z" fill="#624F40"/>
<path d="M146 323.5C144.9 322.2 145.2 322 147.4 322C149 322 150 322.5 150 323.5C150 324.3 149.4 325 148.6 325C147.9 325 146.7 324.3 146 323.5Z" fill="#624F40"/>
<path d="M148 319.5C146.9 318.2 147.1 318 149.5 318C151.1 318 152 318.5 151.8 319.2C151.1 321.1 149.4 321.2 148 319.5Z" fill="#624F40"/>
<path d="M64.6 312.1C58.5 309.3 55 307.1 54.7 305.9C54 303.2 56.6 303.5 64.1 307C68.3 308.9 74.2 310.5 81.3 311.6C90.2 313 92 313.6 92 315C92 316.6 90.9 316.8 83 316.6C74.6 316.5 73.3 316.2 64.6 312.1Z" fill="#624F40"/>
<path d="M149.7 316.3C148.4 315.1 149 314 151 314C152.1 314 153 314.7 153 315.5C153 317 150.9 317.6 149.7 316.3Z" fill="#624F40"/>
<path d="M157.313 292.007C157.313 294.364 155.402 296.275 153.045 296.275C150.688 296.275 148.778 294.364 148.778 292.007C148.778 289.65 150.688 287.739 153.045 287.739C155.402 287.739 157.313 289.65 157.313 292.007Z" fill="#624F40"/>
<path d="M140.3 254.3C139.6 254.1 139 252.8 139 251.5C139 250.3 138.3 248.9 137.4 248.6C135.2 247.7 135 247.8 135 249.6C135 250.8 134.4 251.1 132.8 250.5C131.5 250.1 129.5 249.9 128.3 249.9C126.7 250 125.8 249.2 125.4 247.5C125 246 124.1 245 123.1 245C122.1 245 120.8 243.9 120.2 242.6C119.6 241.1 117.9 239.9 116.1 239.5C114.4 239.1 113 238.3 113 237.6C113 237 111.2 235.3 109 234C106.8 232.6 105 231 105 230.3C105 229 100 223.6 100 224.8C100 225.2 99.6 226.2 99 227C98.3 228.2 97.7 228 95.8 225.8C89.3 218.5 86.4 213.2 84 204C82 196.2 79.7 190.9 78.9 192.1C78.5 192.8 76.7 193.4 74.8 193.5C73 193.6 70.6 194 69.5 194.4C67.6 195.1 67.6 195.1 69.4 193.6C70.4 192.8 71.7 191.9 72.2 191.8C73.8 191.2 72.7 181.7 70.8 179.3C70.3 178.7 69.6 175 69.3 171.1C68.7 164 68.7 164 72.1 164C75.5 164 75.7 164.2 78.3 171C79.8 174.8 81 178.5 81 179.1C81 179.7 82.7 184.4 84.9 189.4C87 194.4 89.6 200.8 90.5 203.5C91.5 206.3 93.1 209.6 94 211C95 212.4 95.9 214.4 96.1 215.5C96.4 217 97.5 217.6 100.5 217.8C103.7 218.1 105.3 219 108.7 222.7C111.1 225.2 113 227.6 113 228.1C113 228.6 113.7 229 114.5 229C115.3 229 116.9 229.9 118 231C119.1 232.1 121.1 233 122.4 233C123.9 233 125 233.7 125.2 234.7C125.5 236.1 126.4 236.4 129.8 236.2C132.3 236 134 236.3 134 236.9C134 237.5 135.1 238 136.5 238C137.9 238 139 238.5 139 239C139 239.6 140.4 240 142 240C143.9 240 145 240.5 145 241.4C145 242.2 145.7 243.1 146.6 243.4C149.7 244.6 151 244 151 241.4C151 239 151.3 238.8 155 239.2C158.6 239.5 159 239.3 159 237.2C159 235.1 159.4 234.9 163.8 235.1C169 235.4 171 234.6 171 232.5C171 231.8 172.1 230.9 173.5 230.6C175.3 230.1 176 229.3 176 227.6C176 225.6 176.6 225.2 180 224.6C182.6 224.2 184 223.5 184 222.5C184 221.7 185.2 219.6 186.8 217.9C189.3 215 189.9 214.8 194.6 215.2C200.4 215.7 201.4 214.9 202.5 208.6C203 206 203.7 205 205.1 205C207.8 205 214.1 191.8 211.9 190.5C210.4 189.5 210.9 181.7 212.9 175.4C213.9 172.2 215.1 167.1 215.4 164.1C215.8 161.1 216.8 157.8 217.6 156.6C218.4 155.5 219 153.3 219 151.8C219 149.2 219.3 149 223.1 149C227.3 149 227.3 149 226.4 156.3C226 160.2 225.6 169.4 225.5 176.6C225.4 188.8 225.2 190 222.7 194.4C220.4 198.4 220 200.5 220 206.6C220 213.5 219.9 214 217.9 214C215.8 214 215.8 213.6 216.3 207.8C217 200.2 215.7 195.4 214.5 201C213.5 205.6 211.4 209.6 207.4 214.5C205.6 216.7 203.6 219.8 203 221.4C202 224 201.7 224.2 196.5 223.8C193.5 223.7 190.9 223.8 190.9 224.3C190.6 226 190.3 226.7 188.5 230C186.9 233 186.5 233.2 186.2 231.5C185.9 230.1 185 231.5 183.6 235.9C181.6 241.8 181.2 242.3 178.2 242.5C176.4 242.7 174.7 242.4 174.4 241.9C173.3 240 171 241.1 171 243.5C171 245.3 170.6 245.8 169.5 245.4C168.4 244.9 168 245.5 168 247.9C168 249.6 167.6 251 167 251C166.5 251 166 250.3 166 249.5C166 248.7 165.2 247.6 164.2 247.1C162.6 246.3 162 246.7 160.6 249.8C158.9 253.2 158.7 253.4 157.4 251.6C156.2 249.9 156 249.9 155.4 251.3C154.6 253.5 153.4 253.4 150 251C147.2 249 147.2 249 146.6 251.5C146.2 253.2 145.5 253.8 144.3 253.3C143.2 252.9 142.9 253 143.4 253.8C144.1 255 142.6 255.3 140.3 254.3ZM176.7 240.3C176.3 240 176 240.3 176 241C176 241.7 176.3 242 176.7 241.7C177 241.3 177 240.7 176.7 240.3ZM219.9 188C219.9 187.2 219.3 188 218.5 189.9C217.7 191.7 217 193.5 217 193.9C217.1 195.2 219.9 189.4 219.9 188Z" fill="#624F40"/>
<path d="M208 251.7C208 251.5 209.1 248.2 210.3 244.4C211.6 240.6 213.5 234.2 214.5 230.3C215.6 225.6 216.7 223 217.6 223C219.6 223 219.4 226.6 216.9 236.5C215.5 241.9 214.3 245 213.4 245C212.7 245 211.8 246.6 211.4 248.5C211.1 250.5 210.2 252 209.4 252C208.6 252 208 251.9 208 251.7Z" fill="#624F40"/>
<path d="M137.7 230.2C135.9 228.2 135.4 221.5 136.9 220.5C137.5 220.2 141.5 219.7 145.9 219.3C154 218.7 154 218.7 154 224.7C154 231.7 153.7 232 145.1 232C140.8 232 138.9 231.5 137.7 230.2Z" fill="#624F40"/>
<path d="M114.8 210.3C113.5 210 113 208.8 113 206.4C113 203 113 203 119 203C125 203 125 203 125 207C125 211 125 211 120.8 210.9C118.4 210.8 115.7 210.6 114.8 210.3Z" fill="#624F40"/>
<path d="M169 202.6C169 198.7 170.1 198 176.6 198C180.9 198 181 198 181 201.4C181 205.1 179.5 206 172.8 206C169.2 206 169 205.9 169 202.6Z" fill="#624F40"/>
<path d="M129.7 195.3C129.3 195 129 194 129 193.1C128.9 192.2 127.6 189.9 126 188C123.7 185.4 123 183.6 123 180.3C123 176 123 176 126.8 176C129.5 176 131.6 176.8 134.3 179.1C136.3 180.7 139.4 182.3 141.2 182.6C144.1 183.1 144.7 182.7 146.2 180.1C147.1 178.4 148.6 177 149.5 177C150.3 177 151 176.3 151 175.4C151 174.2 152 174 155.8 174.2C160.4 174.5 160.5 174.6 160.8 178.1C161.1 181.4 160.8 181.8 157.3 183.4C154.6 184.6 152.9 186.4 151.5 189.3C150.4 191.6 148.4 194.1 147 194.7C144.4 196 130.8 196.5 129.7 195.3ZM155.5 178.9C156.6 177.2 155.5 176.9 153.4 178.5C151.7 179.8 151.7 179.9 153.2 180C154.1 180 155.2 179.5 155.5 178.9Z" fill="#624F40"/>
<path d="M241.266 171.94C241.266 175.099 238.705 177.66 235.546 177.66C232.386 177.66 229.825 175.099 229.825 171.94C229.825 168.78 232.386 166.219 235.546 166.219C238.705 166.219 241.266 168.78 241.266 171.94Z" fill="#624F40"/>
<path d="M85.4 139.3C84.8 135.5 84.8 135.5 80.2 135.5C75.5 135.5 75.5 135.5 75.6 130.6C75.6 126.7 76.1 125.4 78.1 123.9C79.4 122.9 81.5 122 82.8 122C84.1 122 88.6 120.3 92.8 118.3C103.9 113 110.9 112.7 119.5 116.9C127.3 120.8 130 124.5 130 131.8C130 136.8 130 136.8 123.8 137.5C120.3 137.9 117.1 138.1 116.5 138C114.3 137.5 113 138.1 113 139.4C113 140.9 110.4 141.4 94.3 142.5C86 143.1 86 143.1 85.4 139.3ZM110.1 137C110.5 137 111 135.7 111.2 134C111.6 131.1 111.5 131 107.6 131C103.4 131 97.1 133.5 93.5 136.4C91.6 138.1 91.6 138.1 93.9 137C95.4 136.2 96.5 136.1 96.9 136.8C97.8 138.3 101 138.7 105.5 137.8C107.7 137.4 109.8 137.1 110.1 137ZM93 131C94.1 130.3 93.7 130 91.3 130C89.6 130 87.8 130.5 87.5 131C86.7 132.3 91 132.3 93 131ZM120.2 126.2C118.9 125.3 116.4 123.3 114.5 121.8C110.7 118.5 109.4 118.4 104 120.7C99.5 122.7 98.8 124 102.3 124C103.5 124 105.3 124.9 106.3 126C107.7 127.7 109.2 128 115.2 128C122.3 127.9 122.4 127.9 120.2 126.2Z" fill="#624F40"/>
<path d="M104 132.9C104 132.4 104.5 132.2 105 132.5C105.6 132.8 106 133.3 106 133.6C106 133.8 105.6 134 105 134C104.5 134 104 133.5 104 132.9Z" fill="#624F40"/>
<path d="M169 130C169 129.5 166.9 129.3 164 129.7C159 130.3 159 130.3 159 127.1C159 124.8 158.6 124 157.2 124C153.8 124 152 120.8 152 114.6C152 108.9 152 108.9 158.5 105.9C162.5 104.1 167.4 102.8 171.7 102.4C178.2 101.8 178.6 101.9 181.8 104.7C184.1 106.8 185 108.6 185 110.7C185 113.4 184.5 113.9 181.3 114.8C177.5 115.8 177.5 115.8 181.3 115.9C183.4 116 185 115.5 185 114.9C185 113.1 193.7 114.5 196 116.5C197.2 117.6 198 119.6 198 121.5C198 124.2 197.5 125 194.8 126C193 126.7 189.7 128.1 187.4 129.1C183.1 131.1 169 131.8 169 130ZM184.3 125.9C185.2 125.4 186 124.2 186 123.3C186 122.2 186.6 121.9 188.1 122.3C189.7 122.7 190 122.6 189.2 121.8C187.5 120.1 176.8 119.6 172.5 121C170.4 121.7 169.2 122.5 169.7 122.9C170.3 123.2 171.3 124.6 171.9 125.9C173.1 128 173.6 128.1 177.8 127.5C180.4 127.1 183.3 126.4 184.3 125.9ZM168 123.5C168 123.2 167.8 123 167.5 123C167.2 123 167 123.2 167 123.5C167 123.8 167.2 124 167.5 124C167.8 124 168 123.8 168 123.5ZM165 118C165.8 117.5 166.1 117 165.5 117C165 117 163.8 117.5 163 118C162.2 118.5 162 119 162.5 119C163.1 119 164.2 118.5 165 118ZM173.3 111.3C173.7 111.1 174 110.2 174 109.4C174 106.4 162.9 108.2 161.6 111.5C161 113.1 161.6 113.2 166.7 112.5C169.9 112.1 172.8 111.6 173.3 111.3Z" fill="#624F40"/>
<path d="M177 122C177 121.5 177.5 121 178 121C178.6 121 179 121.5 179 122C179 122.6 178.6 123 178 123C177.5 123 177 122.6 177 122Z" fill="#624F40"/>
<path d="M62 104.5C60.5 100.4 58.2 85.7 58.5 82C59.6 70.4 60.4 66 61.1 67.2C61.6 67.9 62 69.6 62.1 71C62.2 73.1 62.5 72.9 64.1 69.2C66.1 65 68 64.4 68 68.1C68 70.9 69.5 70.4 70.9 67.3C73.3 61.8 80 52.5 83.2 49.9C88.3 45.9 90.1 45.2 96.6 44.6C99.9 44.3 104 43.6 105.6 42.9C109.8 41.3 125.6 41.8 129.3 43.7C132.2 45.2 137.7 45.1 149.3 43.4C154.4 42.6 153.3 41.8 144.7 39.9C137.5 38.3 137.5 38.3 142.5 37.6C145.3 37.3 150.4 36.1 154 35C159.1 33.5 161.5 33.3 165.1 34C168.4 34.6 171.3 34.5 175.1 33.5C181.8 31.7 186.2 32.7 193.4 37.6C199.4 41.6 201.5 42 200.5 38.7C200.2 37.5 199.5 35 199 33.2C198.6 31.3 197.4 28.9 196.3 27.8C193.9 25.2 187.7 22 184.8 22C178.8 22 175.6 19.5 180.8 18.8C183.5 18.4 183.5 18.4 180.7 17.2C176.6 15.5 167.1 15.7 160.9 17.7C156.3 19.2 155.9 19.5 158 20.1C160.3 20.6 160.2 20.8 156.7 21.5C154.7 21.9 152.7 22.6 152.5 23.1C151.7 24.2 160.7 21.5 162.5 20C163.6 19.1 164.4 19.2 166.2 20.4C168.4 22 168.4 22 165.1 22.6C163.3 23 161.6 23.8 161.3 24.5C161.1 25.2 158.9 26.5 156.4 27.5C154 28.4 152 29.7 152 30.4C152 31.3 149.8 31.9 145.9 32.4C137.8 33.2 135 33.2 135 32.3C135.1 31.5 141.7 26.8 147.3 23.7C150 22.2 150.1 22.1 148 22.6C146.6 22.9 141.9 24.6 137.5 26.3C133.1 28 128.5 29.5 127.2 29.5C126 29.6 124 30.5 122.8 31.6C120.6 33.5 120.6 33.5 122.1 31.3C123 30.1 124.9 28.1 126.4 26.9C130.2 23.9 128.9 23.3 124.5 26C119.2 29.3 119.3 27.9 124.7 22.4C129.5 17.6 129.5 17.6 125.3 20.4C123 22 120.5 23 119.8 22.7C119.1 22.5 116.8 23.1 114.8 24.1C109.5 26.8 109.3 26.5 113.5 21.9C115.5 19.7 116.9 17.6 116.7 17.3C116.4 17.1 114.4 17.8 112.1 19C109.8 20.1 108 20.8 108 20.6C108 20.4 110.7 17.9 114.1 15.1C117.4 12.3 119.9 10 119.5 10C117 10 95.3 24.9 93.7 27.6C93.3 28.4 92.4 29 91.8 29C91.2 29 92 27.4 93.4 25.5C97.7 20 95.2 21.4 88.4 28.5C85 32.1 81.7 35 81.1 35C79.7 35 86.2 25.8 89.9 22.6C91.3 21.3 94.5 18.4 97 16.2C107.2 7.1 126.1 0 140 0C156.3 0 182.1 7.9 191.6 15.9C193.4 17.3 198.6 21.6 203.3 25.3C209.4 30.3 212.3 33.4 213.6 36.3C214.6 38.6 216.4 42 217.7 43.8C221.9 49.5 223.1 53.9 224 67.4C225.4 87.3 225.6 86 221.6 86C217.8 86 218.4 87.3 215.4 71.7C215.1 70.2 214 68.5 213 68C212 67.5 209.9 64.4 208.4 61.3C203.4 51 187.7 37.9 182.1 39.3C181 39.6 181.4 40.1 183.8 41.1C186.5 42.2 187 43 187 45.7C187 48.3 186.6 49 185 49C183.7 49 183 49.7 183 51C183 52.7 182.3 53 178 53C174.9 53 170.5 52 166.8 50.5C159.9 47.7 155.6 47.5 140 49.1C131.4 50 128.6 50 124.5 48.8C121.2 47.9 117.4 47.7 113.5 48.1C101.9 49.3 91.6 51.2 88.9 52.6C84.2 55 78.1 63.2 73.9 73C71.6 78.2 68.4 84.4 66.8 86.8C65.2 89.1 64.4 91 65 91C65.6 91 66 94.1 66 99C66 105.5 65.7 107 64.5 107C63.6 107 62.5 105.9 62 104.5ZM203 38.5C203 37.7 202.6 37 202 37C201.5 37 201.3 37.7 201.6 38.5C202 39.3 202.4 40 202.6 40C202.8 40 203 39.3 203 38.5ZM208.7 38.3C208.3 38 208 38.3 208 39C208 39.7 208.3 40 208.7 39.7C209 39.3 209 38.7 208.7 38.3ZM138.1 7.9C144 5.5 146.5 4.9 150.4 5.3C156.2 5.8 160.5 5.1 157.6 4C154 2.8 142.5 4.8 136 7.8C127.5 11.8 128.7 11.8 138.1 7.9Z" fill="#624F40"/>
<path d="M114.5 37C114.8 36.5 115.3 36 115.6 36C115.9 36 115.8 36.5 115.5 37C115.2 37.6 114.7 38 114.4 38C114.1 38 114.2 37.6 114.5 37Z" fill="#624F40"/>
<path d="M117.5 35C117.8 34.5 118.3 34 118.6 34C118.9 34 118.8 34.5 118.5 35C118.2 35.6 117.7 36 117.4 36C117.1 36 117.2 35.6 117.5 35Z" fill="#624F40"/>
<path d="M171.5 30C169.6 29.2 169.6 29.1 171.7 29.1C172.9 29 174.2 29.5 174.5 30C175.2 31.2 174.3 31.2 171.5 30Z" fill="#624F40"/>
<path d="M181.5 30C181.2 29.5 179.1 28.5 177 27.9C174.8 27.2 173 26.4 173 26C173 24.8 181.6 27.2 184.1 29.1C186.5 30.9 186.5 31 184.3 31C183.1 31 181.8 30.6 181.5 30Z" fill="#624F40"/>
<path d="M188.7 28.6C184 25.7 182.1 24 183.8 24C185.3 24 192.6 28.5 193.5 30C194.4 31.5 192.9 31.1 188.7 28.6Z" fill="#624F40"/>
<path d="M136.5 542.7C135.1 541.6 135 541.1 136 540.5C136.8 540 137.7 540.3 138.4 541.2C139 542 140.2 542.9 141 543.3C142.1 543.7 141.9 543.9 140.4 543.9C139.3 544 137.6 543.4 136.5 542.7Z" fill="#77694E"/>
<path d="M139.1 540.1C138.4 539.6 138 538.7 138.4 538.1C138.9 537.4 138.5 537.2 137.6 537.6C135.4 538.4 135.6 536 137.8 534.4C140.2 532.6 143 532.7 143 534.6C143 535.7 142.4 536.1 141.1 535.7C139.7 535.4 139.3 535.6 139.7 536.6C140 537.4 140.9 538 141.7 538C142.5 538 143 538.5 142.8 539.2C142.2 540.8 140.8 541.2 139.1 540.1Z" fill="#77694E"/>
<path d="M136 531.5C136 530.5 136.7 530 137.8 530.2C139.9 530.6 139.7 532.4 137.6 532.8C136.6 533 136 532.5 136 531.5Z" fill="#77694E"/>
<path d="M140.2 530.3C139.6 530.1 139.2 529.4 139.6 528.9C139.9 528.4 139.4 528 138.6 528C137.7 528 137 527.3 137 526.5C137 524.5 138.2 524.6 140.8 526.9C144.1 529.7 143.7 531.7 140.2 530.3Z" fill="#77694E"/>
<path d="M140.5 525.1C140.2 524.6 140.4 523.9 141 523.5C142.2 522.8 144 523.7 144 525.1C144 526.3 141.3 526.3 140.5 525.1Z" fill="#77694E"/>
<path d="M137 521.5C137 519.8 137.2 519.7 139.4 520.6C141.7 521.5 141.4 523 139 523C137.9 523 137 522.3 137 521.5Z" fill="#77694E"/>
<path d="M140.9 520.3C140.8 519.8 140.8 519.1 140.9 518.7C141 518.2 140.1 518.1 139 518.5C137.6 519 137 518.7 137 517.6C137 515.7 137.2 515.7 140.4 517.1C143.3 518.4 144.6 521 142.5 521C141.7 521 140.9 520.7 140.9 520.3Z" fill="#77694E"/>
<path d="M8.2 516C8.2 514.6 8.4 514.1 8.7 514.8C8.9 515.4 8.9 516.6 8.7 517.3C8.4 517.9 8.2 517.4 8.2 516Z" fill="#77694E"/>
<path d="M139.5 515C139.2 514.5 139.1 514 139.4 514C139.6 514 140.5 513.7 141.4 513.4C142.5 513 143 513.3 143 514.4C143 516.2 140.5 516.6 139.5 515Z" fill="#77694E"/>
<path d="M136.4 512.9C135.5 511.3 136.6 510.7 138.5 511.8C140 512.6 140.1 512.8 138.6 513.3C137.8 513.6 136.8 513.5 136.4 512.9Z" fill="#77694E"/>
<path d="M140.6 511.1C140.2 510.4 140.1 509.6 140.4 509.3C141.3 508.4 142.3 509.7 141.8 511.1C141.4 512.2 141.2 512.2 140.6 511.1Z" fill="#77694E"/>
<path d="M136 507.5C136 506.6 136.5 506 137.1 506.2C137.7 506.4 138.2 507 138.2 507.5C138.2 508 137.7 508.6 137.1 508.8C136.5 509 136 508.4 136 507.5Z" fill="#77694E"/>
<path d="M139.6 506.1C139.2 505.4 139.1 504.6 139.4 504.3C140.3 503.4 141.3 504.7 140.8 506.1C140.4 507.2 140.2 507.2 139.6 506.1Z" fill="#77694E"/>
<path d="M135 503C135 502.5 135.7 502 136.5 502C137.3 502 138 502.5 138 503C138 503.6 137.3 504 136.5 504C135.7 504 135 503.6 135 503Z" fill="#77694E"/>
<path d="M138.6 501.1C138.2 500.4 138.1 499.6 138.4 499.3C139.3 498.4 140.3 499.7 139.8 501.1C139.4 502.2 139.2 502.2 138.6 501.1Z" fill="#77694E"/>
<path d="M134 498C134 497.5 134.4 497 134.9 497C135.5 497 136.2 497.5 136.5 498C136.8 498.6 136.4 499 135.6 499C134.7 499 134 498.6 134 498Z" fill="#77694E"/>
<path d="M137 496C137 495.5 137.5 495 138 495C138.6 495 139 495.5 139 496C139 496.6 138.6 497 138 497C137.5 497 137 496.6 137 496Z" fill="#77694E"/>
<path d="M133 492.9C133 492.4 133.5 492.2 134 492.5C134.6 492.8 135 493.3 135 493.6C135 493.8 134.6 494 134 494C133.5 494 133 493.5 133 492.9Z" fill="#77694E"/>
<path d="M136 491C136 490.3 136.3 490 136.7 490.3C137 490.7 137 491.3 136.7 491.7C136.3 492 136 491.7 136 491Z" fill="#77694E"/>
<path d="M135 486.5C135 486.2 135.2 486 135.5 486C135.8 486 136 486.2 136 486.5C136 486.8 135.8 487 135.5 487C135.2 487 135 486.8 135 486.5Z" fill="#77694E"/>
<path d="M132 484.5C132 484.2 132.2 484 132.5 484C132.8 484 133 484.2 133 484.5C133 484.8 132.8 485 132.5 485C132.2 485 132 484.8 132 484.5Z" fill="#77694E"/>
<path d="M133 482C133 481.5 133.5 481 134 481C134.6 481 135 481.5 135 482C135 482.6 134.6 483 134 483C133.5 483 133 482.6 133 482Z" fill="#77694E"/>
<path d="M130.3 479.3C130.7 479 131.3 479 131.7 479.3C132 479.7 131.7 480 131 480C130.3 480 130 479.7 130.3 479.3Z" fill="#77694E"/>
<path d="M131.5 477C131.9 476.4 132.6 476.2 133.1 476.5C134.5 477.4 134.2 478 132.4 478C131.6 478 131.2 477.5 131.5 477Z" fill="#77694E"/>
<path d="M131 472C131 471.3 131.3 471 131.7 471.3C132 471.7 132 472.3 131.7 472.7C131.3 473 131 472.7 131 472Z" fill="#77694E"/>
<path d="M131 467.5C131 467.2 131.2 467 131.5 467C131.8 467 132 467.2 132 467.5C132 467.8 131.8 468 131.5 468C131.2 468 131 467.8 131 467.5Z" fill="#77694E"/>
<path d="M127 434.5C127 434.2 127.2 434 127.5 434C127.8 434 128 434.2 128 434.5C128 434.8 127.8 435 127.5 435C127.2 435 127 434.8 127 434.5Z" fill="#77694E"/>
<path d="M127 424.5C127 424.2 127.2 424 127.5 424C127.8 424 128 424.2 128 424.5C128 424.8 127.8 425 127.5 425C127.2 425 127 424.8 127 424.5Z" fill="#77694E"/>
<path d="M126.5 420C126.8 419.5 127.3 419 127.6 419C127.8 419 128 419.5 128 420C128 420.6 127.5 421 126.9 421C126.4 421 126.2 420.6 126.5 420Z" fill="#77694E"/>
<path d="M127 416.5C127 416.2 127.2 416 127.5 416C127.8 416 128 416.2 128 416.5C128 416.8 127.8 417 127.5 417C127.2 417 127 416.8 127 416.5Z" fill="#77694E"/>
<path d="M128 406.5C128 406.2 128.2 406 128.5 406C128.8 406 129 406.2 129 406.5C129 406.8 128.8 407 128.5 407C128.2 407 128 406.8 128 406.5Z" fill="#77694E"/>
<path d="M130 398.5C130 398.2 130.2 398 130.5 398C130.8 398 131 398.2 131 398.5C131 398.8 130.8 399 130.5 399C130.2 399 130 398.8 130 398.5Z" fill="#77694E"/>
<path d="M131 393.5C131 393.2 131.2 393 131.5 393C131.8 393 132 393.2 132 393.5C132 393.8 131.8 394 131.5 394C131.2 394 131 393.8 131 393.5Z" fill="#77694E"/>
<path d="M131 390C131 389.5 131.5 389 132 389C132.6 389 133 389.5 133 390C133 390.6 132.6 391 132 391C131.5 391 131 390.6 131 390Z" fill="#77694E"/>
<path d="M132 386C132 385.5 132.5 385 133 385C133.6 385 134 385.5 134 386C134 386.6 133.6 387 133 387C132.5 387 132 386.6 132 386Z" fill="#77694E"/>
<path d="M123.6 380.2C123.2 379.5 123.2 377.7 123.8 376.2C124.3 374.7 125.3 371.6 126.1 369.2C126.8 366.8 127.6 365.4 128 366.1C128.7 367.1 127.9 370.4 125.9 375.5C125.5 376.6 125 378.4 124.8 379.5C124.5 381 124.2 381.2 123.6 380.2Z" fill="#77694E"/>
<path d="M134.1 379.5C134.1 378.4 133.8 375 133.6 372C133.4 369 133.1 366 133.1 365.3C133 364.6 132.4 364.3 131.6 364.6C127.9 366 127 353.5 130.5 350.2C131.8 348.9 132.4 348.8 132.7 349.8C133 350.4 134 351 135 351C136 351 137.1 350.4 137.3 349.8C138.1 347.8 140.1 351.1 139.6 353.5C138.3 359 136.6 364.7 135.7 366.7C135.2 367.9 135 371.1 135.3 373.8C135.6 376.4 135.5 379.3 135 380C134.3 381.2 134.1 381.1 134.1 379.5ZM134.7 359.4C135.2 358.1 135.4 358.1 136.1 359.2C136.8 360.2 137 360.1 137 358.8C137 357.8 136.3 357 135.5 357C134.7 357 134 356.6 134 356C134 355.5 133.6 355 133 355C132.5 355 132 356.4 132 358C132 361.2 133.7 362.1 134.7 359.4Z" fill="#77694E"/>
<path d="M138.9 348.3C137.2 347.9 131.3 333.6 130.3 327.6C129.8 324.2 129.7 324.2 120.7 322.1C115.8 320.9 107.6 319.3 102.6 318.5C97.6 317.7 87.7 316.1 80.5 315C66.7 312.7 56.7 309.1 54.9 305.7C53.9 303.9 54.1 303.8 57.2 304.3C59 304.5 63.2 305.9 66.5 307.3C70.2 308.9 78.8 310.8 89 312.5C105.1 315.1 117.3 317.3 122.4 318.6C124.8 319.2 124.8 319.1 123.7 316.6C123 315.2 121.7 313.9 120.8 313.6C119.6 313.3 119 312.2 119 310.1C119 307.3 118.7 307 115.9 307C113.7 307 112.7 306.5 112.3 305C112 303.9 111.4 303 110.9 303C110.4 303 110 302.6 110 302.1C110 301.6 108.4 299.6 106.5 297.7C104 295.2 103 293.3 103 291.2C103 288.5 102.6 288.1 99.8 287.8C96.8 287.5 96.5 287.2 96.2 283.8C95.9 280.2 96 280 98.9 280C102 280 102 279.9 102 274.9C102 269.9 102 269.9 99.1 271.9C97.5 273.1 94.7 274 93 274C89.7 274 89.7 274 90.3 268.5C90.6 265.4 90.5 263 89.9 263C89.4 263 89 263.5 89 264C89 264.6 87.9 265 86.5 265C85 265 84 265.6 84 266.4C84 267.3 81.6 268.7 78.3 269.9C75.1 271.1 71.7 272.5 70.8 273C69.8 273.6 67.4 274 65.5 274C62.1 274 62 273.9 62 270.1C62 267.7 62.6 265.7 63.7 264.9C65.1 263.7 64.7 263.3 59.9 262.2C56.9 261.4 52.5 260.5 50.1 260.2C44.5 259.3 43.6 257.7 44.4 250.7C45.1 245.7 45.5 244.9 48.2 243.5C49.9 242.7 53.3 242 55.8 242C60.2 242 60.2 242 59.6 238.8C59.2 237 58.7 232.8 58.4 229.5C57.9 224.1 57.5 223.2 54.9 221.8C51.1 219.6 51 215 54.5 208.3C58 201.9 60.8 199 63.8 199C66.3 199 66.3 199 64.3 201.3C62 203.8 60.4 211.5 62.1 212.5C62.6 212.9 63 214.2 62.8 215.5C62.7 216.7 63.2 218.5 64 219.5C65.2 221 65.2 221.6 63.8 224.1C62.4 226.5 62.3 227.5 63.5 231.9C64.2 234.7 65.7 238.1 66.9 239.6C68.1 241.1 69 243.4 69 244.9C69 246.3 70.2 251 71.7 255.3C74.4 263.1 74.4 263.1 71.5 265.5C68.5 268 68.5 268 72.2 266.5C74.3 265.7 76.7 265 77.7 265C78.7 265 82.8 263 86.8 260.5C90.9 257.9 94 256.5 94.1 257.3C94.1 257.9 94.5 257.5 95 256.3C95.5 255 96.8 254 97.9 254C99.6 254 99.8 254.5 99.3 257.8C99 259.8 97.9 263.2 96.8 265.3C94.9 269 94.9 269 99.5 265.5C105 261.3 106 261.2 106 264.5C106 266 106.7 268.4 107.5 269.9C109.2 273.2 109.6 278.1 108.5 283C107.1 288.9 107.8 291.7 111.6 296.7C115.6 302 125.6 313 126.4 313C126.6 313 127 312.2 127.2 311.3C127.4 310 127.8 310.3 128.8 312.4C129.6 314.2 129.6 314.9 128.9 314.4C128.1 314 128.1 314.4 128.9 315.9C130.3 318.4 130.8 318.5 133.2 316.3C134.3 315.4 135 315.2 135 315.8C135 316.5 135.7 317 136.6 317C137.7 317 138 316.2 137.8 314.5C137.6 313.2 137.9 312.1 138.4 312.1C138.9 312.2 139.6 311.7 139.9 311.2C140.2 310.7 141.9 309.6 143.5 308.7C146.5 307 146.5 307 142 307.6C139.5 308 136.9 308.8 136.1 309.4C135 310.3 134.8 310.1 135.4 308.2C135.9 306.8 135.7 305.3 135 304.5C134 303.3 134.1 303 135.9 303C137 303 138 302.6 138 302.2C138 301 148.4 290 149.5 290C150.1 290 151.1 289.1 151.7 288C152.4 286.9 154.2 285.4 155.7 284.6C159.4 282.7 166.7 276.3 182.9 260.5C195.4 248.3 196 247.8 192.9 253C191 256 184.1 263.9 177.5 270.5C169.4 278.6 167.8 280.4 172.7 276.2C181.1 268.8 193.6 255.8 201.7 245.9C207.5 238.8 207.5 238.8 207.8 242.4C208 244.3 207.7 247.6 207.1 249.7C206.5 251.7 206.2 253.6 206.4 253.8C207.1 254.4 212.6 238.8 214.5 231.3C215.6 226.6 216.7 224 217.6 224C218.4 224 219 225 219 226.6C219 229.7 216.9 238.3 216 239C215.6 239.3 215.1 241.4 214.8 243.7C214.4 246 212.2 252.3 209.8 257.7C205.5 267.5 205.5 267.5 201.6 267.8C197.8 268.1 197.8 268.1 198.2 264.1C198.5 260 198.5 260 190 269.2C177.3 282.8 174.4 285.2 164.5 289.8C162.3 290.9 159.9 292.5 159.1 293.4C158.4 294.3 157.2 295 156.6 295C155.5 295.1 151.4 300 152.4 300C152.7 300 154.7 299.4 156.7 298.6C158.8 297.8 164.8 296.4 170 295.5C183.4 293.1 189 290.8 189 287.5C189 286 201.7 276.5 205 275.5C210.2 273.9 214.9 270.6 218.5 265.9C221.6 261.8 222.7 261 225.5 261C227.7 261 229 261.5 229.2 262.5C229.4 263.6 230.9 263 235.4 260C238.6 257.8 242.1 256 243.1 256C244 256 246.1 254.9 247.7 253.6C249.3 252.2 255.3 248 261 244.1C268.7 238.9 272.3 237 274.7 237C277.8 237 277.9 237.1 276.8 239.5C276.2 240.8 275.3 241.7 274.9 241.4C274 240.9 255.5 254.2 253.5 256.7C253 257.4 250.5 259 248 260.3C236.3 266.4 231.2 269.4 228 271.9C223.9 275.2 218.6 278 216.7 278C216 278 214.1 279.4 212.4 281.1C210.8 282.8 207.5 285.4 205 286.8C202.5 288.2 198.7 290.9 196.5 292.7C192.5 296.1 186 298.5 178 299.4C171.5 300.1 158.8 302.9 157.6 303.9C157 304.4 155.2 305.2 153.5 305.8C151 306.7 151.4 306.8 156.5 306.3C159.8 306 165.7 305.1 169.5 304.3C173.4 303.4 178.1 302.6 180 302.3C183.5 301.9 183.5 301.9 180.5 303.9C176.6 306.7 166.1 309.7 157.9 310.5C150.3 311.2 140.1 315.5 137.6 319.1C135.4 322.3 135.6 329.4 138.1 335.9C139.2 338.9 139.8 342 139.5 342.8C139.2 343.6 139.7 345.1 140.5 346C142.2 347.9 141.5 348.9 138.9 348.3ZM131.7 322.8C131.4 322 131.1 322.3 131.1 323.4C131 324.5 131.3 325.1 131.6 324.7C131.9 324.4 132 323.5 131.7 322.8ZM128 319.5C128 319.2 127.8 319 127.5 319C127.2 319 127 319.2 127 319.5C127 319.8 127.2 320 127.5 320C127.8 320 128 319.8 128 319.5ZM153.5 292C153.8 291.5 153.9 291 153.6 291C153.3 291 152.8 291.5 152.5 292C152.2 292.6 152.1 293 152.4 293C152.7 293 153.2 292.6 153.5 292ZM163 285.5C163 285.2 162.8 285 162.5 285C162.2 285 162 285.2 162 285.5C162 285.8 162.2 286 162.5 286C162.8 286 163 285.8 163 285.5ZM65 247.5C65 247.2 64.8 247 64.5 247C64.2 247 64 247.2 64 247.5C64 247.8 64.2 248 64.5 248C64.8 248 65 247.8 65 247.5Z" fill="#77694E"/>
<path d="M130.5 345C130.2 344.5 130.4 344 130.9 344C131.5 344 132 344.5 132 345C132 345.6 131.8 346 131.6 346C131.3 346 130.8 345.6 130.5 345Z" fill="#77694E"/>
<path d="M140.5 344C140.2 343.5 140.6 343 141.4 343C142.3 343 143 343.5 143 344C143 344.6 142.6 345 142.1 345C141.5 345 140.8 344.6 140.5 344Z" fill="#77694E"/>
<path d="M130 340.5C130 340.2 130.2 340 130.5 340C130.8 340 131 340.2 131 340.5C131 340.8 130.8 341 130.5 341C130.2 341 130 340.8 130 340.5Z" fill="#77694E"/>
<path d="M142.5 340C142.2 339.5 142.4 339 142.9 339C143.5 339 144 339.5 144 340C144 340.6 143.8 341 143.6 341C143.3 341 142.8 340.6 142.5 340Z" fill="#77694E"/>
<path d="M128 336.5C128 336.2 128.2 336 128.5 336C128.8 336 129 336.2 129 336.5C129 336.8 128.8 337 128.5 337C128.2 337 128 336.8 128 336.5Z" fill="#77694E"/>
<path d="M143.5 336C143.2 335.5 143.4 335 143.9 335C144.5 335 145 335.5 145 336C145 336.6 144.8 337 144.6 337C144.3 337 143.8 336.6 143.5 336Z" fill="#77694E"/>
<path d="M144.1 331.6C143.1 330.5 143.2 330.2 144.2 330.4C145.6 330.6 146.5 331.9 145.7 332.6C145.5 332.8 144.7 332.4 144.1 331.6Z" fill="#77694E"/>
<path d="M124 329.5C124 329.2 124.2 329 124.5 329C124.8 329 125 329.2 125 329.5C125 329.8 124.8 330 124.5 330C124.2 330 124 329.8 124 329.5Z" fill="#77694E"/>
<path d="M145.4 327.5C143.7 326.2 143.7 326.1 145.2 326C146.1 326 147.2 326.5 147.5 327.1C148.6 328.8 147.5 329.1 145.4 327.5Z" fill="#77694E"/>
<path d="M147.1 323.6C146.1 322.5 146.2 322.2 147.2 322.4C148.6 322.6 149.5 323.9 148.7 324.6C148.5 324.8 147.7 324.4 147.1 323.6Z" fill="#77694E"/>
<path d="M73.1 249.1C72 248 70.8 245.9 70.4 244.5C69.8 242 71.9 233 73 233C73.4 233 73.4 231.6 73.2 229.9C72.8 227 72.9 226.8 75.1 227.5C76.4 227.9 77.5 228.3 77.5 228.4C77.5 228.4 78.4 229.6 79.5 230.9C80.6 232.3 80.9 233 80.3 232.6C78.4 231.6 78.7 232.4 81.1 235.1C82.3 236.5 83 238.5 82.8 240.1C82.7 241.6 83.2 244 84 245.4C85.7 248.7 84.6 250 79.2 250.7C76 251.1 74.8 250.8 73.1 249.1Z" fill="#77694E"/>
<path d="M79 228.5C79 228.2 79.2 228 79.5 228C79.8 228 80 228.2 80 228.5C80 228.8 79.8 229 79.5 229C79.2 229 79 228.8 79 228.5Z" fill="#77694E"/>
<path d="M216 214.8C216 210.9 217.2 208 218.6 208C219.6 208 220 209.3 220 212.5C220 216.3 219.7 217 218 217C216.6 217 216 216.3 216 214.8Z" fill="#77694E"/>
<path d="M217 201.6C217 197.7 217.7 195 219.6 191.6C221.7 187.8 222.1 185.8 222.1 179.5C222.1 172.7 222.3 172 224 172C225.8 172 226 172.7 226 179.8C225.9 187.4 224 195.2 222 195.8C221.5 196 221 198.6 221 201.6C221 206.3 220.8 207 219 207C217.2 207 217 206.3 217 201.6Z" fill="#77694E"/>
<path d="M214.1 195.3C214 193.5 214.5 192 215 192C216.2 192 216.2 193.7 215 196.5C214.3 198.2 214.1 198 214.1 195.3Z" fill="#77694E"/>
<path d="M69 194C69 193.5 69.9 192.8 71 192.5C72.1 192.2 73 191.2 73 190.4C73 189.6 73.9 189 75 189C76.1 189 77 189.7 77 190.5C77 191.3 76.4 192 75.8 192C75.1 192 73.3 192.7 71.8 193.4C70.2 194.2 69 194.5 69 194Z" fill="#77694E"/>
<path d="M216 189.5C216 189.2 216.2 189 216.5 189C216.8 189 217 189.2 217 189.5C217 189.8 216.8 190 216.5 190C216.2 190 216 189.8 216 189.5Z" fill="#77694E"/>
<path d="M212 182.5C212 179.6 212.4 179 214.1 179C215.2 179 215.8 179.4 215.5 180C215.1 180.6 215.4 181.8 216.1 182.6C217.1 183.8 217 183.9 215.6 183.4C214.5 183 214 183.3 214 184.4C214 185.3 213.6 186 213 186C212.5 186 212 184.4 212 182.5Z" fill="#77694E"/>
<path d="M232 174.5C232 171.8 232.4 171 233.8 171C235.1 171 235.2 171.2 234.1 171.9C233.1 172.6 233.1 172.9 234 173.5C234.8 174 235.6 173.6 236.2 172.6C237.7 169.9 239 170.8 239 174.5C239 177.8 238.8 178 235.5 178C232.2 178 232 177.8 232 174.5Z" fill="#77694E"/>
<path d="M217.1 94.7C217.3 92.3 217 89.9 216.7 89.3C216.3 88.6 215.5 84.7 215 80.4C214.4 76.1 213.1 71.2 212 69.3C209.6 65.2 209.3 60 211.5 60C212.3 60 213 60.7 213 61.5C213 62.3 214.1 63.7 215.4 64.6C216.8 65.4 218.1 67.4 218.4 68.8C220.9 82.2 221.2 83 222.7 83C224 83 224.2 82.2 223.7 78.3C223.3 75.3 223.4 74.1 223.9 75C224.7 76.2 225.5 92.5 225.1 97.8C225 98.5 223.5 99 221 99C216.9 99 216.9 99 217.1 94.7Z" fill="#77694E"/>
<path d="M223.2 70C223.2 68.1 223.4 67.3 223.7 68.3C223.9 69.2 223.9 70.8 223.7 71.8C223.4 72.7 223.2 71.9 223.2 70Z" fill="#77694E"/>
<path d="M223 59.5C223 59.2 223.2 59 223.5 59C223.8 59 224 59.2 224 59.5C224 59.8 223.8 60 223.5 60C223.2 60 223 59.8 223 59.5Z" fill="#77694E"/>
<path d="M222.1 54.4C222.1 53.3 222.4 53 222.7 53.8C223 54.5 222.9 55.4 222.6 55.7C222.3 56.1 222 55.5 222.1 54.4Z" fill="#77694E"/>
<path d="M209 30.5C209 30.2 209.2 30 209.5 30C209.8 30 210 30.2 210 30.5C210 30.8 209.8 31 209.5 31C209.2 31 209 30.8 209 30.5Z" fill="#77694E"/>
<path d="M205.4 27.8C205 27.1 205.1 27 205.8 27.4C207 28.1 207.4 29 206.6 29C206.3 29 205.8 28.5 205.4 27.8Z" fill="#77694E"/>
<path d="M197 20.5C197 20.2 197.2 20 197.5 20C197.8 20 198 20.2 198 20.5C198 20.8 197.8 21 197.5 21C197.2 21 197 20.8 197 20.5Z" fill="#77694E"/>
<path d="M107 9.5C107 9.2 107.2 9 107.5 9C107.8 9 108 9.2 108 9.5C108 9.8 107.8 10 107.5 10C107.2 10 107 9.8 107 9.5Z" fill="#77694E"/>
<path d="M180 9.5C180 9.2 180.2 9 180.5 9C180.8 9 181 9.2 181 9.5C181 9.8 180.8 10 180.5 10C180.2 10 180 9.8 180 9.5Z" fill="#77694E"/>
<path d="M177 8.5C177 8.2 177.2 8 177.5 8C177.8 8 178 8.2 178 8.5C178 8.8 177.8 9 177.5 9C177.2 9 177 8.8 177 8.5Z" fill="#77694E"/>
<path d="M110 7.5C110 7.2 110.2 7 110.5 7C110.8 7 111 7.2 111 7.5C111 7.8 110.8 8 110.5 8C110.2 8 110 7.8 110 7.5Z" fill="#77694E"/>
<path d="M174.3 7.3C174.7 7 175.3 7 175.7 7.3C176 7.7 175.7 8 175 8C174.3 8 174 7.7 174.3 7.3Z" fill="#77694E"/>
<path d="M171.3 6.3C171.7 6 172.3 6 172.7 6.3C173 6.7 172.7 7 172 7C171.3 7 171 6.7 171.3 6.3Z" fill="#77694E"/>
<path d="M146 322.5C146 322.2 146.2 322 146.5 322C146.8 322 147 322.2 147 322.5C147 322.8 146.8 323 146.5 323C146.2 323 146 322.8 146 322.5Z" fill="#986044"/>
<path d="M149.3 319.3C149.7 319 150.3 319 150.7 319.3C151 319.7 150.7 320 150 320C149.3 320 149 319.7 149.3 319.3Z" fill="#986044"/>
<path d="M125.2 317.1C124.4 316.7 124 315.3 124.2 314.1C124.5 311.9 124.6 311.9 127.4 314.9C130 317.6 130.1 318 128.4 318C127.4 318 125.9 317.6 125.2 317.1Z" fill="#986044"/>
<path d="M132 317.5C132 317.2 132.2 317 132.5 317C132.8 317 133 317.2 133 317.5C133 317.8 132.8 318 132.5 318C132.2 318 132 317.8 132 317.5Z" fill="#986044"/>
<path d="M128.2 314.1C127.4 313.7 127 312.3 127.2 311C127.5 309 127.6 309 128.7 311.9C129.3 313.6 129.8 315 129.7 315C129.6 315 128.9 314.6 128.2 314.1Z" fill="#986044"/>
<path d="M136.5 308.1C136.8 307.5 135.7 305.2 134 302.8C132.4 300.4 129.2 293.6 126.9 287.6C122.4 275.4 122.6 273.9 128.5 275.7C131.8 276.8 132.2 276.7 133 274.5C134.1 271.7 137.4 270.8 147.3 270.8C164.1 270.9 176.9 265.3 191.7 251.7C196.3 247.5 196.3 247.5 192.9 253C191.1 256 183 264.9 175.1 272.8C167.1 280.6 161.1 287 161.7 287C162.3 287 163.8 286.2 165.1 285.1C166.4 284.1 168.6 282.7 170 282C174.2 279.9 166.4 287.6 160.2 291.7C157.3 293.6 152.9 297.6 150.4 300.6C147.7 303.7 144.6 306.3 143.1 306.6C141.7 306.9 139.5 307.6 138.2 308.1C136.7 308.7 136.1 308.7 136.5 308.1ZM142 303.5C142 303.2 141.8 303 141.5 303C141.2 303 141 303.2 141 303.5C141 303.8 141.2 304 141.5 304C141.8 304 142 303.8 142 303.5ZM145.5 301C146.5 299.9 147.1 299 146.8 299C146.5 299 145.5 299.9 144.5 301C143.5 302.1 142.9 303 143.2 303C143.5 303 144.5 302.1 145.5 301ZM158 288.2C158 287.5 150.6 293.7 148.5 296.1C147.4 297.4 149.1 296.2 152.3 293.5C155.4 290.8 158 288.4 158 288.2ZM160 287.5C160 287.2 159.8 287 159.5 287C159.2 287 159 287.2 159 287.5C159 287.8 159.2 288 159.5 288C159.8 288 160 287.8 160 287.5Z" fill="#986044"/>
<path d="M179 274.5C180.2 272.6 187 266.4 187 267.2C187 267.4 184.9 269.6 182.4 272C179.8 274.5 178.3 275.6 179 274.5Z" fill="#986044"/>
<path d="M191.5 261C192.5 259.9 193.5 259 193.8 259C194.1 259 193.5 259.9 192.5 261C191.5 262.1 190.5 263 190.2 263C189.9 263 190.5 262.1 191.5 261Z" fill="#986044"/>
<path d="M157 247.1C157 245.5 156.3 243.6 155.4 242.9C153.9 241.7 153.8 241.8 154.5 243.9C155.7 247.8 153.6 248.3 144.3 246.4C143 246.2 142 245.3 142 244.5C142 242.7 140.8 242.6 139.3 244.1C137.9 245.5 136 244.4 136 242.3C136 241.1 135.7 241 134.5 242C132.9 243.4 131 242.5 131 240.4C131 239.2 130.7 239.2 129 240.2C127.9 240.9 127 242.3 127 243.3C127 244.3 126.6 244.8 126 244.5C125.5 244.2 125 243.1 125 242C125 241 124.3 240 123.5 239.6C122.7 239.3 122 238.4 122 237.5C122 236.6 121.1 236 119.5 236C118.1 236 116.1 235.1 115 234C113.9 232.9 112.3 232 111.5 232C110.7 232 110 231.6 110 231.1C110 230.6 108 228.1 105.6 225.5C101.3 221 101.1 220.9 100 223C98.8 225.2 98.8 225.2 95.9 222.4C94.3 220.9 93 219 93 218.2C93 217.4 92.1 215.6 91.1 214.1C90 212.6 88.3 208.7 87.2 205.5C86 202.2 83.8 196.5 82.2 192.9C80.6 189.3 78.5 183.9 77.6 180.8C76.7 177.8 75.1 173.3 74 170.9C71.9 166.5 71.9 166.5 72.6 171C72.9 173.5 73.6 175.9 74.1 176.4C74.6 177 75 178.4 75 179.7C75 180.9 75.7 183.5 76.6 185.4C77.5 187.3 78 189.5 77.7 190.4C76.9 192.3 73 192.6 73 190.7C73 190 70.3 186.8 67 183.5C59.7 176.3 59.3 174 65.1 174C68.5 174 69.1 173.7 68.6 172.3C68.2 171.4 67.5 168.6 66.9 166.1C66.3 163.6 65.2 160.8 64.3 159.8C63.4 158.7 62.9 156.8 63.2 154.8C63.5 151.5 63.5 151.5 58.8 151.8C54 152.2 54 152.2 54 148.1C54 137.8 58.9 133.9 66.3 138.1C71.8 141.1 72.9 142.7 73 147.6C73 156 74.7 159.4 81.4 164.8C82.2 165.4 83.9 169 85 172.7C86.1 176.4 87.7 180.5 88.5 181.7C89.3 182.9 90 185.5 90 187.3C90 189.2 90.9 191.8 91.9 193.2C93 194.5 95.1 198.2 96.5 201.3C98 204.5 99.6 207.3 100.1 207.6C100.6 207.9 101 205 101 201.2C101 193.1 102.5 191 108.3 191C110.3 191 112.2 190.6 112.5 190C112.8 189.5 114.3 189 115.8 189C119.7 189 121.8 187.4 120.2 185.8C119.6 185.2 119 183 119 181.1C119 179.2 118.5 175.1 117.8 172C116.4 165.2 117.6 158.7 120.4 158.2C121.4 158 123.8 158.1 125.7 158.5C129.3 159.1 129.3 159.1 128.7 165C128.3 170.1 128.5 171.1 130.4 172.8C133.2 175.4 135.8 176.6 140.2 177.4C143.5 178 144.3 177.7 147.9 174.5C150.2 172.4 153.3 170.7 155.4 170.3C158.4 169.8 159 169.3 159 167.4C159 165.3 159.5 165 162.4 165C166.7 165 167.2 166.4 166.9 176.1C166.7 182.1 167 183.4 168.5 184.3C170 185.1 170.7 184.7 172.4 182.4C173.6 180.9 174.7 178.7 175 177.6C175.9 174.4 182.5 174.2 186.9 177.3C189.9 179.3 190.6 180.7 192.1 187.1C193.1 191.2 193.9 196 194 197.8C194 201.1 195.4 202.1 196.4 199.5C196.7 198.7 197.8 198 198.8 198C199.8 198 201.5 197.1 202.5 196C203.5 194.9 205.6 194 207.2 194C209.3 194 210.4 193.3 211.2 191.5C211.9 189.9 213.1 189 214.6 189C216.7 189 216.7 189.2 215.9 193.3C214.4 199.9 209.8 208.5 207.9 208.2C206.7 208 206 209 205.5 211.7C205.1 213.7 204.2 216.3 203.4 217.4C202.6 218.5 202 220.2 202 221.2C202 222.8 201.8 222.8 198.8 221C197 219.9 194.9 218.7 194.2 218.4C192.7 217.6 189 220.7 189 222.7C189 223.5 188.5 223.8 187.9 223.5C187.3 223.1 186.9 223.4 187.1 224.1C187.4 226.9 187 227.9 185.6 227.4C184.8 227.1 183.9 227.4 183.5 228C183.1 228.6 182 228.8 180.9 228.5C179.2 227.9 179.1 228.2 180 230.4C180.8 232.7 180.7 233 179 233C177.9 233 177 233.4 177 234C177 234.5 176.3 234.7 175.5 234.4C174.5 234 174 234.4 174 235.4C174 236.3 172.8 237.6 171.3 238.3C169.7 238.9 168.2 239.9 167.8 240.4C167.4 241 166.4 240.7 165.2 239.7C162.8 237.5 161.8 237.5 162.1 239.8C162.4 242.8 162 244.1 161.1 243.6C160.6 243.3 159.9 244.6 159.6 246.5C158.8 250.7 157 251.1 157 247.1ZM167.6 229.5C168 227.7 168.9 227 170.5 227C172.3 227 173 226.3 173.5 224C174 221.9 174.8 221 176.1 221C177.5 221 178 220.3 178 218C178 215.5 178.4 215 180.5 215C183.4 215 183.9 212.6 181.6 209.5C179.4 206.5 177 208.3 177 212.9C177 216.1 176.2 217.7 172.6 221.7C170.2 224.3 167.1 227.2 165.6 227.9C163.6 229 163.3 229.6 164.1 230.7C165.8 232.7 166.9 232.3 167.6 229.5ZM128 230.6C128 230.4 126.3 229.2 124.3 228C120.5 225.8 120.5 225.8 122.9 228.4C125 230.6 128 231.9 128 230.6ZM150.3 228.1C150.7 228.1 151 226.6 151 224.9C151 221.8 151 221.8 145.8 222.5C139.3 223.4 138.1 224.3 140.3 226.8C141.8 228.5 145.7 229 150.3 228.1ZM120 224.5C120 224.2 119.8 224 119.5 224C119.2 224 119 224.2 119 224.5C119 224.8 119.2 225 119.5 225C119.8 225 120 224.8 120 224.5ZM117.5 221.3C117 220.3 116.5 218 116.2 216.3C115.8 212.9 114.7 212.1 113.3 214.3C112.4 215.8 112.9 220.1 114.2 221.8C115.8 223.7 118.4 223.3 117.5 221.3ZM122 207C122 206.5 120.5 206 118.8 206.1C116 206.1 115.8 206.3 117.5 207C120.3 208.2 122 208.2 122 207ZM176.5 202C178.5 201.1 178.5 201.1 176.5 201.1C175.4 201.1 173.8 201.5 173 202C171.7 202.9 171.7 203 173 202.9C173.8 202.9 175.4 202.5 176.5 202ZM146.2 190.4C147.2 189.5 148.5 187.3 149.1 185.5C150 183.2 151.6 181.6 154.4 180.2C157.8 178.5 158.2 178.1 156.7 177.5C154.7 176.7 149.5 180.9 148.4 184.2C147.1 188.3 137.3 187.1 131.1 181.9C129.1 180.3 127.2 179 126.8 179C125.1 179 126.1 181.7 129 185C130.6 186.9 131.9 189.2 132 190.1C132 191 132.3 192 132.6 192.3C133.8 193.5 144.3 192 146.2 190.4Z" fill="#986044"/>
<path d="M128 246.5C128 246.2 128.2 246 128.5 246C128.8 246 129 246.2 129 246.5C129 246.8 128.8 247 128.5 247C128.2 247 128 246.8 128 246.5Z" fill="#986044"/>
<path d="M217.1 198.3C217.1 197.9 217.5 196.6 218 195.5C218.8 193.6 218.9 193.6 218.9 195.7C219 196.9 218.6 198.2 218 198.5C217.5 198.8 217 198.8 217.1 198.3Z" fill="#986044"/>
<path d="M71 192.5C71 192.2 71.2 192 71.5 192C71.8 192 72 192.2 72 192.5C72 192.8 71.8 193 71.5 193C71.2 193 71 192.8 71 192.5Z" fill="#986044"/>
<path d="M210 184C210 181.8 210.4 180 210.8 180C211.9 180 215 167.2 215 162.8C215 160.7 215.6 157.6 216.4 155.8C217.2 154 218.2 149.8 218.7 146.5C219.3 141.8 219.9 140.5 221.5 140C223.2 139.6 223.5 138.6 223.5 133.6C223.6 129.8 224 127.5 224.8 127.2C225.5 127 226 125.6 226 124.1C226 122.6 227.4 119.5 229.1 117.2C232.5 112.6 235.4 111.8 238.8 114.8C241.7 117.1 247.7 128.6 248.5 133.3C249.2 137 249.2 137 245.8 137C242.6 137 242.2 136.7 241.1 133.1C240.5 130.9 238.8 128.2 237.3 127.1C234.9 125.1 234.7 125.1 233.4 126.7C232.3 128.2 232.4 128.8 234.1 130.6C236.2 132.8 236.6 137.4 235 141.4C234.3 143.4 233.3 144 231.1 144C228.2 144 228.2 144 227.6 156.3C226.8 172.8 226 178 224.6 178C221.3 178 220.9 167.6 223.6 154.8C223.9 153.1 223.7 152 223.1 152C222.5 152 222 153.2 222 154.8C222 156.3 221.3 158.5 220.5 159.7C219.6 160.9 218.9 163.6 218.9 165.7C218.8 167.8 217.7 173 216.3 177.2C214.9 181.5 214 185.7 214.4 186.5C214.8 187.6 214.3 188 212.5 188C210.3 188 210 187.6 210 184Z" fill="#986044"/>
<path d="M93 183.1C93 179 93 179 97.1 179C101.1 179 101.1 179 100.8 182.8C100.5 186.3 100.3 186.5 96.8 186.8C93 187.1 93 187.1 93 183.1Z" fill="#986044"/>
<path d="M216 183.5C216 183.2 216.2 183 216.5 183C216.8 183 217 183.2 217 183.5C217 183.8 216.8 184 216.5 184C216.2 184 216 183.8 216 183.5Z" fill="#986044"/>
<path d="M233 173.5C233 173.2 233.2 173 233.5 173C233.8 173 234 173.2 234 173.5C234 173.8 233.8 174 233.5 174C233.2 174 233 173.8 233 173.5Z" fill="#986044"/>
<path d="M236 173.2C236 172.8 236.6 171.8 237.3 171.1C238.3 170 238.1 170 236.3 170.9C233.3 172.4 233 172.3 233 169.5C233 167.3 233.4 167 236.5 167C239.8 167 240 167.2 240 170.5C240 173.3 239.6 174 238 174C236.9 174 236 173.6 236 173.2Z" fill="#986044"/>
<path d="M86 153.3C84.1 152.4 80.7 151.4 78.5 151.1C74.5 150.5 74.5 150.5 73.6 141.2C72.5 129.3 73.2 126.3 78 120.2C82.5 114.5 83.4 114 91 112.8C109.2 109.9 127.5 109.2 130.3 111.3C131.7 112.3 132 115.5 132.6 132.1C133.3 151.8 133.3 151.8 124.9 152.5C120.3 152.9 113.6 153.6 110 154.1C100 155.4 90 155.1 86 153.3ZM100.1 138.6C109.3 138.3 111 137.6 112.2 133.8C112.5 133.1 114 133.2 116.5 133.9C121.1 135.1 122.2 134.7 118.8 132.9C117.6 132.2 113.4 131.5 109.5 131.2C103 130.8 102 131.1 96.1 134.2C92.5 136.1 89.4 138.2 89.2 139C88.9 139.7 89.2 140 89.8 139.6C90.4 139.3 95 138.8 100.1 138.6ZM89.5 136C89.8 135.5 89.9 135 89.6 135C89.3 135 88.8 135.5 88.5 136C88.2 136.6 88.1 137 88.4 137C88.7 137 89.2 136.6 89.5 136ZM125 126.5C123.6 124.2 120.8 122 116.4 119.9C108.8 116.1 106.7 116.3 95.8 121.4C91.6 123.4 87.1 125 85.8 125C81.7 125.1 76.5 131 79.2 132.6C79.8 133 81.5 131.9 82.9 130.1C85 127.6 86.4 126.9 90.2 126.6C92.8 126.3 95.4 125.9 96 125.5C97.3 124.7 104.1 126 103.5 127C103.2 127.5 107.1 128.2 112.1 128.6C119.5 129.1 121.7 129.7 123.9 131.6C126.4 133.8 126.5 133.8 126.8 131.9C127 130.8 126.2 128.4 125 126.5Z" fill="#C29178"/>
<path d="M149.4 142C146.7 139.8 144.2 137.2 143.8 136.2C143.5 135.3 143.1 128.6 143.1 121.4C143 108.8 143.1 108.3 145.5 106C148.6 103.1 160.2 100.5 176.8 98.9C191 97.7 194.8 98.1 200.7 101.8C206.5 105.4 208.6 109.9 209.5 119.6C210.2 127.7 210.2 127.7 207.1 130.3C205.4 131.7 202.7 133.1 201 133.5C199.3 133.9 197.2 135.2 196.4 136.5C193.7 140.6 188.4 142.3 175.5 143C168 143.5 163.5 144.1 163.2 144.9C163 145.5 160.9 146 158.5 146C155 146 153.4 145.3 149.4 142ZM183.5 126.6C185.4 125.8 187 124.6 187 124.1C187 123.5 187.6 123.3 188.4 123.6C189.2 123.9 190.6 123.7 191.6 123.2C193 122.4 192.7 122 189.4 121C181 118.2 169.9 120.1 163.5 125.4C162.1 126.6 162.7 126.5 165.8 125C170 122.9 170 122.9 171.2 125.5C172.1 127.5 173 128 176.2 128C178.3 128 181.6 127.3 183.5 126.6ZM193.6 120.1C192.6 119.1 191 118 189.8 117.7C187.5 117 187.9 117.6 191.7 120.1C195.3 122.4 195.7 122.4 193.6 120.1ZM162.3 119.8C163.5 119.2 167 118.1 170 117.4C175.5 116.2 175.5 116.2 171.3 116.1C164.7 115.9 166.2 114.4 174.6 112.5C182.2 110.8 182.2 110.8 178.9 107.9C176.1 105.4 175.1 105.1 171.6 105.7C169.3 106 164.7 107.5 161.3 109.1C155.8 111.5 155 112.2 155 114.6C155 117.3 157.4 121 159.2 121C159.7 121 161.1 120.5 162.3 119.8Z" fill="#C29178"/>
<path d="M65.6 121.8C64.6 118 64.9 117 67 117C68.6 117 69 117.7 69 120.5C69 124.5 66.6 125.4 65.6 121.8Z" fill="#986044"/>
<path d="M62.6 106.5C62.3 105.7 62.3 104.3 62.7 103.5C63 102.6 62.5 101.1 61.5 100C60.5 98.9 60 97.4 60.4 96.5C60.7 95.6 60.5 94.1 59.8 93.1C58.9 91.6 59.4 90.3 62.7 85.4C64.9 82.2 68.6 75.2 70.9 70C75.1 60.2 81.2 52 85.9 49.6C88.7 48.1 97.4 46.6 112.4 44.9C119.5 44.1 122.2 44.2 126.4 45.4C130.3 46.5 133.1 46.7 138.5 46C142.4 45.5 149.6 45.1 154.6 45C162 45 164.8 45.5 169.8 47.5C178.1 50.9 182.3 50.7 178.8 47.2C177.9 46.3 178.4 46 181 45.9C184.5 45.9 184.4 45.9 179.3 43.7C174 41.5 172 39.3 176.3 40.5C178.1 41 178 40.8 175.8 39.5C171.3 37 172.5 36 180 36C189.2 36 194.7 38.6 202.5 46.5C208.2 52.2 213 59.6 213 62.6C213 63.4 212.1 64 211 64C209.7 64 209 63.3 209 62C209 60.9 208.6 60 208 60C207.5 60 207 59.5 207 58.9C207 57.4 193.5 44 192.1 44C191.5 44 191 45.1 191 46.4C191 47.8 190.6 49.2 190 49.5C189.5 49.8 189 50.9 189 51.9C189 55.5 177.3 56 159.9 53C150.2 51.3 146.9 51.1 141.8 52C138.3 52.5 129.9 53 123 53.1C107.7 53.1 90.5 55.1 86.5 57.2C82.8 59.2 79.8 62.4 77.5 67C74.1 73.6 66.8 96.5 66.3 102.3C65.7 107.8 64 109.9 62.6 106.5ZM63 96C63 94.9 62.8 94 62.6 94C62.4 94 62 94.9 61.7 96C61.4 97.1 61.6 98 62.1 98C62.6 98 63 97.1 63 96Z" fill="#986044"/>
<path d="M153 40.8C148.5 38.7 148.5 38.7 154.8 37.2C159.8 36 161.3 35.9 162.3 36.9C163.2 37.9 163.1 38.4 161.5 39.6C160.4 40.5 159.6 41.6 159.8 42.1C160.1 43.5 157.9 43.1 153 40.8Z" fill="#986044"/>
<path d="M123 17.5C123 17.2 123.2 17 123.5 17C123.8 17 124 17.2 124 17.5C124 17.8 123.8 18 123.5 18C123.2 18 123 17.8 123 17.5Z" fill="#986044"/>
<path d="M124 10.5C124 10.2 124.2 10 124.5 10C124.8 10 125 10.2 125 10.5C125 10.8 124.8 11 124.5 11C124.2 11 124 10.8 124 10.5Z" fill="#986044"/>
<path d="M140.3 543.3C140.7 543 141.3 543 141.7 543.3C142 543.7 141.7 544 141 544C140.3 544 140 543.7 140.3 543.3Z" fill="#8E9687"/>
<path d="M136 541.8C136 540.5 139 538.1 140.8 538C141.4 538 142 538.7 142 539.6C142 540.7 141.4 541 139.9 540.5C138.6 540 138 540.2 138.4 540.8C138.7 541.3 138.3 542 137.5 542.4C136.7 542.7 136 542.4 136 541.8Z" fill="#8E9687"/>
<path d="M136 536.5C136 534.8 136.9 534.6 138.8 535.9C139.9 536.6 139.8 536.9 138.5 537.4C136.2 538.3 136 538.2 136 536.5Z" fill="#8E9687"/>
<path d="M140.2 535.3C138.7 534.7 139.6 533 141.6 533C142.4 533 143 533.7 143 534.5C143 536 142.4 536.2 140.2 535.3Z" fill="#8E9687"/>
<path d="M136.5 532C136.2 531.5 137.3 530.4 138.9 529.5C142.6 527.6 143 527.6 143 529.6C143 530.7 142.4 531 140.9 530.5C139.6 530 139 530.2 139.4 530.8C139.7 531.3 139.3 532 138.5 532.4C137.7 532.7 136.8 532.5 136.5 532Z" fill="#8E9687"/>
<path d="M137 526.5C137 525.6 137.5 525 138.1 525.2C138.7 525.4 139.2 526 139.2 526.5C139.2 527 138.7 527.6 138.1 527.8C137.5 528 137 527.4 137 526.5Z" fill="#8E9687"/>
<path d="M140.6 525.1C140.3 524.6 140.7 524 141.5 523.6C142.4 523.3 143 523.6 143 524.5C143 526.1 141.4 526.5 140.6 525.1Z" fill="#8E9687"/>
<path d="M137 522C137 521.5 137.5 521 138 521C138.6 521 139 521.5 139 522C139 522.6 138.6 523 138 523C137.5 523 137 522.6 137 522Z" fill="#8E9687"/>
<path d="M140 522.5C140 522.2 140.2 522 140.5 522C140.8 522 141 522.2 141 522.5C141 522.8 140.8 523 140.5 523C140.2 523 140 522.8 140 522.5Z" fill="#8E9687"/>
<path d="M141 520.1C141 519.5 141.5 518.8 142 518.5C142.6 518.2 143 518.6 143 519.4C143 520.3 142.6 521 142 521C141.5 521 141 520.6 141 520.1Z" fill="#8E9687"/>
<path d="M137 517.5C137 515.9 138.6 515.5 139.4 516.9C139.7 517.4 139.3 518 138.5 518.4C137.6 518.7 137 518.4 137 517.5Z" fill="#8E9687"/>
<path d="M141 515C141 514.5 141.5 514 142 514C142.6 514 143 514.5 143 515C143 515.6 142.6 516 142 516C141.5 516 141 515.6 141 515Z" fill="#8E9687"/>
<path d="M136.5 512C136.2 511.5 136.3 511 136.9 511C137.4 511 138.2 511.5 138.5 512C138.8 512.6 138.7 513 138.1 513C137.6 513 136.8 512.6 136.5 512Z" fill="#8E9687"/>
<path d="M140.5 510C140.2 509.5 140.4 509 140.9 509C141.5 509 142 509.5 142 510C142 510.6 141.8 511 141.6 511C141.3 511 140.8 510.6 140.5 510Z" fill="#8E9687"/>
<path d="M136.3 507.3C136.7 507 137.3 507 137.7 507.3C138 507.7 137.7 508 137 508C136.3 508 136 507.7 136.3 507.3Z" fill="#8E9687"/>
<path d="M140.1 505.4C140.1 504.3 140.4 504 140.7 504.8C141 505.5 140.9 506.4 140.6 506.7C140.3 507.1 140 506.5 140.1 505.4Z" fill="#8E9687"/>
<path d="M8.2 503C8.2 501.6 8.4 501.1 8.7 501.8C8.9 502.4 8.9 503.6 8.7 504.3C8.4 504.9 8.2 504.4 8.2 503Z" fill="#8E9687"/>
<path d="M138.5 500C138.8 499.5 139.3 499 139.6 499C139.8 499 140 499.5 140 500C140 500.6 139.5 501 138.9 501C138.4 501 138.2 500.6 138.5 500Z" fill="#8E9687"/>
<path d="M138 496C138 495.3 138.3 495 138.7 495.3C139 495.7 139 496.3 138.7 496.7C138.3 497 138 496.7 138 496Z" fill="#8E9687"/>
<path d="M127 429.5C127 429.2 127.2 429 127.5 429C127.8 429 128 429.2 128 429.5C128 429.8 127.8 430 127.5 430C127.2 430 127 429.8 127 429.5Z" fill="#8E9687"/>
<path d="M127 420.5C127 420.2 127.2 420 127.5 420C127.8 420 128 420.2 128 420.5C128 420.8 127.8 421 127.5 421C127.2 421 127 420.8 127 420.5Z" fill="#8E9687"/>
<path d="M127 416C127 415.3 127.3 415 127.7 415.3C128 415.7 128 416.3 127.7 416.7C127.3 417 127 416.7 127 416Z" fill="#8E9687"/>
<path d="M128 411C128 410.3 128.3 410 128.7 410.3C129 410.7 129 411.3 128.7 411.7C128.3 412 128 411.7 128 411Z" fill="#8E9687"/>
<path d="M129 402.5C129 402.2 129.2 402 129.5 402C129.8 402 130 402.2 130 402.5C130 402.8 129.8 403 129.5 403C129.2 403 129 402.8 129 402.5Z" fill="#8E9687"/>
<path d="M132 389.5C132 389.2 132.2 389 132.5 389C132.8 389 133 389.2 133 389.5C133 389.8 132.8 390 132.5 390C132.2 390 132 389.8 132 389.5Z" fill="#8E9687"/>
<path d="M132.3 385.3C132.7 385 133.3 385 133.7 385.3C134 385.7 133.7 386 133 386C132.3 386 132 385.7 132.3 385.3Z" fill="#8E9687"/>
<path d="M123.8 379.8C123.4 379 124.3 375.2 125.6 371.4C127.1 367.2 127.9 365.9 127.6 368C126.6 374.5 124.3 381.3 123.8 379.8Z" fill="#8E9687"/>
<path d="M134.4 376.5C134.1 375.7 134 374.5 134.2 373.8C134.5 373.1 134.9 373.7 135.2 375.3C135.8 378.2 135.3 378.9 134.4 376.5Z" fill="#8E9687"/>
<path d="M133.8 365.8C133.6 364.5 133.9 362.2 134.5 360.6C135.7 357.7 135.7 357.7 136.4 360.3C136.7 361.7 136.4 363.9 135.6 365.4C134.2 368.1 134.2 368.1 133.8 365.8Z" fill="#8E9687"/>
<path d="M129.4 362.4C128.5 359.1 129.5 352.1 131 350.6C131.9 349.8 132.4 349.8 132.7 350.7C132.9 351.4 133.8 351.6 134.6 351.3C135.4 351 136.7 351.3 137.4 351.9C138.5 352.8 138.9 352.8 139.3 351.8C139.7 350.9 139.9 350.9 139.9 352C139.9 354.2 137.2 359.9 137.1 357.8C137 356.7 136.5 356.3 135.5 356.6C134.7 357 134 356.7 134 356.1C134 355.5 133.6 355 133 355C132.5 355 132 357.3 132 360C132 365.3 130.5 366.7 129.4 362.4Z" fill="#8E9687"/>
<path d="M140 348C140 347.3 140.3 347 140.7 347.3C141 347.7 141 348.3 140.7 348.7C140.3 349 140 348.7 140 348Z" fill="#8E9687"/>
<path d="M134.2 339.1C132.5 334.8 130.8 329.6 130.5 327.6C130.1 325.6 129.1 323.9 128.1 323.6C123.4 322.1 106.8 318.8 95.4 317.1C67 312.6 58.6 310.1 53.5 304.3C52.2 302.8 49.3 297.9 47.1 293.5C40 279.1 39.6 264.3 45.9 236C51.8 209.4 56.6 200.5 69.2 193.7C72.5 191.9 72.5 191.9 70.2 193.8C68.9 195 68.2 196.4 68.6 197.4C68.9 198.3 68.7 199 68.1 199C65.6 199 60.8 203.6 58.8 208C57.7 210.5 56.4 213.3 55.8 214.3C54.6 216.7 55.5 217.9 59.7 219.7C62.3 220.7 63 221.5 62.5 222.8C61 226.7 61 229.8 62.4 233.9C64.4 239.4 64.4 242 62.4 244.9C61.2 246.5 60.5 246.9 59.7 246.1C58.1 244.5 54.8 244.7 51.1 246.6C48.1 248.1 48 248.3 49.7 249.6C51.3 250.8 51.3 251.1 50 252C49.2 252.5 48.1 253.1 47.5 253.3C45.3 254.1 49.3 256.8 53.3 257.3C60.4 258.1 71 261.1 71 262.3C71 262.9 69.6 264.9 67.8 266.7C64.9 269.7 64.4 272.5 67.2 270.3C67.9 269.7 70.3 268.7 72.5 268C77.1 266.6 88.8 260 94 255.9C95.9 254.3 99.3 252.4 101.5 251.5C105.5 249.8 105.5 249.8 101.8 253.5C99.7 255.6 98 257.8 98 258.5C98 259.2 96.8 262.1 95.3 264.9C93.9 267.7 92.9 270.2 93.2 270.5C93.4 270.7 95.8 269.1 98.5 266.9C102.2 263.8 103.5 263.2 104.1 264.3C104.8 265.4 105.2 271.1 105.9 289.2C106 291.1 110.4 296.5 122.7 309.7C131.2 318.9 131.2 318.9 134.2 315.4C139 310 143.9 308 155.4 306.8C160.9 306.3 168 305.2 171.1 304.4C178.1 302.7 178.1 302.7 177.4 304.4C176.6 306.5 168.7 308.9 159.2 310C146 311.5 136.7 316.8 135.4 323.5C135.1 325.4 135.6 328.9 136.9 332.8C139 339 139.7 347 138.2 347C137.7 347 135.9 343.4 134.2 339.1ZM101 284.6C101 284.3 100.5 283.8 99.8 283.4C99.1 283 99 283.1 99.4 283.8C100.1 285 101 285.4 101 284.6Z" fill="#8E9687"/>
<path d="M131 344.5C131 344.2 131.2 344 131.5 344C131.8 344 132 344.2 132 344.5C132 344.8 131.8 345 131.5 345C131.2 345 131 344.8 131 344.5Z" fill="#8E9687"/>
<path d="M141.3 343.3C141.7 343 142.3 343 142.7 343.3C143 343.7 142.7 344 142 344C141.3 344 141 343.7 141.3 343.3Z" fill="#8E9687"/>
<path d="M136.7 307C137 306 138.5 304.7 140.1 304.1C141.7 303.6 146.1 299.9 150 296C153.8 292.1 158.9 288 161.2 286.9C167.9 283.8 173.3 280.3 176.3 277.3C177.8 275.8 184.1 269.2 190.3 262.8C196.5 256.3 202.3 251 203.3 251C205.6 251 205.5 254.6 203 260.4C199.6 268.5 202 265.3 206.1 256.4C213.5 240.4 216.1 227.7 217.5 200.5C217.7 197.4 218.7 193.9 220.1 191.5C222.1 188.2 222.5 186.1 222.5 179.8C222.5 172.1 222.5 172 225.4 171C227 170.5 229.3 170 230.4 170C231.7 170 234 168.3 236 166C239.8 161.7 243 160.7 243 164C243 165.1 243.7 166 244.5 166C245.5 166 246 167.1 246 169.5C246 171.4 246.9 175.3 248 178.2C249.3 181.7 250 185.9 250 190.8C250 198 250 198 246.7 198C244 198 243.1 197.4 241.6 194.5C240.6 192.6 238.9 190.3 237.9 189.4C236.1 187.8 236 187.9 236 192.6C236 199.2 235.2 201.7 232.9 202.3C231.9 202.6 231 203.6 231 204.5C231 205.4 229.9 207.1 228.5 208.2C225.7 210.4 225.2 213 227.5 213C228.3 213 229 213.4 229 213.9C229 214.4 229.7 215.6 230.6 216.5C232.1 217.9 232.5 217.9 235.7 216C239.8 213.6 247.6 213.3 250.6 215.5C252.9 217 261.6 217.5 269.3 216.5C272.4 216 274 216.2 274 216.9C274 217.5 274.9 218 276 218C277.3 218 278.6 219.3 279.9 222C281.5 225.3 281.7 226.7 280.8 229.8C279.3 235.3 276.3 240.7 274.8 240.7C273.3 240.7 260 249.3 253.4 254.6C251.1 256.4 247.5 258.5 245.3 259.3C243.1 260.1 237 263.9 231.8 267.8C219.5 277.1 217.6 277.4 223 269.3C227.2 263.1 226.1 262.8 221.5 268.8C217.9 273.6 213.2 276.9 208 278.5C204.7 279.5 192 289 192 290.5C192 293.8 186.4 296.1 172.5 298.6C167 299.6 158.8 301.9 154.2 303.7C149.6 305.5 144.5 307 142.9 307C141.2 307 139 307.4 138 308C136.5 308.8 136.3 308.6 136.7 307ZM237 179.5C237 179.2 236.8 179 236.5 179C236.2 179 236 179.2 236 179.5C236 179.8 236.2 180 236.5 180C236.8 180 237 179.8 237 179.5ZM237.4 170.2C237.3 170 236.3 170.4 235.1 171.1C233.6 172.1 233.4 172.7 234.2 173.7C235.1 174.8 235.5 174.6 236.5 172.8C237.1 171.5 237.6 170.4 237.4 170.2Z" fill="#8E9687"/>
<path d="M215 191.5C215 191.2 215.2 191 215.5 191C215.8 191 216 191.2 216 191.5C216 191.8 215.8 192 215.5 192C215.2 192 215 191.8 215 191.5Z" fill="#8E9687"/>
<path d="M220 106.5C220 105.7 219.7 105 219.3 105C218.1 105 216 99.9 216 96.9C216 91.3 217.3 84.9 218.4 85.3C220.2 85.9 221.9 92.2 220.9 94.3C220.3 95.3 220.3 96 220.9 96C221.4 96 222.1 95.3 222.4 94.4C222.9 93.1 223.3 93 224.5 94C225.5 94.9 226 97.2 226 101.6C226 108 226 108 223 108C221 108 220 107.5 220 106.5Z" fill="#8E9687"/>
<path d="M8.2 514C8.2 512.1 8.4 511.3 8.7 512.3C8.9 513.2 8.9 514.8 8.7 515.8C8.4 516.7 8.2 515.9 8.2 514Z" fill="#C29178"/>
<path d="M8 504.5C8 504.2 8.2 504 8.5 504C8.8 504 9 504.2 9 504.5C9 504.8 8.8 505 8.5 505C8.2 505 8 504.8 8 504.5Z" fill="#C29178"/>
<path d="M123.9 380C123.6 379.2 123.9 376.7 124.6 374.5C125.5 371.6 125.8 371.2 125.8 373C125.7 377.2 124.5 381.7 123.9 380Z" fill="#C29178"/>
<path d="M135 377.5C135 377.2 135.2 377 135.5 377C135.8 377 136 377.2 136 377.5C136 377.8 135.8 378 135.5 378C135.2 378 135 377.8 135 377.5Z" fill="#C29178"/>
<path d="M134.2 374C134.2 372.6 134.4 372.1 134.7 372.8C134.9 373.4 134.9 374.6 134.7 375.3C134.4 375.9 134.2 375.4 134.2 374Z" fill="#C29178"/>
<path d="M126.7 368C127 366.9 127.4 366 127.6 366C127.8 366 128 366.9 128 368C128 369.1 127.6 370 127.1 370C126.6 370 126.4 369.1 126.7 368Z" fill="#C29178"/>
<path d="M133.8 365.5C133.5 364.1 133.7 362.7 134.1 362.4C134.6 362.1 135 360.9 135.1 359.7C135.2 357.7 135.2 357.7 136.1 360.1C136.8 361.9 136.7 363.4 135.7 365.4C134.2 368.1 134.2 368.1 133.8 365.5Z" fill="#C29178"/>
<path d="M130 362.1C130 361 130.5 359.8 131 359.5C131.6 359.1 132 360 132 361.4C132 362.8 131.6 364 131 364C130.5 364 130 363.1 130 362.1Z" fill="#C29178"/>
<path d="M137 358.5C137 358.2 137.2 358 137.5 358C137.8 358 138 358.2 138 358.5C138 358.8 137.8 359 137.5 359C137.2 359 137 358.8 137 358.5Z" fill="#C29178"/>
<path d="M130 355.6C130 354.3 130.3 352.4 130.6 351.5C131.6 349 132.7 351.5 132.2 355C131.7 358.6 130 359 130 355.6Z" fill="#C29178"/>
<path d="M133.2 353.8C133.8 352 136 351.7 136 353.4C136 354.3 135.3 355 134.4 355C133.5 355 133 354.5 133.2 353.8Z" fill="#C29178"/>
<path d="M137 354.5C137 354.2 137.2 354 137.5 354C137.8 354 138 354.2 138 354.5C138 354.8 137.8 355 137.5 355C137.2 355 137 354.8 137 354.5Z" fill="#C29178"/>
<path d="M143 339.5C143 339.2 143.2 339 143.5 339C143.8 339 144 339.2 144 339.5C144 339.8 143.8 340 143.5 340C143.2 340 143 339.8 143 339.5Z" fill="#C29178"/>
<path d="M144 335.5C144 335.2 144.2 335 144.5 335C144.8 335 145 335.2 145 335.5C145 335.8 144.8 336 144.5 336C144.2 336 144 335.8 144 335.5Z" fill="#C29178"/>
<path d="M145.3 331.3C145.7 331 146.3 331 146.7 331.3C147 331.7 146.7 332 146 332C145.3 332 145 331.7 145.3 331.3Z" fill="#C29178"/>
<path d="M146.5 328C146.2 327.5 146.4 327 146.9 327C147.5 327 148 327.5 148 328C148 328.6 147.8 329 147.6 329C147.3 329 146.8 328.6 146.5 328Z" fill="#C29178"/>
<path d="M144 326.5C144 326.2 144.2 326 144.5 326C144.8 326 145 326.2 145 326.5C145 326.8 144.8 327 144.5 327C144.2 327 144 326.8 144 326.5Z" fill="#C29178"/>
<path d="M147.1 323.6C146.1 322.4 146.3 322.3 147.9 322.7C149.1 323 149.7 323.6 149.4 324.1C148.7 325.3 148.4 325.2 147.1 323.6Z" fill="#C29178"/>
<path d="M150 319.5C150 319.2 150.2 319 150.5 319C150.8 319 151 319.2 151 319.5C151 319.8 150.8 320 150.5 320C150.2 320 150 319.8 150 319.5Z" fill="#C29178"/>
<path d="M137 305.6C137 305.4 137.7 304.9 138.6 304.6C139.4 304.3 139.8 304.4 139.5 305C138.9 306 137 306.4 137 305.6Z" fill="#C29178"/>
<path d="M153 236.9C153 236.4 153.5 236.2 154 236.5C154.6 236.8 155 237.3 155 237.6C155 237.8 154.6 238 154 238C153.5 238 153 237.5 153 236.9Z" fill="#C29178"/>
<path d="M166 236.4C166 235.5 165.4 235 164.8 235.3C164.1 235.5 162.5 234.8 161.3 233.7C159 231.7 159 231.7 159 233.8C159 236.1 157.6 236.7 156.4 234.9C156.1 234.3 156.3 233.3 156.9 232.7C157.5 232.1 158 230.8 158 229.8C158 228.9 160 226.7 162.4 225.1C166.8 222.1 174.4 214 173.6 213.2C173.4 213 172.2 213.4 170.9 214C169.7 214.7 167.3 215.6 165.7 216.1C162.7 217 162.7 216.8 167.5 212C172.7 206.7 177.3 204 181.2 204C184.7 204 187.1 208.9 186.3 214.5C185.8 218.6 185.5 218.9 183.4 218.4C181.3 217.8 181 218.1 181 220.9C181 223.3 180.6 224 179.1 224C177.8 224 177 224.9 176.5 227C176 229.3 175.3 230 173.5 230C171.8 230 171 230.7 170.5 232.8C169.8 236 166 239.1 166 236.4Z" fill="#C29178"/>
<path d="M124 234.4C122.6 233.7 120.1 231.5 118.3 229.5C116.6 227.6 114.6 226 113.8 226C111.7 226 110 223.9 110 221.4C110 220.1 109.6 218.8 109 218.5C107.1 217.3 108 213.2 110.6 211.1C114 208.4 116 208.5 119.5 211.2C122 213.1 122.1 213.5 120.6 214.5C119.2 215.6 119.2 216 121.3 219.1C122.5 220.9 125.5 223.7 127.8 225.3C130.9 227.4 132 228.8 132 230.7C132 233.2 132.1 233.2 133.8 231.7C136.1 229.6 137 229.6 137 231.5C137 233.1 134.1 234.9 132.3 234.3C131.7 234.1 130.9 234.4 130.5 234.9C129.7 236.3 127.1 236.1 124 234.4Z" fill="#C29178"/>
<path d="M148.6 234.4C147.8 232.3 147.8 232 148.9 232C149.4 232 150 232.9 150.3 234C150.9 236.4 149.5 236.7 148.6 234.4Z" fill="#C29178"/>
<path d="M140.3 232.3C140.7 232 141.3 232 141.7 232.3C142 232.7 141.7 233 141 233C140.3 233 140 232.7 140.3 232.3Z" fill="#C29178"/>
<path d="M126 216.5C126 216.2 126.2 216 126.5 216C126.8 216 127 216.2 127 216.5C127 216.8 126.8 217 126.5 217C126.2 217 126 216.8 126 216.5Z" fill="#C29178"/>
<path d="M136.6 215.1C135.7 213.8 136.3 213.6 146.3 212C154.6 210.8 155.6 211 154.7 213.5C154.3 214.5 152.8 215 150.2 215C148 215 144.3 215.3 141.8 215.6C138.9 216 137 215.8 136.6 215.1Z" fill="#C29178"/>
<path d="M99.1 211.7C97.7 211 95.3 207.8 93.6 204.4C91.9 201.1 89.7 197.3 88.8 196C87.8 194.6 87 192.1 87 190.2C87 188.4 86.3 185.9 85.5 184.7C84.7 183.5 83.1 179.4 82 175.7C80.9 172 79.2 168.4 78.4 167.8C71.7 162.4 70 159 70 150.6C69.9 145.5 68.9 144.1 62.3 140.5C56.6 137.3 56.9 136 63.4 136C67.2 136 67.2 136 66.5 128.6C66.2 124.6 65.1 117.7 64.2 113.4C63.1 108.2 62.7 103.6 63.1 99.9C63.7 93.9 70.9 71.3 74.2 64.5C78.4 56.1 84.3 52.2 94.3 51.5C97.7 51.2 105 50.6 110.5 50.1C116 49.6 122 49.4 123.9 49.7C125.8 50 132.4 49.7 138.4 49C148.7 47.8 150.5 47.9 162.8 50C177.7 52.5 186 52.1 186 49.1C186 48.2 186.6 46.8 187.3 46.1C188.3 45.1 188.1 44.5 186.3 43C184 41.2 184 41.2 186.6 40.6C194.8 38.5 205.5 47.1 212.7 61.5C216.5 69.2 219.8 79.5 218.7 80.6C218.4 80.9 218.8 83.4 219.6 86.2C220.4 89.4 220.6 91.9 220 93C218.9 95 219.2 97.3 220.8 99.2C221.4 100 221.7 101 221.3 101.3C221 101.7 221.4 102 222.3 102C223.4 102 223.7 102.5 223.4 103.5C223 104.6 223.2 104.8 224.3 104.5C225.4 104 225.9 105 226.4 108.4C227.1 113 227.1 113 232 113C235.4 113 237.5 113.6 239.1 115C241.5 117.1 241.5 117.1 239.2 115.8C237 114.6 236.6 114.8 233.9 118C232.2 119.9 230.4 122.4 229.9 123.5C229.1 125 229.4 124.9 230.8 123.1C232.5 120.9 233 120.8 236.2 121.9C240.5 123.3 242.5 125.4 244.5 130.6C245.8 134 246 134.1 245.6 131.5C245.4 129.9 244.3 126.1 243.1 123.3C242 120.4 241.2 118 241.4 118C242 118 247.2 128.3 248.1 131.2C249.4 135.8 247.3 152 244.5 159.6C241.6 167.5 237.9 170.8 228.6 174C223.3 175.8 223.2 175.8 222.7 173.9C222.4 172.8 222.6 170.5 223.1 168.7C223.7 166.9 224.3 161.9 224.5 157.5C225.2 143.9 222.8 137.7 221.5 149.8C221.2 152.9 220.2 157 219.4 158.8C218.7 160.6 218 163.9 218 166C218 170.7 215 182.2 213.6 183.2C212.9 183.6 213.3 185 214.7 186.8C216.8 189.7 216.8 189.7 214.5 193.8C213.2 196 212.4 198 212.6 198.3C212.8 198.5 212 199.5 210.8 200.6C209.6 201.6 208.9 202 209.3 201.4C209.6 200.8 209.4 199.5 208.6 198.5C207.4 196.9 207.2 196.9 205.2 199.5C203.9 201.1 202.6 201.9 201.9 201.4C201.2 201 200.1 201.4 199.4 202.4C198.7 203.4 197.1 204.3 195.8 204.5C194.5 204.6 192.8 205.1 192 205.4C190.7 205.9 190.5 205.3 190.8 202.2C191 200.1 190.4 195.7 189.5 192.5C188.6 189.2 187.8 185.7 187.9 184.7C187.9 183.7 186.1 181.8 184 180.4C180.1 177.8 178 177.9 178 180.5C178 181.2 177 183.5 175.8 185.4C173.4 189.2 171.5 189.4 164.8 186.8C163.3 186.2 161.4 186 160.5 186.4C158.3 187.2 158.6 185.9 161.5 182C164.1 178.4 164.9 171.9 163 169C162.4 168 162.3 168.7 162.7 171.4C163.3 175.2 163.2 175.3 160.9 174.6C156.8 173.3 154.8 173.8 151.6 176.8C146.8 181.3 144.5 182.2 140.2 181.1C138.2 180.6 135.3 179.9 133.8 179.6C132.4 179.3 129.8 177.8 128.1 176.4C126.4 175 124.6 174.1 124 174.5C122.5 175.4 122.8 172.1 124.6 167.3C126.4 162.6 126.4 162.4 123.6 161.8C121.1 161.4 119.8 165.8 121.1 170.3C121.6 172 122 175.2 122 177.4C122 180 122.8 182.4 124.5 184.6C125.9 186.4 127 188.1 127 188.4C127 189.5 121.1 192 118.6 192C117.2 192 115.8 192.5 115.5 193C115.2 193.6 113.2 194 111.1 194C105.4 194 103.8 196.4 104 204.2C104.3 214 104.2 214.3 99.1 211.7ZM97.5 183C97.8 182.5 97.6 182 97.1 182C96.5 182 96 182.5 96 183C96 183.6 96.2 184 96.4 184C96.7 184 97.2 183.6 97.5 183ZM116.5 149.9C120.9 149.3 125.8 148.8 127.4 148.8C130.3 148.7 130.3 148.7 129.6 132.1C129 118.3 128.6 115.3 127.2 114.2C125.9 113.1 122.8 113 113 113.5C106.1 113.9 99.8 114.6 98.8 115.1C97.9 115.6 95.5 116 93.5 116C88.7 116 85.2 118 81.2 122.9C76.6 128.7 75.9 131.3 76.7 140C77.5 147.5 77.5 147.5 81.5 148.1C83.7 148.4 87.1 149.5 89 150.4C92.7 152.2 99.8 152 116.5 149.9ZM159.1 141.6C158.1 140.4 159.6 140.2 169.1 140.1C183 139.9 188.2 138.7 192.3 134.5C194.1 132.7 197.1 130.8 199.1 130.1C201.1 129.5 203.7 127.9 205 126.5C207 124.3 207.1 124 205.7 122C204.5 120.3 204.4 119.2 205.2 117.5C207.3 112.8 199.9 104.3 191.7 101.9C188.2 100.9 171.9 102.3 160.1 104.7C154.5 105.8 150.8 107.1 148.9 108.7C146.1 111.1 146 111.4 146.1 120.3C146.2 133.6 146.5 134.2 152.2 138.9C157.2 142.9 161.6 144.7 159.1 141.6ZM232.1 138.3C232.9 136.1 232.7 135.3 230.3 132.8C227.8 130.2 227.5 130.1 226.8 131.7C225.7 134.6 225.9 135.6 228.1 138.4C230.6 141.6 230.8 141.6 232.1 138.3ZM204 63.3C204 61.4 203.4 58.7 202.6 57.2C200.9 54 194 47.1 194 48.7C194 49.3 194.6 50 195.4 50.3C196.2 50.6 197.3 53.7 198 58.2C199.6 68 199.6 67.9 201.9 67.3C203.5 66.9 204 66 204 63.3Z" fill="#C29178"/>
<path d="M104 133.5C104 133.2 104.2 133 104.5 133C104.8 133 105 133.2 105 133.5C105 133.8 104.8 134 104.5 134C104.2 134 104 133.8 104 133.5Z" fill="#C29178"/>
<path d="M151.5 133C151.2 132.5 151.1 132 151.4 132C151.6 132 152.5 131.7 153.4 131.4C154.5 131 155 131.3 155 132.4C155 134.2 152.5 134.6 151.5 133Z" fill="#C29178"/>
<path d="M188 206.5C188 206.2 188.2 206 188.5 206C188.8 206 189 206.2 189 206.5C189 206.8 188.8 207 188.5 207C188.2 207 188 206.8 188 206.5Z" fill="#C29178"/>
<path d="M123.3 202.3C121.4 201.6 121.8 199.8 123.8 200.1C124.7 200.3 126.4 199.9 127.5 199.3C128.6 198.8 133.3 198 138 197.6C142.7 197.3 148.1 196.5 150 195.9C155.4 194.2 179.7 194 181.1 195.6C181.9 196.6 181.9 197.1 180.9 197.4C175.4 199.2 167.3 200 153 200.5C143.9 200.7 134.3 201.4 131.5 201.9C125.9 203 125 203 123.3 202.3Z" fill="#C29178"/>
<path d="M73 191.5C73 191.2 73.2 191 73.5 191C73.8 191 74 191.2 74 191.5C74 191.8 73.8 192 73.5 192C73.2 192 73 191.8 73 191.5Z" fill="#C29178"/>
<path d="M66.8 183.3C58 174.4 54.8 167.5 54.2 156.4C53.8 148.2 53.8 148.2 56.4 148.7C58.1 149.1 59.8 148.6 61 147.5C62.8 145.9 63 145.9 65.9 148C69.3 150.4 69.8 152.1 67.5 154C66.1 155.1 66.1 155.5 67.4 156.9C68.7 158.3 71 166.7 72.4 174.5C72.6 176.2 73.2 178.3 73.6 179.4C74.3 181.1 74.1 181.1 71.9 179.7C70.6 178.9 68.2 177.9 66.6 177.6C64 177 63.8 177.1 64.9 178.4C65.6 179.2 67.2 180.2 68.3 180.6C71.4 181.5 76 186.1 76 188.2C76 191.4 73.6 190.1 66.8 183.3Z" fill="#C29178"/>
<path d="M242.3 169.7C242.7 168.7 243 167.4 243 166.9C243 166.4 243.5 166 244 166C245.6 166 245.2 168.6 243.3 170.1C241.8 171.3 241.7 171.3 242.3 169.7Z" fill="#C29178"/>
<path d="M60.1 97.4C60.1 96.3 60.4 96 60.7 96.8C61 97.5 60.9 98.4 60.6 98.7C60.3 99.1 60 98.5 60.1 97.4Z" fill="#C29178"/>
<path d="M224 98.5C224 98.2 224.2 98 224.5 98C224.8 98 225 98.2 225 98.5C225 98.8 224.8 99 224.5 99C224.2 99 224 98.8 224 98.5Z" fill="#C29178"/>
<path d="M184.3 44.3C184.7 44 185.3 44 185.7 44.3C186 44.7 185.7 45 185 45C184.3 45 184 44.7 184.3 44.3Z" fill="#C29178"/>
<path d="M182 43.5C182 43.2 182.2 43 182.5 43C182.8 43 183 43.2 183 43.5C183 43.8 182.8 44 182.5 44C182.2 44 182 43.8 182 43.5Z" fill="#C29178"/>
<path d="M8.2 511.5C8.2 509.9 8.4 509.3 8.7 510.3C8.9 511.2 8.9 512.6 8.7 513.3C8.4 513.9 8.2 513.2 8.2 511.5Z" fill="#B59A8C"/>
<path d="M124.2 378C124.2 376.6 124.4 376.1 124.7 376.8C124.9 377.4 124.9 378.6 124.7 379.3C124.4 379.9 124.2 379.4 124.2 378Z" fill="#B59A8C"/>
<path d="M125.1 373.4C125.1 372.3 125.4 372 125.7 372.8C126 373.5 125.9 374.4 125.6 374.7C125.3 375.1 125 374.5 125.1 373.4Z" fill="#B59A8C"/>
<path d="M134.3 370C134.3 367 134.5 365.7 134.7 367.3C134.9 368.8 134.9 371.2 134.7 372.8C134.5 374.3 134.3 373 134.3 370Z" fill="#B59A8C"/>
<path d="M127 368C127 367.3 127.3 367 127.7 367.3C128 367.7 128 368.3 127.7 368.7C127.3 369 127 368.7 127 368Z" fill="#B59A8C"/>
<path d="M129.6 362.4C128.7 360.2 128.9 358.1 130.1 353.6C131.6 348.3 132.6 350.4 132.2 357.9C131.8 363.8 130.8 365.6 129.6 362.4Z" fill="#B59A8C"/>
<path d="M135 360C135 359.3 135.3 359 135.7 359.3C136 359.7 136 360.3 135.7 360.7C135.3 361 135 360.7 135 360Z" fill="#B59A8C"/>
<path d="M134 353.5C134 352.7 134.5 352 135 352C135.6 352 136 352.7 136 353.5C136 354.3 135.6 355 135 355C134.5 355 134 354.3 134 353.5Z" fill="#B59A8C"/>
<path d="M226 174.5C226 174.2 226.2 174 226.5 174C226.8 174 227 174.2 227 174.5C227 174.8 226.8 175 226.5 175C226.2 175 226 174.8 226 174.5Z" fill="#B59A8C"/>
<path d="M242.7 168C243 166.9 243.6 166 244.1 166C244.6 166 245 166.9 245 168C245 169.1 244.4 170 243.6 170C242.7 170 242.4 169.3 242.7 168Z" fill="#B59A8C"/>
<path d="M241 166.5C241 166.2 241.2 166 241.5 166C241.8 166 242 166.2 242 166.5C242 166.8 241.8 167 241.5 167C241.2 167 241 166.8 241 166.5Z" fill="#B59A8C"/>
<path d="M242 164.5C242 164.2 242.2 164 242.5 164C242.8 164 243 164.2 243 164.5C243 164.8 242.8 165 242.5 165C242.2 165 242 164.8 242 164.5Z" fill="#B59A8C"/>
<path d="M216.9 131.9C213.5 128.2 212.8 124.2 214.1 117.9C215.2 112.8 215.2 112.8 217.7 117C220.3 121.4 222.1 133.2 220.4 134.3C219.9 134.5 218.3 133.5 216.9 131.9Z" fill="#B59A8C"/>
<path d="M224 124.5C224 124.2 224.2 124 224.5 124C224.8 124 225 124.2 225 124.5C225 124.8 224.8 125 224.5 125C224.2 125 224 124.8 224 124.5Z" fill="#B59A8C"/>
<path d="M228 114C228 113.3 228.3 113 228.7 113.3C229 113.7 229 114.3 228.7 114.7C228.3 115 228 114.7 228 114Z" fill="#B59A8C"/>
<path d="M224 111.6C224 110.8 224.3 109.4 224.6 108.5C225.1 107.2 225.4 107.1 226.1 108.2C227.5 110.3 227.1 113 225.5 113C224.7 113 224 112.4 224 111.6Z" fill="#B59A8C"/>
<path d="M197.8 100.4C196.2 99.6 195 98.7 195 98.4C195 98.1 195.5 98.2 196 98.5C196.9 99.1 197.4 97.7 197.1 95.8C196.8 93.7 200 95.3 200.6 97.5C201.5 101.2 200.8 102 197.8 100.4Z" fill="#B59A8C"/>
<path d="M74 74.7C74 70.7 78.6 59.2 79.7 60.4C79.9 60.6 79.5 62.2 78.6 63.8C76.5 67.9 75 74.9 76.1 75.6C77.6 76.5 77.1 79 75.5 79C74.4 79 74 77.9 74 74.7Z" fill="#B59A8C"/>
<path d="M196.6 69.9C195.7 67.7 195.2 65.5 195.4 65.2C195.7 64.8 195.4 62.2 194.8 59.5C193.8 54.6 190.9 50.5 189.5 51.8C189.1 52.2 189.3 51.4 190 50.1C190.6 48.9 191 46.9 190.7 45.9C189.8 42.4 195.4 43.5 200.1 47.7C206.3 53.3 208.5 59.1 207.3 66.5C206.9 69.2 206.2 70 203.9 70.5C202.3 70.9 201 71.5 201 72C201 72.4 200.4 73 199.6 73.3C198.6 73.7 197.6 72.6 196.6 69.9Z" fill="#B59A8C"/>
<path d="M130 358.5C130 358.2 130.2 358 130.5 358C130.8 358 131 358.2 131 358.5C131 358.8 130.8 359 130.5 359C130.2 359 130 358.8 130 358.5Z" fill="#9FB6B0"/>
<path d="M130.8 353.3C131.3 351.2 131.5 351 131.8 352.4C132 353.4 131.8 354.6 131.2 355.2C130.6 355.8 130.5 355.2 130.8 353.3Z" fill="#9FB6B0"/>
<path d="M276.6 224.6C275.6 222.2 274.4 221 273.1 221C272.1 221 271 220.5 270.8 219.9C270.6 219.2 269.2 219.4 266.8 220.6C263.6 222.1 262.5 222.2 259.2 221.2C257 220.5 254 220 252.4 220C250.8 220 248.6 219.3 247.6 218.5C244.7 216.3 242.6 216.6 237 220.1C232.5 222.9 231.9 223 230.4 221.6C229.6 220.7 228.5 220 228 220C227.5 220 226.9 219.1 226.5 218.1C226.2 217.1 225 216 224 215.7C220.8 214.9 221.4 209.5 224.9 205.9C226.5 204.3 227.4 203 226.8 203C226.2 203 226.5 202.1 227.5 201C228.5 199.9 229.9 199 230.7 199C232.2 199 232.3 198.4 232.4 186.1C232.5 179.5 232.9 176.5 233.8 176.2C234.5 176 235 176.7 235 177.9C235 179.1 236.7 181.9 238.9 184.3C241 186.6 243.7 190.1 244.9 192C247 195.5 247 195.5 247 191.3C247 188.9 245.8 183.6 244.4 179.4C242.8 174.4 242.1 170.8 242.5 168.9C242.9 167.3 243.3 166 243.4 166C246 166 260.5 170.7 264.3 172.7C270.9 176.3 280.4 185.1 283.7 190.8C286.3 195.2 286.3 195.2 284.6 208.6C283.6 215.9 282.5 223.2 282.1 224.7C281 228.9 278.4 228.8 276.6 224.6Z" fill="#9FB6B0"/>
<path d="M62 198.5C62 198.2 62.2 198 62.5 198C62.8 198 63 198.2 63 198.5C63 198.8 62.8 199 62.5 199C62.2 199 62 198.8 62 198.5Z" fill="#9FB6B0"/>
</g>
<defs>
<clipPath id="clip0_1_275">
<rect width="361" height="544" fill="white"/>
</clipPath>
</defs>
</svg>
